<?xml version="1.0" encoding="utf-8"?>
<!-- Generator: Adobe Illustrator 16.0.0, SVG Export Plug-In . SVG Version: 6.00 Build 0)  -->
<!DOCTYPE svg PUBLIC "-//W3C//DTD SVG 1.1//EN" "http://www.w3.org/Graphics/SVG/1.1/DTD/svg11.dtd">
<svg version="1.1" id="Layer_1" focusable="false" xmlns="http://www.w3.org/2000/svg" xmlns:xlink="http://www.w3.org/1999/xlink"
	 x="0px" y="0px" width="1000px" height="1920px" viewBox="0 0 1000 1920" enable-background="new 0 0 1000 1920"
	 xml:space="preserve">
<path fill="#333333" d="M951.953,1076.602l-83.203-48.047c8.398-45.313,8.398-91.797,0-137.109l83.203-48.047
	c9.57-5.469,13.867-16.797,10.742-27.344c-21.68-69.531-58.594-132.422-106.836-184.766c-7.422-8.008-19.531-9.961-28.906-4.492
	l-83.203,48.047c-34.961-30.078-75.195-53.32-118.75-68.555v-95.898c0-10.938-7.617-20.508-18.359-22.852
	c-71.68-16.016-145.117-15.234-213.281,0C382.617,489.883,375,499.453,375,510.391v96.094
	c-43.359,15.43-83.594,38.672-118.75,68.555l-83.008-48.047c-9.57-5.469-21.484-3.711-28.906,4.492
	C96.094,683.633,59.18,746.523,37.5,816.25c-3.32,10.547,1.172,21.875,10.742,27.344l83.203,48.047
	c-8.398,45.313-8.398,91.797,0,137.109l-83.203,48.047c-9.57,5.469-13.867,16.797-10.742,27.344
	c21.68,69.531,58.594,132.422,106.836,184.766c7.422,8.008,19.531,9.961,28.906,4.492l83.203-48.047
	c34.961,30.078,75.195,53.32,118.75,68.555V1410c0,10.938,7.617,20.508,18.359,22.852c71.68,16.016,145.117,15.234,213.281,0
	c10.742-2.344,18.359-11.914,18.359-22.852v-96.094c43.359-15.43,83.594-38.672,118.75-68.555l83.203,48.047
	c9.57,5.469,21.484,3.711,28.906-4.492c48.242-52.148,85.156-115.039,106.836-184.766
	C965.821,1093.398,961.524,1082.07,951.953,1076.602z M500,1116.25c-86.133,0-156.25-70.117-156.25-156.25
	S413.867,803.75,500,803.75S656.25,873.867,656.25,960S586.133,1116.25,500,1116.25z"/>
</svg>
