<?xml version="1.0" encoding="utf-8"?>
<!-- Generator: Adobe Illustrator 25.2.2, SVG Export Plug-In . SVG Version: 6.00 Build 0)  -->
<svg version="1.1" id="레이어_1" xmlns="http://www.w3.org/2000/svg" xmlns:xlink="http://www.w3.org/1999/xlink" x="0px"
	 y="0px" viewBox="0 0 123.7 168.9" style="enable-background:new 0 0 123.7 168.9;" xml:space="preserve">
<style type="text/css">
	.st0{fill:#D7D7D7;}
	.st1{fill:#4FE179;}
	.st2{fill:#FFFFFF;}
	.st3{fill:#4953D3;}
	.st4{fill:#3BBCFD;}
</style>
<g>
	<g>
		<g>
			
				<rect x="46.1" y="118.9" transform="matrix(6.703938e-03 -1 1 6.703938e-03 -59.7436 181.4303)" class="st0" width="30.8" height="3.8"/>
			<g>
				
					<rect x="68" y="124.7" transform="matrix(0.2131 -0.977 0.977 0.2131 -58.0644 181.0889)" class="st0" width="30.9" height="3.8"/>
				<rect x="37.6" y="110.9" transform="matrix(0.9798 -0.2 0.2 0.9798 -24.4621 10.4406)" class="st0" width="3.8" height="30.9"/>
			</g>
		</g>
		<g>
			<path class="st1" d="M0,61.4c-0.2,34.2,27.3,62,61.4,62.3c34.2,0.2,62-27.3,62.3-61.4c0.2-34.2-27.3-62-61.4-62.3
				C28.1-0.2,0.2,27.3,0,61.4z"/>
			<path class="st2" d="M19.8,61.6c-0.2,34.1,18.4,61.9,41.6,62.1c23.2,0.2,42.2-27.4,42.5-61.5C104.1,28,85.5,0.2,62.3,0.1
				C39-0.1,20,27.5,19.8,61.6z"/>
			<path class="st1" d="M46.4,61.8c-0.2,34.1,6.5,61.9,15.1,61.9C70,123.7,77.1,96.1,77.3,62c0.2-34.1-6.5-61.9-15.1-61.9
				C53.7,0,46.6,27.6,46.4,61.8z"/>
		</g>
		<g>
			
				<rect x="55.7" y="112.6" transform="matrix(6.679417e-03 -1 1 6.679417e-03 -80.9245 202.1947)" class="st3" width="11.3" height="58.5"/>
			<polygon class="st3" points="38.4,168.6 83.8,168.9 86.8,147.6 35.7,147.3 			"/>
			<polygon class="st4" points="36.4,152.5 35.7,147.3 86.8,147.6 86.1,152.8 			"/>
		</g>
	</g>
</g>
</svg>
