<?xml version="1.0" encoding="utf-8"?>
<!-- Generator: Adobe Illustrator 25.2.2, SVG Export Plug-In . SVG Version: 6.00 Build 0)  -->
<svg version="1.1" id="레이어_1" xmlns="http://www.w3.org/2000/svg" xmlns:xlink="http://www.w3.org/1999/xlink" x="0px"
	 y="0px" viewBox="0 0 179.1 124.6" style="enable-background:new 0 0 179.1 124.6;" xml:space="preserve">
<style type="text/css">
	.st0{fill:#6E8CFD;}
	.st1{fill:#3BBCFD;}
</style>
<g>
	<path class="st0" d="M64.2,107.2c-0.4,0-0.8,0-1.3,0.1c-2-3.9-6-6.7-10.7-6.7c-0.1,0-0.3,0-0.4,0c-1.9-9-9.9-15.7-19.4-15.7
		c-9.5,0-17.5,6.7-19.4,15.7c-0.3,0-0.7,0-1,0c-6.6,0-12,5.4-12,12s5.4,12,12,12h52.2c4.8,0,8.7-3.9,8.7-8.7
		C72.9,111.1,69,107.2,64.2,107.2z"/>
	<path class="st1" d="M165,36c-0.7,0-1.4,0.1-2,0.1c-3.2-6.4-9.8-10.8-17.4-10.8c-0.2,0-0.5,0-0.7,0C141.9,10.9,129,0,113.6,0
		C98.1,0,85.3,10.9,82.2,25.4c-0.5,0-1.1-0.1-1.6-0.1c-10.7,0-19.4,8.7-19.4,19.4c0,10.7,8.7,19.4,19.4,19.4H165
		c7.8,0,14.1-6.3,14.1-14.1C179.1,42.3,172.8,36,165,36z"/>
</g>
</svg>
