<?xml version="1.0" encoding="utf-8"?>
<!-- Generator: Adobe Illustrator 25.2.2, SVG Export Plug-In . SVG Version: 6.00 Build 0)  -->
<svg version="1.1" id="레이어_1" xmlns="http://www.w3.org/2000/svg" xmlns:xlink="http://www.w3.org/1999/xlink" x="0px"
	 y="0px" viewBox="0 0 66.1 36" style="enable-background:new 0 0 66.1 36;" xml:space="preserve">
<style type="text/css">
	.st0{fill:#3BBCFD;}
</style>
<path class="st0" d="M58.2,20.2c-0.4,0-0.8,0-1.1,0.1c-1.8-3.6-5.5-6-9.7-6c-0.1,0-0.3,0-0.4,0C45.2,6.1,38,0,29.4,0
	c-8.7,0-15.9,6.1-17.6,14.3c-0.3,0-0.6,0-0.9,0C4.9,14.2,0,19.1,0,25.1C0,31.1,4.9,36,10.9,36h47.4c4.4,0,7.9-3.5,7.9-7.9
	C66.1,23.7,62.6,20.2,58.2,20.2z"/>
</svg>
