<?xml version="1.0" encoding="utf-8"?>
<!-- Generator: Adobe Illustrator 25.2.2, SVG Export Plug-In . SVG Version: 6.00 Build 0)  -->
<svg version="1.1" id="레이어_1" xmlns="http://www.w3.org/2000/svg" xmlns:xlink="http://www.w3.org/1999/xlink" x="0px"
	 y="0px" viewBox="0 0 2228.5 276.9" style="enable-background:new 0 0 2228.5 276.9;" xml:space="preserve">
<style type="text/css">
	.st0{fill:#4FE179;}
	.st1{fill-rule:evenodd;clip-rule:evenodd;fill:#FFFFFF;}
	.st2{fill:#1984FD;}
	.st3{fill:#4953D3;}
	.st4{fill:#3BBCFD;}
</style>
<g>
	<g>
		<path class="st0" d="M681.3,346.2L681.3,346.2c0-95.6-77.5-173.1-173.1-173.1h0c-95.6,0-173.1,77.5-173.1,173.1v0H681.3z"/>
		<path class="st0" d="M335.2,346.2L335.2,346.2c0-95.6-77.5-173.1-173.1-173.1h0C66.5,173.1-11,250.6-11,346.2v0H335.2z"/>
		<g>
			<path class="st1" d="M338.3,333.8c1.5,0.1,2.7,1.4,2.6,2.9c-0.1,1.5-1.3,2.7-2.9,2.6c-1.5-0.1-2.8-1.4-2.7-2.9
				C335.4,334.9,336.8,333.7,338.3,333.8z"/>
			<path class="st1" d="M340,319c1.5,0.2,2.5,1.6,2.3,3.1c-0.2,1.5-1.6,2.6-3.1,2.4c-1.5-0.2-2.6-1.6-2.4-3.2
				C337,319.9,338.4,318.8,340,319z"/>
			<path class="st1" d="M342.9,304.5c1.5,0.4,2.4,1.9,2.1,3.3c-0.3,1.5-1.8,2.4-3.3,2.1c-1.5-0.3-2.4-1.8-2.1-3.3
				C340,305,341.5,304.1,342.9,304.5z"/>
			<path class="st1" d="M347.2,290.2c1.4,0.5,2.2,2.1,1.7,3.5c-0.5,1.4-2.1,2.2-3.5,1.8c-1.5-0.5-2.2-2-1.7-3.5
				C344.2,290.5,345.8,289.7,347.2,290.2z"/>
			<path class="st1" d="M352.7,276.4c1.4,0.6,2,2.3,1.4,3.6c-0.6,1.4-2.2,2.1-3.6,1.5c-1.4-0.6-2.1-2.2-1.5-3.7
				C349.7,276.4,351.3,275.8,352.7,276.4z"/>
			<path class="st1" d="M359.4,263.1c1.3,0.8,1.8,2.4,1.1,3.7c-0.7,1.3-2.4,1.9-3.7,1.2c-1.4-0.7-1.9-2.4-1.2-3.8
				C356.3,262.9,358.1,262.4,359.4,263.1z"/>
			<path class="st1" d="M367.2,250.5c1.2,0.9,1.6,2.6,0.8,3.9c-0.8,1.3-2.5,1.6-3.8,0.8c-1.3-0.8-1.7-2.5-0.8-3.9
				C364.2,250,365.9,249.6,367.2,250.5z"/>
			<path class="st1" d="M376.1,238.6c1.2,1,1.4,2.7,0.5,3.9c-0.9,1.2-2.7,1.4-3.9,0.5c-1.2-0.9-1.4-2.7-0.5-3.9
				C373.1,237.8,374.9,237.6,376.1,238.6z"/>
			<path class="st1" d="M386,227.5c1.1,1.1,1.1,2.8,0.1,3.9c-1,1.1-2.8,1.1-3.9,0.1c-1.1-1-1.2-2.8-0.1-3.9
				C383.1,226.4,384.9,226.4,386,227.5z"/>
			<path class="st1" d="M396.8,217.3c1,1.2,0.9,2.9-0.3,3.9c-1.2,1-2.9,0.9-3.9-0.2c-1-1.1-1-2.9,0.2-3.9
				C394,216,395.8,216.1,396.8,217.3z"/>
			<path class="st1" d="M408.4,208c0.9,1.2,0.6,3-0.6,3.8c-1.2,0.9-2.9,0.7-3.9-0.5c-0.9-1.2-0.7-3,0.5-3.9
				C405.8,206.5,407.5,206.8,408.4,208z"/>
			<path class="st1" d="M420.8,199.8c0.8,1.3,0.3,3-0.9,3.8c-1.3,0.8-3,0.4-3.8-0.9c-0.8-1.3-0.4-3,0.9-3.9
				C418.3,198.1,420.1,198.5,420.8,199.8z"/>
			<path class="st1" d="M433.9,192.7c0.7,1.4,0.1,3.1-1.2,3.7c-1.3,0.7-3,0.1-3.7-1.2c-0.7-1.3-0.2-3,1.2-3.7
				C431.6,190.8,433.2,191.4,433.9,192.7z"/>
			<path class="st1" d="M447.6,186.9c0.5,1.4-0.2,3-1.6,3.6c-1.4,0.6-3-0.1-3.6-1.5c-0.6-1.4,0.1-3,1.6-3.6
				C445.4,184.7,447,185.4,447.6,186.9z"/>
			<path class="st1" d="M461.7,182.2c0.4,1.5-0.4,3-1.9,3.4c-1.5,0.4-3-0.4-3.5-1.8c-0.5-1.4,0.3-3.1,1.9-3.5
				C459.7,179.9,461.3,180.7,461.7,182.2z"/>
			<path class="st1" d="M476.2,178.8c0.3,1.5-0.7,2.9-2.2,3.2c-1.5,0.3-2.9-0.6-3.3-2.1c-0.3-1.5,0.6-3,2.2-3.3
				C474.4,176.2,475.9,177.3,476.2,178.8z"/>
			<path class="st1" d="M490.9,176.6c0.1,1.5-0.9,2.9-2.4,3.1c-1.5,0.2-2.9-0.9-3.1-2.4c-0.2-1.5,0.9-2.9,2.4-3.1
				C489.3,174,490.7,175.1,490.9,176.6z"/>
			<path class="st1" d="M505.7,175.8c0,1.5-1.2,2.8-2.7,2.8c-1.5,0-2.8-1.2-2.9-2.7c-0.1-1.5,1.1-2.8,2.7-2.8
				C504.4,173,505.7,174.2,505.7,175.8z"/>
			<path class="st1" d="M520.6,176.2c-0.1,1.5-1.4,2.7-2.9,2.6c-1.5-0.1-2.7-1.3-2.6-2.9c0.1-1.5,1.4-2.8,2.9-2.7
				C519.5,173.3,520.7,174.7,520.6,176.2z"/>
			<path class="st1" d="M535.3,177.9c-0.2,1.5-1.6,2.5-3.1,2.3c-1.5-0.2-2.6-1.6-2.4-3.1c0.2-1.5,1.6-2.6,3.2-2.4
				C534.5,174.9,535.6,176.4,535.3,177.9z"/>
			<path class="st1" d="M549.9,180.9c-0.4,1.5-1.9,2.4-3.3,2.1c-1.5-0.3-2.4-1.8-2.1-3.3c0.3-1.5,1.8-2.4,3.3-2.1
				C549.4,177.9,550.3,179.4,549.9,180.9z"/>
			<path class="st1" d="M564.1,185.1c-0.5,1.4-2.1,2.2-3.5,1.7c-1.4-0.5-2.2-2.1-1.8-3.5c0.4-1.5,2-2.2,3.5-1.7
				C563.9,182.1,564.7,183.7,564.1,185.1z"/>
			<path class="st1" d="M578,190.6c-0.6,1.4-2.3,2-3.6,1.4c-1.4-0.6-2.1-2.2-1.5-3.6c0.6-1.4,2.2-2.1,3.7-1.5
				C577.9,187.6,578.6,189.2,578,190.6z"/>
			<path class="st1" d="M591.3,197.3c-0.8,1.3-2.4,1.8-3.7,1.1c-1.3-0.7-1.9-2.4-1.2-3.7c0.7-1.4,2.4-1.9,3.8-1.2
				C591.5,194.2,592,196,591.3,197.3z"/>
			<path class="st1" d="M603.9,205.1c-0.9,1.2-2.6,1.6-3.9,0.8c-1.3-0.8-1.6-2.5-0.8-3.8c0.8-1.3,2.5-1.7,3.9-0.8
				C604.4,202.1,604.8,203.8,603.9,205.1z"/>
			<path class="st1" d="M615.8,214c-1,1.2-2.7,1.4-3.9,0.5c-1.2-0.9-1.4-2.7-0.5-3.9c0.9-1.2,2.7-1.4,3.9-0.5
				C616.6,211.1,616.8,212.8,615.8,214z"/>
			<path class="st1" d="M626.9,223.9c-1.1,1.1-2.8,1.1-3.9,0.1c-1.1-1-1.1-2.8-0.1-3.9c1-1.1,2.8-1.2,3.9-0.1
				C627.9,221,628,222.8,626.9,223.9z"/>
			<path class="st1" d="M637.1,234.7c-1.2,1-2.9,0.9-3.9-0.3c-1-1.2-0.9-2.9,0.2-3.9c1.1-1,2.9-1,3.9,0.2
				C638.4,231.9,638.3,233.7,637.1,234.7z"/>
			<path class="st1" d="M646.4,246.4c-1.2,0.9-3,0.6-3.8-0.6c-0.9-1.2-0.7-2.9,0.5-3.9c1.2-0.9,3-0.7,3.9,0.5
				C647.9,243.7,647.6,245.5,646.4,246.4z"/>
			<path class="st1" d="M654.6,258.8c-1.3,0.8-3,0.3-3.8-0.9c-0.8-1.3-0.4-3,0.8-3.8c1.3-0.8,3-0.4,3.9,0.9
				C656.3,256.2,655.9,258,654.6,258.8z"/>
			<path class="st1" d="M661.6,271.8c-1.4,0.7-3.1,0.1-3.7-1.2c-0.7-1.3-0.1-3,1.2-3.7c1.3-0.7,3-0.2,3.7,1.2
				C663.6,269.5,663,271.2,661.6,271.8z"/>
			<path class="st1" d="M667.5,285.5c-1.4,0.5-3-0.2-3.6-1.6c-0.6-1.4,0.1-3,1.5-3.6c1.4-0.6,3,0.1,3.6,1.6
				C669.6,283.3,669,285,667.5,285.5z"/>
			<path class="st1" d="M672.2,299.6c-1.5,0.4-3-0.4-3.4-1.9c-0.4-1.5,0.4-3,1.8-3.5c1.4-0.5,3.1,0.3,3.5,1.9
				C674.5,297.6,673.7,299.2,672.2,299.6z"/>
			<path class="st1" d="M675.6,314.1c-1.5,0.3-2.9-0.7-3.2-2.2c-0.3-1.5,0.6-2.9,2.1-3.3c1.5-0.3,3,0.6,3.3,2.2
				C678.1,312.3,677.1,313.8,675.6,314.1z"/>
			<path class="st1" d="M677.8,328.8c-1.5,0.1-2.9-0.9-3.1-2.4c-0.2-1.5,0.9-2.9,2.4-3.1c1.5-0.2,2.9,0.9,3.1,2.4
				C680.4,327.2,679.3,328.6,677.8,328.8z"/>
			<path class="st1" d="M678.6,343.6c-1.5,0-2.8-1.2-2.8-2.7c0-1.5,1.2-2.8,2.7-2.9c1.5-0.1,2.8,1.1,2.8,2.7
				C681.3,342.3,680.1,343.6,678.6,343.6z"/>
			<path class="st1" d="M353.4,333.9c1.5,0.1,2.7,1.4,2.6,2.9c-0.1,1.5-1.4,2.7-2.9,2.6c-1.5-0.1-2.8-1.4-2.6-2.9
				C350.6,334.9,351.9,333.8,353.4,333.9z"/>
			<path class="st1" d="M355.3,319.2c1.5,0.3,2.5,1.7,2.2,3.2c-0.2,1.5-1.6,2.5-3.1,2.3c-1.5-0.2-2.6-1.6-2.4-3.2
				C352.3,320,353.8,319,355.3,319.2z"/>
			<path class="st1" d="M358.5,304.8c1.5,0.4,2.3,1.9,1.9,3.4c-0.3,1.5-1.8,2.4-3.3,2c-1.5-0.3-2.4-1.9-2.1-3.4
				C355.5,305.3,357,304.4,358.5,304.8z"/>
			<path class="st1" d="M363.1,290.8c1.4,0.6,2.1,2.1,1.6,3.5c-0.5,1.4-2,2.2-3.5,1.7c-1.4-0.5-2.2-2.1-1.7-3.6
				C360,290.9,361.7,290.2,363.1,290.8z"/>
			<path class="st1" d="M369,277.2c1.4,0.7,1.9,2.3,1.3,3.7c-0.6,1.4-2.3,2-3.6,1.3c-1.4-0.6-2-2.3-1.4-3.7
				C365.9,277.1,367.7,276.5,369,277.2z"/>
			<path class="st1" d="M376.2,264.3c1.3,0.8,1.7,2.5,0.9,3.8c-0.7,1.3-2.4,1.7-3.8,1c-1.3-0.8-1.8-2.5-1-3.8
				C373.1,263.9,374.9,263.5,376.2,264.3z"/>
			<path class="st1" d="M384.6,252.1c1.2,0.9,1.4,2.6,0.6,3.9c-0.9,1.2-2.6,1.5-3.8,0.6c-1.2-0.9-1.5-2.6-0.6-3.9
				C381.6,251.4,383.4,251.2,384.6,252.1z"/>
			<path class="st1" d="M394.1,240.8c1.1,1,1.2,2.7,0.2,3.9c-1,1.1-2.7,1.2-3.9,0.3c-1.2-1-1.3-2.8-0.3-3.9
				C391.2,239.8,393,239.8,394.1,240.8z"/>
			<path class="st1" d="M404.6,230.4c1,1.1,0.9,2.9-0.2,3.9c-1.1,1-2.8,1-3.9-0.1c-1.1-1.1-1-2.9,0.1-3.9
				C401.8,229.2,403.6,229.3,404.6,230.4z"/>
			<path class="st1" d="M416.1,221.1c0.9,1.2,0.6,2.9-0.5,3.9c-1.2,0.9-2.9,0.7-3.9-0.5c-1-1.2-0.7-2.9,0.5-3.9
				C413.4,219.6,415.2,219.9,416.1,221.1z"/>
			<path class="st1" d="M428.4,212.9c0.8,1.3,0.4,3-0.9,3.8c-1.3,0.8-3,0.4-3.8-0.9c-0.8-1.3-0.5-3,0.9-3.8
				C425.9,211.1,427.6,211.6,428.4,212.9z"/>
			<path class="st1" d="M441.4,205.9c0.6,1.4,0.1,3-1.2,3.7c-1.3,0.7-3,0.1-3.7-1.2c-0.7-1.4-0.2-3,1.2-3.7
				C439.1,203.9,440.8,204.5,441.4,205.9z"/>
			<path class="st1" d="M455,200.2c0.5,1.4-0.2,3-1.6,3.6c-1.4,0.5-3-0.2-3.6-1.6c-0.6-1.4,0.1-3,1.6-3.6
				C452.9,198,454.5,198.7,455,200.2z"/>
			<path class="st1" d="M469.2,195.8c0.4,1.5-0.5,3-1.9,3.4c-1.4,0.4-3-0.4-3.4-1.9c-0.4-1.5,0.4-3,1.9-3.4
				C467.3,193.4,468.8,194.3,469.2,195.8z"/>
			<path class="st1" d="M483.6,192.8c0.2,1.5-0.8,3-2.2,3.2c-1.5,0.3-2.9-0.7-3.2-2.2c-0.3-1.5,0.7-2.9,2.2-3.2
				C482,190.3,483.4,191.3,483.6,192.8z"/>
			<path class="st1" d="M498.3,191.2c0.1,1.5-1,2.9-2.5,3c-1.5,0.1-2.8-1-3-2.6c-0.2-1.5,1-2.8,2.5-3
				C496.9,188.5,498.2,189.6,498.3,191.2z"/>
			<path class="st1" d="M513.1,190.9c-0.1,1.5-1.3,2.7-2.8,2.7c-1.5-0.1-2.7-1.3-2.7-2.8c0-1.5,1.2-2.8,2.8-2.7
				C511.9,188.1,513.2,189.4,513.1,190.9z"/>
			<path class="st1" d="M527.8,192.1c-0.2,1.5-1.6,2.6-3,2.4c-1.5-0.2-2.6-1.5-2.5-3c0.1-1.5,1.5-2.7,3.1-2.5
				C526.9,189.2,528,190.6,527.8,192.1z"/>
			<path class="st1" d="M542.4,194.6c-0.3,1.5-1.8,2.4-3.3,2.1c-1.5-0.3-2.4-1.7-2.2-3.2c0.3-1.5,1.7-2.5,3.3-2.2
				C541.8,191.6,542.7,193.1,542.4,194.6z"/>
			<path class="st1" d="M556.7,198.6c-0.5,1.5-2,2.2-3.4,1.8c-1.4-0.4-2.3-1.9-1.9-3.4c0.4-1.5,2-2.3,3.5-1.9
				C556.3,195.5,557.1,197.1,556.7,198.6z"/>
			<path class="st1" d="M570.5,203.8c-0.6,1.4-2.2,2-3.6,1.5c-1.4-0.5-2.1-2.2-1.5-3.6c0.6-1.4,2.2-2.1,3.6-1.5
				C570.4,200.7,571.1,202.4,570.5,203.8z"/>
			<path class="st1" d="M583.7,210.4c-0.8,1.4-2.4,1.8-3.7,1.1c-1.3-0.7-1.9-2.3-1.2-3.7c0.7-1.4,2.4-1.9,3.8-1.2
				C584,207.3,584.5,209.1,583.7,210.4z"/>
			<path class="st1" d="M596.3,218.2c-0.9,1.3-2.5,1.5-3.8,0.8c-1.3-0.8-1.6-2.5-0.8-3.8c0.8-1.3,2.5-1.7,3.9-0.8
				C596.8,215.2,597.1,216.9,596.3,218.2z"/>
			<path class="st1" d="M608,227.1c-1,1.2-2.7,1.3-3.9,0.4c-1.2-0.9-1.4-2.7-0.4-3.9c0.9-1.2,2.7-1.4,3.9-0.4
				C608.9,224.2,609,226,608,227.1z"/>
			<path class="st1" d="M618.9,237.2c-1.1,1.1-2.8,1-3.9,0c-1.1-1-1.1-2.8-0.1-3.9c1-1.1,2.8-1.1,3.9-0.1
				C620,234.3,620,236.1,618.9,237.2z"/>
			<path class="st1" d="M628.8,248.2c-1.2,1-2.9,0.8-3.9-0.3c-1-1.1-0.8-2.9,0.3-3.9c1.1-1,2.9-0.9,3.9,0.3
				C630.1,245.4,629.9,247.2,628.8,248.2z"/>
			<path class="st1" d="M637.5,260.1c-1.3,0.8-3,0.5-3.8-0.7c-0.9-1.2-0.6-2.9,0.7-3.8c1.2-0.9,3-0.6,3.9,0.7
				C639.2,257.5,638.8,259.2,637.5,260.1z"/>
			<path class="st1" d="M645.1,272.7c-1.3,0.7-3,0.2-3.8-1.1c-0.7-1.3-0.3-3,1-3.8c1.3-0.8,3-0.3,3.8,1
				C647,270.3,646.5,272,645.1,272.7z"/>
			<path class="st1" d="M651.5,286.1c-1.4,0.6-3-0.1-3.7-1.4c-0.6-1.4,0-3,1.4-3.6c1.4-0.6,3,0,3.7,1.4
				C653.6,283.9,652.9,285.5,651.5,286.1z"/>
			<path class="st1" d="M656.6,300c-1.5,0.4-3-0.3-3.5-1.8c-0.5-1.4,0.3-3,1.7-3.5c1.4-0.5,3,0.3,3.5,1.8
				C658.8,298,658.1,299.5,656.6,300z"/>
			<path class="st1" d="M660.3,314.3c-1.5,0.3-3-0.6-3.3-2.1c-0.3-1.5,0.6-2.9,2.1-3.3c1.5-0.4,3,0.6,3.3,2.1
				C662.7,312.5,661.8,314,660.3,314.3z"/>
			<path class="st1" d="M662.6,328.9c-1.5,0.2-2.9-0.9-3.1-2.4c-0.2-1.5,0.9-2.9,2.4-3.1c1.5-0.2,2.9,0.8,3.1,2.4
				C665.2,327.3,664.1,328.7,662.6,328.9z"/>
			<path class="st1" d="M663.5,343.6c-1.5,0-2.8-1.2-2.8-2.7c0-1.5,1.2-2.8,2.7-2.9c1.5-0.1,2.8,1.1,2.8,2.7
				C666.2,342.3,665,343.6,663.5,343.6z"/>
			<path class="st1" d="M368.6,334c1.5,0.1,2.7,1.4,2.6,2.9c-0.1,1.5-1.4,2.6-2.9,2.6c-1.5-0.1-2.7-1.4-2.6-2.9
				C365.7,335,367,333.8,368.6,334z"/>
			<path class="st1" d="M370.6,319.4c1.5,0.3,2.5,1.7,2.2,3.2c-0.3,1.5-1.7,2.5-3.2,2.2c-1.5-0.2-2.5-1.6-2.2-3.2
				C367.6,320.1,369.1,319.1,370.6,319.4z"/>
			<path class="st1" d="M374.1,305.2c1.5,0.5,2.3,2,1.9,3.4c-0.4,1.4-1.9,2.3-3.4,1.9c-1.5-0.4-2.3-1.9-1.9-3.4
				C371.1,305.6,372.6,304.7,374.1,305.2z"/>
			<path class="st1" d="M379.1,291.4c1.4,0.6,2.1,2.2,1.6,3.6c-0.5,1.4-2.1,2.1-3.6,1.5c-1.4-0.5-2.1-2.1-1.6-3.6
				C376.1,291.5,377.7,290.8,379.1,291.4z"/>
			<path class="st1" d="M385.6,278.2c1.3,0.7,1.8,2.4,1.1,3.7c-0.7,1.3-2.3,1.8-3.7,1.2c-1.4-0.7-1.9-2.4-1.2-3.7
				C382.5,277.9,384.2,277.5,385.6,278.2z"/>
			<path class="st1" d="M393.4,265.8c1.3,0.9,1.6,2.6,0.7,3.8c-0.8,1.3-2.5,1.6-3.8,0.8c-1.3-0.8-1.7-2.6-0.8-3.9
				C390.3,265.2,392.1,264.9,393.4,265.8z"/>
			<path class="st1" d="M402.4,254.2c1.1,1,1.3,2.7,0.3,3.9c-1,1.1-2.7,1.3-3.9,0.4c-1.2-0.9-1.4-2.7-0.4-3.9
				C399.5,253.3,401.2,253.2,402.4,254.2z"/>
			<path class="st1" d="M412.6,243.6c1,1.1,1,2.9-0.1,3.9c-1.1,1-2.8,1-3.9-0.1c-1.1-1.1-1.1-2.8,0-3.9
				C409.8,242.5,411.5,242.5,412.6,243.6z"/>
			<path class="st1" d="M423.8,234.2c0.9,1.2,0.7,3-0.5,3.9c-1.2,0.9-2.9,0.7-3.9-0.5c-1-1.2-0.8-2.9,0.5-3.9
				C421.2,232.8,422.9,233,423.8,234.2z"/>
			<path class="st1" d="M436,226c0.8,1.3,0.4,3-0.9,3.8c-1.2,0.8-2.9,0.4-3.8-0.9c-0.8-1.3-0.5-3,0.8-3.8
				C433.5,224.2,435.2,224.6,436,226z"/>
			<path class="st1" d="M448.9,219.1c0.7,1.4,0,3-1.3,3.7c-1.3,0.7-3,0.1-3.7-1.2c-0.7-1.4-0.2-3,1.2-3.7
				C446.6,217,448.3,217.7,448.9,219.1z"/>
			<path class="st1" d="M462.5,213.6c0.5,1.4-0.2,3-1.7,3.5c-1.4,0.5-3-0.2-3.5-1.6c-0.6-1.4,0.2-3,1.6-3.6
				C460.4,211.4,462,212.1,462.5,213.6z"/>
			<path class="st1" d="M476.6,209.5c0.3,1.5-0.6,3-2,3.3c-1.4,0.3-2.9-0.5-3.3-2c-0.4-1.5,0.5-3,2-3.4
				C474.8,207.1,476.3,208,476.6,209.5z"/>
			<path class="st1" d="M491.1,207c0.2,1.5-0.9,2.9-2.3,3.1c-1.5,0.2-2.9-0.8-3.1-2.3c-0.2-1.5,0.8-3,2.3-3.2
				C489.5,204.4,490.9,205.5,491.1,207z"/>
			<path class="st1" d="M505.7,206c0,1.5-1.2,2.8-2.6,2.8c-1.5,0-2.8-1.1-2.8-2.7c-0.1-1.5,1.1-2.9,2.6-2.9
				C504.4,203.2,505.7,204.5,505.7,206z"/>
			<path class="st1" d="M520.4,206.5c-0.1,1.5-1.4,2.7-2.9,2.6c-1.5-0.1-2.6-1.4-2.6-2.9c0.1-1.5,1.4-2.7,2.9-2.6
				C519.4,203.6,520.5,205,520.4,206.5z"/>
			<path class="st1" d="M534.9,208.5c-0.3,1.5-1.7,2.5-3.2,2.2c-1.5-0.3-2.5-1.7-2.2-3.2c0.2-1.5,1.7-2.5,3.2-2.2
				C534.2,205.6,535.2,207,534.9,208.5z"/>
			<path class="st1" d="M549.2,212c-0.5,1.5-2,2.3-3.4,1.9c-1.4-0.4-2.3-1.9-1.9-3.4c0.4-1.5,1.9-2.3,3.4-1.9
				C548.8,209,549.6,210.6,549.2,212z"/>
			<path class="st1" d="M563,217c-0.6,1.4-2.2,2.1-3.6,1.6c-1.4-0.5-2.1-2.1-1.5-3.6c0.5-1.4,2.1-2.1,3.6-1.6
				C562.9,214,563.6,215.6,563,217z"/>
			<path class="st1" d="M576.2,223.5c-0.7,1.3-2.4,1.8-3.7,1.1c-1.3-0.7-1.8-2.3-1.2-3.7c0.7-1.4,2.4-1.9,3.7-1.2
				C576.4,220.4,576.9,222.2,576.2,223.5z"/>
			<path class="st1" d="M588.6,231.3c-0.9,1.3-2.6,1.6-3.8,0.7c-1.3-0.8-1.6-2.5-0.8-3.8c0.8-1.3,2.6-1.7,3.9-0.8
				C589.2,228.3,589.5,230,588.6,231.3z"/>
			<path class="st1" d="M600.2,240.3c-1,1.1-2.7,1.3-3.9,0.3c-1.1-1-1.3-2.6-0.4-3.9c0.9-1.2,2.7-1.4,3.9-0.4
				C601,237.4,601.2,239.2,600.2,240.3z"/>
			<path class="st1" d="M610.7,250.5c-1.1,1-2.9,1-3.9-0.1c-1-1.1-1-2.8,0.1-3.9c1.1-1.1,2.8-1.1,3.9,0
				C611.9,247.7,611.9,249.5,610.7,250.5z"/>
			<path class="st1" d="M620.2,261.7c-1.2,0.9-3,0.7-3.9-0.5c-0.9-1.2-0.7-2.9,0.5-3.9c1.2-1,2.9-0.8,3.9,0.5
				C621.6,259.1,621.4,260.8,620.2,261.7z"/>
			<path class="st1" d="M628.4,273.9c-1.3,0.8-3,0.4-3.8-0.9c-0.8-1.2-0.4-2.9,0.9-3.8c1.3-0.8,3-0.5,3.8,0.8
				C630.1,271.4,629.7,273.1,628.4,273.9z"/>
			<path class="st1" d="M635.3,286.8c-1.4,0.7-3,0-3.7-1.3c-0.7-1.3-0.1-3,1.2-3.7c1.4-0.7,3-0.2,3.7,1.2
				C637.3,284.5,636.7,286.2,635.3,286.8z"/>
			<path class="st1" d="M640.8,300.5c-1.4,0.5-3-0.2-3.5-1.7c-0.5-1.4,0.2-3,1.6-3.5c1.4-0.6,3,0.2,3.6,1.6
				C643,298.4,642.3,300,640.8,300.5z"/>
			<path class="st1" d="M644.8,314.6c-1.5,0.3-3-0.6-3.3-2c-0.3-1.4,0.5-2.9,2-3.3c1.5-0.4,3,0.5,3.4,2
				C647.3,312.7,646.3,314.2,644.8,314.6z"/>
			<path class="st1" d="M647.4,329c-1.5,0.2-2.9-0.9-3.1-2.3c-0.2-1.5,0.8-2.9,2.3-3.1c1.5-0.2,3,0.8,3.2,2.3
				C650,327.4,648.9,328.8,647.4,329z"/>
			<path class="st1" d="M648.4,343.7c-1.5,0-2.8-1.2-2.8-2.6c0-1.5,1.1-2.8,2.7-2.9c1.5-0.1,2.9,1.1,2.9,2.6
				C651.1,342.4,649.9,343.6,648.4,343.7z"/>
			<path class="st1" d="M383.7,333.9c1.5,0.2,2.7,1.5,2.6,3c-0.1,1.5-1.4,2.6-3,2.6c-1.5-0.1-2.7-1.4-2.6-3
				C380.9,334.9,382.2,333.7,383.7,333.9z"/>
			<path class="st1" d="M386,319.2c1.5,0.3,2.4,1.8,2.1,3.3c-0.3,1.5-1.7,2.5-3.2,2.2c-1.5-0.3-2.5-1.7-2.2-3.3
				C383,319.8,384.6,318.9,386,319.2z"/>
			<path class="st1" d="M390.1,305c1.4,0.5,2.2,2.1,1.7,3.5c-0.5,1.4-2,2.2-3.5,1.8c-1.5-0.4-2.3-2-1.8-3.5
				C387.1,305.2,388.6,304.4,390.1,305z"/>
			<path class="st1" d="M395.8,291.3c1.4,0.7,1.9,2.3,1.3,3.7c-0.6,1.4-2.3,2-3.7,1.4c-1.4-0.6-2-2.3-1.4-3.7
				C392.7,291.2,394.4,290.6,395.8,291.3z"/>
			<path class="st1" d="M403.1,278.4c1.3,0.8,1.7,2.5,0.9,3.8c-0.8,1.3-2.4,1.7-3.8,0.9c-1.3-0.8-1.8-2.5-0.9-3.8
				C400.1,277.9,401.8,277.5,403.1,278.4z"/>
			<path class="st1" d="M411.8,266.4c1.2,1,1.4,2.7,0.4,3.9c-0.9,1.2-2.7,1.4-3.9,0.5c-1.2-0.9-1.4-2.7-0.5-3.9
				C408.9,265.6,410.6,265.4,411.8,266.4z"/>
			<path class="st1" d="M422,255.6c1.1,1.1,1,2.9-0.1,3.9c-1,1.1-2.8,1.1-3.9,0c-1.1-1-1.1-2.8,0-4
				C419.1,254.4,420.9,254.5,422,255.6z"/>
			<path class="st1" d="M433.3,246c0.9,1.2,0.7,3-0.5,3.9c-1.2,0.9-2.9,0.7-3.9-0.5c-1-1.2-0.8-2.9,0.5-3.9
				C430.6,244.5,432.3,244.7,433.3,246z"/>
			<path class="st1" d="M445.6,237.8c0.8,1.3,0.3,3-1,3.8c-1.3,0.8-3,0.4-3.8-0.9c-0.8-1.3-0.4-3,0.9-3.9
				C443.1,236.1,444.9,236.5,445.6,237.8z"/>
			<path class="st1" d="M458.9,231.2c0.6,1.4,0,3.1-1.4,3.7c-1.4,0.6-3,0-3.7-1.4c-0.7-1.4-0.1-3,1.4-3.7
				C456.6,229.1,458.3,229.7,458.9,231.2z"/>
			<path class="st1" d="M472.8,226.1c0.4,1.5-0.4,2.9-1.8,3.4c-1.4,0.5-3-0.3-3.5-1.7c-0.5-1.4,0.3-3,1.8-3.5
				C470.8,223.8,472.4,224.7,472.8,226.1z"/>
			<path class="st1" d="M487.3,222.8c0.2,1.5-0.7,2.9-2.2,3.2c-1.5,0.2-2.9-0.7-3.2-2.2c-0.3-1.5,0.6-3,2.2-3.3
				C485.6,220.3,487,221.3,487.3,222.8z"/>
			<path class="st1" d="M502,221.2c0.1,1.5-1.1,2.9-2.6,3c-1.5,0.1-2.8-1-3-2.6c-0.1-1.5,1-2.9,2.6-3
				C500.6,218.5,501.9,219.6,502,221.2z"/>
			<path class="st1" d="M516.8,221.4c-0.1,1.5-1.4,2.6-2.9,2.6c-1.5,0-2.7-1.3-2.7-2.8c0-1.5,1.3-2.7,2.9-2.7
				C515.8,218.5,516.9,219.8,516.8,221.4z"/>
			<path class="st1" d="M531.5,223.2c-0.3,1.5-1.7,2.5-3.2,2.2c-1.5-0.3-2.5-1.6-2.3-3.2c0.2-1.5,1.7-2.6,3.2-2.3
				C530.8,220.3,531.8,221.7,531.5,223.2z"/>
			<path class="st1" d="M545.9,226.8c-0.5,1.4-2,2.3-3.4,1.9c-1.4-0.4-2.3-1.9-1.9-3.4c0.4-1.5,1.9-2.3,3.4-1.9
				C545.5,223.8,546.4,225.3,545.9,226.8z"/>
			<path class="st1" d="M559.8,232.1c-0.6,1.4-2.3,2-3.6,1.4c-1.4-0.6-2.1-2.2-1.5-3.6c0.6-1.4,2.2-2.1,3.7-1.5
				C559.7,229.1,560.4,230.7,559.8,232.1z"/>
			<path class="st1" d="M572.9,239c-0.8,1.3-2.5,1.8-3.8,1c-1.3-0.7-1.8-2.4-1-3.8c0.7-1.3,2.4-1.8,3.8-1
				C573.2,236,573.7,237.7,572.9,239z"/>
			<path class="st1" d="M585.1,247.4c-0.9,1.2-2.7,1.4-3.8,0.5c-1.2-0.9-1.5-2.6-0.6-3.8c0.9-1.2,2.6-1.5,3.9-0.6
				C585.8,244.5,586,246.2,585.1,247.4z"/>
			<path class="st1" d="M596.2,257.2c-1.1,1.1-2.8,1.1-3.9,0.1c-1.1-1-1.1-2.8-0.1-3.9c1-1.2,2.8-1.2,3.9-0.1
				C597.3,254.4,597.3,256.1,596.2,257.2z"/>
			<path class="st1" d="M606.1,268.3c-1.2,1-2.9,0.7-3.9-0.4c-1-1.1-0.8-2.9,0.3-3.9c1.1-1,2.9-0.9,3.9,0.3
				C607.5,265.5,607.3,267.3,606.1,268.3z"/>
			<path class="st1" d="M614.7,280.4c-1.3,0.8-3,0.4-3.8-0.8c-0.8-1.3-0.4-3,0.8-3.8c1.3-0.9,3-0.5,3.8,0.8
				C616.3,277.8,616,279.6,614.7,280.4z"/>
			<path class="st1" d="M621.7,293.4c-1.4,0.6-3,0-3.7-1.3c-0.7-1.3-0.1-3,1.2-3.7c1.4-0.7,3-0.2,3.7,1.3
				C623.7,291.1,623.1,292.8,621.7,293.4z"/>
			<path class="st1" d="M627.1,307.2c-1.5,0.5-3-0.3-3.5-1.7c-0.5-1.4,0.2-3,1.7-3.5c1.4-0.5,3.1,0.2,3.6,1.7
				C629.4,305.1,628.6,306.7,627.1,307.2z"/>
			<path class="st1" d="M630.9,321.5c-1.5,0.3-3-0.7-3.3-2.1c-0.3-1.5,0.6-2.9,2.1-3.3c1.5-0.4,3,0.6,3.3,2.1
				C633.4,319.8,632.4,321.2,630.9,321.5z"/>
			<path class="st1" d="M632.9,336.2c-1.5,0.1-2.9-1-3-2.5c-0.2-1.5,0.9-2.8,2.4-3c1.5-0.2,2.9,0.9,3.1,2.5
				C635.6,334.8,634.5,336.1,632.9,336.2z"/>
			<path class="st1" d="M398.9,334c1.5,0.2,2.6,1.5,2.5,3c-0.1,1.5-1.4,2.6-3,2.5c-1.5-0.1-2.7-1.4-2.5-3
				C396,334.9,397.4,333.8,398.9,334z"/>
			<path class="st1" d="M401.5,319.5c1.5,0.4,2.4,1.8,2.1,3.3c-0.4,1.4-1.8,2.4-3.3,2.1c-1.5-0.3-2.5-1.8-2.1-3.3
				C398.5,320.1,400,319.1,401.5,319.5z"/>
			<path class="st1" d="M406,305.5c1.4,0.6,2.1,2.2,1.6,3.5c-0.5,1.4-2,2.1-3.5,1.6c-1.4-0.5-2.2-2.1-1.7-3.6
				C403,305.7,404.6,304.9,406,305.5z"/>
			<path class="st1" d="M412.3,292.3c1.3,0.8,1.8,2.4,1.1,3.7c-0.7,1.3-2.3,1.8-3.7,1.2c-1.4-0.7-1.9-2.4-1.2-3.8
				C409.2,292,411,291.5,412.3,292.3z"/>
			<path class="st1" d="M420.4,279.9c1.2,0.9,1.5,2.6,0.6,3.8c-0.9,1.2-2.6,1.5-3.8,0.6c-1.3-0.9-1.6-2.6-0.7-3.9
				C417.4,279.3,419.1,279,420.4,279.9z"/>
			<path class="st1" d="M430,268.8c1.1,1.1,1.1,2.8,0.1,3.9c-1,1.1-2.8,1.1-3.9,0.1c-1.1-1-1.2-2.8-0.1-3.9
				C427.1,267.8,428.9,267.8,430,268.8z"/>
			<path class="st1" d="M441,259.1c0.9,1.2,0.7,2.9-0.4,3.9c-1.2,0.9-2.8,0.8-3.9-0.4c-1-1.1-0.9-3,0.4-3.9
				C438.3,257.7,440.1,257.9,441,259.1z"/>
			<path class="st1" d="M453.2,250.9c0.8,1.3,0.3,3-0.9,3.8c-1.2,0.8-2.9,0.4-3.8-0.9c-0.8-1.3-0.4-3,0.9-3.8
				C450.7,249.1,452.4,249.6,453.2,250.9z"/>
			<path class="st1" d="M466.4,244.4c0.6,1.4-0.1,3-1.4,3.6c-1.3,0.6-3,0-3.6-1.4c-0.7-1.4,0-3,1.4-3.7
				C464.1,242.3,465.8,243,466.4,244.4z"/>
			<path class="st1" d="M480.3,239.7c0.4,1.5-0.5,3-1.9,3.4c-1.4,0.4-2.9-0.4-3.4-1.9c-0.5-1.5,0.4-3,1.9-3.4
				C478.4,237.4,479.9,238.2,480.3,239.7z"/>
			<path class="st1" d="M494.7,237c0.2,1.5-0.9,2.9-2.3,3.1c-1.5,0.2-2.9-0.8-3.1-2.3c-0.3-1.5,0.8-3,2.3-3.2
				C493.2,234.4,494.6,235.5,494.7,237z"/>
			<path class="st1" d="M509.4,236.2c0,1.5-1.2,2.7-2.7,2.8c-1.5,0-2.7-1.2-2.8-2.7c-0.1-1.5,1.2-2.8,2.7-2.8
				C508.2,233.3,509.4,234.6,509.4,236.2z"/>
			<path class="st1" d="M524.1,237.3c-0.2,1.5-1.6,2.6-3.1,2.4c-1.5-0.2-2.5-1.5-2.4-3.1c0.1-1.5,1.5-2.7,3.1-2.4
				C523.2,234.4,524.3,235.8,524.1,237.3z"/>
			<path class="st1" d="M538.4,240.4c-0.4,1.5-1.9,2.3-3.3,1.9c-1.4-0.3-2.3-1.8-2-3.3c0.3-1.5,1.8-2.4,3.4-2.1
				C538,237.4,538.9,238.9,538.4,240.4z"/>
			<path class="st1" d="M552.3,245.3c-0.6,1.4-2.2,2-3.6,1.5c-1.4-0.5-2.1-2.1-1.5-3.6c0.5-1.4,2.1-2.1,3.6-1.6
				C552.2,242.2,552.9,243.9,552.3,245.3z"/>
			<path class="st1" d="M565.3,252.1c-0.8,1.3-2.5,1.8-3.8,1c-1.3-0.7-1.7-2.4-1-3.8c0.7-1.4,2.4-1.8,3.8-1
				C565.7,249.1,566.1,250.8,565.3,252.1z"/>
			<path class="st1" d="M577.3,260.6c-1,1.2-2.7,1.4-3.9,0.5c-1.1-0.9-1.4-2.6-0.5-3.8c0.9-1.2,2.7-1.5,3.9-0.5
				C578.1,257.6,578.3,259.4,577.3,260.6z"/>
			<path class="st1" d="M588.1,270.5c-1.1,1-2.8,1-3.9,0c-1.1-1-1.1-2.8,0-3.9c1-1.1,2.8-1.1,3.9,0
				C589.3,267.7,589.2,269.5,588.1,270.5z"/>
			<path class="st1" d="M597.5,281.9c-1.3,0.9-2.9,0.6-3.8-0.5c-0.9-1.2-0.7-2.9,0.5-3.8c1.2-1,2.9-0.7,3.9,0.5
				C599,279.2,598.7,281,597.5,281.9z"/>
			<path class="st1" d="M605.3,294.3c-1.3,0.7-3,0.2-3.8-1c-0.7-1.3-0.3-3,1-3.8c1.3-0.8,3-0.3,3.8,1
				C607.1,291.9,606.6,293.6,605.3,294.3z"/>
			<path class="st1" d="M611.3,307.7c-1.4,0.5-3-0.2-3.6-1.5c-0.5-1.4,0.1-3,1.5-3.6c1.4-0.6,3.1,0,3.6,1.5
				C613.5,305.6,612.8,307.2,611.3,307.7z"/>
			<path class="st1" d="M615.5,321.8c-1.5,0.3-3-0.6-3.3-2c-0.4-1.4,0.5-2.9,2-3.3c1.5-0.4,3,0.5,3.4,2
				C617.9,320,617,321.5,615.5,321.8z"/>
			<path class="st1" d="M617.8,336.3c-1.5,0.1-2.8-1-3-2.4c-0.2-1.5,0.9-2.8,2.4-3c1.5-0.2,2.9,0.9,3.1,2.4
				C620.5,334.8,619.3,336.2,617.8,336.3z"/>
			<path class="st1" d="M414.2,333.8c1.5,0.2,2.5,1.6,2.3,3c-0.1,1.5-1.4,2.6-2.9,2.5c-1.5-0.1-2.7-1.5-2.6-3.1
				C411.3,334.7,412.7,333.6,414.2,333.8z"/>
			<path class="st1" d="M417.2,319.2c1.5,0.4,2.4,2,2,3.4c-0.4,1.4-1.9,2.3-3.4,2c-1.5-0.3-2.4-1.9-2-3.4
				C414.3,319.7,415.8,318.8,417.2,319.2z"/>
			<path class="st1" d="M422.6,305.4c1.4,0.7,2,2.3,1.3,3.6c-0.7,1.3-2.2,2-3.6,1.4c-1.4-0.6-2.2-2.3-1.4-3.7
				C419.6,305.3,421.2,304.7,422.6,305.4z"/>
			<path class="st1" d="M430,292.4c0.6,0.4,1,1.1,1.1,1.8c0.2,0.7,0.1,1.5-0.3,2.1c-0.8,1.3-2.5,1.7-3.8,0.9
				c-1.3-0.8-1.7-2.5-0.9-3.9c0.4-0.7,1-1.1,1.7-1.3C428.6,291.9,429.4,292,430,292.4z"/>
			<path class="st1" d="M439.4,280.9c1.1,1.1,1.2,2.8,0.2,3.9c-1,1.1-2.8,1.2-3.9,0.2c-1.2-1-1.3-2.7-0.2-3.9
				C436.5,280,438.3,279.9,439.4,280.9z"/>
			<path class="st1" d="M450.5,271c0.9,1.2,0.7,2.9-0.5,3.8c-1.2,0.9-2.8,0.9-3.8-0.3c-1-1.1-0.9-3,0.3-4
				C447.8,269.5,449.5,269.7,450.5,271z"/>
			<path class="st1" d="M462.9,262.7c0.7,1.3,0.3,3.1-1,3.8c-1.3,0.8-3,0.3-3.8-0.9c-0.8-1.3-0.4-3,1-3.8
				C460.5,261,462.2,261.4,462.9,262.7z"/>
			<path class="st1" d="M476.5,256.8c0.5,1.4-0.2,3-1.6,3.5c-1.4,0.5-3-0.2-3.6-1.6c-0.6-1.4,0.1-3,1.6-3.5S476,255.3,476.5,256.8z"
				/>
			<path class="st1" d="M490.9,252.9c0.3,1.5-0.7,2.8-2.2,3.2c-1.4,0.4-2.9-0.5-3.3-2c-0.4-1.5,0.6-3,2.1-3.4
				C489.1,250.3,490.6,251.4,490.9,252.9z"/>
			<path class="st1" d="M505.7,251.4c0,1.5-1.1,2.8-2.6,2.9c-1.5,0.1-2.8-1.1-2.9-2.6c-0.1-1.5,1-2.8,2.6-2.9
				C504.4,248.7,505.7,249.8,505.7,251.4z"/>
			<path class="st1" d="M520.6,252.1c-0.2,1.5-1.6,2.5-3,2.3c-1.5-0.1-2.6-1.4-2.5-2.9c0.1-1.5,1.5-2.7,3.1-2.6
				C519.7,249.2,520.8,250.6,520.6,252.1z"/>
			<path class="st1" d="M535.1,255.2c-0.4,1.5-2,2.4-3.4,2c-1.4-0.4-2.3-1.9-2-3.4c0.3-1.5,1.9-2.4,3.4-2
				C534.7,252.2,535.6,253.7,535.1,255.2z"/>
			<path class="st1" d="M549,260.5c-0.7,1.4-2.3,2-3.6,1.3c-1.3-0.7-2-2.2-1.4-3.6c0.6-1.4,2.3-2.2,3.7-1.4
				C549.1,257.5,549.7,259.2,549,260.5z"/>
			<path class="st1" d="M561.9,267.9c-0.4,0.6-1.1,1-1.8,1.1c-0.7,0.2-1.5,0.1-2.1-0.3c-1.3-0.8-1.7-2.5-0.9-3.8
				c0.8-1.3,2.5-1.7,3.9-0.9c0.7,0.4,1.1,1,1.3,1.7C562.5,266.5,562.4,267.3,561.9,267.9z"/>
			<path class="st1" d="M573.5,277.3c-1.1,1.1-2.8,1.2-3.9,0.2c-1.1-1-1.2-2.8-0.2-3.9c1-1.2,2.7-1.3,3.9-0.2
				C574.4,274.5,574.5,276.2,573.5,277.3z"/>
			<path class="st1" d="M583.4,288.4c-1.2,0.9-2.9,0.7-3.8-0.5c-0.9-1.2-0.9-2.8,0.3-3.9c1.1-1,3-0.9,4,0.3
				C584.9,285.7,584.6,287.5,583.4,288.4z"/>
			<path class="st1" d="M591.6,300.8c-1.3,0.7-3.1,0.3-3.8-1c-0.8-1.3-0.3-3,0.9-3.8c1.3-0.8,3-0.4,3.8,1
				C593.4,298.4,593,300.1,591.6,300.8z"/>
			<path class="st1" d="M597.6,314.5c-1.4,0.5-3-0.2-3.5-1.6c-0.5-1.4,0.2-3,1.6-3.6c1.4-0.6,3,0.1,3.5,1.6
				C599.8,312.3,599.1,314,597.6,314.5z"/>
			<path class="st1" d="M601.5,328.8c-1.5,0.3-2.8-0.7-3.2-2.2c-0.4-1.4,0.5-2.9,2-3.3c1.5-0.4,3,0.6,3.4,2.1
				C604.1,327,603,328.6,601.5,328.8z"/>
			<path class="st1" d="M603,343.6c-1.5,0-2.8-1.1-2.9-2.6c-0.1-1.5,1.1-2.8,2.6-2.9c1.5-0.1,2.8,1,2.9,2.6
				C605.7,342.3,604.5,343.6,603,343.6z"/>
			<path class="st1" d="M429.4,334c1.5,0.2,2.6,1.6,2.3,3.1c-0.3,1.4-1.5,2.5-3,2.4c-1.5-0.1-2.8-1.5-2.5-3.1
				C426.5,334.8,427.9,333.7,429.4,334z"/>
			<path class="st1" d="M433,319.7c1.4,0.5,2.2,2,1.7,3.4c-0.4,1.4-1.9,2.2-3.3,1.8c-1.5-0.4-2.4-2-1.9-3.5
				C430,320,431.6,319.2,433,319.7z"/>
			<path class="st1" d="M439.1,306.3c1.3,0.8,1.7,2.4,1.1,3.7c-0.6,1.3-2.3,1.8-3.6,1.2c-1.4-0.7-1.9-2.4-1.2-3.8
				C436,306,437.8,305.6,439.1,306.3z"/>
			<path class="st1" d="M447.6,294.3c1.2,1,1.2,2.6,0.4,3.9c-0.9,1.2-2.6,1.4-3.8,0.5c-1.2-0.9-1.5-2.7-0.5-3.9
				C444.6,293.4,446.5,293.3,447.6,294.3z"/>
			<path class="st1" d="M458.2,284c0.5,0.6,0.7,1.3,0.6,2c-0.1,0.7-0.3,1.4-0.9,1.9c-1.1,1-2.8,0.9-3.9-0.2c-1-1.1-0.9-2.9,0.2-4
				c0.6-0.5,1.3-0.8,2-0.7C457,283.1,457.7,283.4,458.2,284z"/>
			<path class="st1" d="M470.4,275.9c0.7,1.3,0.3,3-1,3.8c-1.3,0.8-2.9,0.3-3.8-1c-0.8-1.3-0.4-3,1-3.8
				C468,274.1,469.7,274.5,470.4,275.9z"/>
			<path class="st1" d="M484,270.1c0.5,1.5-0.3,3.1-1.7,3.6c-1.4,0.5-3-0.2-3.5-1.7c-0.6-1.4,0.2-3,1.7-3.6
				C482,267.9,483.5,268.7,484,270.1z"/>
			<path class="st1" d="M498.4,267c0.2,1.5-0.9,2.9-2.3,3.2c-1.4,0.2-2.9-0.8-3.2-2.3c-0.3-1.5,0.7-2.9,2.3-3.1
				C496.8,264.5,498.2,265.5,498.4,267z"/>
			<path class="st1" d="M513.1,266.6c-0.1,1.5-1.4,2.7-2.8,2.6c-1.5-0.1-2.7-1.3-2.7-2.8c0-1.6,1.2-2.8,2.8-2.7
				C512,263.8,513.2,265.1,513.1,266.6z"/>
			<path class="st1" d="M527.6,268.8c-0.4,1.5-1.8,2.4-3.3,2c-1.4-0.3-2.4-1.7-2.1-3.2c0.3-1.5,1.8-2.6,3.3-2.2
				C527.1,265.8,528,267.3,527.6,268.8z"/>
			<path class="st1" d="M541.5,273.7c-0.7,1.4-2.2,2-3.6,1.4c-1.4-0.5-2.1-2.1-1.5-3.5c0.5-1.4,2.2-2.2,3.7-1.6
				C541.5,270.6,542.2,272.3,541.5,273.7z"/>
			<path class="st1" d="M554.3,281c-0.9,1.3-2.5,1.5-3.8,0.7c-1.3-0.8-1.6-2.4-0.8-3.7c0.8-1.3,2.5-1.7,3.9-0.9
				C554.9,277.9,555.1,279.8,554.3,281z"/>
			<path class="st1" d="M565.5,290.6c-1.1,1.1-2.8,1-3.9,0.1c-1.1-1-1.1-2.7-0.1-3.9c1-1.1,2.8-1.2,4-0.1
				C566.6,287.7,566.6,289.5,565.5,290.6z"/>
			<path class="st1" d="M574.7,302c-1.3,0.8-3,0.5-3.9-0.6c-0.9-1.2-0.6-2.9,0.6-3.8c1.2-0.9,3-0.7,3.9,0.6
				C576.3,299.4,576,301.2,574.7,302z"/>
			<path class="st1" d="M581.7,315c-1.4,0.6-3.1,0-3.7-1.3c-0.6-1.3,0-3,1.3-3.7c1.4-0.7,3-0.1,3.7,1.3
				C583.7,312.8,583.1,314.4,581.7,315z"/>
			<path class="st1" d="M586.2,329c-1.5,0.3-3-0.6-3.4-2c-0.4-1.4,0.5-2.9,2-3.4c1.5-0.4,3,0.5,3.4,2
				C588.5,327.2,587.6,328.7,586.2,329z"/>
			<path class="st1" d="M587.9,343.7c-1.5,0-2.8-1.1-2.9-2.6c-0.1-1.5,1.1-2.8,2.6-2.9c1.5-0.2,2.8,1,2.9,2.6
				C590.6,342.3,589.4,343.6,587.9,343.7z"/>
			<path class="st1" d="M444.7,334.2c1.5,0.3,2.5,1.7,2.3,3.1c-0.2,1.4-1.6,2.4-3.2,2.3c-1.5-0.1-2.6-1.5-2.3-3.1
				C441.8,334.9,443.2,333.9,444.7,334.2z"/>
			<path class="st1" d="M448.9,320.3c0.7,0.3,1.2,0.9,1.5,1.5c0.3,0.6,0.4,1.4,0.1,2c-0.5,1.3-2.1,2-3.5,1.6
				c-1.4-0.5-2.2-2.1-1.6-3.6c0.3-0.7,0.8-1.3,1.4-1.6C447.4,320,448.2,320,448.9,320.3z"/>
			<path class="st1" d="M456.2,307.8c1.2,0.9,1.5,2.6,0.7,3.7c-0.7,1.2-2.4,1.6-3.7,0.8c-1.3-0.8-1.7-2.5-0.9-3.9
				C453.2,307.2,455,306.9,456.2,307.8z"/>
			<path class="st1" d="M466,297.2c1,1.2,0.9,2.9-0.1,3.9c-1.1,0.9-2.8,0.9-3.9-0.1c-1.1-1.1-1.1-2.9,0.1-3.9
				C463.3,295.9,465,296,466,297.2z"/>
			<path class="st1" d="M478,289c0.7,1.3,0.3,3-1,3.7c-1.2,0.7-2.9,0.3-3.7-1c-0.8-1.3-0.4-3,0.9-3.8
				C475.5,287.1,477.2,287.6,478,289z"/>
			<path class="st1" d="M491.5,283.7c0.4,1.5-0.4,3-1.8,3.3c-1.3,0.5-2.9-0.3-3.4-1.7c-0.5-1.4,0.2-3,1.7-3.6
				C489.5,281.3,491.1,282.3,491.5,283.7z"/>
			<path class="st1" d="M505.8,281.6c0,1.5-1.1,2.8-2.5,2.9c-1.4,0-2.7-1-2.9-2.5c-0.2-1.5,0.9-3,2.5-3
				C504.4,278.9,505.7,280,505.8,281.6z"/>
			<path class="st1" d="M520.2,282.6c-0.3,1.5-1.7,2.5-3.1,2.3c-1.4-0.2-2.4-1.6-2.3-3.2c0.1-1.5,1.5-2.6,3.1-2.3
				C519.5,279.7,520.5,281.1,520.2,282.6z"/>
			<path class="st1" d="M534.1,286.8c-0.3,0.7-0.9,1.2-1.5,1.5c-0.6,0.3-1.4,0.4-2,0.1c-1.3-0.5-2-2.1-1.6-3.5
				c0.5-1.4,2.1-2.2,3.6-1.6c0.7,0.3,1.3,0.8,1.6,1.4C534.4,285.4,534.4,286.1,534.1,286.8z"/>
			<path class="st1" d="M546.6,294.1c-0.9,1.2-2.6,1.5-3.7,0.7c-1.2-0.7-1.6-2.4-0.8-3.7c0.8-1.3,2.5-1.7,3.9-0.9
				C547.2,291.1,547.5,292.9,546.6,294.1z"/>
			<path class="st1" d="M557.2,303.9c-1.2,1-2.9,0.9-3.9-0.1c-0.9-1.1-0.9-2.8,0.1-3.9c1.1-1.1,2.9-1.1,3.9,0.1
				C558.5,301.2,558.4,303,557.2,303.9z"/>
			<path class="st1" d="M565.4,315.9c-1.3,0.7-3,0.3-3.7-1c-0.7-1.2-0.3-2.9,1-3.7c1.3-0.8,3-0.4,3.8,0.9
				C567.3,313.5,566.8,315.2,565.4,315.9z"/>
			<path class="st1" d="M570.7,329.4c-1.5,0.4-3-0.4-3.3-1.8c-0.5-1.3,0.3-2.9,1.7-3.4c1.4-0.5,3,0.2,3.6,1.7
				C573,327.4,572.1,329,570.7,329.4z"/>
			<path class="st1" d="M572.8,343.7c-1.5,0-2.8-1.1-2.9-2.5c0-1.4,1-2.7,2.5-2.9c1.5-0.2,3,0.9,3,2.5
				C575.5,342.3,574.3,343.6,572.8,343.7z"/>
			<path class="st1" d="M460.2,334c1.5,0.4,2.3,1.8,2.1,3.2c-0.2,1.4-1.6,2.4-3.1,2.2c-1.5-0.2-2.5-1.7-2.3-3.3
				C457.1,334.5,458.7,333.6,460.2,334z"/>
			<path class="st1" d="M465.9,320.4c1.3,0.8,1.7,2.4,1,3.7c-0.6,1.3-2.3,1.8-3.6,1.2c-1.4-0.6-1.9-2.3-1.2-3.8
				C462.9,320,464.6,319.6,465.9,320.4z"/>
			<path class="st1" d="M475.4,309c1,1.2,1,2.9-0.1,3.8c-1,1-2.7,1.1-3.8,0.1c-1.1-1-1.2-2.8-0.1-4
				C472.6,307.8,474.4,307.9,475.4,309z"/>
			<path class="st1" d="M487.8,301c0.6,1.4,0.1,3-1.2,3.7c-1.3,0.6-2.9,0.3-3.7-1.1c-0.8-1.3-0.3-3.1,1.1-3.8
				C485.5,299,487.2,299.6,487.8,301z"/>
			<path class="st1" d="M502,297c0.2,1.5-0.8,2.9-2.3,3.1c-1.4,0.2-2.8-0.6-3.2-2.1c-0.4-1.4,0.6-3.1,2.2-3.3
				C500.4,294.4,501.8,295.5,502,297z"/>
			<path class="st1" d="M516.8,297.3c-0.3,1.5-1.7,2.6-3.1,2.3c-1.4-0.2-2.5-1.4-2.4-3c0.1-1.5,1.5-2.8,3.1-2.5
				C516,294.4,517.1,295.8,516.8,297.3z"/>
			<path class="st1" d="M530.8,302c-0.7,1.4-2.3,2-3.6,1.3c-1.3-0.6-2-2.1-1.5-3.6c0.5-1.4,2.2-2.2,3.7-1.5
				C530.9,299,531.5,300.7,530.8,302z"/>
			<path class="st1" d="M542.8,310.6c-1.1,1.1-2.8,1.2-3.9,0.2c-1-1-1.3-2.6-0.3-3.9c0.9-1.2,2.8-1.5,4-0.3
				C543.8,307.8,543.9,309.6,542.8,310.6z"/>
			<path class="st1" d="M551.8,322.4c-1.3,0.7-3.1,0.3-3.8-0.9c-0.4-0.6-0.4-1.4-0.3-2c0.1-0.7,0.5-1.3,1.1-1.8
				c0.6-0.4,1.4-0.6,2.1-0.4c0.7,0.2,1.3,0.6,1.8,1.3C553.5,320,553.1,321.7,551.8,322.4z"/>
			<path class="st1" d="M556.8,336.3c-1.5,0.3-3-0.6-3.4-2c-0.3-1.4,0.5-2.9,1.9-3.4c1.5-0.5,3,0.4,3.4,2
				C559.2,334.5,558.4,336,556.8,336.3z"/>
			<path class="st1" d="M475.8,334.4c1.5,0.6,2.1,2,1.8,3.3c-0.3,1.3-1.8,2.2-3.3,1.9c-1.5-0.3-2.5-1.8-2-3.4
				C472.7,334.6,474.4,333.9,475.8,334.4z"/>
			<path class="st1" d="M483.4,322.2c1.1,1.1,1.2,2.8,0.3,3.8c-0.8,1.1-2.5,1.3-3.8,0.4c-1.3-0.9-1.5-2.6-0.5-3.9
				C480.5,321.3,482.3,321.2,483.4,322.2z"/>
			<path class="st1" d="M495.3,314.2c0.5,1.4,0,3-1.2,3.6c-1.2,0.5-2.8,0.2-3.6-1.2c-0.8-1.3-0.4-3.1,1.1-3.8
				C493,312.1,494.7,312.7,495.3,314.2z"/>
			<path class="st1" d="M509.4,311.7c-0.1,1.5-1.2,2.7-2.6,2.8c-0.7,0-1.3-0.2-1.8-0.7c-0.5-0.4-0.9-1.1-1-1.8
				c-0.1-0.8,0.1-1.5,0.6-2.1c0.5-0.5,1.2-0.9,2-0.9C508.2,308.8,509.5,310.2,509.4,311.7z"/>
			<path class="st1" d="M523.3,315.2c-0.7,1.4-2.2,1.9-3.5,1.5c-1.3-0.5-1.9-2.1-1.5-3.5c0.4-1.5,2-2.2,3.6-1.7
				C523.4,312,524,313.8,523.3,315.2z"/>
			<path class="st1" d="M534.6,324c-1.2,1-2.9,0.9-3.8-0.1c-1-0.9-1-2.6,0-3.8c1-1.2,2.8-1.2,4-0.1C535.9,321.2,535.8,323,534.6,324
				z"/>
			<path class="st1" d="M541.4,336.6c-0.7,0.2-1.5,0.1-2.1-0.2c-0.6-0.3-1.1-0.8-1.4-1.4c-0.4-1.3,0.2-2.8,1.5-3.5
				c1.4-0.7,3.1,0,3.6,1.5c0.3,0.8,0.2,1.6-0.1,2.2C542.7,335.9,542.1,336.4,541.4,336.6z"/>
			<path class="st1" d="M492.8,334.4c1.2,1,1.5,2.6,0.9,3.7c-0.3,0.6-0.8,1-1.5,1.2c-0.6,0.2-1.4,0.3-2.1,0
				c-0.7-0.3-1.3-0.8-1.5-1.5c-0.2-0.7-0.2-1.6,0.3-2.4C489.8,333.8,491.6,333.4,492.8,334.4z"/>
			<path class="st1" d="M505.7,327c0.2,1.5-0.8,2.9-2,3.2c-1.3,0.4-2.8-0.3-3.4-1.7c-0.7-1.4,0.1-3.1,1.9-3.7
				C503.9,324.4,505.5,325.5,505.7,327z"/>
			<path class="st1" d="M520,330.8c-1,1.2-2.6,1.5-3.7,0.9c-0.6-0.3-1-0.8-1.2-1.5c-0.2-0.6-0.3-1.4,0-2.1c0.3-0.7,0.8-1.3,1.5-1.5
				c0.7-0.2,1.6-0.2,2.4,0.3C520.6,327.7,520.9,329.6,520,330.8z"/>
			<path class="st1" d="M527.4,343.6c-1.5,0.2-2.9-0.8-3.2-2c-0.4-1.3,0.3-2.8,1.7-3.4c1.4-0.7,3.1,0.1,3.7,1.9
				C530,341.8,528.9,343.4,527.4,343.6z"/>
		</g>
	</g>
	<g>
		<g>
			<circle class="st2" cx="1749.4" cy="114.7" r="47.5"/>
			<path class="st3" d="M1752.1,184.8h-5.5v-48.1c0-1.5,1.2-2.8,2.8-2.8l0,0c1.5,0,2.8,1.2,2.8,2.8V184.8z"/>
		</g>
		<g>
			<path class="st0" d="M1840.1,162.2L1840.1,162.2c-15.1,0-27.4-12.3-27.4-27.4V94.6c0-15.1,12.3-27.4,27.4-27.4l0,0
				c15.1,0,27.4,12.3,27.4,27.4v40.2C1867.5,150,1855.3,162.2,1840.1,162.2z"/>
			<path class="st3" d="M1842.9,184.8h-5.5v-48.1c0-1.5,1.2-2.8,2.8-2.8l0,0c1.5,0,2.8,1.2,2.8,2.8V184.8z"/>
		</g>
		<path class="st4" d="M1973.9,346.2L1973.9,346.2c0-95.6-77.5-173.1-173.1-173.1h0c-95.6,0-173.1,77.5-173.1,173.1v0H1973.9z"/>
		<path class="st4" d="M1627.8,346.2L1627.8,346.2c0-95.6-77.5-173.1-173.1-173.1h0c-95.6,0-173.1,77.5-173.1,173.1v0H1627.8z"/>
		<polygon class="st3" points="2320.1,0 2320.1,346.2 1973.9,346.2 		"/>
		<g>
			<path class="st1" d="M1284.7,333.8c1.5,0.1,2.7,1.4,2.6,2.9c-0.1,1.5-1.3,2.7-2.9,2.6c-1.5-0.1-2.8-1.4-2.7-2.9
				C1281.9,334.9,1283.2,333.7,1284.7,333.8z"/>
			<path class="st1" d="M1286.4,319c1.5,0.2,2.5,1.6,2.3,3.1c-0.2,1.5-1.6,2.6-3.1,2.4c-1.5-0.2-2.6-1.6-2.4-3.2
				C1283.4,319.9,1284.9,318.8,1286.4,319z"/>
			<path class="st1" d="M1289.4,304.5c1.5,0.4,2.4,1.9,2.1,3.3c-0.3,1.5-1.8,2.4-3.3,2.1c-1.5-0.3-2.4-1.8-2.1-3.3
				C1286.4,305,1287.9,304.1,1289.4,304.5z"/>
			<path class="st1" d="M1293.7,290.2c1.4,0.5,2.2,2.1,1.7,3.5c-0.5,1.4-2.1,2.2-3.5,1.8c-1.5-0.5-2.2-2-1.7-3.5
				C1290.7,290.5,1292.2,289.7,1293.7,290.2z"/>
			<path class="st1" d="M1299.2,276.4c1.4,0.6,2,2.3,1.4,3.6c-0.6,1.4-2.2,2.1-3.6,1.5c-1.4-0.6-2.1-2.2-1.5-3.7
				C1296.1,276.4,1297.8,275.8,1299.2,276.4z"/>
			<path class="st1" d="M1305.8,263.1c1.3,0.8,1.8,2.4,1.1,3.7c-0.7,1.3-2.4,1.9-3.7,1.2c-1.4-0.7-1.9-2.4-1.2-3.8
				C1302.8,262.9,1304.5,262.4,1305.8,263.1z"/>
			<path class="st1" d="M1313.6,250.5c1.2,0.9,1.6,2.6,0.8,3.9c-0.8,1.3-2.5,1.6-3.8,0.8c-1.3-0.8-1.7-2.5-0.8-3.9
				C1310.6,250,1312.4,249.6,1313.6,250.5z"/>
			<path class="st1" d="M1322.5,238.6c1.2,1,1.4,2.7,0.5,3.9c-0.9,1.2-2.7,1.4-3.9,0.5c-1.2-0.9-1.4-2.7-0.5-3.9
				C1319.6,237.8,1321.3,237.6,1322.5,238.6z"/>
			<path class="st1" d="M1332.4,227.5c1.1,1.1,1.1,2.8,0.1,3.9c-1,1.1-2.8,1.1-3.9,0.1c-1.1-1-1.2-2.8-0.1-3.9
				C1329.6,226.4,1331.3,226.4,1332.4,227.5z"/>
			<path class="st1" d="M1343.2,217.3c1,1.2,0.9,2.9-0.3,3.9c-1.2,1-2.9,0.9-3.9-0.2c-1-1.1-1-2.9,0.2-3.9
				C1340.5,216,1342.2,216.1,1343.2,217.3z"/>
			<path class="st1" d="M1354.9,208c0.9,1.2,0.6,3-0.6,3.8c-1.2,0.9-2.9,0.7-3.9-0.5c-0.9-1.2-0.7-3,0.5-3.9
				C1352.2,206.5,1354,206.8,1354.9,208z"/>
			<path class="st1" d="M1367.3,199.8c0.8,1.3,0.3,3-0.9,3.8c-1.3,0.8-3,0.4-3.8-0.9c-0.8-1.3-0.4-3,0.9-3.9
				C1364.8,198.1,1366.5,198.5,1367.3,199.8z"/>
			<path class="st1" d="M1380.4,192.7c0.7,1.4,0.1,3.1-1.2,3.7c-1.3,0.7-3,0.1-3.7-1.2c-0.7-1.3-0.2-3,1.2-3.7
				C1378,190.8,1379.7,191.4,1380.4,192.7z"/>
			<path class="st1" d="M1394,186.9c0.5,1.4-0.2,3-1.6,3.6c-1.4,0.6-3-0.1-3.6-1.5c-0.6-1.4,0.1-3,1.6-3.6
				C1391.9,184.7,1393.5,185.4,1394,186.9z"/>
			<path class="st1" d="M1408.1,182.2c0.4,1.5-0.4,3-1.9,3.4c-1.5,0.4-3-0.4-3.5-1.8c-0.5-1.4,0.3-3.1,1.9-3.5
				C1406.2,179.9,1407.7,180.7,1408.1,182.2z"/>
			<path class="st1" d="M1422.6,178.8c0.3,1.5-0.7,2.9-2.2,3.2c-1.5,0.3-2.9-0.6-3.3-2.1c-0.3-1.5,0.6-3,2.2-3.3
				C1420.8,176.2,1422.3,177.3,1422.6,178.8z"/>
			<path class="st1" d="M1437.3,176.6c0.1,1.5-0.9,2.9-2.4,3.1c-1.5,0.2-2.9-0.9-3.1-2.4c-0.2-1.5,0.9-2.9,2.4-3.1
				C1435.8,174,1437.2,175.1,1437.3,176.6z"/>
			<path class="st1" d="M1452.2,175.8c0,1.5-1.2,2.8-2.7,2.8c-1.5,0-2.8-1.2-2.9-2.7c-0.1-1.5,1.1-2.8,2.7-2.8
				C1450.9,173,1452.1,174.2,1452.2,175.8z"/>
			<path class="st1" d="M1467,176.2c-0.1,1.5-1.4,2.7-2.9,2.6c-1.5-0.1-2.7-1.3-2.6-2.9c0.1-1.5,1.4-2.8,2.9-2.7
				C1466,173.3,1467.1,174.7,1467,176.2z"/>
			<path class="st1" d="M1481.8,177.9c-0.2,1.5-1.6,2.5-3.1,2.3c-1.5-0.2-2.6-1.6-2.4-3.1c0.2-1.5,1.6-2.6,3.2-2.4
				C1481,174.9,1482,176.4,1481.8,177.9z"/>
			<path class="st1" d="M1496.4,180.9c-0.4,1.5-1.9,2.4-3.3,2.1c-1.5-0.3-2.4-1.8-2.1-3.3c0.3-1.5,1.8-2.4,3.3-2.1
				C1495.8,177.9,1496.7,179.4,1496.4,180.9z"/>
			<path class="st1" d="M1510.6,185.1c-0.5,1.4-2.1,2.2-3.5,1.7c-1.4-0.5-2.2-2.1-1.8-3.5c0.4-1.5,2-2.2,3.5-1.7
				C1510.3,182.1,1511.1,183.7,1510.6,185.1z"/>
			<path class="st1" d="M1524.4,190.6c-0.6,1.4-2.3,2-3.6,1.4c-1.4-0.6-2.1-2.2-1.5-3.6c0.6-1.4,2.2-2.1,3.7-1.5
				C1524.4,187.6,1525.1,189.2,1524.4,190.6z"/>
			<path class="st1" d="M1537.7,197.3c-0.8,1.3-2.4,1.8-3.7,1.1c-1.3-0.7-1.9-2.4-1.2-3.7c0.7-1.4,2.4-1.9,3.8-1.2
				C1538,194.2,1538.5,196,1537.7,197.3z"/>
			<path class="st1" d="M1550.4,205.1c-0.9,1.2-2.6,1.6-3.9,0.8c-1.3-0.8-1.6-2.5-0.8-3.8c0.8-1.3,2.5-1.7,3.9-0.8
				C1550.9,202.1,1551.2,203.8,1550.4,205.1z"/>
			<path class="st1" d="M1562.3,214c-1,1.2-2.7,1.4-3.9,0.5c-1.2-0.9-1.4-2.7-0.5-3.9c0.9-1.2,2.7-1.4,3.9-0.5
				C1563,211.1,1563.3,212.8,1562.3,214z"/>
			<path class="st1" d="M1573.4,223.9c-1.1,1.1-2.8,1.1-3.9,0.1c-1.1-1-1.1-2.8-0.1-3.9c1-1.1,2.8-1.2,3.9-0.1
				C1574.4,221,1574.5,222.8,1573.4,223.9z"/>
			<path class="st1" d="M1583.6,234.7c-1.2,1-2.9,0.9-3.9-0.3c-1-1.2-0.9-2.9,0.2-3.9c1.1-1,2.9-1,3.9,0.2
				C1584.9,231.9,1584.7,233.7,1583.6,234.7z"/>
			<path class="st1" d="M1592.8,246.4c-1.2,0.9-3,0.6-3.8-0.6c-0.9-1.2-0.7-2.9,0.5-3.9c1.2-0.9,3-0.7,3.9,0.5
				C1594.3,243.7,1594.1,245.5,1592.8,246.4z"/>
			<path class="st1" d="M1601,258.8c-1.3,0.8-3,0.3-3.8-0.9c-0.8-1.3-0.4-3,0.8-3.8c1.3-0.8,3-0.4,3.9,0.9
				C1602.8,256.2,1602.3,258,1601,258.8z"/>
			<path class="st1" d="M1608.1,271.8c-1.4,0.7-3.1,0.1-3.7-1.2c-0.7-1.3-0.1-3,1.2-3.7c1.3-0.7,3-0.2,3.7,1.2
				C1610,269.5,1609.5,271.2,1608.1,271.8z"/>
			<path class="st1" d="M1614,285.5c-1.4,0.5-3-0.2-3.6-1.6c-0.6-1.4,0.1-3,1.5-3.6c1.4-0.6,3,0.1,3.6,1.6
				C1616.1,283.3,1615.4,285,1614,285.5z"/>
			<path class="st1" d="M1618.6,299.6c-1.5,0.4-3-0.4-3.4-1.9c-0.4-1.5,0.4-3,1.8-3.5c1.4-0.5,3.1,0.3,3.5,1.9
				C1621,297.6,1620.1,299.2,1618.6,299.6z"/>
			<path class="st1" d="M1622.1,314.1c-1.5,0.3-2.9-0.7-3.2-2.2c-0.3-1.5,0.6-2.9,2.1-3.3c1.5-0.3,3,0.6,3.3,2.2
				C1624.6,312.3,1623.6,313.8,1622.1,314.1z"/>
			<path class="st1" d="M1624.3,328.8c-1.5,0.1-2.9-0.9-3.1-2.4c-0.2-1.5,0.9-2.9,2.4-3.1c1.5-0.2,2.9,0.9,3.1,2.4
				C1626.9,327.2,1625.8,328.6,1624.3,328.8z"/>
			<path class="st1" d="M1625.1,343.6c-1.5,0-2.8-1.2-2.8-2.7c0-1.5,1.2-2.8,2.7-2.9c1.5-0.1,2.8,1.1,2.8,2.7
				C1627.8,342.3,1626.6,343.6,1625.1,343.6z"/>
			<path class="st1" d="M1299.9,333.9c1.5,0.1,2.7,1.4,2.6,2.9c-0.1,1.5-1.4,2.7-2.9,2.6c-1.5-0.1-2.8-1.4-2.6-2.9
				C1297,334.9,1298.4,333.8,1299.9,333.9z"/>
			<path class="st1" d="M1301.7,319.2c1.5,0.3,2.5,1.7,2.2,3.2c-0.2,1.5-1.6,2.5-3.1,2.3c-1.5-0.2-2.6-1.6-2.4-3.2
				C1298.8,320,1300.2,319,1301.7,319.2z"/>
			<path class="st1" d="M1305,304.8c1.5,0.4,2.3,1.9,1.9,3.4c-0.3,1.5-1.8,2.4-3.3,2c-1.5-0.3-2.4-1.9-2.1-3.4
				C1301.9,305.3,1303.5,304.4,1305,304.8z"/>
			<path class="st1" d="M1309.6,290.8c1.4,0.6,2.1,2.1,1.6,3.5c-0.5,1.4-2,2.2-3.5,1.7c-1.4-0.5-2.2-2.1-1.7-3.6
				C1306.5,290.9,1308.1,290.2,1309.6,290.8z"/>
			<path class="st1" d="M1315.5,277.2c1.4,0.7,1.9,2.3,1.3,3.7c-0.6,1.4-2.3,2-3.6,1.3c-1.4-0.6-2-2.3-1.4-3.7
				C1312.4,277.1,1314.1,276.5,1315.5,277.2z"/>
			<path class="st1" d="M1322.7,264.3c1.3,0.8,1.7,2.5,0.9,3.8c-0.7,1.3-2.4,1.7-3.8,1c-1.3-0.8-1.8-2.5-1-3.8
				C1319.6,263.9,1321.4,263.5,1322.7,264.3z"/>
			<path class="st1" d="M1331.1,252.1c1.2,0.9,1.4,2.6,0.6,3.9c-0.9,1.2-2.6,1.5-3.8,0.6c-1.2-0.9-1.5-2.6-0.6-3.9
				C1328.1,251.4,1329.9,251.2,1331.1,252.1z"/>
			<path class="st1" d="M1340.6,240.8c1.1,1,1.2,2.7,0.2,3.9c-1,1.1-2.7,1.2-3.9,0.3c-1.2-1-1.3-2.8-0.3-3.9
				C1337.6,239.8,1339.5,239.8,1340.6,240.8z"/>
			<path class="st1" d="M1351.1,230.4c1,1.1,0.9,2.9-0.2,3.9c-1.1,1-2.8,1-3.9-0.1c-1.1-1.1-1-2.9,0.1-3.9
				C1348.3,229.2,1350.1,229.3,1351.1,230.4z"/>
			<path class="st1" d="M1362.6,221.1c0.9,1.2,0.6,2.9-0.5,3.9c-1.2,0.9-2.9,0.7-3.9-0.5c-1-1.2-0.7-2.9,0.5-3.9
				C1359.9,219.6,1361.7,219.9,1362.6,221.1z"/>
			<path class="st1" d="M1374.9,212.9c0.8,1.3,0.4,3-0.9,3.8c-1.3,0.8-3,0.4-3.8-0.9c-0.8-1.3-0.5-3,0.9-3.8
				C1372.3,211.1,1374.1,211.6,1374.9,212.9z"/>
			<path class="st1" d="M1387.9,205.9c0.6,1.4,0.1,3-1.2,3.7c-1.3,0.7-3,0.1-3.7-1.2c-0.7-1.4-0.2-3,1.2-3.7
				C1385.5,203.9,1387.2,204.5,1387.9,205.9z"/>
			<path class="st1" d="M1401.5,200.2c0.5,1.4-0.2,3-1.6,3.6c-1.4,0.5-3-0.2-3.6-1.6c-0.6-1.4,0.1-3,1.6-3.6
				C1399.4,198,1401,198.7,1401.5,200.2z"/>
			<path class="st1" d="M1415.6,195.8c0.4,1.5-0.5,3-1.9,3.4c-1.4,0.4-3-0.4-3.4-1.9c-0.4-1.5,0.4-3,1.9-3.4
				C1413.7,193.4,1415.2,194.3,1415.6,195.8z"/>
			<path class="st1" d="M1430.1,192.8c0.2,1.5-0.8,3-2.2,3.2c-1.5,0.3-2.9-0.7-3.2-2.2c-0.3-1.5,0.7-2.9,2.2-3.2
				C1428.4,190.3,1429.9,191.3,1430.1,192.8z"/>
			<path class="st1" d="M1444.8,191.2c0.1,1.5-1,2.9-2.5,3c-1.5,0.1-2.8-1-3-2.6c-0.2-1.5,1-2.8,2.5-3
				C1443.4,188.5,1444.7,189.6,1444.8,191.2z"/>
			<path class="st1" d="M1459.6,190.9c-0.1,1.5-1.3,2.7-2.8,2.7c-1.5-0.1-2.7-1.3-2.7-2.8c0-1.5,1.2-2.8,2.8-2.7
				C1458.4,188.1,1459.6,189.4,1459.6,190.9z"/>
			<path class="st1" d="M1474.3,192.1c-0.2,1.5-1.6,2.6-3,2.4c-1.5-0.2-2.6-1.5-2.5-3c0.1-1.5,1.5-2.7,3.1-2.5
				C1473.4,189.2,1474.5,190.6,1474.3,192.1z"/>
			<path class="st1" d="M1488.9,194.6c-0.3,1.5-1.8,2.4-3.3,2.1c-1.5-0.3-2.4-1.7-2.2-3.2c0.3-1.5,1.7-2.5,3.3-2.2
				C1488.2,191.6,1489.2,193.1,1488.9,194.6z"/>
			<path class="st1" d="M1503.1,198.6c-0.5,1.5-2,2.2-3.4,1.8c-1.4-0.4-2.3-1.9-1.9-3.4c0.4-1.5,2-2.3,3.5-1.9
				C1502.8,195.5,1503.6,197.1,1503.1,198.6z"/>
			<path class="st1" d="M1516.9,203.8c-0.6,1.4-2.2,2-3.6,1.5c-1.4-0.5-2.1-2.2-1.5-3.6c0.6-1.4,2.2-2.1,3.6-1.5
				C1516.9,200.7,1517.5,202.4,1516.9,203.8z"/>
			<path class="st1" d="M1530.2,210.4c-0.8,1.4-2.4,1.8-3.7,1.1c-1.3-0.7-1.9-2.3-1.2-3.7c0.7-1.4,2.4-1.9,3.8-1.2
				C1530.5,207.3,1530.9,209.1,1530.2,210.4z"/>
			<path class="st1" d="M1542.7,218.2c-0.9,1.3-2.5,1.5-3.8,0.8c-1.3-0.8-1.6-2.5-0.8-3.8c0.8-1.3,2.5-1.7,3.9-0.8
				C1543.3,215.1,1543.6,216.9,1542.7,218.2z"/>
			<path class="st1" d="M1554.5,227.1c-1,1.2-2.7,1.3-3.9,0.4c-1.2-0.9-1.4-2.7-0.4-3.9c0.9-1.2,2.7-1.4,3.9-0.4
				C1555.3,224.2,1555.5,226,1554.5,227.1z"/>
			<path class="st1" d="M1565.4,237.2c-1.1,1.1-2.8,1-3.9,0c-1.1-1-1.1-2.8-0.1-3.9c1-1.1,2.8-1.1,3.9-0.1
				C1566.5,234.3,1566.4,236.1,1565.4,237.2z"/>
			<path class="st1" d="M1575.2,248.2c-1.2,1-2.9,0.8-3.9-0.3c-1-1.1-0.8-2.9,0.3-3.9c1.1-1,2.9-0.9,3.9,0.3
				C1576.6,245.4,1576.4,247.2,1575.2,248.2z"/>
			<path class="st1" d="M1584,260.1c-1.3,0.8-3,0.5-3.8-0.7c-0.9-1.2-0.6-2.9,0.7-3.8c1.2-0.9,3-0.6,3.9,0.7
				C1585.6,257.5,1585.3,259.2,1584,260.1z"/>
			<path class="st1" d="M1591.6,272.7c-1.3,0.7-3,0.2-3.8-1.1c-0.7-1.3-0.3-3,1-3.8c1.3-0.8,3-0.3,3.8,1
				C1593.5,270.3,1593,272,1591.6,272.7z"/>
			<path class="st1" d="M1598,286.1c-1.4,0.6-3-0.1-3.7-1.4c-0.6-1.4,0-3,1.4-3.6c1.4-0.6,3,0,3.7,1.4
				C1600,283.9,1599.4,285.5,1598,286.1z"/>
			<path class="st1" d="M1603,300c-1.5,0.4-3-0.3-3.5-1.8c-0.5-1.4,0.3-3,1.7-3.5c1.4-0.5,3,0.3,3.5,1.8
				C1605.3,298,1604.5,299.5,1603,300z"/>
			<path class="st1" d="M1606.7,314.3c-1.5,0.3-3-0.6-3.3-2.1c-0.3-1.5,0.6-2.9,2.1-3.3c1.5-0.4,3,0.6,3.3,2.1
				C1609.2,312.5,1608.2,314,1606.7,314.3z"/>
			<path class="st1" d="M1609.1,328.9c-1.5,0.2-2.9-0.9-3.1-2.4c-0.2-1.5,0.9-2.9,2.4-3.1c1.5-0.2,2.9,0.8,3.1,2.4
				C1611.6,327.3,1610.6,328.7,1609.1,328.9z"/>
			<path class="st1" d="M1610,343.6c-1.5,0-2.8-1.2-2.8-2.7c0-1.5,1.2-2.8,2.7-2.9c1.5-0.1,2.8,1.1,2.8,2.7
				C1612.7,342.3,1611.5,343.6,1610,343.6z"/>
			<path class="st1" d="M1315,334c1.5,0.1,2.7,1.4,2.6,2.9c-0.1,1.5-1.4,2.6-2.9,2.6c-1.5-0.1-2.7-1.4-2.6-2.9
				C1312.2,335,1313.5,333.8,1315,334z"/>
			<path class="st1" d="M1317,319.4c1.5,0.3,2.5,1.7,2.2,3.2c-0.3,1.5-1.7,2.5-3.2,2.2c-1.5-0.2-2.5-1.6-2.2-3.2
				C1314.1,320.1,1315.5,319.1,1317,319.4z"/>
			<path class="st1" d="M1320.6,305.2c1.5,0.5,2.3,2,1.9,3.4c-0.4,1.4-1.9,2.3-3.4,1.9c-1.5-0.4-2.3-1.9-1.9-3.4
				C1317.6,305.6,1319.1,304.7,1320.6,305.2z"/>
			<path class="st1" d="M1325.6,291.4c1.4,0.6,2.1,2.2,1.6,3.6c-0.5,1.4-2.1,2.1-3.6,1.5c-1.4-0.5-2.1-2.1-1.6-3.6
				C1322.5,291.5,1324.1,290.8,1325.6,291.4z"/>
			<path class="st1" d="M1332,278.2c1.3,0.7,1.8,2.4,1.1,3.7c-0.7,1.3-2.3,1.8-3.7,1.2c-1.4-0.7-1.9-2.4-1.2-3.7
				C1328.9,277.9,1330.7,277.5,1332,278.2z"/>
			<path class="st1" d="M1339.8,265.8c1.3,0.9,1.6,2.6,0.7,3.8c-0.8,1.3-2.5,1.6-3.8,0.8c-1.3-0.8-1.7-2.6-0.8-3.9
				C1336.8,265.2,1338.6,264.9,1339.8,265.8z"/>
			<path class="st1" d="M1348.9,254.2c1.1,1,1.3,2.7,0.3,3.9c-1,1.1-2.6,1.3-3.9,0.4c-1.2-0.9-1.4-2.7-0.4-3.9
				C1345.9,253.3,1347.7,253.2,1348.9,254.2z"/>
			<path class="st1" d="M1359,243.6c1,1.1,1,2.9-0.1,3.9c-1.1,1-2.8,1-3.9-0.1c-1.1-1.1-1.1-2.8,0-3.9
				C1356.2,242.5,1358,242.5,1359,243.6z"/>
			<path class="st1" d="M1370.3,234.2c0.9,1.2,0.7,3-0.5,3.9c-1.2,0.9-2.9,0.7-3.9-0.5c-1-1.2-0.8-2.9,0.5-3.9
				C1367.6,232.8,1369.4,233,1370.3,234.2z"/>
			<path class="st1" d="M1382.4,226c0.8,1.3,0.4,3-0.9,3.8c-1.2,0.8-2.9,0.4-3.8-0.9c-0.8-1.3-0.5-3,0.8-3.8
				C1379.9,224.2,1381.6,224.6,1382.4,226z"/>
			<path class="st1" d="M1395.4,219.1c0.7,1.4,0,3-1.3,3.7c-1.3,0.7-3,0.1-3.7-1.2c-0.7-1.4-0.2-3,1.2-3.7
				C1393.1,217,1394.8,217.7,1395.4,219.1z"/>
			<path class="st1" d="M1409,213.6c0.5,1.4-0.2,3-1.7,3.5c-1.4,0.5-3-0.2-3.5-1.6c-0.6-1.4,0.2-3,1.6-3.6
				C1406.9,211.4,1408.5,212.1,1409,213.6z"/>
			<path class="st1" d="M1423.1,209.5c0.3,1.5-0.6,3-2,3.3c-1.4,0.3-2.9-0.5-3.3-2c-0.4-1.5,0.5-3.1,2-3.4
				C1421.3,207.1,1422.8,208,1423.1,209.5z"/>
			<path class="st1" d="M1437.6,207c0.2,1.5-0.9,2.9-2.3,3.1c-1.5,0.2-2.9-0.8-3.1-2.3c-0.2-1.5,0.8-3,2.3-3.2
				C1436,204.4,1437.4,205.5,1437.6,207z"/>
			<path class="st1" d="M1452.2,206c0,1.5-1.2,2.8-2.7,2.8c-1.5,0-2.8-1.1-2.8-2.7c-0.1-1.5,1.1-2.9,2.6-2.9
				C1450.9,203.2,1452.2,204.5,1452.2,206z"/>
			<path class="st1" d="M1466.9,206.5c-0.1,1.5-1.4,2.7-2.9,2.6c-1.5-0.1-2.6-1.4-2.6-2.9c0.1-1.5,1.4-2.7,2.9-2.6
				C1465.9,203.6,1467,205,1466.9,206.5z"/>
			<path class="st1" d="M1481.4,208.5c-0.3,1.5-1.7,2.5-3.2,2.2c-1.5-0.3-2.5-1.7-2.2-3.2c0.2-1.5,1.7-2.5,3.2-2.2
				C1480.7,205.6,1481.7,207,1481.4,208.5z"/>
			<path class="st1" d="M1495.7,212c-0.5,1.5-2,2.3-3.4,1.9c-1.4-0.4-2.3-1.9-1.9-3.4c0.4-1.5,1.9-2.3,3.4-1.9
				C1495.3,209,1496.1,210.6,1495.7,212z"/>
			<path class="st1" d="M1509.5,217c-0.6,1.4-2.2,2.1-3.6,1.6c-1.4-0.5-2.1-2.1-1.5-3.6c0.5-1.4,2.1-2.1,3.6-1.6
				C1509.4,214,1510.1,215.6,1509.5,217z"/>
			<path class="st1" d="M1522.6,223.5c-0.7,1.3-2.4,1.8-3.7,1.1c-1.3-0.7-1.8-2.3-1.2-3.7c0.7-1.4,2.4-1.9,3.7-1.2
				C1522.9,220.4,1523.4,222.2,1522.6,223.5z"/>
			<path class="st1" d="M1535.1,231.3c-0.9,1.3-2.6,1.6-3.8,0.7c-1.3-0.8-1.6-2.5-0.8-3.8c0.8-1.3,2.6-1.7,3.9-0.8
				C1535.6,228.3,1535.9,230,1535.1,231.3z"/>
			<path class="st1" d="M1546.6,240.3c-1,1.1-2.7,1.3-3.9,0.3c-1.1-1-1.3-2.6-0.4-3.9c0.9-1.2,2.7-1.4,3.9-0.4
				C1547.5,237.4,1547.6,239.2,1546.6,240.3z"/>
			<path class="st1" d="M1557.2,250.5c-1.1,1-2.9,1-3.9-0.1c-1-1.1-1-2.8,0.1-3.9c1.1-1.1,2.8-1.1,3.9,0
				C1558.4,247.7,1558.3,249.5,1557.2,250.5z"/>
			<path class="st1" d="M1566.7,261.7c-1.2,0.9-3,0.7-3.9-0.5c-0.9-1.2-0.7-2.9,0.5-3.9c1.2-1,2.9-0.8,3.9,0.5
				C1568.1,259.1,1567.9,260.8,1566.7,261.7z"/>
			<path class="st1" d="M1574.9,273.9c-1.3,0.8-3,0.4-3.8-0.9c-0.8-1.2-0.4-2.9,0.9-3.8c1.3-0.8,3-0.5,3.8,0.8
				C1576.6,271.4,1576.2,273.1,1574.9,273.9z"/>
			<path class="st1" d="M1581.8,286.8c-1.4,0.7-3,0-3.7-1.3c-0.7-1.3-0.1-3,1.2-3.7c1.4-0.7,3-0.2,3.7,1.2
				C1583.8,284.5,1583.1,286.2,1581.8,286.8z"/>
			<path class="st1" d="M1587.3,300.5c-1.4,0.5-3-0.2-3.5-1.7c-0.5-1.4,0.2-3,1.6-3.5c1.4-0.6,3,0.2,3.6,1.6
				C1589.5,298.4,1588.7,300,1587.3,300.5z"/>
			<path class="st1" d="M1591.3,314.6c-1.5,0.3-3-0.6-3.3-2c-0.3-1.4,0.5-2.9,2-3.3c1.5-0.4,3.1,0.5,3.4,2
				C1593.7,312.7,1592.8,314.2,1591.3,314.6z"/>
			<path class="st1" d="M1593.8,329c-1.5,0.2-2.9-0.9-3.1-2.3c-0.2-1.5,0.8-2.9,2.3-3.1c1.5-0.2,3,0.8,3.2,2.3
				C1596.4,327.4,1595.4,328.8,1593.8,329z"/>
			<path class="st1" d="M1594.9,343.7c-1.5,0-2.8-1.2-2.8-2.7c0-1.5,1.1-2.8,2.7-2.9c1.5-0.1,2.9,1.1,2.9,2.6
				C1597.6,342.4,1596.4,343.6,1594.9,343.7z"/>
			<path class="st1" d="M1330.2,333.9c1.5,0.2,2.7,1.5,2.6,3c-0.1,1.5-1.4,2.6-3,2.6c-1.5-0.1-2.7-1.4-2.6-3
				C1327.3,334.9,1328.7,333.7,1330.2,333.9z"/>
			<path class="st1" d="M1332.5,319.2c1.5,0.3,2.4,1.8,2.1,3.3c-0.3,1.5-1.7,2.5-3.2,2.2c-1.5-0.3-2.5-1.7-2.2-3.3
				C1329.5,319.8,1331,318.9,1332.5,319.2z"/>
			<path class="st1" d="M1336.5,305c1.4,0.5,2.2,2.1,1.7,3.5c-0.5,1.4-2,2.2-3.5,1.8c-1.5-0.4-2.3-2-1.8-3.5
				C1333.5,305.2,1335.1,304.4,1336.5,305z"/>
			<path class="st1" d="M1342.2,291.3c1.4,0.7,1.9,2.3,1.3,3.7c-0.6,1.4-2.3,2-3.7,1.4c-1.4-0.6-2-2.3-1.4-3.7
				C1339.2,291.2,1340.8,290.6,1342.2,291.3z"/>
			<path class="st1" d="M1349.5,278.4c1.3,0.8,1.7,2.5,0.9,3.8c-0.8,1.3-2.4,1.7-3.8,0.9c-1.3-0.8-1.8-2.5-0.9-3.8
				C1346.5,277.9,1348.3,277.5,1349.5,278.4z"/>
			<path class="st1" d="M1358.3,266.4c1.2,1,1.4,2.7,0.4,3.9c-0.9,1.2-2.7,1.4-3.9,0.5c-1.2-0.9-1.4-2.7-0.5-3.9
				C1355.4,265.6,1357.1,265.4,1358.3,266.4z"/>
			<path class="st1" d="M1368.4,255.6c1.1,1.1,1,2.9-0.1,3.9c-1,1.1-2.8,1.1-3.9,0c-1.1-1-1.1-2.8,0-4
				C1365.6,254.4,1367.4,254.5,1368.4,255.6z"/>
			<path class="st1" d="M1379.7,246c0.9,1.2,0.7,3-0.5,3.9c-1.2,0.9-2.9,0.7-3.9-0.5c-1-1.2-0.8-2.9,0.5-3.9
				C1377.1,244.5,1378.8,244.7,1379.7,246z"/>
			<path class="st1" d="M1392.1,237.8c0.8,1.3,0.3,3-1,3.8c-1.3,0.8-3,0.4-3.8-0.9c-0.8-1.3-0.4-3,0.9-3.9
				C1389.6,236.1,1391.3,236.5,1392.1,237.8z"/>
			<path class="st1" d="M1405.3,231.2c0.6,1.4,0,3.1-1.4,3.7c-1.4,0.6-3,0-3.7-1.4c-0.7-1.4-0.1-3,1.4-3.7
				C1403.1,229.1,1404.7,229.7,1405.3,231.2z"/>
			<path class="st1" d="M1419.3,226.1c0.4,1.5-0.4,2.9-1.8,3.4c-1.4,0.5-3-0.3-3.5-1.7c-0.5-1.4,0.3-3,1.8-3.5
				C1417.3,223.8,1418.9,224.7,1419.3,226.1z"/>
			<path class="st1" d="M1433.7,222.8c0.2,1.5-0.7,2.9-2.2,3.2c-1.5,0.2-2.9-0.7-3.2-2.2c-0.3-1.5,0.6-3,2.2-3.3
				C1432,220.3,1433.5,221.3,1433.7,222.8z"/>
			<path class="st1" d="M1448.5,221.2c0.1,1.5-1.1,2.9-2.6,3c-1.5,0.1-2.8-1-3-2.6c-0.1-1.5,1-2.9,2.6-3
				C1447.1,218.5,1448.4,219.6,1448.5,221.2z"/>
			<path class="st1" d="M1463.3,221.4c-0.1,1.5-1.4,2.6-2.9,2.6c-1.5,0-2.7-1.3-2.7-2.8c0-1.5,1.3-2.7,2.9-2.7
				C1462.2,218.5,1463.4,219.8,1463.3,221.4z"/>
			<path class="st1" d="M1478,223.2c-0.3,1.5-1.7,2.5-3.2,2.2c-1.5-0.3-2.5-1.6-2.3-3.2c0.2-1.5,1.7-2.6,3.2-2.3
				C1477.3,220.3,1478.3,221.7,1478,223.2z"/>
			<path class="st1" d="M1492.4,226.8c-0.5,1.4-2,2.3-3.4,1.9c-1.4-0.4-2.3-1.9-1.9-3.4c0.4-1.5,1.9-2.3,3.4-1.9
				C1492,223.8,1492.8,225.3,1492.4,226.8z"/>
			<path class="st1" d="M1506.2,232.1c-0.6,1.4-2.3,2-3.6,1.4c-1.4-0.6-2.1-2.2-1.5-3.6c0.6-1.4,2.2-2.1,3.7-1.5
				C1506.2,229.1,1506.9,230.7,1506.2,232.1z"/>
			<path class="st1" d="M1519.3,239c-0.8,1.3-2.5,1.8-3.8,1c-1.3-0.7-1.8-2.4-1-3.8c0.7-1.3,2.4-1.8,3.8-1
				C1519.7,236,1520.1,237.7,1519.3,239z"/>
			<path class="st1" d="M1531.5,247.4c-0.9,1.2-2.7,1.4-3.8,0.5c-1.2-0.9-1.5-2.6-0.6-3.8c0.9-1.2,2.6-1.5,3.9-0.6
				C1532.3,244.5,1532.5,246.2,1531.5,247.4z"/>
			<path class="st1" d="M1542.7,257.2c-1.1,1.1-2.8,1.1-3.9,0.1c-1.1-1-1.1-2.8-0.1-3.9c1-1.2,2.8-1.2,3.9-0.1
				C1543.7,254.4,1543.8,256.1,1542.7,257.2z"/>
			<path class="st1" d="M1552.6,268.3c-1.2,1-2.9,0.7-3.9-0.4c-1-1.1-0.8-2.9,0.3-3.9c1.1-1,2.9-0.9,3.9,0.3
				C1554,265.5,1553.8,267.3,1552.6,268.3z"/>
			<path class="st1" d="M1561.1,280.4c-1.3,0.8-3,0.4-3.8-0.8c-0.8-1.3-0.4-3,0.8-3.8c1.3-0.9,3-0.5,3.8,0.8
				C1562.8,277.8,1562.4,279.6,1561.1,280.4z"/>
			<path class="st1" d="M1568.2,293.4c-1.4,0.6-3,0-3.7-1.3c-0.7-1.3-0.1-3,1.2-3.7c1.4-0.7,3-0.2,3.7,1.3
				C1570.2,291.1,1569.5,292.8,1568.2,293.4z"/>
			<path class="st1" d="M1573.6,307.2c-1.5,0.5-3-0.3-3.5-1.7c-0.5-1.4,0.2-3,1.7-3.5c1.4-0.5,3.1,0.2,3.6,1.7
				C1575.8,305.1,1575.1,306.7,1573.6,307.2z"/>
			<path class="st1" d="M1577.4,321.5c-1.5,0.3-3-0.7-3.3-2.1c-0.3-1.5,0.6-2.9,2.1-3.3c1.5-0.4,3,0.6,3.3,2.1
				C1579.9,319.8,1578.9,321.2,1577.4,321.5z"/>
			<path class="st1" d="M1579.4,336.2c-1.5,0.1-2.9-1-3-2.5c-0.2-1.5,0.9-2.8,2.4-3c1.5-0.2,2.9,0.9,3.1,2.5
				C1582.1,334.8,1580.9,336.1,1579.4,336.2z"/>
			<path class="st1" d="M1345.4,334c1.5,0.2,2.6,1.5,2.5,3c-0.1,1.5-1.4,2.6-3,2.5c-1.5-0.1-2.7-1.4-2.5-3
				C1342.4,334.9,1343.8,333.8,1345.4,334z"/>
			<path class="st1" d="M1347.9,319.5c1.5,0.4,2.4,1.8,2.1,3.3c-0.4,1.4-1.8,2.4-3.3,2.1c-1.5-0.3-2.5-1.8-2.1-3.3
				C1345,320.1,1346.5,319.1,1347.9,319.5z"/>
			<path class="st1" d="M1352.5,305.5c1.4,0.6,2.1,2.2,1.6,3.5c-0.5,1.4-2,2.1-3.5,1.6c-1.4-0.5-2.2-2.1-1.7-3.6
				C1349.4,305.7,1351,304.9,1352.5,305.5z"/>
			<path class="st1" d="M1358.8,292.3c1.3,0.8,1.8,2.4,1.1,3.7c-0.7,1.3-2.3,1.8-3.7,1.2c-1.4-0.7-1.9-2.4-1.2-3.8
				C1355.7,292,1357.5,291.5,1358.8,292.3z"/>
			<path class="st1" d="M1366.8,279.9c1.2,0.9,1.5,2.6,0.6,3.8c-0.9,1.2-2.6,1.5-3.8,0.6c-1.3-0.9-1.6-2.6-0.7-3.9
				C1363.9,279.3,1365.6,279,1366.8,279.9z"/>
			<path class="st1" d="M1376.4,268.8c1.1,1.1,1.1,2.8,0.1,3.9c-1,1.1-2.8,1.1-3.9,0.1c-1.1-1-1.2-2.8-0.1-3.9
				C1373.6,267.8,1375.4,267.8,1376.4,268.8z"/>
			<path class="st1" d="M1387.4,259.1c0.9,1.2,0.7,2.9-0.4,3.9c-1.2,0.9-2.8,0.8-3.9-0.4c-1-1.1-0.9-3,0.4-3.9
				C1384.8,257.7,1386.5,257.9,1387.4,259.1z"/>
			<path class="st1" d="M1399.6,250.9c0.8,1.3,0.3,3-0.9,3.8c-1.2,0.8-2.9,0.4-3.8-0.9c-0.8-1.3-0.4-3,0.9-3.8
				C1397.2,249.1,1398.9,249.6,1399.6,250.9z"/>
			<path class="st1" d="M1412.8,244.4c0.6,1.4-0.1,3-1.4,3.6c-1.3,0.6-3,0-3.6-1.4c-0.7-1.4,0-3,1.4-3.7
				C1410.6,242.3,1412.2,243,1412.8,244.4z"/>
			<path class="st1" d="M1426.8,239.7c0.4,1.5-0.5,3-1.9,3.4c-1.4,0.4-2.9-0.4-3.4-1.9c-0.5-1.5,0.4-3,1.9-3.4
				C1424.8,237.4,1426.4,238.2,1426.8,239.7z"/>
			<path class="st1" d="M1441.2,237c0.2,1.5-0.9,2.9-2.3,3.1c-1.5,0.2-2.9-0.8-3.1-2.3c-0.3-1.5,0.8-3,2.3-3.2
				C1439.6,234.4,1441,235.5,1441.2,237z"/>
			<path class="st1" d="M1455.9,236.2c0,1.5-1.2,2.7-2.7,2.8c-1.5,0-2.7-1.2-2.8-2.7c-0.1-1.5,1.2-2.8,2.7-2.8
				C1454.6,233.3,1455.9,234.6,1455.9,236.2z"/>
			<path class="st1" d="M1470.5,237.3c-0.2,1.5-1.6,2.6-3.1,2.4c-1.5-0.2-2.5-1.5-2.4-3.1c0.1-1.5,1.5-2.7,3.1-2.4
				C1469.7,234.4,1470.7,235.8,1470.5,237.3z"/>
			<path class="st1" d="M1484.9,240.4c-0.4,1.5-1.9,2.3-3.3,1.9c-1.4-0.3-2.3-1.8-2-3.3c0.3-1.5,1.8-2.4,3.4-2.1
				C1484.4,237.4,1485.3,238.9,1484.9,240.4z"/>
			<path class="st1" d="M1498.7,245.3c-0.6,1.4-2.2,2-3.6,1.5c-1.4-0.5-2.1-2.1-1.5-3.6c0.5-1.4,2.1-2.1,3.6-1.6
				C1498.7,242.2,1499.3,243.9,1498.7,245.3z"/>
			<path class="st1" d="M1511.8,252.1c-0.8,1.3-2.5,1.8-3.8,1c-1.3-0.7-1.7-2.4-1-3.8c0.7-1.4,2.4-1.8,3.8-1
				C1512.1,249.1,1512.6,250.8,1511.8,252.1z"/>
			<path class="st1" d="M1523.8,260.6c-1,1.2-2.7,1.4-3.9,0.5c-1.1-0.9-1.4-2.6-0.5-3.8c0.9-1.2,2.7-1.5,3.9-0.5
				C1524.5,257.6,1524.8,259.4,1523.8,260.6z"/>
			<path class="st1" d="M1534.6,270.5c-1.1,1-2.8,1-3.9,0c-1.1-1-1.1-2.8,0-3.9c1-1.1,2.8-1.1,3.9,0
				C1535.7,267.7,1535.7,269.5,1534.6,270.5z"/>
			<path class="st1" d="M1543.9,281.9c-1.3,0.9-2.9,0.6-3.8-0.5c-0.9-1.2-0.7-2.9,0.5-3.8c1.2-1,2.9-0.7,3.9,0.5
				C1545.5,279.2,1545.2,281,1543.9,281.9z"/>
			<path class="st1" d="M1551.7,294.3c-1.3,0.7-3,0.2-3.8-1c-0.7-1.3-0.3-3,1-3.8c1.3-0.8,3-0.3,3.8,1
				C1553.6,291.9,1553.1,293.6,1551.7,294.3z"/>
			<path class="st1" d="M1557.8,307.7c-1.4,0.5-3-0.2-3.6-1.5c-0.5-1.4,0.1-3,1.5-3.6c1.4-0.6,3.1,0,3.6,1.5
				C1559.9,305.6,1559.2,307.2,1557.8,307.7z"/>
			<path class="st1" d="M1562,321.8c-1.5,0.3-3-0.6-3.3-2c-0.4-1.4,0.5-2.9,2-3.3c1.5-0.4,3,0.5,3.4,2
				C1564.4,320,1563.5,321.5,1562,321.8z"/>
			<path class="st1" d="M1564.3,336.3c-1.5,0.1-2.8-1-3-2.4c-0.2-1.5,0.9-2.8,2.4-3c1.5-0.2,2.9,0.9,3.1,2.4
				C1567,334.8,1565.8,336.2,1564.3,336.3z"/>
			<path class="st1" d="M1360.7,333.8c1.5,0.2,2.5,1.6,2.3,3c-0.1,1.5-1.4,2.6-2.9,2.5c-1.5-0.1-2.7-1.5-2.6-3.1
				C1357.7,334.7,1359.2,333.6,1360.7,333.8z"/>
			<path class="st1" d="M1363.7,319.2c1.5,0.4,2.4,2,2,3.4c-0.4,1.4-1.9,2.3-3.4,2c-1.5-0.3-2.4-1.9-2-3.4
				C1360.7,319.7,1362.2,318.8,1363.7,319.2z"/>
			<path class="st1" d="M1369.1,305.4c1.4,0.7,2,2.3,1.3,3.6c-0.7,1.3-2.2,2-3.6,1.4c-1.4-0.6-2.2-2.3-1.4-3.7
				C1366,305.3,1367.7,304.7,1369.1,305.4z"/>
			<path class="st1" d="M1376.5,292.4c0.6,0.4,1,1.1,1.1,1.8c0.2,0.7,0.1,1.5-0.3,2.1c-0.8,1.3-2.5,1.7-3.8,0.9
				c-1.3-0.8-1.7-2.5-0.9-3.9c0.4-0.7,1-1.1,1.7-1.3C1375.1,291.9,1375.8,292,1376.5,292.4z"/>
			<path class="st1" d="M1385.9,280.9c1.1,1.1,1.2,2.8,0.2,3.9c-1,1.1-2.8,1.2-3.9,0.2c-1.2-1-1.3-2.7-0.2-3.9
				C1383,280,1384.8,279.9,1385.9,280.9z"/>
			<path class="st1" d="M1396.9,271c0.9,1.2,0.7,2.9-0.5,3.8c-1.2,0.9-2.8,0.9-3.8-0.3c-1-1.1-0.9-3,0.3-4
				C1394.2,269.5,1396,269.7,1396.9,271z"/>
			<path class="st1" d="M1409.4,262.7c0.7,1.3,0.3,3.1-1,3.8c-1.3,0.8-3,0.3-3.8-0.9c-0.8-1.3-0.4-3,1-3.8
				C1406.9,261,1408.6,261.4,1409.4,262.7z"/>
			<path class="st1" d="M1423,256.8c0.5,1.4-0.2,3-1.6,3.5c-1.4,0.5-3-0.2-3.6-1.6c-0.6-1.4,0.1-3,1.6-3.5
				C1420.9,254.6,1422.5,255.3,1423,256.8z"/>
			<path class="st1" d="M1437.4,252.9c0.3,1.5-0.7,2.8-2.2,3.2c-1.4,0.4-2.9-0.5-3.3-2c-0.4-1.5,0.6-3,2.1-3.4
				C1435.6,250.3,1437.1,251.4,1437.4,252.9z"/>
			<path class="st1" d="M1452.2,251.4c0,1.5-1.1,2.8-2.6,2.9c-1.5,0.1-2.8-1.1-2.9-2.6c-0.1-1.5,1-2.8,2.6-2.9
				C1450.8,248.7,1452.1,249.8,1452.2,251.4z"/>
			<path class="st1" d="M1467,252.1c-0.2,1.5-1.6,2.5-3,2.3c-1.5-0.1-2.6-1.4-2.5-2.9c0.1-1.5,1.5-2.7,3.1-2.6
				C1466.1,249.2,1467.2,250.6,1467,252.1z"/>
			<path class="st1" d="M1481.6,255.2c-0.4,1.5-2,2.4-3.4,2c-1.4-0.4-2.3-1.9-2-3.4c0.3-1.5,1.9-2.4,3.4-2
				C1481.1,252.2,1482,253.7,1481.6,255.2z"/>
			<path class="st1" d="M1495.5,260.5c-0.7,1.4-2.3,2-3.6,1.3c-1.3-0.7-2-2.2-1.4-3.6c0.6-1.4,2.3-2.2,3.7-1.4
				C1495.5,257.5,1496.1,259.2,1495.5,260.5z"/>
			<path class="st1" d="M1508.4,267.9c-0.4,0.6-1.1,1-1.8,1.1c-0.7,0.2-1.5,0.1-2.1-0.3c-1.3-0.8-1.7-2.5-0.9-3.8
				c0.8-1.3,2.5-1.7,3.9-0.9c0.7,0.4,1.1,1,1.3,1.7C1509,266.5,1508.8,267.3,1508.4,267.9z"/>
			<path class="st1" d="M1519.9,277.3c-1.1,1.1-2.8,1.2-3.9,0.2c-1.1-1-1.2-2.8-0.2-3.9c1-1.2,2.7-1.3,3.9-0.2
				C1520.9,274.5,1521,276.2,1519.9,277.3z"/>
			<path class="st1" d="M1529.9,288.4c-1.2,0.9-2.9,0.7-3.8-0.5c-0.9-1.2-0.9-2.8,0.3-3.8c1.1-1,3-0.9,4,0.3
				C1531.3,285.7,1531.1,287.5,1529.9,288.4z"/>
			<path class="st1" d="M1538.1,300.8c-1.3,0.7-3.1,0.3-3.8-1c-0.8-1.3-0.3-3,0.9-3.8s3-0.4,3.8,1
				C1539.9,298.4,1539.4,300.1,1538.1,300.8z"/>
			<path class="st1" d="M1544.1,314.5c-1.4,0.5-3-0.2-3.5-1.6c-0.5-1.4,0.2-3,1.6-3.6c1.4-0.6,3,0.1,3.5,1.6
				C1546.2,312.3,1545.5,314,1544.1,314.5z"/>
			<path class="st1" d="M1548,328.8c-1.5,0.3-2.8-0.7-3.2-2.2c-0.4-1.4,0.5-2.9,2-3.3c1.5-0.4,3,0.6,3.4,2.1
				C1550.6,327,1549.4,328.6,1548,328.8z"/>
			<path class="st1" d="M1549.5,343.6c-1.5,0-2.8-1.1-2.9-2.6c-0.1-1.5,1.1-2.8,2.6-2.9c1.5-0.1,2.8,1,2.9,2.6
				C1552.2,342.3,1551,343.6,1549.5,343.6z"/>
			<path class="st1" d="M1375.9,334c1.5,0.2,2.6,1.6,2.3,3.1c-0.3,1.4-1.5,2.5-3,2.4c-1.5-0.1-2.8-1.5-2.5-3.1
				C1373,334.8,1374.4,333.7,1375.9,334z"/>
			<path class="st1" d="M1379.5,319.7c1.4,0.5,2.2,2.1,1.7,3.4c-0.4,1.4-1.9,2.2-3.3,1.8c-1.5-0.4-2.4-2-1.9-3.5
				C1376.4,320,1378,319.2,1379.5,319.7z"/>
			<path class="st1" d="M1385.6,306.3c1.3,0.8,1.7,2.4,1.1,3.7c-0.6,1.3-2.3,1.8-3.6,1.2c-1.4-0.7-1.9-2.4-1.2-3.8
				C1382.5,306,1384.3,305.6,1385.6,306.3z"/>
			<path class="st1" d="M1394.1,294.3c1.2,1,1.2,2.6,0.4,3.9c-0.9,1.2-2.6,1.4-3.8,0.5c-1.2-0.9-1.5-2.7-0.5-3.9
				C1391.1,293.4,1393,293.3,1394.1,294.3z"/>
			<path class="st1" d="M1404.6,284c0.5,0.6,0.7,1.3,0.6,2c-0.1,0.7-0.3,1.4-0.9,1.9c-1.1,1-2.8,0.9-3.9-0.2c-1-1.1-0.9-2.9,0.2-4
				c0.6-0.5,1.3-0.8,2-0.7C1403.5,283.1,1404.2,283.4,1404.6,284z"/>
			<path class="st1" d="M1416.9,275.9c0.7,1.3,0.3,3-1,3.8c-1.3,0.8-2.9,0.3-3.8-1c-0.8-1.3-0.4-3,1-3.8
				C1414.5,274.1,1416.2,274.5,1416.9,275.9z"/>
			<path class="st1" d="M1430.5,270.1c0.5,1.5-0.3,3.1-1.7,3.6c-1.4,0.5-3-0.2-3.5-1.7c-0.6-1.4,0.2-3,1.7-3.6
				C1428.4,267.9,1430,268.7,1430.5,270.1z"/>
			<path class="st1" d="M1444.8,267c0.2,1.5-0.9,2.9-2.3,3.2c-1.4,0.2-2.9-0.8-3.2-2.3c-0.3-1.5,0.7-2.9,2.3-3.1
				C1443.2,264.5,1444.7,265.5,1444.8,267z"/>
			<path class="st1" d="M1459.6,266.6c-0.1,1.5-1.4,2.7-2.8,2.6c-1.5-0.1-2.7-1.3-2.7-2.8c0-1.6,1.2-2.8,2.8-2.7
				C1458.5,263.8,1459.7,265.1,1459.6,266.6z"/>
			<path class="st1" d="M1474.1,268.8c-0.4,1.5-1.8,2.4-3.3,2c-1.4-0.3-2.4-1.7-2.1-3.2c0.3-1.5,1.8-2.6,3.3-2.2
				C1473.5,265.8,1474.5,267.3,1474.1,268.8z"/>
			<path class="st1" d="M1488,273.7c-0.7,1.4-2.2,2-3.6,1.4c-1.4-0.5-2.1-2.1-1.5-3.5c0.5-1.4,2.2-2.2,3.7-1.6
				C1488,270.6,1488.6,272.3,1488,273.7z"/>
			<path class="st1" d="M1500.7,281c-0.9,1.3-2.5,1.5-3.8,0.7c-1.3-0.8-1.6-2.4-0.8-3.7c0.8-1.3,2.5-1.7,3.9-0.9
				C1501.4,277.9,1501.6,279.8,1500.7,281z"/>
			<path class="st1" d="M1511.9,290.6c-1.1,1.1-2.8,1-3.9,0.1c-1.1-1-1.1-2.7-0.1-3.9c1-1.1,2.8-1.2,4-0.1
				C1513.1,287.7,1513,289.5,1511.9,290.6z"/>
			<path class="st1" d="M1521.2,302c-1.3,0.8-3,0.5-3.9-0.6c-0.9-1.2-0.6-2.9,0.6-3.8c1.2-0.9,3-0.7,3.9,0.6
				C1522.8,299.4,1522.5,301.2,1521.2,302z"/>
			<path class="st1" d="M1528.2,315c-1.4,0.6-3.1,0-3.7-1.3c-0.6-1.3,0-3,1.3-3.7c1.4-0.7,3-0.1,3.7,1.3
				C1530.2,312.8,1529.6,314.4,1528.2,315z"/>
			<path class="st1" d="M1532.6,329c-1.5,0.3-3-0.6-3.4-2c-0.4-1.4,0.5-2.9,2-3.4c1.5-0.4,3,0.5,3.4,2
				C1535,327.2,1534.1,328.7,1532.6,329z"/>
			<path class="st1" d="M1534.4,343.7c-1.5,0-2.8-1.1-2.9-2.6c-0.1-1.5,1.1-2.8,2.6-2.9c1.5-0.2,2.8,1,2.9,2.6
				C1537.1,342.3,1535.9,343.6,1534.4,343.7z"/>
			<path class="st1" d="M1391.1,334.2c1.5,0.3,2.5,1.7,2.3,3.1c-0.2,1.4-1.6,2.4-3.2,2.3c-1.5-0.1-2.6-1.5-2.3-3.1
				C1388.2,334.9,1389.6,333.9,1391.1,334.2z"/>
			<path class="st1" d="M1395.4,320.3c0.7,0.3,1.2,0.9,1.5,1.5c0.3,0.6,0.4,1.4,0.1,2c-0.5,1.3-2.1,2-3.5,1.6
				c-1.4-0.5-2.2-2.1-1.6-3.6c0.3-0.7,0.8-1.3,1.4-1.6C1393.9,320,1394.7,320,1395.4,320.3z"/>
			<path class="st1" d="M1402.7,307.8c1.2,0.9,1.5,2.6,0.7,3.7c-0.7,1.2-2.4,1.6-3.7,0.8c-1.3-0.8-1.7-2.5-0.9-3.9
				C1399.7,307.2,1401.4,306.9,1402.7,307.8z"/>
			<path class="st1" d="M1412.5,297.2c1,1.2,0.9,2.9-0.1,3.9c-1.1,0.9-2.8,0.9-3.9-0.1c-1.1-1.1-1.1-2.8,0.1-3.9
				C1409.7,295.9,1411.5,296,1412.5,297.2z"/>
			<path class="st1" d="M1424.4,289c0.7,1.3,0.3,3-1,3.7c-1.2,0.7-2.9,0.3-3.7-1c-0.8-1.3-0.4-3,0.9-3.8
				C1422,287.1,1423.7,287.6,1424.4,289z"/>
			<path class="st1" d="M1437.9,283.7c0.4,1.5-0.4,3-1.8,3.3c-1.3,0.5-2.9-0.3-3.4-1.7c-0.5-1.4,0.2-3,1.7-3.6
				C1436,281.3,1437.5,282.3,1437.9,283.7z"/>
			<path class="st1" d="M1452.2,281.6c0,1.5-1.1,2.8-2.5,2.9c-1.4,0-2.7-1-2.9-2.5c-0.2-1.5,0.9-3,2.5-3
				C1450.9,278.9,1452.2,280,1452.2,281.6z"/>
			<path class="st1" d="M1466.7,282.6c-0.3,1.5-1.7,2.5-3.1,2.3c-1.4-0.2-2.4-1.6-2.3-3.2c0.1-1.5,1.5-2.6,3.1-2.3
				C1465.9,279.7,1467,281.1,1466.7,282.6z"/>
			<path class="st1" d="M1480.5,286.8c-0.3,0.7-0.9,1.2-1.5,1.5c-0.6,0.3-1.4,0.4-2,0.1c-1.3-0.5-2-2.1-1.6-3.5
				c0.5-1.4,2.1-2.2,3.6-1.6c0.7,0.3,1.3,0.8,1.6,1.4C1480.8,285.4,1480.8,286.1,1480.5,286.8z"/>
			<path class="st1" d="M1493,294.1c-0.9,1.2-2.6,1.5-3.7,0.7c-1.2-0.7-1.6-2.4-0.8-3.7c0.8-1.3,2.5-1.7,3.9-0.9
				C1493.7,291.1,1494,292.9,1493,294.1z"/>
			<path class="st1" d="M1503.7,303.9c-1.2,1-2.9,0.9-3.9-0.1c-0.9-1.1-0.9-2.8,0.1-3.9c1.1-1.1,2.8-1.1,3.9,0.1
				C1504.9,301.2,1504.8,303,1503.7,303.9z"/>
			<path class="st1" d="M1511.9,315.9c-1.3,0.7-3,0.3-3.7-1c-0.7-1.2-0.3-2.9,1-3.7c1.3-0.8,3-0.4,3.8,0.9
				C1513.7,313.5,1513.2,315.2,1511.9,315.9z"/>
			<path class="st1" d="M1517.1,329.4c-1.5,0.4-3-0.4-3.3-1.8c-0.5-1.3,0.3-2.9,1.7-3.4c1.4-0.5,3,0.2,3.6,1.7
				C1519.5,327.4,1518.6,329,1517.1,329.4z"/>
			<path class="st1" d="M1519.3,343.7c-1.5,0-2.8-1.1-2.9-2.5c0-1.4,1-2.7,2.5-2.9c1.5-0.2,3,0.9,3,2.5
				C1522,342.3,1520.8,343.6,1519.3,343.7z"/>
			<path class="st1" d="M1406.7,334c1.5,0.4,2.3,1.8,2.1,3.2c-0.2,1.4-1.6,2.4-3.1,2.2c-1.5-0.2-2.5-1.7-2.3-3.3
				C1403.6,334.5,1405.2,333.6,1406.7,334z"/>
			<path class="st1" d="M1412.4,320.4c1.3,0.8,1.7,2.4,1,3.7c-0.6,1.3-2.3,1.8-3.6,1.2c-1.4-0.6-1.9-2.3-1.2-3.8
				C1409.3,320,1411.1,319.6,1412.4,320.4z"/>
			<path class="st1" d="M1421.9,309c1,1.2,1,2.9-0.1,3.8c-1,1-2.7,1.1-3.8,0.1c-1.1-1-1.2-2.8-0.1-4
				C1419.1,307.8,1420.9,307.9,1421.9,309z"/>
			<path class="st1" d="M1434.3,301c0.6,1.4,0.1,3-1.2,3.7c-1.3,0.6-2.9,0.3-3.7-1.1c-0.8-1.3-0.3-3.1,1.1-3.8
				C1431.9,299,1433.6,299.6,1434.3,301z"/>
			<path class="st1" d="M1448.5,297c0.2,1.5-0.8,2.9-2.3,3.1c-1.4,0.2-2.8-0.6-3.2-2.1c-0.4-1.4,0.6-3.1,2.2-3.3
				C1446.9,294.4,1448.3,295.5,1448.5,297z"/>
			<path class="st1" d="M1463.3,297.3c-0.3,1.5-1.7,2.6-3.1,2.3c-1.4-0.2-2.5-1.4-2.4-3c0.1-1.5,1.5-2.8,3.1-2.5
				C1462.4,294.4,1463.5,295.8,1463.3,297.3z"/>
			<path class="st1" d="M1477.3,302c-0.7,1.4-2.3,2-3.6,1.3c-1.3-0.6-2-2.1-1.5-3.6c0.5-1.4,2.2-2.2,3.7-1.5
				C1477.4,299,1478,300.7,1477.3,302z"/>
			<path class="st1" d="M1489.3,310.6c-1.1,1.1-2.8,1.2-3.9,0.2c-1-1-1.3-2.6-0.3-3.9c0.9-1.2,2.8-1.5,4-0.3
				C1490.2,307.8,1490.3,309.6,1489.3,310.6z"/>
			<path class="st1" d="M1498.2,322.4c-1.3,0.7-3.1,0.3-3.8-0.9c-0.4-0.6-0.4-1.4-0.3-2c0.1-0.7,0.5-1.3,1.1-1.8
				c0.6-0.4,1.4-0.6,2.1-0.4c0.7,0.2,1.3,0.6,1.8,1.3C1500,320,1499.6,321.7,1498.2,322.4z"/>
			<path class="st1" d="M1503.3,336.3c-1.5,0.3-3-0.6-3.4-2c-0.3-1.4,0.5-2.9,1.9-3.4c1.5-0.5,3,0.4,3.4,2
				C1505.7,334.5,1504.8,336,1503.3,336.3z"/>
			<path class="st1" d="M1422.3,334.4c1.5,0.6,2.1,2,1.8,3.3c-0.3,1.3-1.8,2.2-3.3,1.9c-1.5-0.3-2.5-1.8-2-3.4
				C1419.2,334.6,1420.9,333.9,1422.3,334.4z"/>
			<path class="st1" d="M1429.9,322.2c1.1,1.1,1.2,2.8,0.3,3.8c-0.8,1.1-2.5,1.3-3.8,0.4c-1.3-0.9-1.5-2.6-0.5-3.9
				C1427,321.3,1428.8,321.2,1429.9,322.2z"/>
			<path class="st1" d="M1441.7,314.2c0.5,1.4,0,3-1.2,3.6c-1.2,0.5-2.8,0.2-3.6-1.2c-0.8-1.3-0.4-3.1,1.1-3.8
				C1439.5,312.1,1441.2,312.7,1441.7,314.2z"/>
			<path class="st1" d="M1455.8,311.7c-0.1,1.5-1.2,2.7-2.6,2.8c-0.7,0-1.3-0.2-1.8-0.7c-0.5-0.4-0.9-1.1-1-1.8
				c-0.1-0.8,0.1-1.5,0.6-2.1c0.5-0.5,1.2-0.9,2-0.9C1454.7,308.8,1455.9,310.2,1455.8,311.7z"/>
			<path class="st1" d="M1469.8,315.2c-0.7,1.4-2.2,1.9-3.5,1.5c-1.3-0.5-1.9-2.1-1.5-3.5c0.4-1.5,2-2.2,3.6-1.7
				C1469.8,312,1470.4,313.8,1469.8,315.2z"/>
			<path class="st1" d="M1481.1,324c-1.2,1-2.9,0.9-3.8-0.1c-1-0.9-1-2.6,0-3.8c1-1.2,2.8-1.2,4-0.1
				C1482.3,321.2,1482.3,323,1481.1,324z"/>
			<path class="st1" d="M1487.8,336.6c-0.7,0.2-1.5,0.1-2.1-0.2c-0.6-0.3-1.1-0.8-1.4-1.4c-0.4-1.3,0.2-2.8,1.5-3.5
				c1.4-0.7,3.1,0,3.6,1.5c0.3,0.8,0.2,1.6-0.1,2.2C1489.1,335.9,1488.5,336.4,1487.8,336.6z"/>
			<path class="st1" d="M1439.3,334.4c1.2,1,1.5,2.6,0.9,3.7c-0.3,0.6-0.8,1-1.5,1.2c-0.6,0.2-1.4,0.3-2.1,0
				c-0.7-0.3-1.3-0.8-1.5-1.5c-0.2-0.7-0.2-1.6,0.3-2.4C1436.2,333.8,1438.1,333.4,1439.3,334.4z"/>
			<path class="st1" d="M1452.1,327c0.2,1.5-0.8,2.9-2,3.2c-1.3,0.4-2.8-0.3-3.4-1.7c-0.7-1.4,0.1-3.1,1.9-3.7
				C1450.3,324.4,1452,325.5,1452.1,327z"/>
			<path class="st1" d="M1466.4,330.8c-1,1.2-2.6,1.5-3.7,0.9c-0.6-0.3-1-0.8-1.2-1.5c-0.2-0.6-0.3-1.4,0-2.1
				c0.3-0.7,0.8-1.3,1.5-1.5c0.7-0.2,1.6-0.2,2.4,0.3C1467,327.7,1467.4,329.6,1466.4,330.8z"/>
			<path class="st1" d="M1473.9,343.6c-1.5,0.2-2.9-0.8-3.2-2c-0.4-1.3,0.3-2.8,1.7-3.4c1.4-0.7,3.1,0.1,3.7,1.9
				C1476.5,341.8,1475.4,343.4,1473.9,343.6z"/>
		</g>
	</g>
</g>
</svg>
