<?xml version="1.0" encoding="utf-8"?>
<!-- Generator: Adobe Illustrator 25.2.2, SVG Export Plug-In . SVG Version: 6.00 Build 0)  -->
<svg version="1.1" id="레이어_1" xmlns="http://www.w3.org/2000/svg" xmlns:xlink="http://www.w3.org/1999/xlink" x="0px"
	 y="0px" viewBox="0 0 2228.5 745.8" style="enable-background:new 0 0 2228.5 745.8;" xml:space="preserve">
<style type="text/css">
	.st0{fill:#1984FD;}
	.st1{fill:#4953D3;}
	.st2{fill:#6E8CFD;}
	.st3{fill:#4FE179;}
	.st4{fill:#3BBCFD;}
</style>
<g>
	<path class="st0" d="M1878.6,571.5v175h0.2c193.2-0.1,349.7-156.7,349.7-349.9v0v0l-175,0C2053.5,493.1,1975.2,571.5,1878.6,571.5"
		/>
	<path class="st1" d="M1528.7,571.2l0-175h-0.2c-193.2,0.1-349.7,156.7-349.7,349.9v0v0l175,0
		C1353.8,649.6,1432.1,571.2,1528.7,571.2"/>
	<path class="st2" d="M1878.6,571.5L1878.6,571.5c0-24.2-19.6-43.7-43.7-43.7l0,0c-24.2,0-43.7,19.6-43.7,43.7l0,0H1878.6z"/>
	<path class="st2" d="M1703.7,571.5L1703.7,571.5c0,24.2,19.6,43.7,43.7,43.7l0,0c24.2,0,43.7-19.6,43.7-43.7l0,0L1703.7,571.5z"/>
	<path class="st2" d="M1703.7,571.5L1703.7,571.5c0-24.2-19.6-43.7-43.7-43.7h0c-24.2,0-43.7,19.6-43.7,43.7l0,0H1703.7z"/>
	<path class="st2" d="M1528.7,571.5L1528.7,571.5c0,24.2,19.6,43.7,43.7,43.7h0c24.2,0,43.7-19.6,43.7-43.7l0,0L1528.7,571.5z"/>
	<path class="st2" d="M1878.6,658.9L1878.6,658.9c0-24.2-19.6-43.7-43.7-43.7l0,0c-24.2,0-43.7,19.6-43.7,43.7v0H1878.6z"/>
	<path class="st2" d="M1703.7,658.9L1703.7,658.9c0,24.2,19.6,43.7,43.7,43.7l0,0c24.2,0,43.7-19.6,43.7-43.7l0,0L1703.7,658.9z"/>
	<path class="st2" d="M1703.7,658.9L1703.7,658.9c0-24.2-19.6-43.7-43.7-43.7h0c-24.2,0-43.7,19.6-43.7,43.7v0H1703.7z"/>
	<path class="st2" d="M1528.7,658.9L1528.7,658.9c0,24.2,19.6,43.7,43.7,43.7h0c24.2,0,43.7-19.6,43.7-43.7l0,0L1528.7,658.9z"/>
	<path class="st2" d="M1878.6,746.4L1878.6,746.4c0-24.2-19.6-43.7-43.7-43.7l0,0c-24.2,0-43.7,19.6-43.7,43.7l0,0H1878.6z"/>
	<path class="st2" d="M1703.7,746.4L1703.7,746.4c0-24.2-19.6-43.7-43.7-43.7h0c-24.2,0-43.7,19.6-43.7,43.7l0,0H1703.7z"/>
	<g>
		<path class="st3" d="M1491.3,376.8L1491.3,376.8c-15.3,0-27.7-12.4-27.7-27.7v0c0-15.3,12.4-27.7,27.7-27.7l0,0
			c15.3,0,27.7,12.4,27.7,27.7v0C1518.9,364.4,1506.6,376.8,1491.3,376.8z"/>
		<path class="st3" d="M1491.3,330.7L1491.3,330.7c-15.3,0-27.7-12.4-27.7-27.7v0c0-15.3,12.4-27.7,27.7-27.7l0,0
			c15.3,0,27.7,12.4,27.7,27.7v0C1518.9,318.3,1506.6,330.7,1491.3,330.7z"/>
		<path class="st1" d="M1494.1,399.5h-5.6v-48.6c0-1.5,1.3-2.8,2.8-2.8l0,0c1.5,0,2.8,1.3,2.8,2.8V399.5z"/>
	</g>
	<g>
		<circle class="st3" cx="2097.5" cy="325.7" r="48"/>
		<path class="st1" d="M2100.3,396.5h-5.6v-48.6c0-1.5,1.3-2.8,2.8-2.8l0,0c1.5,0,2.8,1.3,2.8,2.8V396.5z"/>
	</g>
	<g>
		<path class="st4" d="M2189.3,373.7L2189.3,373.7c-15.3,0-27.7-12.4-27.7-27.7v-40.7c0-15.3,12.4-27.7,27.7-27.7l0,0
			c15.3,0,27.7,12.4,27.7,27.7v40.7C2216.9,361.3,2204.5,373.7,2189.3,373.7z"/>
		<path class="st1" d="M2192,396.5h-5.6v-48.6c0-1.5,1.3-2.8,2.8-2.8l0,0c1.5,0,2.8,1.3,2.8,2.8V396.5z"/>
	</g>
</g>
<path class="st2" d="M173.1,400.6L0,400.6v0.2c0.1,191.1,155,346,346.2,346h0h0l0-173.1C250.6,573.7,173.1,496.2,173.1,400.6"/>
</svg>
