<?xml version="1.0" encoding="utf-8"?>
<!-- Generator: Adobe Illustrator 25.2.2, SVG Export Plug-In . SVG Version: 6.00 Build 0)  -->
<svg version="1.1" id="레이어_1" xmlns="http://www.w3.org/2000/svg" xmlns:xlink="http://www.w3.org/1999/xlink" x="0px"
	 y="0px" viewBox="0 0 2228.5 276.9" style="enable-background:new 0 0 2228.5 276.9;" xml:space="preserve">
<style type="text/css">
	.st0{fill:#1984FD;}
	.st1{fill:#4953D3;}
	.st2{fill:#4FE179;}
	.st3{fill:#3BBCFD;}
	.st4{fill-rule:evenodd;clip-rule:evenodd;fill:#FFFFFF;}
	.st5{fill:#6E8CFD;}
</style>
<g>
	<g>
		<g>
			<circle class="st0" cx="629.1" cy="94.4" r="47.5"/>
			<path class="st1" d="M631.9,164.4h-5.5v-48.1c0-1.5,1.2-2.8,2.8-2.8l0,0c1.5,0,2.8,1.2,2.8,2.8V164.4z"/>
		</g>
		<g>
			<path class="st2" d="M719.9,141.9L719.9,141.9c-15.1,0-27.4-12.3-27.4-27.4V74.3c0-15.1,12.3-27.4,27.4-27.4l0,0
				c15.1,0,27.4,12.3,27.4,27.4v40.2C747.2,129.6,735,141.9,719.9,141.9z"/>
			<path class="st1" d="M722.6,164.4h-5.5v-48.1c0-1.5,1.2-2.8,2.8-2.8l0,0c1.5,0,2.8,1.2,2.8,2.8V164.4z"/>
		</g>
		<path class="st3" d="M853.7,325.8L853.7,325.8c0-95.6-77.5-173.1-173.1-173.1h0c-95.6,0-173.1,77.5-173.1,173.1v0H853.7z"/>
		<path class="st3" d="M507.5,325.8L507.5,325.8c0-95.6-77.5-173.1-173.1-173.1h0c-95.6,0-173.1,77.5-173.1,173.1v0H507.5z"/>
		<g>
			<path class="st4" d="M164.5,313.4c1.5,0.1,2.7,1.4,2.6,2.9c-0.1,1.5-1.3,2.7-2.9,2.6c-1.5-0.1-2.8-1.4-2.7-2.9
				C161.6,314.5,163,313.3,164.5,313.4z"/>
			<path class="st4" d="M166.1,298.7c1.5,0.2,2.5,1.6,2.3,3.1c-0.2,1.5-1.6,2.6-3.1,2.4c-1.5-0.2-2.6-1.6-2.4-3.2
				C163.2,299.5,164.6,298.4,166.1,298.7z"/>
			<path class="st4" d="M169.1,284.1c1.5,0.4,2.4,1.9,2.1,3.3c-0.3,1.5-1.8,2.4-3.3,2.1c-1.5-0.3-2.4-1.8-2.1-3.3
				C166.2,284.7,167.7,283.7,169.1,284.1z"/>
			<path class="st4" d="M173.4,269.9c1.4,0.5,2.2,2.1,1.7,3.5c-0.5,1.4-2.1,2.2-3.5,1.8c-1.5-0.5-2.2-2-1.7-3.5
				C170.4,270.2,172,269.4,173.4,269.9z"/>
			<path class="st4" d="M178.9,256.1c1.4,0.6,2,2.3,1.4,3.6c-0.6,1.4-2.2,2.1-3.6,1.5c-1.4-0.6-2.1-2.2-1.5-3.7
				C175.9,256.1,177.5,255.4,178.9,256.1z"/>
			<path class="st4" d="M185.6,242.8c1.3,0.8,1.8,2.4,1.1,3.7c-0.7,1.3-2.4,1.9-3.7,1.2c-1.4-0.7-1.9-2.4-1.2-3.8
				C182.5,242.5,184.3,242,185.6,242.8z"/>
			<path class="st4" d="M193.4,230.1c1.2,0.9,1.6,2.6,0.8,3.9c-0.8,1.3-2.5,1.6-3.8,0.8c-1.3-0.8-1.7-2.5-0.8-3.9
				C190.4,229.6,192.1,229.2,193.4,230.1z"/>
			<path class="st4" d="M202.3,218.2c1.2,1,1.4,2.7,0.5,3.9c-0.9,1.2-2.7,1.4-3.9,0.5c-1.2-0.9-1.4-2.7-0.5-3.9
				C199.3,217.4,201.1,217.2,202.3,218.2z"/>
			<path class="st4" d="M212.2,207.1c1.1,1.1,1.1,2.8,0.1,3.9c-1,1.1-2.8,1.1-3.9,0.1c-1.1-1-1.2-2.8-0.1-3.9
				C209.3,206.1,211.1,206,212.2,207.1z"/>
			<path class="st4" d="M223,196.9c1,1.2,0.9,2.9-0.3,3.9c-1.2,1-2.9,0.9-3.9-0.2c-1-1.1-1-2.9,0.2-3.9
				C220.2,195.6,222,195.7,223,196.9z"/>
			<path class="st4" d="M234.6,187.7c0.9,1.2,0.6,3-0.6,3.8c-1.2,0.9-2.9,0.7-3.9-0.5c-0.9-1.2-0.7-3,0.5-3.9
				C232,186.1,233.7,186.4,234.6,187.7z"/>
			<path class="st4" d="M247,179.4c0.8,1.3,0.3,3-0.9,3.8c-1.3,0.8-3,0.4-3.8-0.9c-0.8-1.3-0.4-3,0.9-3.9
				C244.5,177.7,246.2,178.1,247,179.4z"/>
			<path class="st4" d="M260.1,172.4c0.7,1.4,0.1,3.1-1.2,3.7c-1.3,0.7-3,0.1-3.7-1.2c-0.7-1.3-0.2-3,1.2-3.7
				C257.8,170.5,259.4,171,260.1,172.4z"/>
			<path class="st4" d="M273.8,166.5c0.5,1.4-0.2,3-1.6,3.6c-1.4,0.6-3-0.1-3.6-1.5c-0.6-1.4,0.1-3,1.6-3.6
				C271.6,164.4,273.2,165.1,273.8,166.5z"/>
			<path class="st4" d="M287.9,161.8c0.4,1.5-0.4,3-1.9,3.4c-1.5,0.4-3-0.4-3.5-1.8c-0.5-1.4,0.3-3.1,1.9-3.5
				C285.9,159.5,287.5,160.4,287.9,161.8z"/>
			<path class="st4" d="M302.3,158.4c0.3,1.5-0.7,2.9-2.2,3.2c-1.5,0.3-2.9-0.6-3.3-2.1c-0.3-1.5,0.6-3,2.2-3.3
				C300.6,155.9,302.1,156.9,302.3,158.4z"/>
			<path class="st4" d="M317.1,156.2c0.1,1.5-0.9,2.9-2.4,3.1c-1.5,0.2-2.9-0.9-3.1-2.4c-0.2-1.5,0.9-2.9,2.4-3.1
				C315.5,153.6,316.9,154.7,317.1,156.2z"/>
			<path class="st4" d="M331.9,155.4c0,1.5-1.2,2.8-2.7,2.8c-1.5,0-2.8-1.2-2.9-2.7c-0.1-1.5,1.1-2.8,2.7-2.8
				C330.6,152.7,331.9,153.9,331.9,155.4z"/>
			<path class="st4" d="M346.8,155.8c-0.1,1.5-1.4,2.7-2.9,2.6c-1.5-0.1-2.7-1.3-2.6-2.9c0.1-1.5,1.4-2.8,2.9-2.7
				C345.7,153,346.9,154.3,346.8,155.8z"/>
			<path class="st4" d="M361.5,157.5c-0.2,1.5-1.6,2.5-3.1,2.3c-1.5-0.2-2.6-1.6-2.4-3.1c0.2-1.5,1.6-2.6,3.2-2.4
				C360.7,154.5,361.8,156,361.5,157.5z"/>
			<path class="st4" d="M376.1,160.5c-0.4,1.5-1.9,2.4-3.3,2.1c-1.5-0.3-2.4-1.8-2.1-3.3c0.3-1.5,1.8-2.4,3.3-2.1
				C375.5,157.5,376.5,159,376.1,160.5z"/>
			<path class="st4" d="M390.3,164.8c-0.5,1.4-2.1,2.2-3.5,1.7c-1.4-0.5-2.2-2.1-1.8-3.5c0.4-1.5,2-2.2,3.5-1.7
				C390.1,161.8,390.8,163.3,390.3,164.8z"/>
			<path class="st4" d="M404.2,170.3c-0.6,1.4-2.3,2-3.6,1.4c-1.4-0.6-2.1-2.2-1.5-3.6c0.6-1.4,2.2-2.1,3.7-1.5
				C404.1,167.2,404.8,168.9,404.2,170.3z"/>
			<path class="st4" d="M417.4,176.9c-0.8,1.3-2.4,1.8-3.7,1.1c-1.3-0.7-1.9-2.4-1.2-3.7c0.7-1.4,2.4-1.9,3.8-1.2
				C417.7,173.9,418.2,175.6,417.4,176.9z"/>
			<path class="st4" d="M430.1,184.7c-0.9,1.2-2.6,1.6-3.9,0.8c-1.3-0.8-1.6-2.5-0.8-3.8c0.8-1.3,2.5-1.7,3.9-0.8
				C430.6,181.7,431,183.4,430.1,184.7z"/>
			<path class="st4" d="M442,193.6c-1,1.2-2.7,1.4-3.9,0.5c-1.2-0.9-1.4-2.7-0.5-3.9c0.9-1.2,2.7-1.4,3.9-0.5
				C442.8,190.7,443,192.4,442,193.6z"/>
			<path class="st4" d="M453.1,203.5c-1.1,1.1-2.8,1.1-3.9,0.1c-1.1-1-1.1-2.8-0.1-3.9c1-1.1,2.8-1.2,3.9-0.1
				C454.1,200.7,454.2,202.4,453.1,203.5z"/>
			<path class="st4" d="M463.3,214.3c-1.2,1-2.9,0.9-3.9-0.3c-1-1.2-0.9-2.9,0.2-3.9c1.1-1,2.9-1,3.9,0.2
				C464.6,211.6,464.5,213.3,463.3,214.3z"/>
			<path class="st4" d="M472.6,226c-1.2,0.9-3,0.6-3.8-0.6c-0.9-1.2-0.7-2.9,0.5-3.9c1.2-0.9,3-0.7,3.9,0.5
				C474.1,223.3,473.8,225.1,472.6,226z"/>
			<path class="st4" d="M480.8,238.4c-1.3,0.8-3,0.3-3.8-0.9c-0.8-1.3-0.4-3,0.8-3.8c1.3-0.8,3-0.4,3.9,0.9
				C482.5,235.9,482.1,237.6,480.8,238.4z"/>
			<path class="st4" d="M487.8,251.5c-1.4,0.7-3.1,0.1-3.7-1.2c-0.7-1.3-0.1-3,1.2-3.7c1.3-0.7,3-0.2,3.7,1.2
				C489.8,249.1,489.2,250.8,487.8,251.5z"/>
			<path class="st4" d="M493.7,265.1c-1.4,0.5-3-0.2-3.6-1.6c-0.6-1.4,0.1-3,1.5-3.6c1.4-0.6,3,0.1,3.6,1.6
				C495.8,263,495.1,264.6,493.7,265.1z"/>
			<path class="st4" d="M498.4,279.2c-1.5,0.4-3-0.4-3.4-1.9c-0.4-1.5,0.4-3,1.8-3.5c1.4-0.5,3.1,0.3,3.5,1.9
				C500.7,277.3,499.9,278.8,498.4,279.2z"/>
			<path class="st4" d="M501.8,293.7c-1.5,0.3-2.9-0.7-3.2-2.2c-0.3-1.5,0.6-2.9,2.1-3.3c1.5-0.3,3,0.6,3.3,2.2
				C504.3,291.9,503.3,293.4,501.8,293.7z"/>
			<path class="st4" d="M504,308.4c-1.5,0.1-2.9-0.9-3.1-2.4c-0.2-1.5,0.9-2.9,2.4-3.1c1.5-0.2,2.9,0.9,3.1,2.4
				C506.6,306.9,505.5,308.3,504,308.4z"/>
			<path class="st4" d="M504.8,323.3c-1.5,0-2.8-1.2-2.8-2.7c0-1.5,1.2-2.8,2.7-2.9c1.5-0.1,2.8,1.1,2.8,2.7
				C507.5,322,506.3,323.2,504.8,323.3z"/>
			<path class="st4" d="M179.6,313.5c1.5,0.1,2.7,1.4,2.6,2.9c-0.1,1.5-1.4,2.7-2.9,2.6c-1.5-0.1-2.8-1.4-2.6-2.9
				C176.8,314.6,178.1,313.4,179.6,313.5z"/>
			<path class="st4" d="M181.5,298.9c1.5,0.3,2.5,1.7,2.2,3.2c-0.2,1.5-1.6,2.5-3.1,2.3c-1.5-0.2-2.6-1.6-2.4-3.2
				C178.5,299.6,180,298.6,181.5,298.9z"/>
			<path class="st4" d="M184.7,284.4c1.5,0.4,2.3,1.9,1.9,3.4c-0.3,1.5-1.8,2.4-3.3,2c-1.5-0.3-2.4-1.9-2.1-3.4
				C181.7,284.9,183.2,284,184.7,284.4z"/>
			<path class="st4" d="M189.3,270.4c1.4,0.6,2.1,2.1,1.6,3.5c-0.5,1.4-2,2.2-3.5,1.7c-1.4-0.5-2.2-2.1-1.7-3.6
				C186.2,270.6,187.9,269.8,189.3,270.4z"/>
			<path class="st4" d="M195.2,256.8c1.4,0.7,1.9,2.3,1.3,3.7c-0.6,1.4-2.3,2-3.6,1.3c-1.4-0.6-2-2.3-1.4-3.7
				C192.1,256.7,193.9,256.2,195.2,256.8z"/>
			<path class="st4" d="M202.4,243.9c1.3,0.8,1.7,2.5,0.9,3.8c-0.7,1.3-2.4,1.7-3.8,1c-1.3-0.8-1.8-2.5-1-3.8
				C199.3,243.5,201.1,243.1,202.4,243.9z"/>
			<path class="st4" d="M210.8,231.8c1.2,0.9,1.4,2.6,0.6,3.9c-0.9,1.2-2.6,1.5-3.8,0.6c-1.2-0.9-1.5-2.6-0.6-3.9
				C207.8,231.1,209.6,230.8,210.8,231.8z"/>
			<path class="st4" d="M220.3,220.4c1.1,1,1.2,2.7,0.2,3.9c-1,1.1-2.7,1.2-3.9,0.3c-1.2-1-1.3-2.8-0.3-3.9
				C217.4,219.5,219.2,219.4,220.3,220.4z"/>
			<path class="st4" d="M230.8,210.1c1,1.1,0.9,2.9-0.2,3.9c-1.1,1-2.8,1-3.9-0.1c-1.1-1.1-1-2.9,0.1-3.9
				C228,208.8,229.8,208.9,230.8,210.1z"/>
			<path class="st4" d="M242.3,200.7c0.9,1.2,0.6,2.9-0.5,3.9c-1.2,0.9-2.9,0.7-3.9-0.5c-1-1.2-0.7-2.9,0.5-3.9
				C239.6,199.2,241.4,199.5,242.3,200.7z"/>
			<path class="st4" d="M254.6,192.5c0.8,1.3,0.4,3-0.9,3.8c-1.3,0.8-3,0.4-3.8-0.9c-0.8-1.3-0.5-3,0.9-3.8
				C252.1,190.8,253.8,191.2,254.6,192.5z"/>
			<path class="st4" d="M267.6,185.5c0.6,1.4,0.1,3-1.2,3.7c-1.3,0.7-3,0.1-3.7-1.2c-0.7-1.4-0.2-3,1.2-3.7
				C265.3,183.6,267,184.1,267.6,185.5z"/>
			<path class="st4" d="M281.2,179.8c0.5,1.4-0.2,3-1.6,3.6c-1.4,0.5-3-0.2-3.6-1.6c-0.6-1.4,0.1-3,1.6-3.6
				C279.1,177.6,280.7,178.3,281.2,179.8z"/>
			<path class="st4" d="M295.4,175.4c0.4,1.5-0.5,3-1.9,3.4c-1.4,0.4-3-0.4-3.4-1.9c-0.4-1.5,0.4-3,1.9-3.4
				C293.5,173.1,295,173.9,295.4,175.4z"/>
			<path class="st4" d="M309.8,172.4c0.2,1.5-0.8,3-2.2,3.2c-1.5,0.3-2.9-0.7-3.2-2.2c-0.3-1.5,0.7-2.9,2.2-3.2
				C308.2,169.9,309.6,170.9,309.8,172.4z"/>
			<path class="st4" d="M324.5,170.8c0.1,1.5-1,2.9-2.5,3c-1.5,0.1-2.8-1-3-2.6c-0.2-1.5,1-2.9,2.5-3
				C323.1,168.1,324.4,169.3,324.5,170.8z"/>
			<path class="st4" d="M339.3,170.6c-0.1,1.5-1.3,2.7-2.8,2.7c-1.5-0.1-2.7-1.3-2.7-2.8c0-1.5,1.2-2.8,2.8-2.7
				C338.1,167.8,339.4,169,339.3,170.6z"/>
			<path class="st4" d="M354,171.7c-0.2,1.5-1.6,2.6-3,2.4c-1.5-0.2-2.6-1.5-2.5-3c0.1-1.5,1.5-2.7,3.1-2.5
				C353.1,168.8,354.2,170.2,354,171.7z"/>
			<path class="st4" d="M368.6,174.3c-0.3,1.5-1.8,2.4-3.3,2.1c-1.5-0.3-2.4-1.7-2.2-3.2c0.3-1.5,1.7-2.5,3.3-2.2
				C368,171.3,368.9,172.8,368.6,174.3z"/>
			<path class="st4" d="M382.9,178.2c-0.5,1.5-2,2.2-3.4,1.8c-1.4-0.4-2.3-1.9-1.9-3.4c0.4-1.5,2-2.3,3.5-1.9
				C382.5,175.1,383.3,176.7,382.9,178.2z"/>
			<path class="st4" d="M396.7,183.5c-0.6,1.4-2.2,2-3.6,1.5c-1.4-0.5-2.1-2.2-1.5-3.6c0.6-1.4,2.2-2.1,3.6-1.5
				C396.6,180.4,397.3,182.1,396.7,183.5z"/>
			<path class="st4" d="M409.9,190c-0.8,1.4-2.4,1.8-3.7,1.1c-1.3-0.7-1.9-2.3-1.2-3.7c0.7-1.4,2.4-1.9,3.8-1.2
				C410.2,186.9,410.6,188.7,409.9,190z"/>
			<path class="st4" d="M422.5,197.8c-0.9,1.3-2.5,1.5-3.8,0.8c-1.3-0.8-1.6-2.5-0.8-3.8c0.8-1.3,2.5-1.7,3.9-0.8
				C423,194.8,423.3,196.6,422.5,197.8z"/>
			<path class="st4" d="M434.2,206.8c-1,1.2-2.7,1.3-3.9,0.4c-1.2-0.9-1.4-2.7-0.4-3.9c0.9-1.2,2.7-1.4,3.9-0.4
				C435.1,203.8,435.2,205.6,434.2,206.8z"/>
			<path class="st4" d="M445.1,216.8c-1.1,1.1-2.8,1-3.9,0c-1.1-1-1.1-2.8-0.1-3.9c1-1.1,2.8-1.1,3.9-0.1
				C446.2,213.9,446.2,215.7,445.1,216.8z"/>
			<path class="st4" d="M455,227.8c-1.2,1-2.9,0.8-3.9-0.3c-1-1.1-0.8-2.9,0.3-3.9c1.1-1,2.9-0.9,3.9,0.3
				C456.3,225.1,456.1,226.8,455,227.8z"/>
			<path class="st4" d="M463.7,239.7c-1.3,0.8-3,0.5-3.8-0.7c-0.9-1.2-0.6-2.9,0.7-3.8c1.2-0.9,3-0.6,3.9,0.7
				C465.4,237.1,465,238.9,463.7,239.7z"/>
			<path class="st4" d="M471.3,252.4c-1.3,0.7-3,0.2-3.8-1.1c-0.7-1.3-0.3-3,1-3.8c1.3-0.8,3-0.3,3.8,1
				C473.2,250,472.7,251.7,471.3,252.4z"/>
			<path class="st4" d="M477.7,265.7c-1.4,0.6-3-0.1-3.7-1.4c-0.6-1.4,0-3,1.4-3.6c1.4-0.6,3,0,3.7,1.4
				C479.8,263.5,479.1,265.1,477.7,265.7z"/>
			<path class="st4" d="M482.8,279.6c-1.5,0.4-3-0.3-3.5-1.8c-0.5-1.4,0.3-3,1.7-3.5c1.4-0.5,3,0.3,3.5,1.8
				C485,277.6,484.2,279.2,482.8,279.6z"/>
			<path class="st4" d="M486.5,293.9c-1.5,0.3-3-0.6-3.3-2.1c-0.3-1.5,0.6-2.9,2.1-3.3c1.5-0.4,3,0.6,3.3,2.1
				C488.9,292.1,488,293.6,486.5,293.9z"/>
			<path class="st4" d="M488.8,308.5c-1.5,0.2-2.9-0.9-3.1-2.4c-0.2-1.5,0.9-2.9,2.4-3.1c1.5-0.2,2.9,0.8,3.1,2.4
				C491.4,307,490.3,308.4,488.8,308.5z"/>
			<path class="st4" d="M489.7,323.3c-1.5,0-2.8-1.2-2.8-2.7c0-1.5,1.2-2.8,2.7-2.9c1.5-0.1,2.8,1.1,2.8,2.7
				C492.4,322,491.2,323.3,489.7,323.3z"/>
			<path class="st4" d="M194.8,313.6c1.5,0.1,2.7,1.4,2.6,2.9c-0.1,1.5-1.4,2.6-2.9,2.6c-1.5-0.1-2.7-1.4-2.6-2.9
				C191.9,314.6,193.2,313.5,194.8,313.6z"/>
			<path class="st4" d="M196.8,299.1c1.5,0.3,2.5,1.7,2.2,3.2c-0.3,1.5-1.7,2.5-3.2,2.2c-1.5-0.2-2.5-1.6-2.2-3.2
				C193.8,299.8,195.3,298.8,196.8,299.1z"/>
			<path class="st4" d="M200.3,284.8c1.5,0.5,2.3,2,1.9,3.4c-0.4,1.4-1.9,2.3-3.4,1.9c-1.5-0.4-2.3-1.9-1.9-3.4
				C197.3,285.2,198.8,284.4,200.3,284.8z"/>
			<path class="st4" d="M205.3,271c1.4,0.6,2.1,2.2,1.6,3.6c-0.5,1.4-2.1,2.1-3.6,1.5c-1.4-0.5-2.1-2.1-1.6-3.6
				C202.3,271.1,203.9,270.4,205.3,271z"/>
			<path class="st4" d="M211.8,257.8c1.3,0.7,1.8,2.4,1.1,3.7c-0.7,1.3-2.3,1.8-3.7,1.2c-1.4-0.7-1.9-2.4-1.2-3.7
				C208.7,257.6,210.4,257.1,211.8,257.8z"/>
			<path class="st4" d="M219.5,245.4c1.3,0.9,1.6,2.6,0.7,3.8c-0.8,1.3-2.5,1.6-3.8,0.8c-1.3-0.8-1.7-2.6-0.8-3.9
				C216.5,244.8,218.3,244.5,219.5,245.4z"/>
			<path class="st4" d="M228.6,233.8c1.1,1,1.3,2.7,0.3,3.9c-1,1.1-2.6,1.3-3.9,0.4c-1.2-0.9-1.4-2.7-0.4-3.9
				C225.7,233,227.4,232.8,228.6,233.8z"/>
			<path class="st4" d="M238.8,223.3c1,1.1,1,2.9-0.1,3.9c-1.1,1-2.8,1-3.9-0.1c-1.1-1.1-1.1-2.8,0-3.9
				C236,222.1,237.7,222.2,238.8,223.3z"/>
			<path class="st4" d="M250,213.8c0.9,1.2,0.7,3-0.5,3.9c-1.2,0.9-2.9,0.7-3.9-0.5c-1-1.2-0.8-2.9,0.5-3.9
				C247.3,212.4,249.1,212.6,250,213.8z"/>
			<path class="st4" d="M262.2,205.6c0.8,1.3,0.4,3-0.9,3.8c-1.2,0.8-2.9,0.4-3.8-0.9c-0.8-1.3-0.5-3,0.8-3.8
				C259.7,203.9,261.4,204.3,262.2,205.6z"/>
			<path class="st4" d="M275.1,198.7c0.7,1.4,0,3-1.3,3.7c-1.3,0.7-3,0.1-3.7-1.2c-0.7-1.4-0.2-3,1.2-3.7
				C272.8,196.7,274.5,197.3,275.1,198.7z"/>
			<path class="st4" d="M288.7,193.2c0.5,1.4-0.2,3-1.7,3.5c-1.4,0.5-3-0.2-3.5-1.6c-0.6-1.4,0.2-3,1.6-3.6
				C286.6,191,288.2,191.8,288.7,193.2z"/>
			<path class="st4" d="M302.8,189.2c0.3,1.5-0.6,3-2,3.3c-1.4,0.3-2.9-0.5-3.3-2c-0.4-1.5,0.5-3.1,2-3.4
				C301,186.8,302.5,187.7,302.8,189.2z"/>
			<path class="st4" d="M317.3,186.6c0.2,1.5-0.9,2.9-2.3,3.1c-1.5,0.2-2.9-0.8-3.1-2.3c-0.2-1.5,0.8-3,2.3-3.2
				C315.7,184,317.1,185.1,317.3,186.6z"/>
			<path class="st4" d="M331.9,185.6c0,1.5-1.2,2.8-2.7,2.8c-1.5,0-2.8-1.1-2.8-2.7c-0.1-1.5,1.1-2.9,2.6-2.9
				C330.6,182.9,331.9,184.1,331.9,185.6z"/>
			<path class="st4" d="M346.6,186.1c-0.1,1.5-1.4,2.7-2.9,2.6c-1.5-0.1-2.6-1.4-2.6-2.9c0.1-1.5,1.4-2.7,2.9-2.6
				C345.6,183.3,346.7,184.6,346.6,186.1z"/>
			<path class="st4" d="M361.1,188.1c-0.3,1.5-1.7,2.5-3.2,2.2c-1.5-0.3-2.5-1.7-2.2-3.2c0.2-1.5,1.7-2.5,3.2-2.2
				C360.4,185.2,361.4,186.6,361.1,188.1z"/>
			<path class="st4" d="M375.4,191.6c-0.5,1.5-2,2.3-3.4,1.9c-1.4-0.4-2.3-1.9-1.9-3.4c0.4-1.5,1.9-2.3,3.4-1.9
				C375,188.7,375.8,190.2,375.4,191.6z"/>
			<path class="st4" d="M389.2,196.7c-0.6,1.4-2.2,2.1-3.6,1.6c-1.4-0.5-2.1-2.1-1.5-3.6c0.5-1.4,2.1-2.1,3.6-1.6
				C389.1,193.6,389.8,195.2,389.2,196.7z"/>
			<path class="st4" d="M402.4,203.1c-0.7,1.3-2.4,1.8-3.7,1.1c-1.3-0.7-1.8-2.3-1.2-3.7c0.7-1.4,2.4-1.9,3.7-1.2
				C402.6,200,403.1,201.8,402.4,203.1z"/>
			<path class="st4" d="M414.8,210.9c-0.9,1.3-2.6,1.6-3.8,0.7c-1.3-0.8-1.6-2.5-0.8-3.8c0.8-1.3,2.6-1.7,3.9-0.8
				C415.4,207.9,415.7,209.7,414.8,210.9z"/>
			<path class="st4" d="M426.4,219.9c-1,1.1-2.7,1.3-3.9,0.3c-1.1-1-1.3-2.6-0.4-3.9c0.9-1.2,2.7-1.4,3.9-0.4
				C427.2,217,427.4,218.8,426.4,219.9z"/>
			<path class="st4" d="M436.9,230.1c-1.1,1-2.9,1-3.9-0.1c-1-1.1-1-2.8,0.1-3.9c1.1-1.1,2.8-1.1,3.9,0
				C438.1,227.3,438.1,229.1,436.9,230.1z"/>
			<path class="st4" d="M446.4,241.4c-1.2,0.9-3,0.7-3.9-0.5c-0.9-1.2-0.7-2.9,0.5-3.9c1.2-1,2.9-0.8,3.9,0.5
				C447.8,238.7,447.6,240.4,446.4,241.4z"/>
			<path class="st4" d="M454.6,253.5c-1.3,0.8-3,0.4-3.8-0.9c-0.8-1.2-0.4-2.9,0.9-3.8c1.3-0.8,3-0.5,3.8,0.8
				C456.3,251,455.9,252.7,454.6,253.5z"/>
			<path class="st4" d="M461.5,266.5c-1.4,0.7-3,0-3.7-1.3c-0.7-1.3-0.1-3,1.2-3.7c1.4-0.7,3-0.2,3.7,1.2
				C463.5,264.1,462.9,265.8,461.5,266.5z"/>
			<path class="st4" d="M467,280.1c-1.4,0.5-3-0.2-3.5-1.7c-0.5-1.4,0.2-3,1.6-3.5c1.4-0.6,3,0.2,3.6,1.6
				C469.2,278,468.4,279.6,467,280.1z"/>
			<path class="st4" d="M471,294.2c-1.5,0.3-3-0.6-3.3-2c-0.3-1.4,0.5-2.9,2-3.3c1.5-0.4,3.1,0.5,3.4,2
				C473.5,292.4,472.5,293.9,471,294.2z"/>
			<path class="st4" d="M473.6,308.7c-1.5,0.2-2.9-0.9-3.1-2.3c-0.2-1.5,0.8-2.9,2.3-3.1c1.5-0.2,3,0.8,3.2,2.3
				C476.2,307.1,475.1,308.5,473.6,308.7z"/>
			<path class="st4" d="M474.6,323.3c-1.5,0-2.8-1.2-2.8-2.7c0-1.5,1.1-2.8,2.7-2.9c1.5-0.1,2.9,1.1,2.9,2.6
				C477.3,322,476.1,323.3,474.6,323.3z"/>
			<path class="st4" d="M209.9,313.5c1.5,0.2,2.7,1.5,2.6,3c-0.1,1.5-1.4,2.6-3,2.6c-1.5-0.1-2.7-1.4-2.6-3
				C207.1,314.5,208.4,313.3,209.9,313.5z"/>
			<path class="st4" d="M212.2,298.8c1.5,0.3,2.4,1.8,2.1,3.3c-0.3,1.5-1.7,2.5-3.2,2.2c-1.5-0.3-2.5-1.7-2.2-3.3
				C209.2,299.5,210.8,298.5,212.2,298.8z"/>
			<path class="st4" d="M216.3,284.6c1.4,0.5,2.2,2.1,1.7,3.5c-0.5,1.4-2,2.2-3.5,1.8c-1.5-0.4-2.3-2-1.8-3.5
				C213.3,284.9,214.8,284.1,216.3,284.6z"/>
			<path class="st4" d="M222,270.9c1.4,0.7,1.9,2.3,1.3,3.7c-0.6,1.4-2.3,2-3.7,1.4c-1.4-0.6-2-2.3-1.4-3.7
				C218.9,270.8,220.6,270.2,222,270.9z"/>
			<path class="st4" d="M229.3,258c1.3,0.8,1.7,2.5,0.9,3.8c-0.8,1.3-2.4,1.7-3.8,0.9c-1.3-0.8-1.8-2.5-0.9-3.8
				C226.3,257.6,228,257.2,229.3,258z"/>
			<path class="st4" d="M238,246c1.2,1,1.4,2.7,0.4,3.9c-0.9,1.2-2.7,1.4-3.9,0.5c-1.2-0.9-1.4-2.7-0.5-3.9
				C235.1,245.3,236.8,245,238,246z"/>
			<path class="st4" d="M248.2,235.2c1.1,1.1,1,2.9-0.1,3.9c-1,1.1-2.8,1.1-3.9,0c-1.1-1-1.1-2.8,0-4
				C245.3,234.1,247.1,234.1,248.2,235.2z"/>
			<path class="st4" d="M259.4,225.6c0.9,1.2,0.7,3-0.5,3.9c-1.2,0.9-2.9,0.7-3.9-0.5c-1-1.2-0.8-2.9,0.5-3.9
				C256.8,224.2,258.5,224.4,259.4,225.6z"/>
			<path class="st4" d="M271.8,217.5c0.8,1.3,0.3,3-1,3.8c-1.3,0.8-3,0.4-3.8-0.9c-0.8-1.3-0.4-3,0.9-3.9
				C269.3,215.7,271.1,216.1,271.8,217.5z"/>
			<path class="st4" d="M285.1,210.8c0.6,1.4,0,3.1-1.4,3.7c-1.4,0.6-3,0-3.7-1.4c-0.7-1.4-0.1-3,1.4-3.7
				C282.8,208.8,284.5,209.4,285.1,210.8z"/>
			<path class="st4" d="M299,205.8c0.4,1.5-0.4,2.9-1.8,3.4c-1.4,0.5-3-0.3-3.5-1.7c-0.5-1.4,0.3-3,1.8-3.5
				C297,203.4,298.6,204.3,299,205.8z"/>
			<path class="st4" d="M313.5,202.4c0.2,1.5-0.7,2.9-2.2,3.2c-1.5,0.2-2.9-0.7-3.2-2.2c-0.3-1.5,0.6-3,2.2-3.3
				C311.8,199.9,313.2,200.9,313.5,202.4z"/>
			<path class="st4" d="M328.2,200.8c0.1,1.5-1.1,2.9-2.6,3c-1.5,0.1-2.8-1-3-2.6c-0.1-1.5,1-2.9,2.6-3
				C326.8,198.1,328.1,199.3,328.2,200.8z"/>
			<path class="st4" d="M343,201c-0.1,1.5-1.4,2.6-2.9,2.6c-1.5,0-2.7-1.3-2.7-2.8c0-1.5,1.3-2.7,2.9-2.7
				C342,198.1,343.1,199.5,343,201z"/>
			<path class="st4" d="M357.7,202.9c-0.3,1.5-1.7,2.5-3.2,2.2c-1.5-0.3-2.5-1.6-2.3-3.2c0.2-1.5,1.7-2.6,3.2-2.3
				C357,199.9,358,201.4,357.7,202.9z"/>
			<path class="st4" d="M372.1,206.4c-0.5,1.4-2,2.3-3.4,1.9c-1.4-0.4-2.3-1.9-1.9-3.4c0.4-1.5,1.9-2.3,3.4-1.9
				C371.7,203.4,372.6,205,372.1,206.4z"/>
			<path class="st4" d="M386,211.8c-0.6,1.4-2.3,2-3.6,1.4c-1.4-0.6-2.1-2.2-1.5-3.6c0.6-1.4,2.2-2.1,3.7-1.5
				C385.9,208.7,386.6,210.4,386,211.8z"/>
			<path class="st4" d="M399.1,218.6c-0.8,1.3-2.5,1.8-3.8,1c-1.3-0.7-1.8-2.4-1-3.8c0.7-1.3,2.4-1.8,3.8-1
				C399.4,215.6,399.9,217.3,399.1,218.6z"/>
			<path class="st4" d="M411.3,227.1c-0.9,1.2-2.7,1.4-3.8,0.5c-1.2-0.9-1.5-2.6-0.6-3.8c0.9-1.2,2.6-1.5,3.9-0.6
				C412,224.1,412.2,225.9,411.3,227.1z"/>
			<path class="st4" d="M422.4,236.8c-1.1,1.1-2.8,1.1-3.9,0.1c-1.1-1-1.1-2.8-0.1-3.9c1-1.2,2.8-1.2,3.9-0.1
				C423.5,234,423.5,235.8,422.4,236.8z"/>
			<path class="st4" d="M432.3,247.9c-1.2,1-2.9,0.7-3.9-0.4c-1-1.1-0.8-2.9,0.3-3.9c1.1-1,2.9-0.9,3.9,0.3
				C433.7,245.2,433.5,247,432.3,247.9z"/>
			<path class="st4" d="M440.9,260c-1.3,0.8-3,0.4-3.8-0.8c-0.8-1.3-0.4-3,0.8-3.8c1.3-0.9,3-0.5,3.8,0.8
				C442.5,257.5,442.2,259.2,440.9,260z"/>
			<path class="st4" d="M447.9,273.1c-1.4,0.6-3,0-3.7-1.3c-0.7-1.3-0.1-3,1.2-3.7c1.4-0.7,3-0.2,3.7,1.3
				C449.9,270.7,449.3,272.4,447.9,273.1z"/>
			<path class="st4" d="M453.3,286.8c-1.5,0.5-3-0.3-3.5-1.7c-0.5-1.4,0.2-3,1.7-3.5c1.4-0.5,3.1,0.2,3.6,1.7
				C455.6,284.8,454.8,286.4,453.3,286.8z"/>
			<path class="st4" d="M457.1,301.2c-1.5,0.3-3-0.7-3.3-2.1c-0.3-1.5,0.6-2.9,2.1-3.3c1.5-0.4,3,0.6,3.3,2.1
				C459.6,299.4,458.6,300.9,457.1,301.2z"/>
			<path class="st4" d="M459.1,315.9c-1.5,0.1-2.9-1-3-2.5c-0.2-1.5,0.9-2.8,2.4-3c1.5-0.2,2.9,0.9,3.1,2.5
				C461.8,314.4,460.6,315.7,459.1,315.9z"/>
			<path class="st4" d="M225.1,313.6c1.5,0.2,2.6,1.5,2.5,3c-0.1,1.5-1.4,2.6-3,2.5c-1.5-0.1-2.7-1.4-2.5-3
				C222.2,314.5,223.6,313.4,225.1,313.6z"/>
			<path class="st4" d="M227.7,299.1c1.5,0.4,2.4,1.8,2.1,3.3c-0.4,1.4-1.8,2.4-3.3,2.1c-1.5-0.3-2.5-1.8-2.1-3.3
				C224.7,299.7,226.2,298.8,227.7,299.1z"/>
			<path class="st4" d="M232.2,285.1c1.4,0.6,2.1,2.2,1.6,3.5c-0.5,1.4-2,2.1-3.5,1.6c-1.4-0.5-2.2-2.1-1.7-3.6
				C229.2,285.3,230.8,284.6,232.2,285.1z"/>
			<path class="st4" d="M238.5,271.9c1.3,0.8,1.8,2.4,1.1,3.7c-0.7,1.3-2.3,1.8-3.7,1.2c-1.4-0.7-1.9-2.4-1.2-3.8
				C235.4,271.6,237.2,271.1,238.5,271.9z"/>
			<path class="st4" d="M246.6,259.6c1.2,0.9,1.5,2.6,0.6,3.8c-0.9,1.2-2.6,1.5-3.8,0.6c-1.3-0.9-1.6-2.6-0.7-3.9
				C243.6,258.9,245.3,258.6,246.6,259.6z"/>
			<path class="st4" d="M256.2,248.5c1.1,1.1,1.1,2.8,0.1,3.9c-1,1.1-2.8,1.1-3.9,0.1c-1.1-1-1.2-2.8-0.1-3.9
				C253.3,247.4,255.1,247.4,256.2,248.5z"/>
			<path class="st4" d="M267.2,238.7c0.9,1.2,0.7,2.9-0.4,3.9c-1.2,0.9-2.8,0.8-3.9-0.4c-1-1.1-0.9-3,0.4-3.9
				C264.5,237.3,266.3,237.5,267.2,238.7z"/>
			<path class="st4" d="M279.4,230.5c0.8,1.3,0.3,3-0.9,3.8c-1.2,0.8-2.9,0.4-3.8-0.9c-0.8-1.3-0.4-3,0.9-3.8
				C276.9,228.7,278.6,229.2,279.4,230.5z"/>
			<path class="st4" d="M292.6,224c0.6,1.4-0.1,3-1.4,3.6c-1.3,0.6-3,0-3.6-1.4c-0.7-1.4,0-3,1.4-3.7
				C290.3,221.9,292,222.6,292.6,224z"/>
			<path class="st4" d="M306.5,219.3c0.4,1.5-0.5,3-1.9,3.4c-1.4,0.4-2.9-0.4-3.4-1.9c-0.5-1.5,0.4-3,1.9-3.4
				C304.6,217,306.1,217.9,306.5,219.3z"/>
			<path class="st4" d="M320.9,216.6c0.2,1.5-0.9,2.9-2.3,3.1c-1.5,0.2-2.9-0.8-3.1-2.3c-0.3-1.5,0.8-3,2.3-3.2
				C319.3,214,320.8,215.1,320.9,216.6z"/>
			<path class="st4" d="M335.6,215.8c0,1.5-1.2,2.7-2.7,2.8c-1.5,0-2.7-1.2-2.8-2.7c-0.1-1.5,1.2-2.8,2.7-2.8
				C334.4,213,335.6,214.3,335.6,215.8z"/>
			<path class="st4" d="M350.3,216.9c-0.2,1.5-1.6,2.6-3.1,2.4c-1.5-0.2-2.5-1.5-2.4-3.1c0.1-1.5,1.5-2.7,3.1-2.4
				C349.4,214,350.5,215.4,350.3,216.9z"/>
			<path class="st4" d="M364.6,220c-0.4,1.5-1.9,2.3-3.3,1.9c-1.4-0.3-2.3-1.8-2-3.3c0.3-1.5,1.8-2.4,3.4-2.1
				C364.2,217,365.1,218.5,364.6,220z"/>
			<path class="st4" d="M378.5,225c-0.6,1.4-2.2,2-3.6,1.5c-1.4-0.5-2.1-2.1-1.5-3.6c0.5-1.4,2.1-2.1,3.6-1.6
				C378.4,221.9,379.1,223.6,378.5,225z"/>
			<path class="st4" d="M391.5,231.7c-0.8,1.3-2.5,1.8-3.8,1c-1.3-0.7-1.7-2.4-1-3.8c0.7-1.4,2.4-1.8,3.8-1
				C391.9,228.7,392.3,230.4,391.5,231.7z"/>
			<path class="st4" d="M403.5,240.2c-1,1.2-2.7,1.4-3.9,0.5c-1.1-0.9-1.4-2.6-0.5-3.8c0.9-1.2,2.7-1.5,3.9-0.5
				C404.3,237.3,404.5,239,403.5,240.2z"/>
			<path class="st4" d="M414.3,250.2c-1.1,1-2.8,1-3.9,0c-1.1-1-1.1-2.8,0-3.9c1-1.1,2.8-1.1,3.9,0
				C415.4,247.4,415.4,249.1,414.3,250.2z"/>
			<path class="st4" d="M423.7,261.5c-1.3,0.9-2.9,0.6-3.8-0.5c-0.9-1.2-0.7-2.9,0.5-3.8c1.2-1,2.9-0.7,3.9,0.5
				C425.2,258.8,424.9,260.6,423.7,261.5z"/>
			<path class="st4" d="M431.5,273.9c-1.3,0.7-3,0.2-3.8-1c-0.7-1.3-0.3-3,1-3.8c1.3-0.8,3-0.3,3.8,1
				C433.3,271.5,432.8,273.2,431.5,273.9z"/>
			<path class="st4" d="M437.5,287.3c-1.4,0.5-3-0.2-3.6-1.5c-0.5-1.4,0.1-3,1.5-3.6c1.4-0.6,3.1,0,3.6,1.5
				C439.7,285.2,439,286.8,437.5,287.3z"/>
			<path class="st4" d="M441.7,301.4c-1.5,0.3-3-0.6-3.3-2c-0.4-1.4,0.5-2.9,2-3.3c1.5-0.4,3,0.5,3.4,2
				C444.1,299.6,443.2,301.1,441.7,301.4z"/>
			<path class="st4" d="M444,315.9c-1.5,0.1-2.8-1-3-2.4c-0.2-1.5,0.9-2.8,2.4-3c1.5-0.2,2.9,0.9,3.1,2.4
				C446.7,314.4,445.5,315.8,444,315.9z"/>
			<path class="st4" d="M240.4,313.5c1.5,0.2,2.5,1.6,2.3,3c-0.1,1.5-1.4,2.6-2.9,2.5c-1.5-0.1-2.7-1.5-2.6-3.1
				C237.5,314.4,238.9,313.2,240.4,313.5z"/>
			<path class="st4" d="M243.4,298.9c1.5,0.4,2.4,2,2,3.4c-0.4,1.4-1.9,2.3-3.4,2c-1.5-0.3-2.4-1.9-2-3.4
				C240.5,299.3,242,298.4,243.4,298.9z"/>
			<path class="st4" d="M248.8,285c1.4,0.7,2,2.3,1.3,3.6c-0.7,1.3-2.2,2-3.6,1.4c-1.4-0.6-2.2-2.3-1.4-3.7
				C245.8,285,247.4,284.3,248.8,285z"/>
			<path class="st4" d="M256.2,272.1c0.6,0.4,1,1.1,1.1,1.8c0.2,0.7,0.1,1.5-0.3,2.1c-0.8,1.3-2.5,1.7-3.8,0.9
				c-1.3-0.8-1.7-2.5-0.9-3.9c0.4-0.7,1-1.1,1.7-1.3C254.8,271.5,255.6,271.6,256.2,272.1z"/>
			<path class="st4" d="M265.6,260.5c1.1,1.1,1.2,2.8,0.2,3.9c-1,1.1-2.8,1.2-3.9,0.2c-1.2-1-1.3-2.7-0.2-3.9
				C262.7,259.6,264.5,259.5,265.6,260.5z"/>
			<path class="st4" d="M276.7,250.6c0.9,1.2,0.7,2.9-0.5,3.8c-1.2,0.9-2.8,0.9-3.8-0.3c-1-1.1-0.9-3,0.3-4
				C274,249.2,275.7,249.4,276.7,250.6z"/>
			<path class="st4" d="M289.1,242.4c0.7,1.3,0.3,3.1-1,3.8c-1.3,0.8-3,0.3-3.8-0.9c-0.8-1.3-0.4-3,1-3.8
				C286.7,240.6,288.4,241,289.1,242.4z"/>
			<path class="st4" d="M302.7,236.4c0.5,1.4-0.2,3-1.6,3.5c-1.4,0.5-3-0.2-3.6-1.6c-0.6-1.4,0.1-3,1.6-3.5
				C300.6,234.2,302.2,235,302.7,236.4z"/>
			<path class="st4" d="M317.1,232.5c0.3,1.5-0.7,2.8-2.2,3.2c-1.4,0.4-2.9-0.5-3.3-2c-0.4-1.5,0.6-3,2.1-3.4
				C315.3,229.9,316.8,231.1,317.1,232.5z"/>
			<path class="st4" d="M331.9,231c0,1.5-1.1,2.8-2.6,2.9c-1.5,0.1-2.8-1.1-2.9-2.6c-0.1-1.5,1-2.8,2.6-2.9
				C330.5,228.3,331.9,229.5,331.9,231z"/>
			<path class="st4" d="M346.8,231.8c-0.2,1.5-1.6,2.5-3,2.3c-1.5-0.1-2.6-1.4-2.5-2.9c0.1-1.5,1.5-2.7,3.1-2.6
				C345.9,228.8,347,230.3,346.8,231.8z"/>
			<path class="st4" d="M361.3,234.8c-0.4,1.5-2,2.4-3.4,2c-1.4-0.4-2.3-1.9-2-3.4c0.3-1.5,1.9-2.4,3.4-2
				C360.9,231.8,361.8,233.3,361.3,234.8z"/>
			<path class="st4" d="M375.2,240.2c-0.7,1.4-2.3,2-3.6,1.3c-1.3-0.7-2-2.2-1.4-3.6c0.6-1.4,2.3-2.2,3.7-1.4
				C375.2,237.1,375.9,238.8,375.2,240.2z"/>
			<path class="st4" d="M388.1,247.6c-0.4,0.6-1.1,1-1.8,1.1c-0.7,0.2-1.5,0.1-2.1-0.3c-1.3-0.8-1.7-2.5-0.9-3.8
				c0.8-1.3,2.5-1.7,3.9-0.9c0.7,0.4,1.1,1,1.3,1.7C388.7,246.2,388.6,246.9,388.1,247.6z"/>
			<path class="st4" d="M399.7,257c-1.1,1.1-2.8,1.2-3.9,0.2c-1.1-1-1.2-2.8-0.2-3.9c1-1.2,2.7-1.3,3.9-0.2
				C400.6,254.1,400.7,255.9,399.7,257z"/>
			<path class="st4" d="M409.6,268c-1.2,0.9-2.9,0.7-3.8-0.5c-0.9-1.2-0.9-2.8,0.3-3.8c1.1-1,3-0.9,4,0.3
				C411.1,265.3,410.8,267.1,409.6,268z"/>
			<path class="st4" d="M417.8,280.4c-1.3,0.7-3.1,0.3-3.8-1c-0.8-1.3-0.3-3,0.9-3.8s3-0.4,3.8,1C419.6,278,419.2,279.7,417.8,280.4
				z"/>
			<path class="st4" d="M423.8,294.1c-1.4,0.5-3-0.2-3.5-1.6c-0.5-1.4,0.2-3,1.6-3.6c1.4-0.6,3,0.1,3.5,1.6
				C426,292,425.2,293.6,423.8,294.1z"/>
			<path class="st4" d="M427.7,308.5c-1.5,0.3-2.8-0.7-3.2-2.2c-0.4-1.4,0.5-2.9,2-3.3c1.5-0.4,3,0.6,3.4,2.1
				C430.3,306.7,429.1,308.2,427.7,308.5z"/>
			<path class="st4" d="M429.2,323.3c-1.5,0-2.8-1.1-2.9-2.6c-0.1-1.5,1.1-2.8,2.6-2.9c1.5-0.1,2.8,1,2.9,2.6
				C431.9,321.9,430.7,323.2,429.2,323.3z"/>
			<path class="st4" d="M255.6,313.6c1.5,0.2,2.6,1.6,2.3,3.1c-0.3,1.4-1.5,2.5-3,2.4c-1.5-0.1-2.8-1.5-2.5-3.1
				C252.7,314.4,254.1,313.4,255.6,313.6z"/>
			<path class="st4" d="M259.2,299.3c1.4,0.5,2.2,2.1,1.7,3.4c-0.4,1.4-1.9,2.2-3.3,1.8c-1.5-0.4-2.4-2-1.9-3.5
				C256.2,299.6,257.8,298.8,259.2,299.3z"/>
			<path class="st4" d="M265.3,286c1.3,0.8,1.7,2.4,1.1,3.7c-0.6,1.3-2.3,1.8-3.6,1.2c-1.4-0.7-1.9-2.4-1.2-3.8
				C262.2,285.6,264,285.2,265.3,286z"/>
			<path class="st4" d="M273.8,273.9c1.2,1,1.2,2.6,0.4,3.9c-0.9,1.2-2.6,1.4-3.8,0.5c-1.2-0.9-1.5-2.7-0.5-3.9
				C270.8,273,272.7,272.9,273.8,273.9z"/>
			<path class="st4" d="M284.4,263.7c0.5,0.6,0.7,1.3,0.6,2c-0.1,0.7-0.3,1.4-0.9,1.9c-1.1,1-2.8,0.9-3.9-0.2c-1-1.1-0.9-2.9,0.2-4
				c0.6-0.5,1.3-0.8,2-0.7C283.2,262.7,283.9,263.1,284.4,263.7z"/>
			<path class="st4" d="M296.6,255.5c0.7,1.3,0.3,3-1,3.8c-1.3,0.8-2.9,0.3-3.8-1c-0.8-1.3-0.4-3,1-3.8
				C294.2,253.7,295.9,254.1,296.6,255.5z"/>
			<path class="st4" d="M310.2,249.7c0.5,1.5-0.3,3.1-1.7,3.6c-1.4,0.5-3-0.2-3.5-1.7s0.2-3,1.7-3.6
				C308.2,247.5,309.7,248.3,310.2,249.7z"/>
			<path class="st4" d="M324.6,246.6c0.2,1.5-0.9,2.9-2.3,3.2c-1.4,0.2-2.9-0.8-3.2-2.3c-0.3-1.5,0.7-2.9,2.3-3.1
				C323,244.1,324.4,245.1,324.6,246.6z"/>
			<path class="st4" d="M339.3,246.2c-0.1,1.5-1.4,2.7-2.8,2.6c-1.5-0.1-2.7-1.3-2.7-2.8c0-1.6,1.2-2.8,2.8-2.7
				C338.2,243.4,339.4,244.7,339.3,246.2z"/>
			<path class="st4" d="M353.8,248.4c-0.4,1.5-1.8,2.4-3.3,2c-1.4-0.3-2.4-1.7-2.1-3.2c0.3-1.5,1.8-2.6,3.3-2.2
				C353.3,245.4,354.2,247,353.8,248.4z"/>
			<path class="st4" d="M367.7,253.3c-0.7,1.4-2.2,2-3.6,1.4c-1.4-0.5-2.1-2.1-1.5-3.5c0.5-1.4,2.2-2.2,3.7-1.6
				C367.7,250.2,368.4,251.9,367.7,253.3z"/>
			<path class="st4" d="M380.5,260.7c-0.9,1.3-2.5,1.5-3.8,0.7c-1.3-0.8-1.6-2.4-0.8-3.7c0.8-1.3,2.5-1.7,3.9-0.9
				C381.1,257.6,381.3,259.5,380.5,260.7z"/>
			<path class="st4" d="M391.7,270.2c-1.1,1.1-2.8,1-3.9,0.1c-1.1-1-1.1-2.7-0.1-3.9c1-1.1,2.8-1.2,4-0.1
				C392.8,267.3,392.8,269.2,391.7,270.2z"/>
			<path class="st4" d="M400.9,281.7c-1.3,0.8-3,0.5-3.9-0.6c-0.9-1.2-0.6-2.9,0.6-3.8c1.2-0.9,3-0.7,3.9,0.6
				C402.5,279.1,402.2,280.8,400.9,281.7z"/>
			<path class="st4" d="M407.9,294.6c-1.4,0.6-3.1,0-3.7-1.3c-0.6-1.3,0-3,1.3-3.7c1.4-0.7,3-0.1,3.7,1.3
				C409.9,292.4,409.3,294,407.9,294.6z"/>
			<path class="st4" d="M412.4,308.7c-1.5,0.3-3-0.6-3.4-2c-0.4-1.4,0.5-2.9,2-3.4c1.5-0.4,3,0.5,3.4,2
				C414.7,306.9,413.8,308.4,412.4,308.7z"/>
			<path class="st4" d="M414.1,323.3c-1.5,0-2.8-1.1-2.9-2.6c-0.1-1.5,1.1-2.8,2.6-2.9c1.5-0.2,2.8,1,2.9,2.6
				C416.8,321.9,415.6,323.2,414.1,323.3z"/>
			<path class="st4" d="M270.9,313.8c1.5,0.3,2.5,1.7,2.3,3.1c-0.2,1.4-1.6,2.4-3.2,2.3c-1.5-0.1-2.6-1.5-2.3-3.1
				C268,314.5,269.4,313.5,270.9,313.8z"/>
			<path class="st4" d="M275.1,300c0.7,0.3,1.2,0.9,1.5,1.5c0.3,0.6,0.4,1.4,0.1,2c-0.5,1.3-2.1,2-3.5,1.6c-1.4-0.5-2.2-2.1-1.6-3.6
				c0.3-0.7,0.8-1.3,1.4-1.6C273.6,299.6,274.4,299.7,275.1,300z"/>
			<path class="st4" d="M282.4,287.4c1.2,0.9,1.5,2.6,0.7,3.7c-0.7,1.2-2.4,1.6-3.7,0.8c-1.3-0.8-1.7-2.5-0.9-3.9
				C279.4,286.8,281.2,286.5,282.4,287.4z"/>
			<path class="st4" d="M292.2,276.8c1,1.2,0.9,2.9-0.1,3.9c-1.1,0.9-2.8,0.9-3.9-0.1c-1.1-1.1-1.1-2.8,0.1-3.9
				C289.5,275.6,291.2,275.6,292.2,276.8z"/>
			<path class="st4" d="M304.2,268.6c0.7,1.3,0.3,3-1,3.7c-1.2,0.7-2.9,0.3-3.7-1c-0.8-1.3-0.4-3,0.9-3.8
				C301.7,266.7,303.4,267.2,304.2,268.6z"/>
			<path class="st4" d="M317.6,263.4c0.4,1.5-0.4,3-1.8,3.3c-1.3,0.5-2.9-0.3-3.4-1.7c-0.5-1.4,0.2-3,1.7-3.6
				C315.7,261,317.3,261.9,317.6,263.4z"/>
			<path class="st4" d="M332,261.2c0,1.5-1.1,2.8-2.5,2.9c-1.4,0-2.7-1-2.9-2.5c-0.2-1.5,0.9-3,2.5-3
				C330.6,258.5,331.9,259.7,332,261.2z"/>
			<path class="st4" d="M346.4,262.2c-0.3,1.5-1.7,2.5-3.1,2.3c-1.4-0.2-2.4-1.6-2.3-3.2c0.1-1.5,1.5-2.6,3.1-2.3
				C345.7,259.3,346.7,260.7,346.4,262.2z"/>
			<path class="st4" d="M360.3,266.5c-0.3,0.7-0.9,1.2-1.5,1.5c-0.6,0.3-1.4,0.4-2,0.1c-1.3-0.5-2-2.1-1.6-3.5
				c0.5-1.4,2.1-2.2,3.6-1.6c0.7,0.3,1.3,0.8,1.6,1.4C360.6,265,360.6,265.8,360.3,266.5z"/>
			<path class="st4" d="M372.8,273.8c-0.9,1.2-2.6,1.5-3.7,0.7c-1.2-0.7-1.6-2.4-0.8-3.7c0.8-1.3,2.5-1.7,3.9-0.9
				C373.4,270.8,373.7,272.5,372.8,273.8z"/>
			<path class="st4" d="M383.4,283.6c-1.2,1-2.9,0.9-3.9-0.1c-0.9-1.1-0.9-2.8,0.1-3.9c1.1-1.1,2.8-1.1,3.9,0.1
				C384.7,280.8,384.6,282.6,383.4,283.6z"/>
			<path class="st4" d="M391.6,295.5c-1.3,0.7-3,0.3-3.7-1c-0.7-1.2-0.3-2.9,1-3.7c1.3-0.8,3-0.4,3.8,0.9
				C393.5,293.1,393,294.8,391.6,295.5z"/>
			<path class="st4" d="M396.9,309c-1.5,0.4-3-0.4-3.3-1.8c-0.5-1.3,0.3-2.9,1.7-3.4c1.4-0.5,3,0.2,3.6,1.7
				C399.2,307.1,398.3,308.6,396.9,309z"/>
			<path class="st4" d="M399,323.3c-1.5,0-2.8-1.1-2.9-2.5c0-1.4,1-2.7,2.5-2.9c1.5-0.2,3,0.9,3,2.5
				C401.7,322,400.5,323.3,399,323.3z"/>
			<path class="st4" d="M286.4,313.6c1.5,0.4,2.3,1.8,2.1,3.2c-0.2,1.4-1.6,2.4-3.1,2.2c-1.5-0.2-2.5-1.7-2.3-3.3
				C283.3,314.2,284.9,313.2,286.4,313.6z"/>
			<path class="st4" d="M292.1,300c1.3,0.8,1.7,2.4,1,3.7c-0.6,1.3-2.3,1.8-3.6,1.2c-1.4-0.6-1.9-2.3-1.2-3.8
				C289.1,299.6,290.8,299.2,292.1,300z"/>
			<path class="st4" d="M301.6,288.7c1,1.2,1,2.9-0.1,3.8c-1,1-2.7,1.1-3.8,0.1c-1.1-1-1.2-2.8-0.1-4
				C298.8,287.5,300.6,287.5,301.6,288.7z"/>
			<path class="st4" d="M314,280.6c0.6,1.4,0.1,3-1.2,3.7c-1.3,0.6-2.9,0.3-3.7-1.1c-0.8-1.3-0.3-3.1,1.1-3.8
				C311.7,278.7,313.4,279.2,314,280.6z"/>
			<path class="st4" d="M328.2,276.6c0.2,1.5-0.8,2.9-2.3,3.1c-1.4,0.2-2.8-0.6-3.2-2.1c-0.4-1.4,0.6-3.1,2.2-3.3
				C326.6,274.1,328,275.1,328.2,276.6z"/>
			<path class="st4" d="M343,277c-0.3,1.5-1.7,2.6-3.1,2.3c-1.4-0.2-2.5-1.4-2.4-3c0.1-1.5,1.5-2.8,3.1-2.5
				C342.2,274,343.3,275.5,343,277z"/>
			<path class="st4" d="M357,281.7c-0.7,1.4-2.3,2-3.6,1.3c-1.3-0.6-2-2.1-1.5-3.6c0.5-1.4,2.2-2.2,3.7-1.5
				C357.1,278.6,357.7,280.3,357,281.7z"/>
			<path class="st4" d="M369,290.3c-1.1,1.1-2.8,1.2-3.9,0.2c-1-1-1.3-2.6-0.3-3.9c0.9-1.2,2.8-1.5,4-0.3
				C370,287.4,370.1,289.2,369,290.3z"/>
			<path class="st4" d="M378,302c-1.3,0.7-3.1,0.3-3.8-0.9c-0.4-0.6-0.4-1.4-0.3-2c0.1-0.7,0.5-1.3,1.1-1.8c0.6-0.4,1.4-0.6,2.1-0.4
				c0.7,0.2,1.3,0.6,1.8,1.3C379.7,299.6,379.3,301.3,378,302z"/>
			<path class="st4" d="M383,315.9c-1.5,0.3-3-0.6-3.4-2c-0.3-1.4,0.5-2.9,1.9-3.4c1.5-0.5,3,0.4,3.4,2
				C385.4,314.1,384.6,315.6,383,315.9z"/>
			<path class="st4" d="M302,314c1.5,0.6,2.1,2,1.8,3.3c-0.3,1.3-1.8,2.2-3.3,1.9c-1.5-0.3-2.5-1.8-2-3.4
				C298.9,314.3,300.6,313.5,302,314z"/>
			<path class="st4" d="M309.6,301.9c1.1,1.1,1.2,2.8,0.3,3.8c-0.8,1.1-2.5,1.3-3.8,0.4c-1.3-0.9-1.5-2.6-0.5-3.9
				C306.7,300.9,308.5,300.8,309.6,301.9z"/>
			<path class="st4" d="M321.5,293.8c0.5,1.4,0,3-1.2,3.6c-1.2,0.5-2.8,0.2-3.6-1.2c-0.8-1.3-0.4-3.1,1.1-3.8
				C319.2,291.8,320.9,292.4,321.5,293.8z"/>
			<path class="st4" d="M335.6,291.3c-0.1,1.5-1.2,2.7-2.6,2.8c-0.7,0-1.3-0.2-1.8-0.7c-0.5-0.4-0.9-1.1-1-1.8
				c-0.1-0.8,0.1-1.5,0.6-2.1c0.5-0.5,1.2-0.9,2-0.9C334.4,288.5,335.7,289.8,335.6,291.3z"/>
			<path class="st4" d="M349.5,294.8c-0.7,1.4-2.2,1.9-3.5,1.5c-1.3-0.5-1.9-2.1-1.5-3.5c0.4-1.5,2-2.2,3.6-1.7
				C349.6,291.7,350.2,293.5,349.5,294.8z"/>
			<path class="st4" d="M360.8,303.6c-1.2,1-2.9,0.9-3.8-0.1c-1-0.9-1-2.6,0-3.8c1-1.2,2.8-1.2,4-0.1
				C362.1,300.8,362,302.6,360.8,303.6z"/>
			<path class="st4" d="M367.6,316.2c-0.7,0.2-1.5,0.1-2.1-0.2c-0.6-0.3-1.1-0.8-1.4-1.4c-0.4-1.3,0.2-2.8,1.5-3.5
				c1.4-0.7,3.1,0,3.6,1.5c0.3,0.8,0.2,1.6-0.1,2.2C368.9,315.5,368.3,316,367.6,316.2z"/>
			<path class="st4" d="M319,314c1.2,1,1.5,2.6,0.9,3.7c-0.3,0.6-0.8,1-1.5,1.2c-0.6,0.2-1.4,0.3-2.1,0c-0.7-0.3-1.3-0.8-1.5-1.5
				c-0.2-0.7-0.2-1.6,0.3-2.4C315.9,313.5,317.8,313.1,319,314z"/>
			<path class="st4" d="M331.9,306.6c0.2,1.5-0.8,2.9-2,3.2c-1.3,0.4-2.8-0.3-3.4-1.7c-0.7-1.4,0.1-3.1,1.9-3.7
				C330.1,304,331.7,305.1,331.9,306.6z"/>
			<path class="st4" d="M346.2,310.4c-1,1.2-2.6,1.5-3.7,0.9c-0.6-0.3-1-0.8-1.2-1.5c-0.2-0.6-0.3-1.4,0-2.1
				c0.3-0.7,0.8-1.3,1.5-1.5c0.7-0.2,1.6-0.2,2.4,0.3C346.7,307.3,347.1,309.2,346.2,310.4z"/>
			<path class="st4" d="M353.6,323.2c-1.5,0.2-2.9-0.8-3.2-2c-0.4-1.3,0.3-2.8,1.7-3.4c1.4-0.7,3.1,0.1,3.7,1.9
				C356.2,321.4,355.1,323.1,353.6,323.2z"/>
		</g>
	</g>
</g>
<g>
	<g>
		<circle class="st3" cx="1993.3" cy="201.9" r="54"/>
		<path class="st1" d="M1990.2,281.6h6.3v-54.7c0-1.7-1.4-3.1-3.1-3.1l0,0c-1.7,0-3.1,1.4-3.1,3.1V281.6z"/>
	</g>
	<g>
		<path class="st2" d="M1890,255.9L1890,255.9c17.2,0,31.1-13.9,31.1-31.1V179c0-17.2-13.9-31.1-31.1-31.1l0,0
			c-17.2,0-31.1,13.9-31.1,31.1v45.8C1858.9,242,1872.8,255.9,1890,255.9z"/>
		<path class="st1" d="M1886.9,281.6h6.3v-54.7c0-1.7-1.4-3.1-3.1-3.1l0,0c-1.7,0-3.1,1.4-3.1,3.1V281.6z"/>
	</g>
	<g>
		<path class="st5" d="M1773,255.9L1773,255.9c17.2,0,31.1-13.9,31.1-31.1v0c0-17.2-13.9-31.1-31.1-31.1l0,0
			c-17.2,0-31.1,13.9-31.1,31.1v0C1741.9,242,1755.8,255.9,1773,255.9z"/>
		<path class="st5" d="M1773,204.1L1773,204.1c17.2,0,31.1-13.9,31.1-31.1v0c0-17.2-13.9-31.1-31.1-31.1l0,0
			c-17.2,0-31.1,13.9-31.1,31.1v0C1741.9,190.2,1755.8,204.1,1773,204.1z"/>
		<path class="st1" d="M1769.9,281.6h6.3v-54.7c0-1.7-1.4-3.1-3.1-3.1l0,0c-1.7,0-3.1,1.4-3.1,3.1V281.6z"/>
	</g>
</g>
</svg>
