<?xml version="1.0" encoding="utf-8"?>
<!-- Generator: Adobe Illustrator 25.2.2, SVG Export Plug-In . SVG Version: 6.00 Build 0)  -->
<svg version="1.1" id="레이어_1" xmlns="http://www.w3.org/2000/svg" xmlns:xlink="http://www.w3.org/1999/xlink" x="0px"
	 y="0px" viewBox="0 0 297.9 55.5" style="enable-background:new 0 0 297.9 55.5;" xml:space="preserve">
<style type="text/css">
	.st0{fill:#ECECEB;}
</style>
<g>
	<path class="st0" d="M28.7,23.8L28.7,23.8c-0.5,1.6-1,3.1-1.4,4.8c-0.3,1-0.6,2-0.9,3c-0.1-0.5-0.3-1-0.4-1.4
		c-0.6-2.1-1.2-4.3-1.9-6.3L15.4,0H0v55.5h13.2V36.2c0-3.4-0.4-7.8-0.8-11.9l2.1,6.4L22,51h8.3l7.4-20.3L40,24
		c-0.5,4.2-0.9,8.8-0.9,12.2v19.3h13.5V0H37.2L28.7,23.8z"/>
	<path class="st0" d="M73.3,0L56.1,55.5h14.9l3.1-12.4h14.5l3.1,12.4h15.4L90,0H73.3z M85.8,31.5h-8.8L78,28
		c1.1-4.5,2.4-9.7,3.5-14.5c0.4,1.8,0.9,3.6,1.3,5.4c0.7,3.1,1.5,6.3,2.2,9.1L85.8,31.5z"/>
	<path class="st0" d="M153.2,17.8c0-6.3-2.2-11.1-6.6-14.1C143,1.3,137.9,0,131.4,0h-20.5v55.5h14.6v-19h4.8l9.9,19h16.4l-12.2-21.8
		C148.5,31.5,153.2,26.9,153.2,17.8z M125.4,11.9h4.9c6.1,0,8.5,1.6,8.5,5.9c0,4.6-2.9,6.9-8.5,6.9h-4.9V11.9z"/>
	<polygon class="st0" points="206.9,0 190.6,0 176.5,19.8 176.5,0 161.9,0 161.9,55.5 176.5,55.5 176.5,40.8 181.4,34.2 193.6,55.5 
		209.7,55.5 190,22.5 	"/>
	<polygon class="st0" points="227.5,33.2 245.5,33.2 245.5,20.7 227.5,20.7 227.5,12.4 248.6,12.4 248.6,0 212.9,0 212.9,55.5 
		249.4,55.5 249.4,43 227.5,43 	"/>
	<polygon class="st0" points="254.2,0 254.2,12.4 268.7,12.4 268.7,55.5 283.3,55.5 283.3,12.4 297.9,12.4 297.9,0 	"/>
</g>
</svg>
