<?xml version="1.0" encoding="utf-8"?>
<!-- Generator: Adobe Illustrator 25.2.2, SVG Export Plug-In . SVG Version: 6.00 Build 0)  -->
<svg version="1.1" id="레이어_1" xmlns="http://www.w3.org/2000/svg" xmlns:xlink="http://www.w3.org/1999/xlink" x="0px"
	 y="0px" viewBox="0 0 692.3 278.9" style="enable-background:new 0 0 692.3 278.9;" xml:space="preserve">
<style type="text/css">
	.st0{fill:#1984FD;}
	.st1{fill:#4953D3;}
	.st2{fill:#4FE179;}
	.st3{fill:#3BBCFD;}
	.st4{fill-rule:evenodd;clip-rule:evenodd;fill:#FFFFFF;}
</style>
<g>
	<g>
		<circle class="st0" cx="467.7" cy="47.5" r="47.5"/>
		<path class="st1" d="M470.5,117.5H465V69.4c0-1.5,1.2-2.8,2.8-2.8l0,0c1.5,0,2.8,1.2,2.8,2.8V117.5z"/>
	</g>
	<g>
		<path class="st2" d="M558.5,95L558.5,95c-15.1,0-27.4-12.3-27.4-27.4V27.4c0-15.1,12.3-27.4,27.4-27.4l0,0
			c15.1,0,27.4,12.3,27.4,27.4v40.2C585.9,82.7,573.6,95,558.5,95z"/>
		<path class="st1" d="M561.3,117.5h-5.5V69.4c0-1.5,1.2-2.8,2.8-2.8l0,0c1.5,0,2.8,1.2,2.8,2.8V117.5z"/>
	</g>
	<path class="st3" d="M692.3,278.9L692.3,278.9c0-95.6-77.5-173.1-173.1-173.1h0c-95.6,0-173.1,77.5-173.1,173.1v0H692.3z"/>
	<path class="st3" d="M346.2,278.9L346.2,278.9c0-95.6-77.5-173.1-173.1-173.1h0C77.5,105.8,0,183.3,0,278.9v0H346.2z"/>
	<g>
		<path class="st4" d="M3.1,266.6c1.5,0.1,2.7,1.4,2.6,2.9c-0.1,1.5-1.3,2.7-2.9,2.6c-1.5-0.1-2.8-1.4-2.7-2.9
			C0.3,267.6,1.6,266.4,3.1,266.6z"/>
		<path class="st4" d="M4.8,251.8c1.5,0.2,2.5,1.6,2.3,3.1c-0.2,1.5-1.6,2.6-3.1,2.4c-1.5-0.2-2.6-1.6-2.4-3.2
			C1.8,252.6,3.3,251.5,4.8,251.8z"/>
		<path class="st4" d="M7.8,237.2c1.5,0.4,2.4,1.9,2.1,3.3C9.5,242,8,243,6.5,242.6c-1.5-0.3-2.4-1.8-2.1-3.3
			C4.8,237.8,6.3,236.8,7.8,237.2z"/>
		<path class="st4" d="M12.1,223c1.4,0.5,2.2,2.1,1.7,3.5c-0.5,1.4-2.1,2.2-3.5,1.8c-1.5-0.5-2.2-2-1.7-3.5
			C9,223.3,10.6,222.5,12.1,223z"/>
		<path class="st4" d="M17.6,209.2c1.4,0.6,2,2.3,1.4,3.6c-0.6,1.4-2.2,2.1-3.6,1.5c-1.4-0.6-2.1-2.2-1.5-3.7
			C14.5,209.2,16.2,208.5,17.6,209.2z"/>
		<path class="st4" d="M24.2,195.9c1.3,0.8,1.8,2.4,1.1,3.7c-0.7,1.3-2.4,1.9-3.7,1.2c-1.4-0.7-1.9-2.4-1.2-3.8
			C21.1,195.6,22.9,195.1,24.2,195.9z"/>
		<path class="st4" d="M32,183.2c1.2,0.9,1.6,2.6,0.8,3.9c-0.8,1.3-2.5,1.6-3.8,0.8c-1.3-0.8-1.7-2.5-0.8-3.9
			C29,182.7,30.7,182.3,32,183.2z"/>
		<path class="st4" d="M40.9,171.3c1.2,1,1.4,2.7,0.5,3.9c-0.9,1.2-2.7,1.4-3.9,0.5c-1.2-0.9-1.4-2.7-0.5-3.9
			C38,170.5,39.7,170.3,40.9,171.3z"/>
		<path class="st4" d="M50.8,160.2c1.1,1.1,1.1,2.8,0.1,3.9c-1,1.1-2.8,1.1-3.9,0.1c-1.1-1-1.2-2.8-0.1-3.9
			C48,159.2,49.7,159.1,50.8,160.2z"/>
		<path class="st4" d="M61.6,150c1,1.2,0.9,2.9-0.3,3.9c-1.2,1-2.9,0.9-3.9-0.2c-1-1.1-1-2.9,0.2-3.9
			C58.9,148.7,60.6,148.8,61.6,150z"/>
		<path class="st4" d="M73.3,140.8c0.9,1.2,0.6,3-0.6,3.8c-1.2,0.9-2.9,0.7-3.9-0.5c-0.9-1.2-0.7-3,0.5-3.9
			C70.6,139.2,72.4,139.5,73.3,140.8z"/>
		<path class="st4" d="M85.7,132.6c0.8,1.3,0.3,3-0.9,3.8c-1.3,0.8-3,0.4-3.8-0.9c-0.8-1.3-0.4-3,0.9-3.9
			C83.2,130.8,84.9,131.2,85.7,132.6z"/>
		<path class="st4" d="M98.8,125.5c0.7,1.4,0.1,3.1-1.2,3.7c-1.3,0.7-3,0.1-3.7-1.2c-0.7-1.3-0.2-3,1.2-3.7
			C96.4,123.6,98.1,124.1,98.8,125.5z"/>
		<path class="st4" d="M112.4,119.6c0.5,1.4-0.2,3-1.6,3.6c-1.4,0.6-3-0.1-3.6-1.5c-0.6-1.4,0.1-3,1.6-3.6
			C110.3,117.5,111.9,118.2,112.4,119.6z"/>
		<path class="st4" d="M126.5,114.9c0.4,1.5-0.4,3-1.9,3.4c-1.5,0.4-3-0.4-3.5-1.8c-0.5-1.4,0.3-3.1,1.9-3.5
			C124.6,112.6,126.1,113.5,126.5,114.9z"/>
		<path class="st4" d="M141,111.5c0.3,1.5-0.7,2.9-2.2,3.2c-1.5,0.3-2.9-0.6-3.3-2.1c-0.3-1.5,0.6-3,2.2-3.3
			C139.2,109,140.7,110,141,111.5z"/>
		<path class="st4" d="M155.7,109.3c0.1,1.5-0.9,2.9-2.4,3.1c-1.5,0.2-2.9-0.9-3.1-2.4c-0.2-1.5,0.9-2.9,2.4-3.1
			C154.2,106.7,155.6,107.8,155.7,109.3z"/>
		<path class="st4" d="M170.6,108.5c0,1.5-1.2,2.8-2.7,2.8c-1.5,0-2.8-1.2-2.9-2.7c-0.1-1.5,1.1-2.8,2.7-2.8
			C169.2,105.8,170.5,107,170.6,108.5z"/>
		<path class="st4" d="M185.4,108.9c-0.1,1.5-1.4,2.7-2.9,2.6c-1.5-0.1-2.7-1.3-2.6-2.9c0.1-1.5,1.4-2.8,2.9-2.7
			C184.3,106.1,185.5,107.4,185.4,108.9z"/>
		<path class="st4" d="M200.2,110.6c-0.2,1.5-1.6,2.5-3.1,2.3c-1.5-0.2-2.6-1.6-2.4-3.1c0.2-1.5,1.6-2.6,3.2-2.4
			C199.4,107.6,200.4,109.1,200.2,110.6z"/>
		<path class="st4" d="M214.8,113.6c-0.4,1.5-1.9,2.4-3.3,2.1c-1.5-0.3-2.4-1.8-2.1-3.3c0.3-1.5,1.8-2.4,3.3-2.1
			C214.2,110.6,215.1,112.1,214.8,113.6z"/>
		<path class="st4" d="M229,117.9c-0.5,1.4-2.1,2.2-3.5,1.7c-1.4-0.5-2.2-2.1-1.8-3.5c0.4-1.5,2-2.2,3.5-1.7
			C228.7,114.9,229.5,116.4,229,117.9z"/>
		<path class="st4" d="M242.8,123.4c-0.6,1.4-2.3,2-3.6,1.4c-1.4-0.6-2.1-2.2-1.5-3.6c0.6-1.4,2.2-2.1,3.7-1.5
			C242.8,120.3,243.4,122,242.8,123.4z"/>
		<path class="st4" d="M256.1,130c-0.8,1.3-2.4,1.8-3.7,1.1c-1.3-0.7-1.9-2.4-1.2-3.7c0.7-1.4,2.4-1.9,3.8-1.2
			C256.4,127,256.8,128.7,256.1,130z"/>
		<path class="st4" d="M268.8,137.8c-0.9,1.2-2.6,1.6-3.9,0.8c-1.3-0.8-1.6-2.5-0.8-3.8c0.8-1.3,2.5-1.7,3.9-0.8
			C269.3,134.8,269.6,136.6,268.8,137.8z"/>
		<path class="st4" d="M280.7,146.7c-1,1.2-2.7,1.4-3.9,0.5c-1.2-0.9-1.4-2.7-0.5-3.9c0.9-1.2,2.7-1.4,3.9-0.5
			C281.4,143.8,281.6,145.5,280.7,146.7z"/>
		<path class="st4" d="M291.8,156.6c-1.1,1.1-2.8,1.1-3.9,0.1c-1.1-1-1.1-2.8-0.1-3.9c1-1.1,2.8-1.2,3.9-0.1
			C292.8,153.8,292.8,155.5,291.8,156.6z"/>
		<path class="st4" d="M302,167.4c-1.2,1-2.9,0.9-3.9-0.3c-1-1.2-0.9-2.9,0.2-3.9c1.1-1,2.9-1,3.9,0.2
			C303.2,164.7,303.1,166.4,302,167.4z"/>
		<path class="st4" d="M311.2,179.1c-1.2,0.9-3,0.6-3.8-0.6c-0.9-1.2-0.7-2.9,0.5-3.9c1.2-0.9,3-0.7,3.9,0.5
			C312.7,176.4,312.4,178.2,311.2,179.1z"/>
		<path class="st4" d="M319.4,191.5c-1.3,0.8-3,0.3-3.8-0.9c-0.8-1.3-0.4-3,0.8-3.8c1.3-0.8,3-0.4,3.9,0.9
			C321.2,189,320.7,190.7,319.4,191.5z"/>
		<path class="st4" d="M326.5,204.6c-1.4,0.7-3.1,0.1-3.7-1.2c-0.7-1.3-0.1-3,1.2-3.7c1.3-0.7,3-0.2,3.7,1.2
			C328.4,202.2,327.9,203.9,326.5,204.6z"/>
		<path class="st4" d="M332.4,218.2c-1.4,0.5-3-0.2-3.6-1.6c-0.6-1.4,0.1-3,1.5-3.6c1.4-0.6,3,0.1,3.6,1.6
			C334.5,216.1,333.8,217.7,332.4,218.2z"/>
		<path class="st4" d="M337,232.3c-1.5,0.4-3-0.4-3.4-1.9c-0.4-1.5,0.4-3,1.8-3.5c1.4-0.5,3.1,0.3,3.5,1.9
			C339.4,230.4,338.5,231.9,337,232.3z"/>
		<path class="st4" d="M340.5,246.8c-1.5,0.3-2.9-0.7-3.2-2.2c-0.3-1.5,0.6-2.9,2.1-3.3c1.5-0.3,3,0.6,3.3,2.2
			C343,245,342,246.5,340.5,246.8z"/>
		<path class="st4" d="M342.6,261.5c-1.5,0.1-2.9-0.9-3.1-2.4c-0.2-1.5,0.9-2.9,2.4-3.1c1.5-0.2,2.9,0.9,3.1,2.4
			C345.2,260,344.2,261.4,342.6,261.5z"/>
		<path class="st4" d="M343.5,276.4c-1.5,0-2.8-1.2-2.8-2.7c0-1.5,1.2-2.8,2.7-2.9c1.5-0.1,2.8,1.1,2.8,2.7
			C346.2,275.1,345,276.3,343.5,276.4z"/>
		<path class="st4" d="M18.3,266.6c1.5,0.1,2.7,1.4,2.6,2.9c-0.1,1.5-1.4,2.7-2.9,2.6c-1.5-0.1-2.8-1.4-2.6-2.9
			C15.4,267.7,16.7,266.5,18.3,266.6z"/>
		<path class="st4" d="M20.1,252c1.5,0.3,2.5,1.7,2.2,3.2c-0.2,1.5-1.6,2.5-3.1,2.3c-1.5-0.2-2.6-1.6-2.4-3.2
			C17.2,252.7,18.6,251.7,20.1,252z"/>
		<path class="st4" d="M23.3,237.5c1.5,0.4,2.3,1.9,1.9,3.4c-0.3,1.5-1.8,2.4-3.3,2c-1.5-0.3-2.4-1.9-2.1-3.4
			C20.3,238,21.9,237.1,23.3,237.5z"/>
		<path class="st4" d="M27.9,223.5c1.4,0.6,2.1,2.1,1.6,3.5c-0.5,1.4-2,2.2-3.5,1.7c-1.4-0.5-2.2-2.1-1.7-3.6
			C24.9,223.7,26.5,222.9,27.9,223.5z"/>
		<path class="st4" d="M33.9,210c1.4,0.7,1.9,2.3,1.3,3.7c-0.6,1.4-2.3,2-3.6,1.3c-1.4-0.6-2-2.3-1.4-3.7
			C30.8,209.8,32.5,209.3,33.9,210z"/>
		<path class="st4" d="M41.1,197c1.3,0.8,1.7,2.5,0.9,3.8c-0.7,1.3-2.4,1.7-3.8,1c-1.3-0.8-1.8-2.5-1-3.8
			C38,196.6,39.8,196.2,41.1,197z"/>
		<path class="st4" d="M49.4,184.9c1.2,0.9,1.4,2.6,0.6,3.9c-0.9,1.2-2.6,1.5-3.8,0.6c-1.2-0.9-1.5-2.6-0.6-3.9
			C46.4,184.2,48.2,183.9,49.4,184.9z"/>
		<path class="st4" d="M59,173.5c1.1,1,1.2,2.7,0.2,3.9c-1,1.1-2.7,1.2-3.9,0.3c-1.2-1-1.3-2.8-0.3-3.9
			C56,172.6,57.8,172.5,59,173.5z"/>
		<path class="st4" d="M69.5,163.2c1,1.1,0.9,2.9-0.2,3.9c-1.1,1-2.8,1-3.9-0.1c-1.1-1.1-1-2.9,0.1-3.9
			C66.7,161.9,68.5,162,69.5,163.2z"/>
		<path class="st4" d="M80.9,153.8c0.9,1.2,0.6,2.9-0.5,3.9c-1.2,0.9-2.9,0.7-3.9-0.5c-1-1.2-0.7-2.9,0.5-3.9
			C78.3,152.3,80,152.6,80.9,153.8z"/>
		<path class="st4" d="M93.2,145.6c0.8,1.3,0.4,3-0.9,3.8c-1.3,0.8-3,0.4-3.8-0.9c-0.8-1.3-0.5-3,0.9-3.8
			C90.7,143.9,92.5,144.3,93.2,145.6z"/>
		<path class="st4" d="M106.3,138.6c0.6,1.4,0.1,3-1.2,3.7c-1.3,0.7-3,0.1-3.7-1.2c-0.7-1.4-0.2-3,1.2-3.7
			C103.9,136.7,105.6,137.2,106.3,138.6z"/>
		<path class="st4" d="M119.9,132.9c0.5,1.4-0.2,3-1.6,3.6c-1.4,0.5-3-0.2-3.6-1.6c-0.6-1.4,0.1-3,1.6-3.6
			C117.8,130.8,119.4,131.4,119.9,132.9z"/>
		<path class="st4" d="M134,128.5c0.4,1.5-0.5,3-1.9,3.4c-1.4,0.4-3-0.4-3.4-1.9c-0.4-1.5,0.4-3,1.9-3.4
			C132.1,126.2,133.6,127,134,128.5z"/>
		<path class="st4" d="M148.5,125.5c0.2,1.5-0.8,3-2.2,3.2c-1.5,0.3-2.9-0.7-3.2-2.2c-0.3-1.5,0.7-2.9,2.2-3.2
			C146.8,123,148.2,124,148.5,125.5z"/>
		<path class="st4" d="M163.2,123.9c0.1,1.5-1,2.9-2.5,3c-1.5,0.1-2.8-1-3-2.6c-0.2-1.5,1-2.8,2.5-3
			C161.8,121.2,163.1,122.4,163.2,123.9z"/>
		<path class="st4" d="M178,123.7c-0.1,1.5-1.3,2.7-2.8,2.7c-1.5-0.1-2.7-1.3-2.7-2.8c0-1.5,1.2-2.8,2.8-2.7
			C176.8,120.9,178,122.1,178,123.7z"/>
		<path class="st4" d="M192.7,124.8c-0.2,1.5-1.6,2.6-3,2.4c-1.5-0.2-2.6-1.5-2.5-3c0.1-1.5,1.5-2.7,3.1-2.5
			C191.8,121.9,192.9,123.3,192.7,124.8z"/>
		<path class="st4" d="M207.3,127.4c-0.3,1.5-1.8,2.4-3.3,2.1c-1.5-0.3-2.4-1.7-2.2-3.2c0.3-1.5,1.7-2.5,3.3-2.2
			C206.6,124.4,207.6,125.9,207.3,127.4z"/>
		<path class="st4" d="M221.5,131.3c-0.5,1.5-2,2.2-3.4,1.8c-1.4-0.4-2.3-1.9-1.9-3.4c0.4-1.5,2-2.3,3.5-1.9
			C221.2,128.2,222,129.9,221.5,131.3z"/>
		<path class="st4" d="M235.3,136.6c-0.6,1.4-2.2,2-3.6,1.5c-1.4-0.5-2.1-2.2-1.5-3.6c0.6-1.4,2.2-2.1,3.6-1.5
			C235.3,133.5,235.9,135.2,235.3,136.6z"/>
		<path class="st4" d="M248.6,143.1c-0.8,1.4-2.4,1.8-3.7,1.1c-1.3-0.7-1.9-2.3-1.2-3.7c0.7-1.4,2.4-1.9,3.8-1.2
			C248.8,140,249.3,141.8,248.6,143.1z"/>
		<path class="st4" d="M261.1,150.9c-0.9,1.3-2.5,1.5-3.8,0.8c-1.3-0.8-1.6-2.5-0.8-3.8c0.8-1.3,2.5-1.7,3.9-0.8
			C261.7,147.9,262,149.7,261.1,150.9z"/>
		<path class="st4" d="M272.9,159.9c-1,1.2-2.7,1.3-3.9,0.4c-1.2-0.9-1.4-2.7-0.4-3.9c0.9-1.2,2.7-1.4,3.9-0.4
			C273.7,156.9,273.9,158.7,272.9,159.9z"/>
		<path class="st4" d="M283.7,169.9c-1.1,1.1-2.8,1-3.9,0c-1.1-1-1.1-2.8-0.1-3.9c1-1.1,2.8-1.1,3.9-0.1
			C284.9,167,284.8,168.8,283.7,169.9z"/>
		<path class="st4" d="M293.6,180.9c-1.2,1-2.9,0.8-3.9-0.3c-1-1.1-0.8-2.9,0.3-3.9c1.1-1,2.9-0.9,3.9,0.3
			C295,178.2,294.8,180,293.6,180.9z"/>
		<path class="st4" d="M302.4,192.8c-1.3,0.8-3,0.5-3.8-0.7c-0.9-1.2-0.6-2.9,0.7-3.8c1.2-0.9,3-0.6,3.9,0.7
			C304,190.2,303.7,192,302.4,192.8z"/>
		<path class="st4" d="M310,205.5c-1.3,0.7-3,0.2-3.8-1.1c-0.7-1.3-0.3-3,1-3.8c1.3-0.8,3-0.3,3.8,1
			C311.9,203.1,311.4,204.8,310,205.5z"/>
		<path class="st4" d="M316.4,218.8c-1.4,0.6-3-0.1-3.7-1.4c-0.6-1.4,0-3,1.4-3.6c1.4-0.6,3,0,3.7,1.4
			C318.4,216.6,317.8,218.2,316.4,218.8z"/>
		<path class="st4" d="M321.4,232.7c-1.5,0.4-3-0.3-3.5-1.8c-0.5-1.4,0.3-3,1.7-3.5c1.4-0.5,3,0.3,3.5,1.8
			C323.7,230.7,322.9,232.3,321.4,232.7z"/>
		<path class="st4" d="M325.1,247c-1.5,0.3-3-0.6-3.3-2.1c-0.3-1.5,0.6-2.9,2.1-3.3c1.5-0.4,3,0.6,3.3,2.1
			C327.6,245.2,326.6,246.7,325.1,247z"/>
		<path class="st4" d="M327.4,261.6c-1.5,0.2-2.9-0.9-3.1-2.4c-0.2-1.5,0.9-2.9,2.4-3.1c1.5-0.2,2.9,0.8,3.1,2.4
			C330,260.1,329,261.5,327.4,261.6z"/>
		<path class="st4" d="M328.4,276.4c-1.5,0-2.8-1.2-2.8-2.7c0-1.5,1.2-2.8,2.7-2.9c1.5-0.1,2.8,1.1,2.8,2.7
			C331.1,275.1,329.9,276.4,328.4,276.4z"/>
		<path class="st4" d="M33.4,266.7c1.5,0.1,2.7,1.4,2.6,2.9c-0.1,1.5-1.4,2.6-2.9,2.6c-1.5-0.1-2.7-1.4-2.6-2.9
			C30.5,267.7,31.9,266.6,33.4,266.7z"/>
		<path class="st4" d="M35.4,252.2c1.5,0.3,2.5,1.7,2.2,3.2c-0.3,1.5-1.7,2.5-3.2,2.2c-1.5-0.2-2.5-1.6-2.2-3.2
			C32.5,252.9,33.9,251.9,35.4,252.2z"/>
		<path class="st4" d="M38.9,237.9c1.5,0.5,2.3,2,1.9,3.4c-0.4,1.4-1.9,2.3-3.4,1.9c-1.5-0.4-2.3-1.9-1.9-3.4
			C35.9,238.3,37.5,237.5,38.9,237.9z"/>
		<path class="st4" d="M43.9,224.1c1.4,0.6,2.1,2.2,1.6,3.6c-0.5,1.4-2.1,2.1-3.6,1.5c-1.4-0.5-2.1-2.1-1.6-3.6
			C40.9,224.2,42.5,223.5,43.9,224.1z"/>
		<path class="st4" d="M50.4,210.9c1.3,0.7,1.8,2.4,1.1,3.7c-0.7,1.3-2.3,1.8-3.7,1.2c-1.4-0.7-1.9-2.4-1.2-3.7
			C47.3,210.7,49.1,210.2,50.4,210.9z"/>
		<path class="st4" d="M58.2,198.5c1.3,0.9,1.6,2.6,0.7,3.8c-0.8,1.3-2.5,1.6-3.8,0.8c-1.3-0.8-1.7-2.6-0.8-3.9
			C55.2,197.9,57,197.6,58.2,198.5z"/>
		<path class="st4" d="M67.2,186.9c1.1,1,1.3,2.7,0.3,3.9c-1,1.1-2.6,1.3-3.9,0.4c-1.2-0.9-1.4-2.7-0.4-3.9
			C64.3,186.1,66.1,185.9,67.2,186.9z"/>
		<path class="st4" d="M77.4,176.4c1,1.1,1,2.9-0.1,3.9c-1.1,1-2.8,1-3.9-0.1c-1.1-1.1-1.1-2.8,0-3.9
			C74.6,175.2,76.4,175.3,77.4,176.4z"/>
		<path class="st4" d="M88.7,166.9c0.9,1.2,0.7,3-0.5,3.9c-1.2,0.9-2.9,0.7-3.9-0.5c-1-1.2-0.8-2.9,0.5-3.9
			C86,165.5,87.7,165.7,88.7,166.9z"/>
		<path class="st4" d="M100.8,158.7c0.8,1.3,0.4,3-0.9,3.8c-1.2,0.8-2.9,0.4-3.8-0.9c-0.8-1.3-0.5-3,0.8-3.8
			C98.3,157,100,157.4,100.8,158.7z"/>
		<path class="st4" d="M113.8,151.8c0.7,1.4,0,3-1.3,3.7c-1.3,0.7-3,0.1-3.7-1.2c-0.7-1.4-0.2-3,1.2-3.7
			C111.4,149.8,113.1,150.4,113.8,151.8z"/>
		<path class="st4" d="M127.4,146.3c0.5,1.4-0.2,3-1.7,3.5c-1.4,0.5-3-0.2-3.5-1.6c-0.6-1.4,0.2-3,1.6-3.6
			C125.3,144.1,126.9,144.9,127.4,146.3z"/>
		<path class="st4" d="M141.5,142.3c0.3,1.5-0.6,3-2,3.3c-1.4,0.3-2.9-0.5-3.3-2c-0.4-1.5,0.5-3.1,2-3.4
			C139.6,139.9,141.1,140.8,141.5,142.3z"/>
		<path class="st4" d="M155.9,139.7c0.2,1.5-0.9,2.9-2.3,3.1c-1.5,0.2-2.9-0.8-3.1-2.3c-0.2-1.5,0.8-3,2.3-3.2
			C154.4,137.1,155.8,138.2,155.9,139.7z"/>
		<path class="st4" d="M170.6,138.7c0,1.5-1.2,2.8-2.7,2.8c-1.5,0-2.8-1.1-2.8-2.7c-0.1-1.5,1.1-2.9,2.6-2.9
			C169.3,136,170.6,137.2,170.6,138.7z"/>
		<path class="st4" d="M185.3,139.2c-0.1,1.5-1.4,2.7-2.9,2.6c-1.5-0.1-2.6-1.4-2.6-2.9c0.1-1.5,1.4-2.7,2.9-2.6
			C184.2,136.4,185.4,137.7,185.3,139.2z"/>
		<path class="st4" d="M199.8,141.2c-0.3,1.5-1.7,2.5-3.2,2.2c-1.5-0.3-2.5-1.7-2.2-3.2c0.2-1.5,1.7-2.5,3.2-2.2
			C199.1,138.3,200.1,139.7,199.8,141.2z"/>
		<path class="st4" d="M214,144.8c-0.5,1.5-2,2.3-3.4,1.9c-1.4-0.4-2.3-1.9-1.9-3.4c0.4-1.5,1.9-2.3,3.4-1.9
			C213.6,141.8,214.5,143.3,214,144.8z"/>
		<path class="st4" d="M227.8,149.8c-0.6,1.4-2.2,2.1-3.6,1.6c-1.4-0.5-2.1-2.1-1.5-3.6c0.5-1.4,2.1-2.1,3.6-1.6
			C227.8,146.7,228.4,148.3,227.8,149.8z"/>
		<path class="st4" d="M241,156.2c-0.7,1.3-2.4,1.8-3.7,1.1c-1.3-0.7-1.8-2.3-1.2-3.7c0.7-1.4,2.4-1.9,3.7-1.2
			C241.3,153.1,241.8,154.9,241,156.2z"/>
		<path class="st4" d="M253.5,164c-0.9,1.3-2.6,1.6-3.8,0.7c-1.3-0.8-1.6-2.5-0.8-3.8c0.8-1.3,2.6-1.7,3.9-0.8
			C254,161,254.3,162.8,253.5,164z"/>
		<path class="st4" d="M265,173.1c-1,1.1-2.7,1.3-3.9,0.3c-1.1-1-1.3-2.6-0.4-3.9c0.9-1.2,2.7-1.4,3.9-0.4
			C265.9,170.1,266,171.9,265,173.1z"/>
		<path class="st4" d="M275.6,183.2c-1.1,1-2.9,1-3.9-0.1c-1-1.1-1-2.8,0.1-3.9c1.1-1.1,2.8-1.1,3.9,0
			C276.7,180.4,276.7,182.2,275.6,183.2z"/>
		<path class="st4" d="M285,194.5c-1.2,0.9-3,0.7-3.9-0.5c-0.9-1.2-0.7-2.9,0.5-3.9c1.2-1,2.9-0.8,3.9,0.5
			C286.5,191.8,286.3,193.6,285,194.5z"/>
		<path class="st4" d="M293.3,206.6c-1.3,0.8-3,0.4-3.8-0.9c-0.8-1.2-0.4-2.9,0.9-3.8c1.3-0.8,3-0.5,3.8,0.8
			C295,204.1,294.6,205.8,293.3,206.6z"/>
		<path class="st4" d="M300.2,219.6c-1.4,0.7-3,0-3.7-1.3c-0.7-1.3-0.1-3,1.2-3.7c1.4-0.7,3-0.2,3.7,1.2
			C302.2,217.2,301.5,219,300.2,219.6z"/>
		<path class="st4" d="M305.7,233.2c-1.4,0.5-3-0.2-3.5-1.7c-0.5-1.4,0.2-3,1.6-3.5c1.4-0.6,3,0.2,3.6,1.6
			C307.9,231.1,307.1,232.7,305.7,233.2z"/>
		<path class="st4" d="M309.7,247.3c-1.5,0.3-3-0.6-3.3-2c-0.3-1.4,0.5-2.9,2-3.3c1.5-0.4,3.1,0.5,3.4,2
			C312.1,245.5,311.2,247,309.7,247.3z"/>
		<path class="st4" d="M312.2,261.8c-1.5,0.2-2.9-0.9-3.1-2.3c-0.2-1.5,0.8-2.9,2.3-3.1c1.5-0.2,3,0.8,3.2,2.3
			C314.8,260.2,313.7,261.6,312.2,261.8z"/>
		<path class="st4" d="M313.2,276.4c-1.5,0-2.8-1.2-2.8-2.7c0-1.5,1.1-2.8,2.7-2.9c1.5-0.1,2.9,1.1,2.9,2.6
			C316,275.1,314.8,276.4,313.2,276.4z"/>
		<path class="st4" d="M48.6,266.6c1.5,0.2,2.7,1.5,2.6,3c-0.1,1.5-1.4,2.6-3,2.6c-1.5-0.1-2.7-1.4-2.6-3
			C45.7,267.6,47,266.4,48.6,266.6z"/>
		<path class="st4" d="M50.9,252c1.5,0.3,2.4,1.8,2.1,3.3c-0.3,1.5-1.7,2.5-3.2,2.2c-1.5-0.3-2.5-1.7-2.2-3.3
			C47.8,252.6,49.4,251.6,50.9,252z"/>
		<path class="st4" d="M54.9,237.7c1.4,0.5,2.2,2.1,1.7,3.5c-0.5,1.4-2,2.2-3.5,1.8c-1.5-0.4-2.3-2-1.8-3.5
			C51.9,238,53.5,237.2,54.9,237.7z"/>
		<path class="st4" d="M60.6,224c1.4,0.7,1.9,2.3,1.3,3.7c-0.6,1.4-2.3,2-3.7,1.4c-1.4-0.6-2-2.3-1.4-3.7
			C57.6,223.9,59.2,223.3,60.6,224z"/>
		<path class="st4" d="M67.9,211.1c1.3,0.8,1.7,2.5,0.9,3.8c-0.8,1.3-2.4,1.7-3.8,0.9c-1.3-0.8-1.8-2.5-0.9-3.8
			C64.9,210.7,66.6,210.3,67.9,211.1z"/>
		<path class="st4" d="M76.7,199.1c1.2,1,1.4,2.7,0.4,3.9c-0.9,1.2-2.7,1.4-3.9,0.5c-1.2-0.9-1.4-2.7-0.5-3.9
			C73.7,198.4,75.5,198.1,76.7,199.1z"/>
		<path class="st4" d="M86.8,188.3c1.1,1.1,1,2.9-0.1,3.9c-1,1.1-2.8,1.1-3.9,0c-1.1-1-1.1-2.8,0-4C84,187.2,85.8,187.2,86.8,188.3z
			"/>
		<path class="st4" d="M98.1,178.7c0.9,1.2,0.7,3-0.5,3.9c-1.2,0.9-2.9,0.7-3.9-0.5c-1-1.2-0.8-2.9,0.5-3.9
			C95.4,177.3,97.2,177.5,98.1,178.7z"/>
		<path class="st4" d="M110.5,170.6c0.8,1.3,0.3,3-1,3.8c-1.3,0.8-3,0.4-3.8-0.9c-0.8-1.3-0.4-3,0.9-3.9
			C108,168.8,109.7,169.2,110.5,170.6z"/>
		<path class="st4" d="M123.7,163.9c0.6,1.4,0,3.1-1.4,3.7c-1.4,0.6-3,0-3.7-1.4c-0.7-1.4-0.1-3,1.4-3.7
			C121.5,161.9,123.1,162.5,123.7,163.9z"/>
		<path class="st4" d="M137.7,158.9c0.4,1.5-0.4,2.9-1.8,3.4c-1.4,0.5-3-0.3-3.5-1.7c-0.5-1.4,0.3-3,1.8-3.5
			C135.7,156.5,137.3,157.4,137.7,158.9z"/>
		<path class="st4" d="M152.1,155.5c0.2,1.5-0.7,2.9-2.2,3.2c-1.5,0.2-2.9-0.7-3.2-2.2c-0.3-1.5,0.6-3,2.2-3.3
			C150.4,153,151.9,154,152.1,155.5z"/>
		<path class="st4" d="M166.9,153.9c0.1,1.5-1.1,2.9-2.6,3c-1.5,0.1-2.8-1-3-2.6c-0.1-1.5,1-2.9,2.6-3
			C165.5,151.2,166.8,152.4,166.9,153.9z"/>
		<path class="st4" d="M181.7,154.1c-0.1,1.5-1.4,2.6-2.9,2.6c-1.5,0-2.7-1.3-2.7-2.8c0-1.5,1.3-2.7,2.9-2.7
			C180.6,151.2,181.8,152.6,181.7,154.1z"/>
		<path class="st4" d="M196.4,156c-0.3,1.5-1.7,2.5-3.2,2.2c-1.5-0.3-2.5-1.6-2.3-3.2c0.2-1.5,1.7-2.6,3.2-2.3
			C195.6,153,196.7,154.5,196.4,156z"/>
		<path class="st4" d="M210.8,159.6c-0.5,1.4-2,2.3-3.4,1.9c-1.4-0.4-2.3-1.9-1.9-3.4c0.4-1.5,1.9-2.3,3.4-1.9
			C210.4,156.5,211.2,158.1,210.8,159.6z"/>
		<path class="st4" d="M224.6,164.9c-0.6,1.4-2.3,2-3.6,1.4c-1.4-0.6-2.1-2.2-1.5-3.6c0.6-1.4,2.2-2.1,3.7-1.5
			C224.6,161.8,225.2,163.5,224.6,164.9z"/>
		<path class="st4" d="M237.7,171.7c-0.8,1.3-2.5,1.8-3.8,1c-1.3-0.7-1.8-2.4-1-3.8c0.7-1.3,2.4-1.8,3.8-1
			C238.1,168.7,238.5,170.4,237.7,171.7z"/>
		<path class="st4" d="M249.9,180.2c-0.9,1.2-2.7,1.4-3.8,0.5c-1.2-0.9-1.5-2.6-0.6-3.8c0.9-1.2,2.6-1.5,3.9-0.6
			C250.6,177.2,250.9,179,249.9,180.2z"/>
		<path class="st4" d="M261.1,190c-1.1,1.1-2.8,1.1-3.9,0.1c-1.1-1-1.1-2.8-0.1-3.9c1-1.2,2.8-1.2,3.9-0.1
			C262.1,187.1,262.2,188.9,261.1,190z"/>
		<path class="st4" d="M271,201c-1.2,1-2.9,0.7-3.9-0.4c-1-1.1-0.8-2.9,0.3-3.9c1.1-1,2.9-0.9,3.9,0.3
			C272.4,198.3,272.2,200.1,271,201z"/>
		<path class="st4" d="M279.5,213.1c-1.3,0.8-3,0.4-3.8-0.8c-0.8-1.3-0.4-3,0.8-3.8c1.3-0.9,3-0.5,3.8,0.8
			C281.2,210.6,280.8,212.3,279.5,213.1z"/>
		<path class="st4" d="M286.5,226.2c-1.4,0.6-3,0-3.7-1.3c-0.7-1.3-0.1-3,1.2-3.7c1.4-0.7,3-0.2,3.7,1.3
			C288.6,223.8,287.9,225.5,286.5,226.2z"/>
		<path class="st4" d="M292,239.9c-1.5,0.5-3-0.3-3.5-1.7c-0.5-1.4,0.2-3,1.7-3.5c1.4-0.5,3.1,0.2,3.6,1.7
			C294.2,237.9,293.4,239.5,292,239.9z"/>
		<path class="st4" d="M295.8,254.3c-1.5,0.3-3-0.7-3.3-2.1c-0.3-1.5,0.6-2.9,2.1-3.3c1.5-0.4,3,0.6,3.3,2.1
			C298.2,252.5,297.3,254,295.8,254.3z"/>
		<path class="st4" d="M297.8,269c-1.5,0.1-2.9-1-3-2.5c-0.2-1.5,0.9-2.8,2.4-3c1.5-0.2,2.9,0.9,3.1,2.5
			C300.4,267.5,299.3,268.9,297.8,269z"/>
		<path class="st4" d="M63.7,266.7c1.5,0.2,2.6,1.5,2.5,3c-0.1,1.5-1.4,2.6-3,2.5c-1.5-0.1-2.7-1.4-2.5-3
			C60.8,267.6,62.2,266.5,63.7,266.7z"/>
		<path class="st4" d="M66.3,252.2c1.5,0.4,2.4,1.8,2.1,3.3c-0.4,1.4-1.8,2.4-3.3,2.1c-1.5-0.3-2.5-1.8-2.1-3.3
			C63.4,252.8,64.8,251.9,66.3,252.2z"/>
		<path class="st4" d="M70.8,238.2c1.4,0.6,2.1,2.2,1.6,3.5c-0.5,1.4-2,2.1-3.5,1.6c-1.4-0.5-2.2-2.1-1.7-3.6
			C67.8,238.4,69.4,237.7,70.8,238.2z"/>
		<path class="st4" d="M77.2,225c1.3,0.8,1.8,2.4,1.1,3.7c-0.7,1.3-2.3,1.8-3.7,1.2c-1.4-0.7-1.9-2.4-1.2-3.8
			C74.1,224.7,75.9,224.2,77.2,225z"/>
		<path class="st4" d="M85.2,212.7c1.2,0.9,1.5,2.6,0.6,3.8c-0.9,1.2-2.6,1.5-3.8,0.6c-1.3-0.9-1.6-2.6-0.7-3.9
			C82.2,212,84,211.7,85.2,212.7z"/>
		<path class="st4" d="M94.8,201.6c1.1,1.1,1.1,2.8,0.1,3.9c-1,1.1-2.8,1.1-3.9,0.1c-1.1-1-1.2-2.8-0.1-3.9
			C92,200.5,93.7,200.5,94.8,201.6z"/>
		<path class="st4" d="M105.8,191.8c0.9,1.2,0.7,2.9-0.4,3.9c-1.2,0.9-2.8,0.8-3.9-0.4c-1-1.1-0.9-3,0.4-3.9
			C103.2,190.4,104.9,190.6,105.8,191.8z"/>
		<path class="st4" d="M118,183.6c0.8,1.3,0.3,3-0.9,3.8c-1.2,0.8-2.9,0.4-3.8-0.9c-0.8-1.3-0.4-3,0.9-3.8
			C115.5,181.9,117.3,182.3,118,183.6z"/>
		<path class="st4" d="M131.2,177.1c0.6,1.4-0.1,3-1.4,3.6c-1.3,0.6-3,0-3.6-1.4c-0.7-1.4,0-3,1.4-3.7
			C129,175,130.6,175.7,131.2,177.1z"/>
		<path class="st4" d="M145.1,172.5c0.4,1.5-0.5,3-1.9,3.4c-1.4,0.4-2.9-0.4-3.4-1.9c-0.5-1.5,0.4-3,1.9-3.4
			C143.2,170.1,144.8,171,145.1,172.5z"/>
		<path class="st4" d="M159.6,169.7c0.2,1.5-0.9,2.9-2.3,3.1c-1.5,0.2-2.9-0.8-3.1-2.3c-0.3-1.5,0.8-3,2.3-3.2
			C158,167.1,159.4,168.2,159.6,169.7z"/>
		<path class="st4" d="M174.3,168.9c0,1.5-1.2,2.7-2.7,2.8c-1.5,0-2.7-1.2-2.8-2.7c-0.1-1.5,1.2-2.8,2.7-2.8
			C173,166.1,174.3,167.4,174.3,168.9z"/>
		<path class="st4" d="M188.9,170c-0.2,1.5-1.6,2.6-3.1,2.4c-1.5-0.2-2.5-1.5-2.4-3.1c0.1-1.5,1.5-2.7,3.1-2.4
			C188.1,167.1,189.1,168.5,188.9,170z"/>
		<path class="st4" d="M203.3,173.1c-0.4,1.5-1.9,2.3-3.3,1.9c-1.4-0.3-2.3-1.8-2-3.3c0.3-1.5,1.8-2.4,3.4-2.1
			C202.8,170.1,203.7,171.6,203.3,173.1z"/>
		<path class="st4" d="M217.1,178.1c-0.6,1.4-2.2,2-3.6,1.5c-1.4-0.5-2.1-2.1-1.5-3.6c0.5-1.4,2.1-2.1,3.6-1.6
			C217.1,175,217.7,176.7,217.1,178.1z"/>
		<path class="st4" d="M230.2,184.8c-0.8,1.3-2.5,1.8-3.8,1c-1.3-0.7-1.7-2.4-1-3.8c0.7-1.4,2.4-1.8,3.8-1
			C230.5,181.8,231,183.5,230.2,184.8z"/>
		<path class="st4" d="M242.2,193.3c-1,1.2-2.7,1.4-3.9,0.5c-1.1-0.9-1.4-2.6-0.5-3.8c0.9-1.2,2.7-1.5,3.9-0.5
			C242.9,190.4,243.1,192.1,242.2,193.3z"/>
		<path class="st4" d="M253,203.3c-1.1,1-2.8,1-3.9,0c-1.1-1-1.1-2.8,0-3.9c1-1.1,2.8-1.1,3.9,0C254.1,200.5,254.1,202.2,253,203.3z
			"/>
		<path class="st4" d="M262.3,214.6c-1.3,0.9-2.9,0.6-3.8-0.5c-0.9-1.2-0.7-2.9,0.5-3.8c1.2-1,2.9-0.7,3.9,0.5
			C263.9,211.9,263.6,213.7,262.3,214.6z"/>
		<path class="st4" d="M270.1,227.1c-1.3,0.7-3,0.2-3.8-1c-0.7-1.3-0.3-3,1-3.8c1.3-0.8,3-0.3,3.8,1
			C272,224.6,271.5,226.3,270.1,227.1z"/>
		<path class="st4" d="M276.2,240.4c-1.4,0.5-3-0.2-3.6-1.5c-0.5-1.4,0.1-3,1.5-3.6c1.4-0.6,3.1,0,3.6,1.5
			C278.3,238.3,277.6,239.9,276.2,240.4z"/>
		<path class="st4" d="M280.4,254.5c-1.5,0.3-3-0.6-3.3-2c-0.4-1.4,0.5-2.9,2-3.3c1.5-0.4,3,0.5,3.4,2
			C282.8,252.7,281.8,254.2,280.4,254.5z"/>
		<path class="st4" d="M282.6,269.1c-1.5,0.1-2.8-1-3-2.4c-0.2-1.5,0.9-2.8,2.4-3c1.5-0.2,2.9,0.9,3.1,2.4
			C285.3,267.5,284.1,268.9,282.6,269.1z"/>
		<path class="st4" d="M79.1,266.6c1.5,0.2,2.5,1.6,2.3,3c-0.1,1.5-1.4,2.6-2.9,2.5c-1.5-0.1-2.7-1.5-2.6-3.1
			C76.1,267.5,77.5,266.4,79.1,266.6z"/>
		<path class="st4" d="M82.1,252c1.5,0.4,2.4,2,2,3.4c-0.4,1.4-1.9,2.3-3.4,2c-1.5-0.3-2.4-1.9-2-3.4
			C79.1,252.4,80.6,251.5,82.1,252z"/>
		<path class="st4" d="M87.5,238.1c1.4,0.7,2,2.3,1.3,3.6c-0.7,1.3-2.2,2-3.6,1.4c-1.4-0.6-2.2-2.3-1.4-3.7
			C84.4,238.1,86.1,237.4,87.5,238.1z"/>
		<path class="st4" d="M94.8,225.2c0.6,0.4,1,1.1,1.1,1.8c0.2,0.7,0.1,1.5-0.3,2.1c-0.8,1.3-2.5,1.7-3.8,0.9
			c-1.3-0.8-1.7-2.5-0.9-3.9c0.4-0.7,1-1.1,1.7-1.3C93.5,224.6,94.2,224.8,94.8,225.2z"/>
		<path class="st4" d="M104.3,213.6c1.1,1.1,1.2,2.8,0.2,3.9c-1,1.1-2.8,1.2-3.9,0.2c-1.2-1-1.3-2.7-0.2-3.9
			C101.4,212.7,103.2,212.6,104.3,213.6z"/>
		<path class="st4" d="M115.3,203.7c0.9,1.2,0.7,2.9-0.5,3.8c-1.2,0.9-2.8,0.9-3.8-0.3c-1-1.1-0.9-3,0.3-4
			C112.6,202.3,114.4,202.5,115.3,203.7z"/>
		<path class="st4" d="M127.7,195.5c0.7,1.3,0.3,3.1-1,3.8c-1.3,0.8-3,0.3-3.8-0.9c-0.8-1.3-0.4-3,1-3.8
			C125.3,193.7,127,194.1,127.7,195.5z"/>
		<path class="st4" d="M141.4,189.5c0.5,1.4-0.2,3-1.6,3.5c-1.4,0.5-3-0.2-3.6-1.6c-0.6-1.4,0.1-3,1.6-3.5
			C139.2,187.3,140.9,188.1,141.4,189.5z"/>
		<path class="st4" d="M155.7,185.6c0.3,1.5-0.7,2.8-2.2,3.2c-1.4,0.4-2.9-0.5-3.3-2c-0.4-1.5,0.6-3,2.1-3.4
			C154,183,155.5,184.2,155.7,185.6z"/>
		<path class="st4" d="M170.5,184.1c0,1.5-1.1,2.8-2.6,2.9c-1.5,0.1-2.8-1.1-2.9-2.6c-0.1-1.5,1-2.8,2.6-2.9
			C169.2,181.4,170.5,182.6,170.5,184.1z"/>
		<path class="st4" d="M185.4,184.9c-0.2,1.5-1.6,2.5-3,2.3c-1.5-0.1-2.6-1.4-2.5-2.9c0.1-1.5,1.5-2.7,3.1-2.6
			C184.5,181.9,185.6,183.4,185.4,184.9z"/>
		<path class="st4" d="M200,187.9c-0.4,1.5-2,2.4-3.4,2c-1.4-0.4-2.3-1.9-2-3.4c0.3-1.5,1.9-2.4,3.4-2
			C199.5,184.9,200.4,186.4,200,187.9z"/>
		<path class="st4" d="M213.9,193.3c-0.7,1.4-2.3,2-3.6,1.3c-1.3-0.7-2-2.2-1.4-3.6c0.6-1.4,2.3-2.2,3.7-1.4
			C213.9,190.2,214.5,191.9,213.9,193.3z"/>
		<path class="st4" d="M226.8,200.7c-0.4,0.6-1.1,1-1.8,1.1c-0.7,0.2-1.5,0.1-2.1-0.3c-1.3-0.8-1.7-2.5-0.9-3.8
			c0.8-1.3,2.5-1.7,3.9-0.9c0.7,0.4,1.1,1,1.3,1.7C227.4,199.3,227.2,200,226.8,200.7z"/>
		<path class="st4" d="M238.3,210.1c-1.1,1.1-2.8,1.2-3.9,0.2c-1.1-1-1.2-2.8-0.2-3.9c1-1.2,2.7-1.3,3.9-0.2
			C239.3,207.2,239.4,209,238.3,210.1z"/>
		<path class="st4" d="M248.3,221.1c-1.2,0.9-2.9,0.7-3.8-0.5c-0.9-1.2-0.9-2.8,0.3-3.8c1.1-1,3-0.9,4,0.3
			C249.7,218.4,249.5,220.2,248.3,221.1z"/>
		<path class="st4" d="M256.5,233.6c-1.3,0.7-3.1,0.3-3.8-1c-0.8-1.3-0.3-3,0.9-3.8s3-0.4,3.8,1
			C258.2,231.1,257.8,232.8,256.5,233.6z"/>
		<path class="st4" d="M262.5,247.2c-1.4,0.5-3-0.2-3.5-1.6c-0.5-1.4,0.2-3,1.6-3.6c1.4-0.6,3,0.1,3.5,1.6
			C264.6,245.1,263.9,246.7,262.5,247.2z"/>
		<path class="st4" d="M266.3,261.6c-1.5,0.3-2.8-0.7-3.2-2.2c-0.4-1.4,0.5-2.9,2-3.3c1.5-0.4,3,0.6,3.4,2.1
			C269,259.8,267.8,261.3,266.3,261.6z"/>
		<path class="st4" d="M267.9,276.4c-1.5,0-2.8-1.1-2.9-2.6c-0.1-1.5,1.1-2.8,2.6-2.9c1.5-0.1,2.8,1,2.9,2.6
			C270.6,275,269.4,276.3,267.9,276.4z"/>
		<path class="st4" d="M94.3,266.7c1.5,0.2,2.6,1.6,2.3,3.1c-0.3,1.4-1.5,2.5-3,2.4c-1.5-0.1-2.8-1.5-2.5-3.1
			C91.4,267.5,92.8,266.5,94.3,266.7z"/>
		<path class="st4" d="M97.9,252.4c1.4,0.5,2.2,2.1,1.7,3.4c-0.4,1.4-1.9,2.2-3.3,1.8c-1.5-0.4-2.4-2-1.9-3.5
			C94.8,252.7,96.4,251.9,97.9,252.4z"/>
		<path class="st4" d="M104,239.1c1.3,0.8,1.7,2.4,1.1,3.7c-0.6,1.3-2.3,1.8-3.6,1.2c-1.4-0.7-1.9-2.4-1.2-3.8
			C100.9,238.7,102.7,238.3,104,239.1z"/>
		<path class="st4" d="M112.5,227c1.2,1,1.2,2.6,0.4,3.9c-0.9,1.2-2.6,1.4-3.8,0.5c-1.2-0.9-1.5-2.7-0.5-3.9
			C109.5,226.1,111.3,226.1,112.5,227z"/>
		<path class="st4" d="M123,216.8c0.5,0.6,0.7,1.3,0.6,2c-0.1,0.7-0.3,1.4-0.9,1.9c-1.1,1-2.8,0.9-3.9-0.2c-1-1.1-0.9-2.9,0.2-4
			c0.6-0.5,1.3-0.8,2-0.7C121.9,215.8,122.5,216.2,123,216.8z"/>
		<path class="st4" d="M135.3,208.6c0.7,1.3,0.3,3-1,3.8c-1.3,0.8-2.9,0.3-3.8-1c-0.8-1.3-0.4-3,1-3.8
			C132.9,206.8,134.5,207.2,135.3,208.6z"/>
		<path class="st4" d="M148.8,202.9c0.5,1.5-0.3,3.1-1.7,3.6c-1.4,0.5-3-0.2-3.5-1.7c-0.6-1.4,0.2-3,1.7-3.6
			C146.8,200.6,148.4,201.4,148.8,202.9z"/>
		<path class="st4" d="M163.2,199.7c0.2,1.5-0.9,2.9-2.3,3.2c-1.4,0.2-2.9-0.8-3.2-2.3c-0.3-1.5,0.7-2.9,2.3-3.1
			C161.6,197.2,163.1,198.2,163.2,199.7z"/>
		<path class="st4" d="M177.9,199.3c-0.1,1.5-1.4,2.7-2.8,2.6c-1.5-0.1-2.7-1.3-2.7-2.8c0-1.6,1.2-2.8,2.8-2.7
			C176.8,196.5,178,197.8,177.9,199.3z"/>
		<path class="st4" d="M192.5,201.6c-0.4,1.5-1.8,2.4-3.3,2c-1.4-0.3-2.4-1.7-2.1-3.2c0.3-1.5,1.8-2.6,3.3-2.2
			C191.9,198.6,192.9,200.1,192.5,201.6z"/>
		<path class="st4" d="M206.4,206.4c-0.7,1.4-2.2,2-3.6,1.4c-1.4-0.5-2.1-2.1-1.5-3.5c0.5-1.4,2.2-2.2,3.7-1.6
			C206.4,203.3,207,205.1,206.4,206.4z"/>
		<path class="st4" d="M219.1,213.8c-0.9,1.3-2.5,1.5-3.8,0.7c-1.3-0.8-1.6-2.4-0.8-3.7c0.8-1.3,2.5-1.7,3.9-0.9
			C219.7,210.7,220,212.6,219.1,213.8z"/>
		<path class="st4" d="M230.3,223.3c-1.1,1.1-2.8,1-3.9,0.1c-1.1-1-1.1-2.7-0.1-3.9c1-1.1,2.8-1.2,4-0.1
			C231.5,220.4,231.4,222.3,230.3,223.3z"/>
		<path class="st4" d="M239.6,234.8c-1.3,0.8-3,0.5-3.9-0.6c-0.9-1.2-0.6-2.9,0.6-3.8c1.2-0.9,3-0.7,3.9,0.6
			C241.2,232.2,240.9,233.9,239.6,234.8z"/>
		<path class="st4" d="M246.6,247.7c-1.4,0.6-3.1,0-3.7-1.3c-0.6-1.3,0-3,1.3-3.7c1.4-0.7,3-0.1,3.7,1.3
			C248.6,245.5,248,247.1,246.6,247.7z"/>
		<path class="st4" d="M251,261.8c-1.5,0.3-3-0.6-3.4-2c-0.4-1.4,0.5-2.9,2-3.4c1.5-0.4,3,0.5,3.4,2
			C253.4,260,252.5,261.5,251,261.8z"/>
		<path class="st4" d="M252.8,276.4c-1.5,0-2.8-1.1-2.9-2.6c-0.1-1.5,1.1-2.8,2.6-2.9c1.5-0.2,2.8,1,2.9,2.6
			C255.5,275,254.3,276.4,252.8,276.4z"/>
		<path class="st4" d="M109.5,266.9c1.5,0.3,2.5,1.7,2.3,3.1c-0.2,1.4-1.6,2.4-3.2,2.3c-1.5-0.1-2.6-1.5-2.3-3.1
			C106.6,267.6,108,266.6,109.5,266.9z"/>
		<path class="st4" d="M113.8,253.1c0.7,0.3,1.2,0.9,1.5,1.5c0.3,0.6,0.4,1.4,0.1,2c-0.5,1.3-2.1,2-3.5,1.6
			c-1.4-0.5-2.2-2.1-1.6-3.6c0.3-0.7,0.8-1.3,1.4-1.6C112.3,252.8,113.1,252.8,113.8,253.1z"/>
		<path class="st4" d="M121,240.5c1.2,0.9,1.5,2.6,0.7,3.7c-0.7,1.2-2.4,1.6-3.7,0.8c-1.3-0.8-1.7-2.5-0.9-3.9
			C118.1,239.9,119.8,239.6,121,240.5z"/>
		<path class="st4" d="M130.9,229.9c1,1.2,0.9,2.9-0.1,3.9c-1.1,0.9-2.8,0.9-3.9-0.1c-1.1-1.1-1.1-2.8,0.1-3.9
			C128.1,228.7,129.9,228.7,130.9,229.9z"/>
		<path class="st4" d="M142.8,221.7c0.7,1.3,0.3,3-1,3.7c-1.2,0.7-2.9,0.3-3.7-1c-0.8-1.3-0.4-3,0.9-3.8
			C140.4,219.8,142.1,220.3,142.8,221.7z"/>
		<path class="st4" d="M156.3,216.5c0.4,1.5-0.4,3-1.8,3.3c-1.3,0.5-2.9-0.3-3.4-1.7c-0.5-1.4,0.2-3,1.7-3.6
			C154.4,214.1,155.9,215,156.3,216.5z"/>
		<path class="st4" d="M170.6,214.3c0,1.5-1.1,2.8-2.5,2.9c-1.4,0-2.7-1-2.9-2.5c-0.2-1.5,0.9-3,2.5-3
			C169.3,211.6,170.6,212.8,170.6,214.3z"/>
		<path class="st4" d="M185.1,215.3c-0.3,1.5-1.7,2.5-3.1,2.3c-1.4-0.2-2.4-1.6-2.3-3.2c0.1-1.5,1.5-2.6,3.1-2.3
			C184.3,212.4,185.4,213.8,185.1,215.3z"/>
		<path class="st4" d="M198.9,219.6c-0.3,0.7-0.9,1.2-1.5,1.5c-0.6,0.3-1.4,0.4-2,0.1c-1.3-0.5-2-2.1-1.6-3.5
			c0.5-1.4,2.1-2.2,3.6-1.6c0.7,0.3,1.3,0.8,1.6,1.4C199.2,218.1,199.2,218.9,198.9,219.6z"/>
		<path class="st4" d="M211.4,226.9c-0.9,1.2-2.6,1.5-3.7,0.7c-1.2-0.7-1.6-2.4-0.8-3.7c0.8-1.3,2.5-1.7,3.9-0.9
			C212.1,223.9,212.3,225.6,211.4,226.9z"/>
		<path class="st4" d="M222.1,236.7c-1.2,1-2.9,0.9-3.9-0.1c-0.9-1.1-0.9-2.8,0.1-3.9c1.1-1.1,2.8-1.1,3.9,0.1
			C223.3,233.9,223.2,235.7,222.1,236.7z"/>
		<path class="st4" d="M230.2,248.6c-1.3,0.7-3,0.3-3.7-1c-0.7-1.2-0.3-2.9,1-3.7c1.3-0.8,3-0.4,3.8,0.9
			C232.1,246.2,231.6,247.9,230.2,248.6z"/>
		<path class="st4" d="M235.5,262.1c-1.5,0.4-3-0.4-3.3-1.8c-0.5-1.3,0.3-2.9,1.7-3.4c1.4-0.5,3,0.2,3.6,1.7
			C237.9,260.2,237,261.7,235.5,262.1z"/>
		<path class="st4" d="M237.7,276.4c-1.5,0-2.8-1.1-2.9-2.5c0-1.4,1-2.7,2.5-2.9c1.5-0.2,3,0.9,3,2.5
			C240.4,275.1,239.2,276.4,237.7,276.4z"/>
		<path class="st4" d="M125,266.7c1.5,0.4,2.3,1.8,2.1,3.2c-0.2,1.4-1.6,2.4-3.1,2.2c-1.5-0.2-2.5-1.7-2.3-3.3
			C122,267.3,123.6,266.3,125,266.7z"/>
		<path class="st4" d="M130.8,253.1c1.3,0.8,1.7,2.4,1,3.7c-0.6,1.3-2.3,1.8-3.6,1.2c-1.4-0.6-1.9-2.3-1.2-3.8
			C127.7,252.7,129.5,252.3,130.8,253.1z"/>
		<path class="st4" d="M140.3,241.8c1,1.2,1,2.9-0.1,3.8c-1,1-2.7,1.1-3.8,0.1c-1.1-1-1.2-2.8-0.1-4
			C137.5,240.6,139.3,240.6,140.3,241.8z"/>
		<path class="st4" d="M152.6,233.7c0.6,1.4,0.1,3-1.2,3.7c-1.3,0.6-2.9,0.3-3.7-1.1c-0.8-1.3-0.3-3.1,1.1-3.8
			C150.3,231.8,152,232.3,152.6,233.7z"/>
		<path class="st4" d="M166.9,229.7c0.2,1.5-0.8,2.9-2.3,3.1c-1.4,0.2-2.8-0.6-3.2-2.1c-0.4-1.4,0.6-3.1,2.2-3.3
			C165.2,227.2,166.7,228.2,166.9,229.7z"/>
		<path class="st4" d="M181.6,230.1c-0.3,1.5-1.7,2.6-3.1,2.3c-1.4-0.2-2.5-1.4-2.4-3c0.1-1.5,1.5-2.8,3.1-2.5
			C180.8,227.2,181.9,228.6,181.6,230.1z"/>
		<path class="st4" d="M195.6,234.8c-0.7,1.4-2.3,2-3.6,1.3c-1.3-0.6-2-2.1-1.5-3.6c0.5-1.4,2.2-2.2,3.7-1.5
			C195.7,231.7,196.4,233.4,195.6,234.8z"/>
		<path class="st4" d="M207.7,243.4c-1.1,1.1-2.8,1.2-3.9,0.2c-1-1-1.3-2.6-0.3-3.9c0.9-1.2,2.8-1.5,4-0.3
			C208.6,240.5,208.7,242.3,207.7,243.4z"/>
		<path class="st4" d="M216.6,255.1c-1.3,0.7-3.1,0.3-3.8-0.9c-0.4-0.6-0.4-1.4-0.3-2c0.1-0.7,0.5-1.3,1.1-1.8
			c0.6-0.4,1.4-0.6,2.1-0.4c0.7,0.2,1.3,0.6,1.8,1.3C218.4,252.7,218,254.4,216.6,255.1z"/>
		<path class="st4" d="M221.7,269c-1.5,0.3-3-0.6-3.4-2c-0.3-1.4,0.5-2.9,1.9-3.4c1.5-0.5,3,0.4,3.4,2
			C224.1,267.2,223.2,268.7,221.7,269z"/>
		<path class="st4" d="M140.7,267.1c1.5,0.6,2.1,2,1.8,3.3c-0.3,1.3-1.8,2.2-3.3,1.9c-1.5-0.3-2.5-1.8-2-3.4
			C137.5,267.4,139.3,266.6,140.7,267.1z"/>
		<path class="st4" d="M148.2,255c1.1,1.1,1.2,2.8,0.3,3.8c-0.8,1.1-2.5,1.3-3.8,0.4c-1.3-0.9-1.5-2.6-0.5-3.9
			C145.4,254,147.2,253.9,148.2,255z"/>
		<path class="st4" d="M160.1,246.9c0.5,1.4,0,3-1.2,3.6c-1.2,0.5-2.8,0.2-3.6-1.2c-0.8-1.3-0.4-3.1,1.1-3.8
			C157.9,244.9,159.5,245.5,160.1,246.9z"/>
		<path class="st4" d="M174.2,244.5c-0.1,1.5-1.2,2.7-2.6,2.8c-0.7,0-1.3-0.2-1.8-0.7c-0.5-0.4-0.9-1.1-1-1.8
			c-0.1-0.8,0.1-1.5,0.6-2.1c0.5-0.5,1.2-0.9,2-0.9C173,241.6,174.3,242.9,174.2,244.5z"/>
		<path class="st4" d="M188.1,247.9c-0.7,1.4-2.2,1.9-3.5,1.5c-1.3-0.5-1.9-2.1-1.5-3.5c0.4-1.5,2-2.2,3.6-1.7
			C188.2,244.8,188.8,246.6,188.1,247.9z"/>
		<path class="st4" d="M199.5,256.7c-1.2,1-2.9,0.9-3.8-0.1c-1-0.9-1-2.6,0-3.8c1-1.2,2.8-1.2,4-0.1
			C200.7,254,200.6,255.7,199.5,256.7z"/>
		<path class="st4" d="M206.2,269.3c-0.7,0.2-1.5,0.1-2.1-0.2c-0.6-0.3-1.1-0.8-1.4-1.4c-0.4-1.3,0.2-2.8,1.5-3.5
			c1.4-0.7,3.1,0,3.6,1.5c0.3,0.8,0.2,1.6-0.1,2.2C207.5,268.6,206.9,269.1,206.2,269.3z"/>
		<path class="st4" d="M157.7,267.1c1.2,1,1.5,2.6,0.9,3.7c-0.3,0.6-0.8,1-1.5,1.2c-0.6,0.2-1.4,0.3-2.1,0c-0.7-0.3-1.3-0.8-1.5-1.5
			c-0.2-0.7-0.2-1.6,0.3-2.4C154.6,266.6,156.5,266.2,157.7,267.1z"/>
		<path class="st4" d="M170.5,259.7c0.2,1.5-0.8,2.9-2,3.2c-1.3,0.4-2.8-0.3-3.4-1.7c-0.7-1.4,0.1-3.1,1.9-3.7
			C168.7,257.1,170.3,258.2,170.5,259.7z"/>
		<path class="st4" d="M184.8,263.5c-1,1.2-2.6,1.5-3.7,0.9c-0.6-0.3-1-0.8-1.2-1.5c-0.2-0.6-0.3-1.4,0-2.1c0.3-0.7,0.8-1.3,1.5-1.5
			c0.7-0.2,1.6-0.2,2.4,0.3C185.4,260.4,185.8,262.3,184.8,263.5z"/>
		<path class="st4" d="M192.3,276.3c-1.5,0.2-2.9-0.8-3.2-2c-0.4-1.3,0.3-2.8,1.7-3.4c1.4-0.7,3.1,0.1,3.7,1.9
			C194.9,274.5,193.8,276.2,192.3,276.3z"/>
	</g>
</g>
</svg>
