<?xml version="1.0" encoding="utf-8"?>
<!-- Generator: Adobe Illustrator 26.0.2, SVG Export Plug-In . SVG Version: 6.00 Build 0)  -->
<svg version="1.1" xmlns="http://www.w3.org/2000/svg" xmlns:xlink="http://www.w3.org/1999/xlink" x="0px" y="0px"
	 viewBox="0 0 112.6 135.7" style="enable-background:new 0 0 112.6 135.7;" xml:space="preserve">
<style type="text/css">
	.st0{fill:#FF82B8;}
	.st1{fill:#630404;}
	.st2{fill:#FFFFFF;}
</style>
<g id="icons">
	<g>
		<g>
			<g>
				<rect x="47.8" y="34.5" class="st0" width="17.1" height="32.5"/>
				<path class="st1" d="M64.8,69.9H47.8c-1.6,0-3-1.3-3-3V34.5c0-1.6,1.3-3,3-3h17.1c1.6,0,3,1.3,3,3V67
					C67.8,68.6,66.5,69.9,64.8,69.9z M50.7,64h11.2V37.4H50.7V64z"/>
			</g>
			<g>
				<g>
					<rect x="7" y="87.8" class="st0" width="98.6" height="45"/>
					<path class="st1" d="M105.6,135.7H7c-1.6,0-3-1.3-3-3v-45c0-1.6,1.3-3,3-3h98.6c1.6,0,3,1.3,3,3v45
						C108.6,134.4,107.2,135.7,105.6,135.7z M10,129.8h92.7V90.7H10V129.8z"/>
				</g>
				<g>
					<g>
						<path class="st2" d="M95.1,60.2H17.5C9.5,60.2,3,66.8,3,74.8v23.4c2.6,3.5,4.3,8.5,9,8.5c7.4,0,7.4-12,14.8-12
							c7.4,0,7.4,12,14.8,12c7.4,0,7.4-12,14.8-12c7.4,0,7.4,12,14.8,12c7.4,0,7.4-12,14.8-12c7.4,0,7.4,12,14.8,12
							c4.7,0,6.4-4.9,9-8.5V74.8C109.7,66.8,103.2,60.2,95.1,60.2z"/>
						<path class="st1" d="M100.7,109.6c-5.3,0-7.9-4.1-9.9-7.4c-2-3.2-3-4.6-4.9-4.6c-1.9,0-2.9,1.4-4.9,4.6
							c-2,3.3-4.6,7.4-9.9,7.4c-5.3,0-7.9-4.1-9.9-7.4c-2-3.2-3-4.6-4.9-4.6c-1.9,0-2.9,1.4-4.9,4.6c-2,3.3-4.6,7.4-9.9,7.4
							c-5.3,0-7.9-4.1-9.9-7.4c-2-3.2-3-4.6-4.9-4.6c-1.9,0-2.9,1.4-4.9,4.6c-2,3.3-4.6,7.4-9.9,7.4s-7.9-4.1-9.9-7.4
							c-0.5-0.8-1-1.6-1.5-2.3C0.2,99.4,0,98.8,0,98.1V74.8c0-9.6,7.8-17.5,17.5-17.5h77.6c9.6,0,17.5,7.8,17.5,17.5v23.4
							c0,0.6-0.2,1.2-0.6,1.7c-0.5,0.7-1,1.5-1.5,2.3C108.5,105.5,106,109.6,100.7,109.6z M85.9,91.7c5.3,0,7.9,4.1,9.9,7.4
							c2,3.2,3,4.6,4.9,4.6s2.9-1.4,4.9-4.6c0.4-0.6,0.8-1.2,1.2-1.8V74.8c0-6.4-5.2-11.6-11.6-11.6H17.5c-6.4,0-11.6,5.2-11.6,11.6
							v22.4c0.4,0.6,0.8,1.2,1.2,1.8c2,3.2,3,4.6,4.9,4.6c1.9,0,2.9-1.4,4.9-4.6c2-3.3,4.6-7.4,9.9-7.4c5.3,0,7.9,4.1,9.9,7.4
							c2,3.2,3,4.6,4.9,4.6c1.9,0,2.9-1.4,4.9-4.6c2-3.3,4.6-7.4,9.9-7.4c5.3,0,7.9,4.1,9.9,7.4c2,3.2,3,4.6,4.9,4.6
							c1.9,0,2.9-1.4,4.9-4.6C78,95.8,80.5,91.7,85.9,91.7z"/>
					</g>
				</g>
			</g>
			<g>
				<path class="st2" d="M65.3,12L65.3,12l-10-9l-9,10l0,0c-5,5.5-4.5,14,1,19c5.5,5,14,4.5,19-1C71.2,25.4,70.8,16.9,65.3,12z"/>
				<path class="st1" d="M56.3,38.3L56.3,38.3c-4.1,0-8-1.5-11-4.2c-3.2-2.9-5.2-7-5.4-11.3c-0.2-4.4,1.3-8.6,4.2-11.8l9-10
					c1.1-1.2,3-1.3,4.2-0.2l10,9c6.7,6.1,7.2,16.4,1.2,23.1C65.4,36.3,60.9,38.3,56.3,38.3z M55.6,7.1l-7,7.8
					c-1.9,2.1-2.8,4.8-2.7,7.5c0.1,2.8,1.4,5.4,3.4,7.2c1.9,1.7,4.4,2.7,7,2.7l0,0c3,0,5.8-1.3,7.8-3.4c3.9-4.3,3.5-10.9-0.7-14.8
					L55.6,7.1z"/>
			</g>
		</g>
	</g>
</g>
<g id="text">
</g>
</svg>
