<?xml version="1.0" encoding="utf-8"?>
<!-- Generator: Adobe Illustrator 25.3.1, SVG Export Plug-In . SVG Version: 6.00 Build 0)  -->
<svg version="1.1" id="Layer_1" xmlns="http://www.w3.org/2000/svg" xmlns:xlink="http://www.w3.org/1999/xlink" x="0px" y="0px"
	 viewBox="0 0 8.8 8.8" style="enable-background:new 0 0 8.8 8.8;" xml:space="preserve">
<style type="text/css">
	.st0{fill:#333333;}
	.st1{fill:#FFFFFF;}
</style>
<g>
	<g>
		<g>
			<path class="st0" d="M3.6,7.3C3.4,7.3,3.2,7.2,3,7L0.8,5c-0.2-0.3-0.2-0.7,0-1.1V3.8l0.6-0.6C1.5,3.1,1.7,3,1.9,3s0.3,0,0.5,0.1
				h0.1l1.1,1.1l2.7-2.7c0.1-0.1,0.3-0.2,0.6-0.2c0.2,0,0.3,0,0.5,0.1h0.1L8.1,2c0.3,0.3,0.3,0.7,0.1,1.1v0.1L4.2,7
				C4.1,7.2,3.8,7.3,3.6,7.3z"/>
			<path class="st1" d="M6.9,1.8c0.1,0,0.2,0,0.3,0.1l0.5,0.5c0.1,0.1,0.1,0.3,0,0.5L3.8,6.7c-0.3,0.2-0.5,0-0.5,0L1.2,4.6
				c-0.1-0.1-0.3-0.3,0-0.5l0.5-0.5c0.1-0.1,0.2-0.1,0.2-0.1c0.1,0,0.2,0,0.3,0.1L3.6,5l3.1-3.1C6.8,1.8,6.8,1.8,6.9,1.8 M6.9,0.8
				C6.6,0.8,6.2,1,6,1.2L3.6,3.6L2.9,2.9L2.8,2.8L2.6,2.7C2.4,2.6,2.2,2.5,1.9,2.5S1.2,2.7,1,2.9L0.5,3.4L0.4,3.5L0.3,3.7
				C0,4.2,0.1,4.9,0.5,5.3l2.1,2.1c0.4,0.4,0.7,0.4,1,0.4c0.4,0,0.8-0.2,1-0.5l3.8-3.7l0.1-0.1l0.1-0.2c0.3-0.6,0.2-1.2-0.2-1.7
				L7.9,1.2L7.8,1.1L7.6,1C7.4,0.9,7.2,0.8,6.9,0.8L6.9,0.8z"/>
		</g>
	</g>
</g>
</svg>
