<?xml version="1.0" encoding="utf-8"?>
<!-- Generator: Adobe Illustrator 16.0.0, SVG Export Plug-In . SVG Version: 6.00 Build 0)  -->
<!DOCTYPE svg PUBLIC "-//W3C//DTD SVG 1.1//EN" "http://www.w3.org/Graphics/SVG/1.1/DTD/svg11.dtd">
<svg version="1.1" id="Layer_1" focusable="false" xmlns="http://www.w3.org/2000/svg" xmlns:xlink="http://www.w3.org/1999/xlink"
	 x="0px" y="0px" width="446.461px" height="595.396px" viewBox="0 0 446.461 595.396" enable-background="new 0 0 446.461 595.396"
	 xml:space="preserve">
<path fill="#333333" d="M430.066,113.824l-97.547-97.547C322.055,5.813,307.871-0.116,293.105-0.116H55.806
	C24.997,0,0,24.997,0,55.808v483.665c0,30.813,24.997,55.811,55.808,55.811h334.845c30.813,0,55.81-24.998,55.81-55.811V153.354
	C446.46,138.589,440.53,124.288,430.066,113.824z M386.117,148.82h-88.479V60.342L386.117,148.82z M55.806,539.472V55.808h186.025
	v120.916c0,15.463,12.438,27.904,27.901,27.904H390.65v334.845L55.806,539.472L55.806,539.472z"/>
<g>
	<path fill="#333333" d="M121.884,404.763l45.889-70.229h-41.5v-16.36h65.574v11.705l-45.756,70.229h46.288v16.493h-70.496V404.763z
		"/>
	<path fill="#333333" d="M209.799,318.173h19.686v98.428h-19.686V318.173z"/>
	<path fill="#333333" d="M253.688,318.173h32.322c21.814,0,38.574,7.581,38.574,30.858c0,22.479-16.893,32.588-38.041,32.588
		h-13.168v34.981h-19.688V318.173z M285.213,366.057c13.566,0,20.084-5.72,20.084-17.025c0-11.439-7.184-15.297-20.75-15.297
		h-11.172v32.322H285.213z"/>
</g>
</svg>
