<?xml version="1.0" encoding="utf-8"?>
<!-- Generator: Adobe Illustrator 16.0.0, SVG Export Plug-In . SVG Version: 6.00 Build 0)  -->
<!DOCTYPE svg PUBLIC "-//W3C//DTD SVG 1.1//EN" "http://www.w3.org/Graphics/SVG/1.1/DTD/svg11.dtd">
<svg version="1.1" id="Layer_1" focusable="false" xmlns="http://www.w3.org/2000/svg" xmlns:xlink="http://www.w3.org/1999/xlink"
	 x="0px" y="0px" width="446.461px" height="595.397px" viewBox="197.715 -0.116 446.461 595.397"
	 enable-background="new 197.715 -0.116 446.461 595.397" xml:space="preserve">
<path fill="#424242" d="M627.782,113.824l-97.547-97.547C519.771,5.813,505.587-0.116,490.821-0.116H253.522
	C222.712,0,197.715,24.997,197.715,55.808v483.665c0,30.811,24.997,55.809,55.808,55.809h334.846
	c30.811,0,55.808-24.998,55.808-55.809V153.354C644.176,138.589,638.246,124.288,627.782,113.824z M583.834,148.82h-88.479V60.342
	L583.834,148.82z M253.522,539.472V55.808h186.025v120.916c0,15.463,12.44,27.904,27.903,27.904h120.917v334.845H253.522z
	 M509.424,280.64c-6.628,0-12.324,4.65-13.604,11.045c-23.95,113.592-23.718,110.918-24.416,120.336
	c-0.232-1.396-0.465-3.023-0.813-5c-0.931-5.93,0.349,0.232-27.438-115.684c-1.512-6.279-7.093-10.697-13.604-10.697h-15.464
	c-6.395,0-11.975,4.418-13.603,10.58c-28.369,115.104-27.904,111.848-28.834,120.568c-0.116-1.279-0.232-2.908-0.581-4.885
	c-0.814-6.045-16.394-85.223-22.207-115.102c-1.279-6.512-6.976-11.278-13.72-11.278h-19.532c-9.068,0-15.696,8.487-13.604,17.208
	c9.302,37.902,31.043,127.311,38.601,158.121c1.512,6.277,7.092,10.58,13.604,10.58h29.299c6.395,0,11.975-4.303,13.486-10.58
	l20.812-83.014c1.744-7.209,2.907-13.953,3.488-20.115l3.372,20.115c0.116,0.465,14.649,58.713,20.812,83.014
	c1.511,6.162,7.092,10.58,13.486,10.58h28.718c6.395,0,11.976-4.303,13.487-10.58c24.183-95.223,35.112-138.357,40.111-158.121
	c2.209-8.838-4.418-17.324-13.487-17.324h-18.369V280.64z"/>
</svg>
