<?xml version="1.0" encoding="utf-8"?>
<!-- Generator: Adobe Illustrator 25.3.1, SVG Export Plug-In . SVG Version: 6.00 Build 0)  -->
<svg version="1.1" id="Layer_1" focusable="false" xmlns="http://www.w3.org/2000/svg" xmlns:xlink="http://www.w3.org/1999/xlink"
	 x="0px" y="0px" viewBox="0 0 446.5 595.4" style="enable-background:new 0 0 446.5 595.4;" xml:space="preserve">
<style type="text/css">
	.st0{fill:#424242;}
	.st1{fill:#424242;stroke:#424242;stroke-width:11;stroke-linecap:round;stroke-linejoin:round;stroke-miterlimit:10;}
</style>
<path class="st0" d="M430.1,113.9l-97.5-97.5C322.1,5.9,307.9,0,293.1,0H55.8C25,0.1,0,25.1,0,55.9v483.7c0,30.8,25,55.8,55.8,55.8
	h334.8c30.8,0,55.8-25,55.8-55.8V153.5C446.5,138.7,440.5,124.4,430.1,113.9z M386.1,148.9h-88.5V60.5L386.1,148.9z M55.8,539.6
	V55.9h186v120.9c0,15.5,12.4,27.9,27.9,27.9h120.9v334.8L55.8,539.6L55.8,539.6z M311.7,280.5"/>
<g>
	<path class="st1" d="M160.1,273.4h33.7v66.5h63.8v-66.5h33.5v168.9h-33.5v-72.9h-63.8v72.9h-33.7V273.4z"/>
</g>
</svg>
