<?xml version="1.0" encoding="utf-8"?>
<!-- Generator: Adobe Illustrator 16.0.0, SVG Export Plug-In . SVG Version: 6.00 Build 0)  -->
<!DOCTYPE svg PUBLIC "-//W3C//DTD SVG 1.1//EN" "http://www.w3.org/Graphics/SVG/1.1/DTD/svg11.dtd">
<svg version="1.1" id="Layer_1" focusable="false" xmlns="http://www.w3.org/2000/svg" xmlns:xlink="http://www.w3.org/1999/xlink"
	 x="0px" y="0px" width="446.461px" height="595.397px" viewBox="197.715 -0.116 446.461 595.397"
	 enable-background="new 197.715 -0.116 446.461 595.397" xml:space="preserve">
<path fill="#333333" d="M627.782,113.824l-97.547-97.547C519.771,5.813,505.587-0.116,490.821-0.116H253.522
	C222.712,0,197.715,24.997,197.715,55.808v483.665c0,30.811,24.997,55.809,55.808,55.809h334.846
	c30.811,0,55.808-24.998,55.808-55.809V153.354C644.176,138.589,638.246,124.288,627.782,113.824z M583.834,148.82h-88.479V60.342
	L583.834,148.82z M253.522,539.472V55.808h186.025v120.916c0,15.463,12.44,27.904,27.903,27.904h120.917v334.845H253.522z
	 M544.42,372.4c-14.185-13.953-54.646-10.115-74.876-7.559c-19.997-12.207-33.368-29.066-42.785-53.83
	c4.534-18.719,11.743-47.205,6.278-65.109c-4.883-30.461-43.949-27.438-49.529-6.86c-5.116,18.719-0.465,44.763,8.139,78.014
	c-11.627,27.787-28.95,65.109-41.158,86.502c-23.253,11.975-54.646,30.461-59.296,53.715c-3.837,18.369,30.229,64.178,88.479-36.275
	c26.043-8.604,54.412-19.184,79.525-23.369c21.975,11.859,47.669,19.766,64.877,19.766C553.72,417.394,556.627,384.607,544.42,372.4
	z M314.096,462.853c5.93-15.928,28.485-34.297,35.345-40.693C327.351,457.388,314.096,463.667,314.096,462.853z M408.969,241.251
	c8.604,0,7.79,37.321,2.093,47.436C405.947,272.527,406.063,241.251,408.969,241.251z M380.6,400.07
	c11.278-19.648,20.928-43.018,28.718-63.598c9.65,17.557,21.975,31.625,34.996,41.275C420.131,382.746,399.087,392.978,380.6,400.07
	z M533.606,394.257c0,0-5.813,6.975-43.367-9.068C531.049,382.166,537.792,391.466,533.606,394.257z"/>
</svg>
