<?xml version="1.0" encoding="utf-8"?>
<!-- Generator: Adobe Illustrator 16.0.0, SVG Export Plug-In . SVG Version: 6.00 Build 0)  -->
<!DOCTYPE svg PUBLIC "-//W3C//DTD SVG 1.1//EN" "http://www.w3.org/Graphics/SVG/1.1/DTD/svg11.dtd">
<svg version="1.1" id="Layer_1" focusable="false" xmlns="http://www.w3.org/2000/svg" xmlns:xlink="http://www.w3.org/1999/xlink"
	 x="0px" y="0px" width="446.461px" height="595.397px" viewBox="197.715 -0.116 446.461 595.397"
	 enable-background="new 197.715 -0.116 446.461 595.397" xml:space="preserve">
<path fill="#333333" d="M627.782,113.824l-97.547-97.547C519.771,5.813,505.587-0.116,490.821-0.116H253.522
	C222.712,0,197.715,24.997,197.715,55.808v483.665c0,30.811,24.997,55.809,55.808,55.809h334.846
	c30.811,0,55.808-24.998,55.808-55.809V153.354C644.176,138.589,638.246,124.288,627.782,113.824z M583.834,148.82h-88.479V60.342
	L583.834,148.82z M253.522,539.472V55.808h186.025v120.916c0,15.463,12.44,27.904,27.903,27.904h120.917v334.845H253.522z"/>
</svg>
