<?xml version="1.0" encoding="utf-8"?>
<!-- Generator: Adobe Illustrator 16.0.0, SVG Export Plug-In . SVG Version: 6.00 Build 0)  -->
<!DOCTYPE svg PUBLIC "-//W3C//DTD SVG 1.1//EN" "http://www.w3.org/Graphics/SVG/1.1/DTD/svg11.dtd">
<svg version="1.1" id="Layer_1" focusable="false" xmlns="http://www.w3.org/2000/svg" xmlns:xlink="http://www.w3.org/1999/xlink"
	 x="0px" y="0px" width="122.775px" height="141px" viewBox="236.254 350.445 122.775 141"
	 enable-background="new 236.254 350.445 122.775 141" xml:space="preserve">
<g>
	<path fill="#333333" d="M348.056,419.52c-0.935-0.915-2.523-0.877-3.425,0.042l-48.805,49.926
		c-5.063,5.179-11.786,8.033-18.925,8.033c-7.186,0-13.937-2.888-19.017-8.124c-10.462-10.797-10.309-28.452,0.348-39.349
		l59.502-60.867c6.081-6.205,16.58-6.193,22.645,0c6.362,6.515,6.362,17.105,0,23.612l-51.866,52.999
		c-2.039,2.077-5.51,2.044-7.504-0.065c-2.093-2.227-2.002-5.866,0.207-8.125l40.771-41.648c0.935-0.956,0.918-2.49-0.033-3.429
		l-6.486-6.341c-0.918-0.91-2.523-0.894-3.425,0.033l-40.771,41.648c-7.368,7.537-7.542,19.823-0.389,27.402
		c3.678,3.896,8.617,6.039,13.92,6.039c5.162,0,10.011-2.052,13.655-5.774l51.866-53.008c11.607-11.873,11.607-31.195,0-43.067
		c-5.676-5.808-13.229-9.01-21.271-9.01s-15.596,3.202-21.271,9.01l-59.502,60.863c-15.881,16.24-16.055,42.6-0.385,58.766
		c7.728,7.968,18.032,12.361,29.023,12.361c10.9,0,21.151-4.344,28.861-12.236l48.805-49.922c0.455-0.464,0.695-1.067,0.688-1.713
		c0-0.653-0.266-1.258-0.729-1.704L348.056,419.52z"/>
</g>
</svg>
