<?xml version="1.0" encoding="utf-8"?>
<!-- Generator: Adobe Illustrator 16.0.0, SVG Export Plug-In . SVG Version: 6.00 Build 0)  -->
<!DOCTYPE svg PUBLIC "-//W3C//DTD SVG 1.1//EN" "http://www.w3.org/Graphics/SVG/1.1/DTD/svg11.dtd">
<svg version="1.1" id="Layer_1" focusable="false" xmlns="http://www.w3.org/2000/svg" xmlns:xlink="http://www.w3.org/1999/xlink"
	 x="0px" y="0px" width="446.461px" height="595.396px" viewBox="0 0 446.461 595.396" enable-background="new 0 0 446.461 595.396"
	 xml:space="preserve">
<path fill="#333333" d="M430.067,113.824L332.52,16.277C322.056,5.813,307.872-0.116,293.106-0.116H55.807
	C24.997,0,0,24.997,0,55.808v483.665c0,30.812,24.997,55.81,55.808,55.81h334.846c30.812,0,55.809-24.998,55.809-55.81V153.354
	C446.461,138.589,440.531,124.288,430.067,113.824z M386.118,148.82H297.64V60.342L386.118,148.82z M55.807,539.472V55.808h186.025
	v120.916c0,15.463,12.439,27.904,27.902,27.904h120.917v334.845L55.807,539.472L55.807,539.472z"/>
<polygon fill="#333333" points="244.78,360.992 305.906,270.969 262.334,270.969 222.994,328.907 183.653,270.969 140.082,270.969 
	201.208,360.992 140.453,450.469 184.024,450.469 222.993,393.076 261.963,450.469 305.534,450.469 "/>
</svg>
