<?xml version="1.0" encoding="utf-8"?>
<!-- Generator: Adobe Illustrator 25.2.2, SVG Export Plug-In . SVG Version: 6.00 Build 0)  -->
<svg version="1.1" id="레이어_1" xmlns="http://www.w3.org/2000/svg" xmlns:xlink="http://www.w3.org/1999/xlink" x="0px"
	 y="0px" viewBox="0 0 85.9 57.3" style="enable-background:new 0 0 85.9 57.3;" xml:space="preserve">
<style type="text/css">
	.st0{fill-rule:evenodd;clip-rule:evenodd;fill:#003B83;}
</style>
<g>
	<polygon class="st0" points="11.6,43.5 11.6,57.3 8.9,57.3 8.9,51.6 2.8,51.6 2.8,57.3 0,57.3 0,43.5 2.8,43.5 2.8,49 8.9,49 
		8.9,43.5 11.6,43.5 	"/>
	<polygon class="st0" points="83.1,57.3 85.9,57.3 85.9,43.5 83.1,43.5 83.1,57.3 	"/>
	<path class="st0" d="M36,53.6c0,0.9-0.1,1.1-0.9,1.1c-0.8,0-5,0-5,0V43.5h-2.7v13.8h9c0,0,2.3-0.2,2.3-3.1c0-3,0-10.8,0-10.8H36
		C36,43.5,36,52.9,36,53.6L36,53.6z"/>
	<path class="st0" d="M49.8,57.3h2.8c0,0,0-7.8,0-10.8c0-2.9-2.4-3.1-2.4-3.1h-9v13.8h2.8V46.2c0,0,4.1,0,4.9,0
		c0.7,0,0.9,0.2,0.9,1.1C49.8,47.9,49.8,57.3,49.8,57.3L49.8,57.3z"/>
	<polygon class="st0" points="26.3,43.5 22.8,43.5 19.5,49.4 16.2,43.5 12.8,43.5 18.2,52.4 18.2,57.3 20.9,57.3 20.9,52.3 
		26.3,43.5 	"/>
	<path class="st0" d="M55.1,57.3c0,0,6.5,0,8.9,0c2.4,0,2.6-2.7,2.6-2.7v-8.3c0,0-0.2-2.7-2.6-2.7c-2.4,0-8.9,0-8.9,0V57.3
		L55.1,57.3z M63.8,53.6c0,0,0,1.1-0.9,1.1c-0.7,0-5.1,0-5.1,0v-8.5c0,0,4.4,0,5.1,0c0.9,0,0.9,1.1,0.9,1.1V53.6L63.8,53.6z"/>
	<path class="st0" d="M80.8,43.5v13.8h-2.8v-4h-6.2v4H69V47.1c0-3.7,3-3.5,3-3.5H80.8L80.8,43.5z M77.9,50.7v-4.6h-5.3
		c0,0-0.9,0-0.9,1.3c0,1.1,0,3.3,0,3.3H77.9L77.9,50.7z"/>
	<path class="st0" d="M74.8,17.9c0,9.8-14.3,17.8-31.9,17.8c-17.6,0-31.9-8-31.9-17.8C11.1,8,25.4,0,43,0C60.5,0,74.8,8,74.8,17.9
		L74.8,17.9z M41.5,15.4c2.7-0.6,5.4-1.6,7.5-2.5c6.8-2.6,10-5.4,10.6-6C60.5,6,59.8,5.7,59,5.4C54.4,3.9,47.4,2.7,42.9,3
		c-3.3,0.1-5.1,4-5.8,5.7C33.7,16.6,39.8,15.8,41.5,15.4L41.5,15.4z M20.7,26.7c0.1-0.3,5.5-14.2,11.8-21.8c0.8-0.8-0.1-1-1.1-0.7
		c-10.4,2.2-17.6,7.5-17.6,13.6c0,3.4,2.2,6.5,5.8,9C20,27.1,20.5,26.9,20.7,26.7L20.7,26.7z M44.4,20.3c-2.7,0.6-5.4,1.6-7.5,2.5
		c-6.8,2.6-10,5.5-10.6,6.1c-0.9,0.8-0.2,1.2,0.6,1.4c4.6,1.5,11.6,2.7,16.1,2.5c3.2-0.2,5.1-4.1,5.9-5.8
		C52.2,19.1,46.1,20,44.4,20.3L44.4,20.3z M72.2,17.9c0-3.4-2.1-6.4-5.8-8.9c-0.5-0.4-0.9-0.2-1.2,0.2c-0.1,0.2-5.5,14.1-11.8,21.7
		c-0.7,0.9,0.1,1,1.1,0.8C64.9,29.3,72.2,24,72.2,17.9L72.2,17.9z"/>
</g>
</svg>
