<?xml version="1.0" encoding="utf-8"?>
<!-- Generator: Adobe Illustrator 25.2.2, SVG Export Plug-In . SVG Version: 6.00 Build 0)  -->
<svg version="1.1" id="레이어_1" xmlns="http://www.w3.org/2000/svg" xmlns:xlink="http://www.w3.org/1999/xlink" x="0px"
	 y="0px" viewBox="0 0 23.9 22.7" style="enable-background:new 0 0 23.9 22.7;" xml:space="preserve">
<style type="text/css">
	.st0{fill:none;stroke:#000000;stroke-width:1.5;stroke-linecap:round;stroke-linejoin:round;stroke-miterlimit:10;}
	.st1{fill:none;stroke:#000000;stroke-width:1.5;stroke-miterlimit:10;}
</style>
<g>
	<path class="st1" d="M18.2,21.9H5.7c-0.8,0-1.5-0.7-1.5-1.5v-5.9c0-0.8,0.7-1.5,1.5-1.5h12.4c0.8,0,1.5,0.7,1.5,1.5v5.9
		C19.7,21.3,19,21.9,18.2,21.9z"/>
	<path class="st1" d="M4.2,6.9V2.4c0-0.9,0.7-1.6,1.6-1.6h12.2c0.9,0,1.6,0.7,1.6,1.6v4.5"/>
	<path class="st1" d="M4.2,17.5H2.4c-0.9,0-1.6-0.7-1.6-1.6V8.5c0-0.9,0.7-1.6,1.6-1.6h19.1c0.9,0,1.6,0.7,1.6,1.6v7.3
		c0,0.9-0.7,1.6-1.6,1.6h-1.8"/>
</g>
</svg>
