<?xml version="1.0" encoding="utf-8"?>
<!-- Generator: Adobe Illustrator 16.0.0, SVG Export Plug-In . SVG Version: 6.00 Build 0)  -->
<!DOCTYPE svg PUBLIC "-//W3C//DTD SVG 1.1//EN" "http://www.w3.org/Graphics/SVG/1.1/DTD/svg11.dtd">
<svg version="1.1" id="레이어_1" xmlns="http://www.w3.org/2000/svg" xmlns:xlink="http://www.w3.org/1999/xlink" x="0px"
	 y="0px" width="674.005px" height="674.003px" viewBox="-62.005 52.381 674.005 674.003"
	 enable-background="new -62.005 52.381 674.005 674.003" xml:space="preserve">
<g>
	<path fill="#A5A5A5" d="M274.997,726.385c-45.487,0-89.624-8.912-131.182-26.49c-40.132-16.975-76.17-41.271-107.115-72.215
		s-55.241-66.982-72.215-107.115c-17.578-41.558-26.49-85.693-26.49-131.181c0-45.488,8.913-89.624,26.49-131.182
		c16.974-40.132,41.271-76.17,72.215-107.115s66.983-55.241,107.115-72.215c41.558-17.578,85.694-26.49,131.182-26.49
		s89.624,8.913,131.182,26.49c40.132,16.974,76.171,41.271,107.115,72.215s55.241,66.983,72.216,107.115
		C603.087,299.76,612,343.896,612,389.384c0,45.487-8.913,89.623-26.49,131.181c-16.975,40.133-41.271,76.172-72.217,107.115
		c-30.943,30.943-66.982,55.24-107.114,72.215C364.621,717.473,320.485,726.385,274.997,726.385z M274.997,86.381
		c-167.076,0-303.002,135.926-303.002,303.002c0,167.075,135.926,303.001,303.002,303.001C442.073,692.385,578,556.459,578,389.384
		C578,222.308,442.073,86.381,274.997,86.381z"/>
	<g>
		<circle fill="#A5A5A5" cx="274.997" cy="555.982" r="34.499"/>
		<path fill="#A5A5A5" d="M309.496,222.783c0-19.053-15.446-34.499-34.499-34.499l0,0c-19.053,0-34.499,15.446-34.499,34.499
			v227.986c0,19.053,15.446,34.498,34.499,34.498l0,0c19.053,0,34.499-15.445,34.499-34.498V222.783z"/>
	</g>
</g>
</svg>
