<?xml version="1.0" encoding="utf-8"?>
<!-- Generator: Adobe Illustrator 25.2.2, SVG Export Plug-In . SVG Version: 6.00 Build 0)  -->
<svg version="1.1" id="레이어_1" xmlns="http://www.w3.org/2000/svg" xmlns:xlink="http://www.w3.org/1999/xlink" x="0px"
	 y="0px" viewBox="0 0 31.8 31.5" style="enable-background:new 0 0 31.8 31.5;" xml:space="preserve">
<style type="text/css">
	.st0{fill:none;stroke:#FFFFFF;stroke-width:2;stroke-linecap:round;stroke-linejoin:round;stroke-miterlimit:10;}
</style>
<g>
	<g>
		<g>
			<path class="st0" d="M13.1,6.4C13.1,6.4,13.1,6.4,13.1,6.4C13.1,6.4,13.1,6.4,13.1,6.4C13.1,6.4,13.1,6.4,13.1,6.4z"/>
			<path class="st0" d="M13.3,6.4c0,0-0.1,0-0.1,0C13.2,6.4,13.3,6.4,13.3,6.4C13.3,6.4,13.3,6.4,13.3,6.4z"/>
			<path class="st0" d="M16.2,8c-0.1,0-0.1-0.1-0.2-0.1C16.1,7.9,16.1,7.9,16.2,8C16.1,8,16.2,8,16.2,8z"/>
			<path class="st0" d="M15.8,7.7c-0.1,0-0.1-0.1-0.1-0.1C15.7,7.7,15.7,7.7,15.8,7.7C15.8,7.7,15.8,7.7,15.8,7.7z"/>
			<path class="st0" d="M15.9,7.8C15.9,7.8,15.9,7.8,15.9,7.8C15.9,7.8,15.9,7.8,15.9,7.8C15.9,7.8,15.9,7.8,15.9,7.8z"/>
			<path class="st0" d="M12.6,6.3c0,0,0.1,0,0.1,0C12.6,6.3,12.6,6.3,12.6,6.3z"/>
			<path class="st0" d="M13,6.4C13,6.4,13,6.3,13,6.4C13,6.3,13,6.4,13,6.4L13,6.4z"/>
			<path class="st0" d="M13.6,6.6L13.6,6.6L13.6,6.6z"/>
			<path class="st0" d="M12.8,6.3C12.8,6.3,12.7,6.3,12.8,6.3C12.7,6.3,12.7,6.3,12.8,6.3C12.8,6.3,12.8,6.3,12.8,6.3z"/>
			<path class="st0" d="M12.9,6.3c-0.1,0-0.1,0-0.1,0c0,0,0,0,0,0C12.9,6.3,12.9,6.3,12.9,6.3z"/>
			<path class="st0" d="M15.3,7.4c-0.1,0-0.1-0.1-0.2-0.1c0,0,0,0,0,0C15.2,7.4,15.2,7.4,15.3,7.4z"/>
			<path class="st0" d="M14.7,7.1C14.6,7,14.5,7,14.5,6.9C14.5,7,14.6,7,14.7,7.1C14.7,7.1,14.7,7.1,14.7,7.1z"/>
			<polygon class="st0" points="14.4,6.9 14.4,6.9 14.4,6.9 			"/>
			<path class="st0" d="M13.4,6.5c0.1,0,0.1,0.1,0.2,0.1C13.5,6.5,13.5,6.5,13.4,6.5z"/>
			<path class="st0" d="M14.3,6.9c0,0-0.1,0-0.1-0.1C14.2,6.8,14.3,6.8,14.3,6.9C14.3,6.9,14.3,6.9,14.3,6.9z"/>
			<path class="st0" d="M12.5,6.3c0,0-0.1,0-0.1,0C12.4,6.3,12.4,6.3,12.5,6.3L12.5,6.3z"/>
			<path class="st0" d="M14.7,7.1L14.7,7.1L14.7,7.1z"/>
			<polygon class="st0" points="13.9,6.7 13.9,6.7 13.9,6.7 			"/>
			<path class="st0" d="M13.9,6.7c-0.1,0-0.1-0.1-0.2-0.1c0,0,0,0,0,0C13.8,6.6,13.8,6.6,13.9,6.7z"/>
			<path class="st0" d="M15.6,7.6C15.6,7.6,15.6,7.6,15.6,7.6C15.5,7.6,15.5,7.6,15.6,7.6C15.6,7.6,15.6,7.6,15.6,7.6z"/>
			<path class="st0" d="M14.1,6.8c0,0-0.1,0-0.1-0.1C14,6.7,14,6.7,14.1,6.8C14.1,6.8,14.1,6.8,14.1,6.8z"/>
			<path class="st0" d="M14.8,7.1c0.1,0,0.1,0.1,0.2,0.1C14.9,7.2,14.8,7.1,14.8,7.1z"/>
			<path class="st0" d="M15.5,7.5c0,0-0.1,0-0.1-0.1C15.4,7.5,15.4,7.5,15.5,7.5C15.4,7.5,15.4,7.5,15.5,7.5z"/>
			<path class="st0" d="M12,6.3C12,6.3,11.9,6.3,12,6.3C11.9,6.3,11.9,6.3,12,6.3C11.9,6.3,12,6.3,12,6.3z"/>
			<path class="st0" d="M16.6,8.3c-0.1-0.1-0.1-0.1-0.2-0.1C16.4,8.2,16.5,8.2,16.6,8.3C16.5,8.2,16.5,8.3,16.6,8.3z"/>
			<path class="st0" d="M11.7,6.4C11.7,6.4,11.7,6.4,11.7,6.4C11.7,6.4,11.7,6.4,11.7,6.4C11.7,6.4,11.7,6.4,11.7,6.4z"/>
			<path class="st0" d="M12.1,6.3C12.1,6.3,12,6.3,12.1,6.3C12,6.3,12,6.3,12.1,6.3C12.1,6.3,12.1,6.3,12.1,6.3z"/>
			<path class="st0" d="M11.5,6.5C11.5,6.6,11.5,6.6,11.5,6.5C11.5,6.6,11.5,6.6,11.5,6.5C11.5,6.6,11.5,6.5,11.5,6.5z"/>
			<path class="st0" d="M16.7,8.4c0.1,0.1,0.2,0.2,0.3,0.2C16.9,8.5,16.8,8.4,16.7,8.4z"/>
			<path class="st0" d="M11.6,6.4C11.6,6.4,11.6,6.5,11.6,6.4C11.6,6.5,11.6,6.5,11.6,6.4C11.6,6.5,11.6,6.4,11.6,6.4z"/>
			<path class="st0" d="M11.4,6.7C11.4,6.7,11.4,6.7,11.4,6.7C11.4,6.7,11.4,6.7,11.4,6.7z"/>
			<path class="st0" d="M11.8,6.4C11.8,6.3,11.8,6.3,11.8,6.4C11.8,6.3,11.8,6.3,11.8,6.4z"/>
			<path class="st0" d="M9.7,10.5L10,9.9C9.9,10.1,9.8,10.3,9.7,10.5z"/>
			<path class="st0" d="M11.6,6.5L11.6,6.5C11.6,6.5,11.6,6.5,11.6,6.5C11.6,6.5,11.6,6.5,11.6,6.5z"/>
			<path class="st0" d="M10.4,9l1-2.3C11.1,7.5,10.7,8.3,10.4,9z"/>
			<path class="st0" d="M12.3,6.3C12.3,6.3,12.3,6.3,12.3,6.3C12.3,6.3,12.3,6.3,12.3,6.3C12.3,6.3,12.3,6.3,12.3,6.3z"/>
			<path class="st0" d="M11.7,6.4C11.7,6.4,11.7,6.4,11.7,6.4C11.7,6.4,11.7,6.4,11.7,6.4C11.7,6.4,11.7,6.4,11.7,6.4z"/>
			<path class="st0" d="M12.2,6.3C12.1,6.3,12.1,6.3,12.2,6.3C12.1,6.3,12.1,6.3,12.2,6.3C12.1,6.3,12.1,6.3,12.2,6.3z"/>
			<path class="st0" d="M12.3,6.3C12.2,6.3,12.2,6.3,12.3,6.3C12.2,6.3,12.2,6.3,12.3,6.3C12.2,6.3,12.3,6.3,12.3,6.3z"/>
			<polygon class="st0" points="11.4,6.7 11.4,6.7 11.4,6.7 			"/>
			<path class="st0" d="M23.6,15.4c0.1,0.1,0.1,0.2,0.2,0.3C23.7,15.6,23.6,15.5,23.6,15.4z"/>
			<path class="st0" d="M18.8,10.1c0.3,0.2,0.5,0.5,0.8,0.8C19.4,10.6,19.1,10.4,18.8,10.1z"/>
			<path class="st0" d="M23.9,15.9c0.1,0.1,0.1,0.2,0.2,0.3C24,16.1,23.9,16,23.9,15.9z"/>
			<path class="st0" d="M18,9.4c0.3,0.2,0.6,0.5,0.9,0.7C18.5,9.8,18.2,9.6,18,9.4z"/>
			<path class="st0" d="M21.8,13.2c0.1,0.1,0.2,0.2,0.3,0.3C22,13.4,21.9,13.3,21.8,13.2z"/>
			<path class="st0" d="M20.6,11.8c0.1,0.1,0.2,0.2,0.3,0.3C20.8,12,20.7,11.9,20.6,11.8z"/>
			<path class="st0" d="M21.4,12.7c0.1,0.1,0.2,0.2,0.3,0.4C21.6,13,21.5,12.8,21.4,12.7z"/>
			<path class="st0" d="M21,12.3c0.1,0.1,0.2,0.3,0.4,0.4C21.2,12.5,21.1,12.4,21,12.3z"/>
			<path class="st0" d="M22.6,14.1c0.1,0.1,0.2,0.2,0.3,0.3C22.8,14.3,22.7,14.2,22.6,14.1z"/>
			<path class="st0" d="M22.2,13.6c0.1,0.1,0.2,0.3,0.3,0.4C22.4,13.9,22.3,13.8,22.2,13.6z"/>
			<path class="st0" d="M22.9,14.5c0.1,0.1,0.2,0.2,0.2,0.3C23.1,14.8,23,14.7,22.9,14.5z"/>
			<path class="st0" d="M19.7,10.9c0.3,0.3,0.5,0.5,0.8,0.8C20.2,11.5,20,11.2,19.7,10.9z"/>
			<path class="st0" d="M23.2,15c0.1,0.1,0.2,0.3,0.3,0.4C23.4,15.2,23.3,15.1,23.2,15z"/>
			<path class="st0" d="M24.9,20.1C24.9,20.1,24.9,20.1,24.9,20.1C24.9,20.1,24.9,20.1,24.9,20.1z"/>
			<path class="st0" d="M25,20C25,20,25,20,25,20C25,20,25,20,25,20z"/>
			<path class="st0" d="M25.2,19.6C25.2,19.6,25.2,19.6,25.2,19.6C25.2,19.6,25.2,19.6,25.2,19.6z"/>
			<path class="st0" d="M24.8,20.1C24.8,20.1,24.8,20.1,24.8,20.1C24.8,20.1,24.8,20.1,24.8,20.1z"/>
			<path class="st0" d="M25.1,19.9C25.1,19.9,25.1,19.9,25.1,19.9C25.1,19.9,25.1,19.9,25.1,19.9z"/>
			<path class="st0" d="M25.2,19.7C25.2,19.8,25.2,19.8,25.2,19.7C25.2,19.8,25.2,19.8,25.2,19.7z"/>
			<path class="st0" d="M11.4,6.7C11.4,6.7,11.4,6.7,11.4,6.7C11.4,6.7,11.4,6.7,11.4,6.7z"/>
			<path class="st0" d="M11.6,6.5C11.6,6.5,11.6,6.5,11.6,6.5C11.5,6.5,11.5,6.5,11.6,6.5C11.5,6.5,11.5,6.6,11.6,6.5
				C11.5,6.5,11.6,6.5,11.6,6.5z"/>
			<path class="st0" d="M11.5,6.6C11.5,6.6,11.5,6.6,11.5,6.6C11.4,6.7,11.4,6.7,11.5,6.6c-0.1,0.1-0.1,0.1-0.1,0.1l0,0
				C11.4,6.7,11.4,6.6,11.5,6.6z"/>
			<path class="st0" d="M11.5,6.5C11.5,6.5,11.6,6.5,11.5,6.5C11.5,6.5,11.5,6.5,11.5,6.5z"/>
			<path class="st0" d="M24.1,16.2c0.1,0.1,0.1,0.2,0.2,0.4C24.2,16.5,24.2,16.4,24.1,16.2z"/>
			<path class="st0" d="M24.7,17.4c0,0.1,0.1,0.2,0.1,0.3C24.8,17.7,24.8,17.5,24.7,17.4z"/>
			<path class="st0" d="M25,18.2c0,0.1,0.1,0.2,0.1,0.3C25.1,18.4,25.1,18.3,25,18.2z"/>
			<path class="st0" d="M24.9,17.9c0,0.1,0.1,0.2,0.1,0.2C25,18,25,17.9,24.9,17.9z"/>
			<path class="st0" d="M24.4,16.7c0,0.1,0.1,0.2,0.1,0.3C24.5,16.9,24.4,16.8,24.4,16.7z"/>
			<path class="st0" d="M25.2,19.5L25.2,19.5L25.2,19.5z"/>
			<path class="st0" d="M24.6,17.1c0,0.1,0.1,0.2,0.1,0.3C24.7,17.3,24.6,17.2,24.6,17.1z"/>
			<path class="st0" d="M25.3,19.1C25.3,19.1,25.3,19.2,25.3,19.1C25.3,19.1,25.3,19.1,25.3,19.1z"/>
			<path class="st0" d="M25.3,19.3C25.3,19.3,25.3,19.3,25.3,19.3C25.3,19.3,25.3,19.3,25.3,19.3z"/>
			<path class="st0" d="M25.2,18.9C25.2,18.9,25.2,18.9,25.2,18.9C25.2,18.9,25.2,18.9,25.2,18.9z"/>
			<path class="st0" d="M25.2,18.7C25.2,18.7,25.2,18.7,25.2,18.7C25.2,18.7,25.2,18.7,25.2,18.7z"/>
			<path class="st0" d="M12.2,6.3C12.2,6.3,12.2,6.3,12.2,6.3L12.2,6.3c-0.1,0-0.1,0-0.1,0C12.1,6.3,12.2,6.3,12.2,6.3z"/>
			<path class="st0" d="M13.1,6.4C13.1,6.4,13.2,6.4,13.1,6.4C13.2,6.4,13.1,6.4,13.1,6.4z"/>
			<path class="st0" d="M13.4,6.5C13.4,6.5,13.4,6.5,13.4,6.5C13.4,6.4,13.4,6.5,13.4,6.5C13.4,6.5,13.4,6.5,13.4,6.5z"/>
			<path class="st0" d="M12,6.3C12,6.3,12,6.3,12,6.3C12,6.3,12,6.3,12,6.3z"/>
			<path class="st0" d="M13.3,6.4C13.2,6.4,13.2,6.4,13.3,6.4c-0.1,0-0.1,0-0.2-0.1c0,0,0,0,0,0C13.1,6.4,13.2,6.4,13.3,6.4z"/>
			<path class="st0" d="M11.9,6.3C11.9,6.3,11.9,6.3,11.9,6.3L11.9,6.3C11.9,6.3,11.9,6.3,11.9,6.3z"/>
			<path class="st0" d="M11.9,6.3L11.9,6.3C11.8,6.3,11.8,6.3,11.9,6.3c-0.1,0-0.1,0-0.1,0h0C11.8,6.3,11.8,6.3,11.9,6.3z"/>
			<path class="st0" d="M11.7,6.4C11.8,6.4,11.8,6.4,11.7,6.4C11.8,6.4,11.8,6.4,11.7,6.4z"/>
			<path class="st0" d="M13.9,6.7L13.9,6.7C13.9,6.7,13.9,6.7,13.9,6.7c-0.1-0.1-0.2-0.1-0.3-0.1C13.8,6.6,13.9,6.7,13.9,6.7z"/>
			<path class="st0" d="M11.7,6.4C11.7,6.4,11.7,6.4,11.7,6.4C11.6,6.4,11.6,6.4,11.7,6.4c-0.1,0.1-0.1,0.1-0.1,0.1
				C11.6,6.4,11.7,6.4,11.7,6.4z"/>
			<path class="st0" d="M13.6,6.6L13.6,6.6C13.6,6.6,13.6,6.6,13.6,6.6c-0.1,0-0.2-0.1-0.2-0.1c0,0,0,0,0,0
				C13.5,6.5,13.6,6.5,13.6,6.6z"/>
			<path class="st0" d="M12.9,6.3C12.9,6.3,12.9,6.3,12.9,6.3C12.9,6.3,12.9,6.3,12.9,6.3z"/>
			<path class="st0" d="M11.5,6.6C11.5,6.6,11.5,6.6,11.5,6.6C11.5,6.6,11.5,6.6,11.5,6.6C11.5,6.6,11.5,6.6,11.5,6.6z"/>
			<path class="st0" d="M11.6,6.4C11.6,6.4,11.6,6.4,11.6,6.4C11.6,6.4,11.6,6.4,11.6,6.4z"/>
			<path class="st0" d="M12.6,6.3C12.5,6.3,12.5,6.3,12.6,6.3C12.5,6.3,12.5,6.3,12.6,6.3C12.5,6.3,12.6,6.3,12.6,6.3z"/>
			<path class="st0" d="M12.5,6.3c0,0-0.1,0-0.1,0c0,0,0,0-0.1,0s0,0,0,0C12.4,6.3,12.4,6.3,12.5,6.3z"/>
			<path class="st0" d="M12.8,6.3C12.8,6.3,12.7,6.3,12.8,6.3C12.7,6.3,12.7,6.3,12.8,6.3c-0.1,0-0.2,0-0.2,0c0,0,0,0,0,0
				C12.6,6.3,12.7,6.3,12.8,6.3z"/>
			<path class="st0" d="M13,6.4C13,6.4,13,6.3,13,6.4C12.9,6.3,12.9,6.3,13,6.4c-0.1,0-0.1,0-0.2,0C12.9,6.3,12.9,6.3,13,6.4z"/>
			<path class="st0" d="M12.1,6.3C12,6.3,12,6.3,12.1,6.3C12,6.3,12,6.3,12.1,6.3c-0.1,0-0.1,0-0.1,0C11.9,6.3,12,6.3,12.1,6.3z"/>
			<path class="st0" d="M12.7,6.3C12.7,6.3,12.7,6.3,12.7,6.3C12.7,6.3,12.7,6.3,12.7,6.3z"/>
			<path class="st0" d="M12.2,6.3L12.2,6.3C12.2,6.3,12.2,6.3,12.2,6.3z"/>
			<path class="st0" d="M16.7,8.4c0,0-0.1-0.1-0.1-0.1C16.6,8.3,16.6,8.3,16.7,8.4C16.7,8.3,16.7,8.4,16.7,8.4z"/>
			<path class="st0" d="M15.6,7.6C15.6,7.6,15.6,7.6,15.6,7.6C15.6,7.6,15.6,7.6,15.6,7.6z"/>
			<path class="st0" d="M13.6,6.6C13.6,6.6,13.6,6.6,13.6,6.6C13.6,6.6,13.6,6.6,13.6,6.6z"/>
			<path class="st0" d="M16.1,8C16.1,7.9,16.1,7.9,16.1,8C16,7.9,16,7.9,16,7.8c0,0,0,0-0.1,0C16,7.9,16,7.9,16.1,8z"/>
			<path class="st0" d="M15.3,7.4c0,0,0.1,0,0.1,0.1C15.3,7.4,15.3,7.4,15.3,7.4z"/>
			<path class="st0" d="M15.8,7.7c0,0-0.1-0.1-0.1-0.1c0,0,0,0-0.1,0c0,0,0,0,0,0C15.6,7.6,15.7,7.7,15.8,7.7z"/>
			<path class="st0" d="M17,8.6c-0.1-0.1-0.2-0.2-0.3-0.2c0,0,0,0,0,0C16.8,8.4,16.9,8.5,17,8.6z"/>
			<path class="st0" d="M14.7,7.1C14.7,7.1,14.7,7.1,14.7,7.1C14.7,7.1,14.7,7.1,14.7,7.1z"/>
			<path class="st0" d="M16.4,8.1c0,0-0.1-0.1-0.1-0.1c0,0,0,0,0,0C16.3,8.1,16.3,8.1,16.4,8.1z"/>
			<path class="st0" d="M12.3,6.3C12.3,6.3,12.4,6.3,12.3,6.3C12.4,6.3,12.3,6.3,12.3,6.3z"/>
			<path class="st0" d="M16.5,8.2c0,0-0.1-0.1-0.1-0.1c0,0-0.1-0.1-0.1-0.1C16.4,8.1,16.4,8.2,16.5,8.2z"/>
			<path class="st0" d="M15.9,7.8C16,7.9,16,7.9,15.9,7.8C16,7.9,16,7.9,15.9,7.8z"/>
			<path class="st0" d="M13.9,6.7C13.9,6.7,13.9,6.7,13.9,6.7C13.9,6.7,13.9,6.7,13.9,6.7z"/>
			<path class="st0" d="M14.3,6.8C14.2,6.8,14.2,6.8,14.3,6.8c-0.1-0.1-0.1-0.1-0.2-0.1c0,0-0.1,0-0.1,0C14.1,6.8,14.2,6.8,14.3,6.8
				z"/>
			<path class="st0" d="M17,8.6c0.3,0.2,0.6,0.5,0.9,0.7C17.6,9.1,17.3,8.8,17,8.6z"/>
			<path class="st0" d="M14.7,7.1c-0.1,0-0.1-0.1-0.2-0.1c0,0-0.1,0-0.1,0l0,0C14.5,6.9,14.6,7,14.7,7.1z"/>
			<path class="st0" d="M14.1,6.8C14.1,6.8,14.2,6.8,14.1,6.8C14.2,6.8,14.1,6.8,14.1,6.8z"/>
			<path class="st0" d="M14.4,6.9C14.4,6.9,14.4,6.9,14.4,6.9C14.4,6.9,14.4,6.9,14.4,6.9z"/>
			<path class="st0" d="M15.1,7.3C15.1,7.3,15,7.2,15.1,7.3C15,7.2,15,7.3,15.1,7.3C15.1,7.3,15.1,7.3,15.1,7.3z"/>
			<path class="st0" d="M15.4,7.5C15.4,7.5,15.4,7.5,15.4,7.5c-0.1-0.1-0.1-0.1-0.2-0.1s-0.1-0.1-0.1-0.1
				C15.2,7.4,15.3,7.4,15.4,7.5z"/>
			<path class="st0" d="M15.1,7.3C15,7.3,15,7.3,15.1,7.3c-0.1-0.1-0.2-0.1-0.3-0.2c0,0,0,0-0.1,0l0,0C14.8,7.1,14.9,7.2,15.1,7.3z"
				/>
			<path class="st0" d="M25.1,18.5c0,0.1,0,0.1,0,0.2C25.2,18.6,25.2,18.6,25.1,18.5z"/>
			<path class="st0" d="M25,20C25,20,25,20,25,20C25,20,25,20,25,20z"/>
			<path class="st0" d="M25.3,19.2c0,0,0,0.1,0,0.1C25.3,19.2,25.3,19.2,25.3,19.2z"/>
			<path class="st0" d="M25.2,18.8c0,0,0,0.1,0,0.1C25.2,18.9,25.2,18.8,25.2,18.8z"/>
			<path class="st0" d="M25.3,19.3c0,0,0,0.1,0,0.1C25.3,19.4,25.3,19.4,25.3,19.3z"/>
			<path class="st0" d="M25.2,18.9c0,0.1,0,0.1,0,0.2C25.3,19.1,25.2,19,25.2,18.9z"/>
			<path class="st0" d="M25.1,19.9C25.1,19.9,25,20,25.1,19.9C25,19.9,25.1,19.9,25.1,19.9z"/>
			<path class="st0" d="M25.2,19.5c0,0,0,0.1,0,0.1C25.2,19.6,25.2,19.5,25.2,19.5z"/>
			<path class="st0" d="M25.2,19.8c0,0,0,0.1-0.1,0.1C25.1,19.8,25.1,19.8,25.2,19.8z"/>
			<path class="st0" d="M25.2,19.7c0,0,0,0.1,0,0.1C25.2,19.7,25.2,19.7,25.2,19.7z"/>
			<path class="st0" d="M24.9,20.1C24.9,20.1,24.9,20.1,24.9,20.1C24.9,20.1,24.9,20.1,24.9,20.1z"/>
			<path class="st0" d="M22,19.5c0,0,0.1,0,0.1,0.1C22,19.5,22,19.5,22,19.5z"/>
			<path class="st0" d="M22.4,19.7C22.4,19.7,22.4,19.7,22.4,19.7C22.4,19.7,22.4,19.7,22.4,19.7z"/>
			<path class="st0" d="M23,20C23.1,20,23.1,20,23,20C23.1,20,23.1,20,23,20z"/>
			<path class="st0" d="M22.7,19.9C22.8,19.9,22.8,19.9,22.7,19.9C22.8,19.9,22.8,19.9,22.7,19.9z"/>
			<path class="st0" d="M20.4,18.5c0,0,0.1,0.1,0.1,0.1C20.5,18.6,20.4,18.5,20.4,18.5z"/>
			<path class="st0" d="M21.3,19.1C21.3,19.1,21.3,19.1,21.3,19.1C21.3,19.1,21.3,19.1,21.3,19.1z"/>
			<path class="st0" d="M20.8,18.8C20.8,18.8,20.9,18.8,20.8,18.8C20.9,18.8,20.8,18.8,20.8,18.8z"/>
			<path class="st0" d="M23.3,20.1C23.4,20.1,23.4,20.1,23.3,20.1C23.4,20.1,23.4,20.1,23.3,20.1z"/>
			<path class="st0" d="M24.2,20.3C24.2,20.3,24.1,20.3,24.2,20.3C24.1,20.2,24.2,20.3,24.2,20.3z"/>
			<path class="st0" d="M24.6,20.2C24.6,20.2,24.6,20.2,24.6,20.2C24.6,20.2,24.6,20.2,24.6,20.2z"/>
			<path class="st0" d="M24.8,20.2C24.8,20.2,24.8,20.2,24.8,20.2C24.8,20.2,24.8,20.2,24.8,20.2C24.8,20.2,24.8,20.2,24.8,20.2z"/>
			<path class="st0" d="M23.6,20.2C23.7,20.2,23.7,20.2,23.6,20.2C23.7,20.2,23.7,20.2,23.6,20.2z"/>
			<path class="st0" d="M20,18.2c0,0,0.1,0.1,0.1,0.1C20,18.3,20,18.2,20,18.2z"/>
			<path class="st0" d="M23.9,20.2C23.9,20.2,23.9,20.2,23.9,20.2C24,20.2,23.9,20.2,23.9,20.2z"/>
			<path class="st0" d="M24.4,20.2L24.4,20.2C24.4,20.2,24.4,20.2,24.4,20.2z"/>
			<path class="st0" d="M21.6,19.3c0,0,0.1,0,0.1,0.1C21.7,19.3,21.7,19.3,21.6,19.3z"/>
			<path class="st0" d="M24.6,20.2c0,0,0.1,0,0.1,0C24.7,20.2,24.7,20.2,24.6,20.2z"/>
			<path class="st0" d="M22.1,19.6c0.1,0.1,0.2,0.1,0.3,0.2C22.3,19.7,22.2,19.6,22.1,19.6z"/>
			<path class="st0" d="M22.4,19.7c0.1,0,0.2,0.1,0.3,0.1C22.6,19.8,22.5,19.8,22.4,19.7z"/>
			<path class="st0" d="M23.1,20c0.1,0,0.1,0,0.2,0.1C23.3,20.1,23.2,20,23.1,20z"/>
			<path class="st0" d="M24.4,20.2c0.1,0,0.1,0,0.2,0C24.5,20.2,24.5,20.2,24.4,20.2z"/>
			<path class="st0" d="M23.4,20.1c0.1,0,0.2,0,0.3,0.1C23.6,20.2,23.5,20.1,23.4,20.1z"/>
			<path class="st0" d="M23.7,20.2c0.1,0,0.1,0,0.2,0C23.8,20.2,23.8,20.2,23.7,20.2z"/>
			<path class="st0" d="M22.8,19.9c0.1,0,0.1,0.1,0.2,0.1C23,20,22.9,19.9,22.8,19.9z"/>
			<path class="st0" d="M24,20.2c0,0,0.1,0,0.2,0C24.1,20.2,24,20.2,24,20.2z"/>
			<path class="st0" d="M24.4,20.2c-0.1,0-0.1,0-0.2,0C24.3,20.3,24.3,20.3,24.4,20.2z"/>
			<path class="st0" d="M19.6,17.9c0.1,0.1,0.3,0.2,0.4,0.3C19.8,18.1,19.7,18,19.6,17.9z"/>
			<path class="st0" d="M20.5,18.6c0.1,0.1,0.2,0.1,0.3,0.2C20.7,18.7,20.6,18.7,20.5,18.6z"/>
			<path class="st0" d="M20.1,18.3c0.1,0.1,0.2,0.1,0.3,0.2C20.3,18.4,20.2,18.4,20.1,18.3z"/>
			<path class="st0" d="M21.7,19.4c0.1,0,0.2,0.1,0.2,0.1C21.9,19.5,21.8,19.4,21.7,19.4z"/>
			<path class="st0" d="M21.4,19.1c0.1,0.1,0.2,0.1,0.3,0.2C21.5,19.2,21.4,19.2,21.4,19.1z"/>
			<path class="st0" d="M20.9,18.8c0.1,0.1,0.2,0.2,0.4,0.2C21.1,19,21,18.9,20.9,18.8z"/>
			<path class="st0" d="M15.6,7.6C15.5,7.6,15.5,7.6,15.6,7.6C15.5,7.6,15.5,7.6,15.6,7.6L15.6,7.6C15.5,7.6,15.5,7.6,15.6,7.6z"/>
			<path class="st0" d="M16.3,8.1C16.2,8,16.2,8,16.3,8.1C16.2,8,16.1,8,16.1,8C16.2,8,16.2,8,16.3,8.1z"/>
			<path class="st0" d="M16.6,8.3C16.6,8.3,16.6,8.3,16.6,8.3C16.5,8.3,16.5,8.2,16.6,8.3C16.5,8.3,16.6,8.3,16.6,8.3z"/>
			<path class="st0" d="M15.9,7.8C15.9,7.8,15.9,7.8,15.9,7.8c-0.1,0-0.1-0.1-0.1-0.1c0,0,0,0,0,0C15.8,7.8,15.9,7.8,15.9,7.8z"/>
			<path class="st0" d="M14,6.7C14,6.7,14,6.7,14,6.7c-0.1,0-0.1,0-0.1,0l0,0C14,6.7,14,6.7,14,6.7z"/>
			<path class="st0" d="M14.4,6.9L14.4,6.9C14.3,6.9,14.3,6.9,14.4,6.9c-0.1,0-0.1,0-0.1-0.1C14.3,6.9,14.3,6.9,14.4,6.9z"/>
			<path class="st0" d="M13.7,6.6C13.7,6.6,13.7,6.6,13.7,6.6C13.7,6.6,13.7,6.6,13.7,6.6L13.7,6.6C13.7,6.6,13.7,6.6,13.7,6.6z"/>
			<path class="st0" d="M15.1,7.3C15.1,7.3,15.1,7.3,15.1,7.3C15.1,7.3,15.1,7.3,15.1,7.3C15.1,7.3,15.1,7.3,15.1,7.3z"/>
			<path class="st0" d="M13.3,6.5C13.3,6.5,13.3,6.4,13.3,6.5C13.3,6.4,13.3,6.4,13.3,6.5C13.3,6.4,13.3,6.4,13.3,6.5z"/>
			<path class="st0" d="M14.7,7.1C14.7,7.1,14.7,7.1,14.7,7.1C14.7,7.1,14.7,7.1,14.7,7.1C14.7,7.1,14.7,7.1,14.7,7.1
				C14.7,7.1,14.7,7.1,14.7,7.1z"/>
			<path class="st0" d="M15.5,7.5L15.5,7.5C15.5,7.5,15.5,7.5,15.5,7.5C15.5,7.5,15.4,7.5,15.5,7.5C15.4,7.5,15.5,7.5,15.5,7.5z"/>
			<path class="st0" d="M12.8,6.3C12.8,6.3,12.8,6.3,12.8,6.3C12.8,6.3,12.8,6.3,12.8,6.3L12.8,6.3C12.8,6.3,12.8,6.3,12.8,6.3z"/>
			<path class="st0" d="M11.7,6.4C11.7,6.4,11.7,6.4,11.7,6.4C11.7,6.4,11.7,6.4,11.7,6.4C11.7,6.4,11.7,6.4,11.7,6.4
				C11.7,6.4,11.7,6.4,11.7,6.4z"/>
			<path class="st0" d="M11.6,6.5C11.6,6.5,11.6,6.5,11.6,6.5C11.6,6.5,11.6,6.5,11.6,6.5L11.6,6.5C11.6,6.5,11.6,6.5,11.6,6.5z"/>
			<polygon class="st0" points="11.9,6.3 11.9,6.3 11.9,6.3 			"/>
			<path class="st0" d="M12.5,6.3L12.5,6.3L12.5,6.3z"/>
			<path class="st0" d="M12.3,6.3C12.3,6.3,12.3,6.3,12.3,6.3C12.3,6.3,12.3,6.3,12.3,6.3C12.3,6.3,12.3,6.3,12.3,6.3
				C12.3,6.3,12.3,6.3,12.3,6.3z"/>
			<path class="st0" d="M12.1,6.3C12.1,6.3,12.1,6.3,12.1,6.3C12.1,6.3,12.1,6.3,12.1,6.3L12.1,6.3C12.1,6.3,12.1,6.3,12.1,6.3z"/>
			<path class="st0" d="M13.1,6.4C13.1,6.4,13.1,6.4,13.1,6.4C13,6.4,13,6.4,13.1,6.4L13.1,6.4C13,6.4,13.1,6.4,13.1,6.4z"/>
			<path class="st0" d="M11.3,7.6c0,0,0,0.1,0,0.1C11.3,7.7,11.3,7.6,11.3,7.6z"/>
			<path class="st0" d="M11.3,6.9C11.3,6.9,11.3,7,11.3,6.9C11.3,7,11.3,6.9,11.3,6.9z"/>
			<path class="st0" d="M11.5,6.6L11.5,6.6C11.5,6.6,11.5,6.6,11.5,6.6C11.5,6.6,11.5,6.6,11.5,6.6z"/>
			<path class="st0" d="M11.3,7.1C11.3,7.1,11.3,7.1,11.3,7.1C11.3,7.1,11.3,7.1,11.3,7.1z"/>
			<path class="st0" d="M11.3,7.4c0,0,0,0.1,0,0.1C11.3,7.5,11.3,7.4,11.3,7.4z"/>
			<path class="st0" d="M11.4,7.8c0,0.1,0,0.1,0.1,0.2C11.4,7.9,11.4,7.9,11.4,7.8z"/>
			<path class="st0" d="M11.3,7.3C11.3,7.3,11.3,7.3,11.3,7.3C11.3,7.3,11.3,7.3,11.3,7.3z"/>
			<path class="st0" d="M11.4,6.7L11.4,6.7c0,0,0,0.1,0,0.1C11.4,6.8,11.4,6.8,11.4,6.7z"/>
			<path class="st0" d="M10.4,9c-0.1,0.3-0.2,0.6-0.4,0.9l-0.3,0.6c-0.1,0.3-0.3,0.6-0.4,0.9c-2.2,5.1-4.7,10.8-6.9,15.8l-1,2.3
				c-0.1,0.3-0.2,0.5-0.4,0.8c7.9-3.4,15.8-6.9,23.8-10.3c0,0,0,0,0,0c0,0-0.1,0-0.1,0c0,0,0,0,0,0c0,0-0.1,0-0.2,0c0,0,0,0,0,0
				c-0.1,0-0.1,0-0.2,0c0,0,0,0-0.1,0c0,0-0.1,0-0.2,0c0,0,0,0-0.1,0c-0.1,0-0.1,0-0.2,0c0,0,0,0-0.1,0c-0.1,0-0.2,0-0.3-0.1
				c0,0,0,0-0.1,0c-0.1,0-0.1,0-0.2-0.1c0,0-0.1,0-0.1,0c-0.1,0-0.1,0-0.2-0.1c0,0-0.1,0-0.1,0c-0.1,0-0.2-0.1-0.3-0.1c0,0,0,0,0,0
				c-0.1,0-0.2-0.1-0.3-0.2c0,0-0.1,0-0.1-0.1c-0.1,0-0.2-0.1-0.2-0.1c0,0-0.1,0-0.1-0.1c-0.1,0-0.2-0.1-0.3-0.2c0,0-0.1,0-0.1,0
				c-0.1-0.1-0.2-0.1-0.4-0.2c0,0-0.1,0-0.1-0.1c-0.1-0.1-0.2-0.1-0.3-0.2c0,0-0.1-0.1-0.1-0.1c-0.1-0.1-0.2-0.1-0.3-0.2
				c0,0-0.1-0.1-0.1-0.1c-0.1-0.1-0.3-0.2-0.4-0.3c-1-0.7-1.9-1.6-2.9-2.5c-1.4-1.4-2.6-2.8-3.6-4.2C12.3,10,11.7,8.9,11.4,8
				c0-0.1,0-0.1,0-0.2c0,0,0-0.1,0-0.1c0-0.1,0-0.1,0-0.1c0,0,0-0.1,0-0.1c0,0,0-0.1,0-0.1c0,0,0-0.1,0-0.1c0,0,0-0.1,0-0.1
				c0,0,0,0,0-0.1s0-0.1,0-0.1c0,0,0,0,0-0.1c0,0,0-0.1,0-0.1c0,0,0,0,0,0c0,0,0-0.1,0-0.1L10.4,9z"/>
			<path class="st0" d="M11.5,6.6C11.5,6.6,11.5,6.6,11.5,6.6C11.5,6.6,11.5,6.6,11.5,6.6c-0.1,0.1-0.1,0.1-0.1,0.2c0,0,0,0.1,0,0.1
				c0,0,0,0,0,0c0,0,0,0.1,0,0.1c0,0,0,0,0,0.1c0,0,0,0.1,0,0.1c0,0,0,0,0,0.1s0,0.1,0,0.1c0,0,0,0.1,0,0.1c0,0,0,0.1,0,0.1
				c0,0,0,0.1,0,0.1c0,0,0,0.1,0,0.1c0,0,0,0,0,0.1c0,0.1,0,0.1,0.1,0.2c0.2,0.9,0.9,2,1.7,3.2c0.9,1.4,2.2,2.8,3.6,4.2
				c0.9,0.9,1.9,1.7,2.9,2.5c0.1,0.1,0.3,0.2,0.4,0.3c0,0,0.1,0.1,0.1,0.1c0.1,0.1,0.2,0.1,0.3,0.2c0,0,0.1,0.1,0.1,0.1
				c0.1,0.1,0.2,0.1,0.3,0.2c0,0,0.1,0,0.1,0.1c0.1,0.1,0.2,0.2,0.4,0.2c0,0,0.1,0,0.1,0c0.1,0.1,0.2,0.1,0.3,0.2c0,0,0.1,0,0.1,0.1
				c0.1,0,0.2,0.1,0.2,0.1c0,0,0.1,0,0.1,0.1c0.1,0.1,0.2,0.1,0.3,0.2c0,0,0,0,0,0c0.1,0,0.2,0.1,0.3,0.1c0,0,0.1,0,0.1,0
				c0.1,0,0.1,0.1,0.2,0.1c0,0,0.1,0,0.1,0c0.1,0,0.1,0,0.2,0.1c0,0,0,0,0.1,0c0.1,0,0.2,0,0.3,0.1c0,0,0,0,0.1,0c0.1,0,0.1,0,0.2,0
				c0,0,0,0,0.1,0c0,0,0.1,0,0.2,0c0,0,0,0,0.1,0c0.1,0,0.1,0,0.2,0h0c0.1,0,0.1,0,0.2,0c0,0,0,0,0,0c0,0,0.1,0,0.1,0c0,0,0,0,0.1,0
				c0,0,0,0,0,0c0,0,0.1,0,0.1,0c0,0,0,0,0,0c0,0,0.1,0,0.1-0.1c0,0,0,0,0,0c0,0,0,0,0.1-0.1c0,0,0,0,0,0c0,0,0-0.1,0.1-0.1
				c0,0,0,0,0,0c0,0,0-0.1,0-0.1c0,0,0,0,0,0c0,0,0-0.1,0-0.1v0c0,0,0-0.1,0-0.1c0,0,0,0,0,0c0,0,0-0.1,0-0.1c0,0,0,0,0,0
				c0-0.1,0-0.1,0-0.2c0,0,0,0,0,0c0,0,0-0.1,0-0.1c0,0,0,0,0-0.1c0-0.1,0-0.1,0-0.2c0-0.1-0.1-0.2-0.1-0.3c0,0,0-0.1,0-0.1
				c0-0.1-0.1-0.2-0.1-0.2c0,0,0-0.1,0-0.1c0-0.1-0.1-0.2-0.1-0.3c0,0,0,0,0,0c0-0.1-0.1-0.2-0.1-0.3c0,0,0-0.1,0-0.1
				c0-0.1-0.1-0.2-0.1-0.3c0,0,0-0.1,0-0.1c-0.1-0.1-0.1-0.2-0.2-0.4c0,0,0,0,0-0.1c-0.1-0.1-0.1-0.2-0.2-0.3c0,0,0-0.1-0.1-0.1
				c-0.1-0.1-0.1-0.2-0.2-0.3c0,0,0-0.1-0.1-0.1c-0.1-0.1-0.2-0.3-0.3-0.4c0,0,0-0.1-0.1-0.1c-0.1-0.1-0.2-0.2-0.2-0.3
				c0,0-0.1-0.1-0.1-0.1c-0.1-0.1-0.2-0.2-0.3-0.3c0,0,0-0.1-0.1-0.1c-0.1-0.1-0.2-0.3-0.3-0.4c0,0-0.1-0.1-0.1-0.1
				c-0.1-0.1-0.2-0.2-0.3-0.3c0,0-0.1-0.1-0.1-0.1c-0.1-0.1-0.2-0.2-0.3-0.4c0,0,0,0,0-0.1c-0.1-0.1-0.2-0.3-0.4-0.4
				c0,0-0.1-0.1-0.1-0.1c-0.1-0.1-0.2-0.2-0.3-0.3c0,0,0-0.1-0.1-0.1c0,0,0,0,0,0c-0.3-0.3-0.5-0.5-0.8-0.8c0,0,0,0,0-0.1
				c-0.3-0.3-0.5-0.5-0.8-0.8c0,0,0,0,0,0c-0.3-0.2-0.6-0.5-0.9-0.7c0,0,0,0-0.1-0.1C17.6,9,17.3,8.8,17,8.6
				c-0.1-0.1-0.2-0.2-0.4-0.3c0,0,0,0-0.1-0.1c0,0,0,0-0.1-0.1c-0.1-0.1-0.2-0.1-0.2-0.2c0,0,0,0,0,0c0,0-0.1-0.1-0.1-0.1
				C16,7.9,16,7.8,15.9,7.8c-0.1,0-0.1-0.1-0.1-0.1c-0.1-0.1-0.1-0.1-0.2-0.1c0,0,0,0-0.1,0c0,0,0,0-0.1,0c-0.1,0-0.2-0.1-0.3-0.1
				c0,0-0.1,0-0.1,0c0,0,0,0,0,0c-0.1-0.1-0.2-0.1-0.3-0.2c0,0,0,0,0,0C14.6,7,14.5,7,14.4,6.9c0,0-0.1,0-0.1-0.1
				c-0.1,0-0.1-0.1-0.2-0.1c0,0-0.1,0-0.1,0c-0.1,0-0.2-0.1-0.3-0.1c0,0,0,0-0.1,0c-0.1,0-0.2-0.1-0.3-0.1c0,0,0,0,0,0
				c0,0,0,0-0.1,0c-0.1,0-0.1,0-0.2-0.1c0,0-0.1,0-0.1,0c-0.1,0-0.1,0-0.2,0c0,0,0,0-0.1,0c-0.1,0-0.1,0-0.2,0c0,0,0,0,0,0l0,0
				c-0.1,0-0.1,0-0.2,0c0,0,0,0-0.1,0c-0.1,0-0.1,0-0.1,0c0,0,0,0-0.1,0c-0.1,0-0.1,0-0.1,0h0c0,0,0,0,0,0c-0.1,0-0.1,0-0.1,0.1
				c0,0,0,0,0,0c0,0-0.1,0-0.1,0.1C11.6,6.5,11.6,6.5,11.5,6.6C11.6,6.5,11.5,6.5,11.5,6.6z"/>
			<path class="st0" d="M11.3,7.5C11.3,7.5,11.3,7.6,11.3,7.5C11.3,7.6,11.3,7.5,11.3,7.5z"/>
			<path class="st0" d="M11.3,7.2C11.3,7.2,11.3,7.2,11.3,7.2C11.3,7.2,11.3,7.2,11.3,7.2z"/>
			<path class="st0" d="M11.3,7C11.3,7,11.3,7,11.3,7C11.3,7,11.3,7,11.3,7z"/>
			<path class="st0" d="M11.3,7.3C11.3,7.4,11.3,7.4,11.3,7.3C11.3,7.4,11.3,7.4,11.3,7.3z"/>
			<path class="st0" d="M11.4,7.7C11.4,7.7,11.4,7.8,11.4,7.7C11.4,7.8,11.4,7.8,11.4,7.7z"/>
			<path class="st0" d="M11.4,6.9C11.4,6.9,11.3,6.9,11.4,6.9C11.3,6.9,11.4,6.9,11.4,6.9z"/>
		</g>
		<line class="st0" x1="22.5" y1="6.9" x2="23.1" y2="1"/>
		<line class="st0" x1="27.9" y1="11" x2="30.8" y2="9.8"/>
	</g>
</g>
</svg>
