<?xml version="1.0" encoding="utf-8"?>
<!-- Generator: Adobe Illustrator 25.3.1, SVG Export Plug-In . SVG Version: 6.00 Build 0)  -->
<svg version="1.1" id="레이어_1" xmlns="http://www.w3.org/2000/svg" xmlns:xlink="http://www.w3.org/1999/xlink" x="0px"
	 y="0px" viewBox="0 0 24.1 28.8" style="enable-background:new 0 0 24.1 28.8;" xml:space="preserve">
<style type="text/css">
	.st0{fill:#FFFFFF;}
	.st1{fill:none;stroke:#333333;stroke-width:2;stroke-linecap:round;stroke-linejoin:round;stroke-miterlimit:10;}
	.st2{fill:#D5D6D5;}
	.st3{fill:none;}
</style>
<rect x="1.3" y="10.4" class="st0" width="21.5" height="17"/>
<rect x="1.3" y="10.4" class="st1" width="21.5" height="17"/>
<path class="st2" d="M14,17.2c0,1-0.9,1.9-1.9,1.9s-1.9-0.9-1.9-1.9c0-1,0.9-1.9,1.9-1.9C13.1,15.3,14,16.1,14,17.2"/>
<path class="st1" d="M14,17.2c0,1-0.9,1.9-1.9,1.9s-1.9-0.9-1.9-1.9c0-1,0.9-1.9,1.9-1.9C13.1,15.3,14,16.1,14,17.2z"/>
<line class="st3" x1="12.1" y1="19.2" x2="12.1" y2="23.5"/>
<line class="st1" x1="12.1" y1="19.2" x2="12.1" y2="23.5"/>
<path class="st0" d="M18.1,10.4H6V5.1c0-2,1.6-3.6,3.6-3.6h4.8c2,0,3.6,1.6,3.6,3.6L18.1,10.4L18.1,10.4z"/>
<path class="st1" d="M18.1,10.4H6V5.1c0-2,1.6-3.6,3.6-3.6h4.8c2,0,3.6,1.6,3.6,3.6L18.1,10.4L18.1,10.4z"/>
</svg>
