<?xml version="1.0" encoding="utf-8"?>
<!-- Generator: Adobe Illustrator 25.2.2, SVG Export Plug-In . SVG Version: 6.00 Build 0)  -->
<svg version="1.1" id="레이어_1" xmlns="http://www.w3.org/2000/svg" xmlns:xlink="http://www.w3.org/1999/xlink" x="0px"
	 y="0px" viewBox="0 0 21.5 28" style="enable-background:new 0 0 21.5 28;" xml:space="preserve">
<style type="text/css">
	.st0{fill:#143B84;}
</style>
<path class="st0" d="M10.7,0.7c-5.5,0-10,4.5-10,10c0,4.4,6.5,12.8,9,15.8c0.5,0.6,1.5,0.6,2,0c2.6-2.9,9-11.4,9-15.8
	C20.7,5.2,16.3,0.8,10.7,0.7z M10.7,14.5c-2.1,0-3.8-1.7-3.8-3.8C7,8.7,8.7,7,10.7,7c2.1,0,3.8,1.7,3.8,3.7
	C14.5,12.8,12.8,14.5,10.7,14.5z"/>
</svg>
