<?xml version="1.0" encoding="utf-8"?>
<!-- Generator: Adobe Illustrator 25.2.2, SVG Export Plug-In . SVG Version: 6.00 Build 0)  -->
<svg version="1.1" id="레이어_1" xmlns="http://www.w3.org/2000/svg" xmlns:xlink="http://www.w3.org/1999/xlink" x="0px"
	 y="0px" viewBox="0 0 35 33.6" style="enable-background:new 0 0 35 33.6;" xml:space="preserve">
<style type="text/css">
	.st0{fill:#323232;}
</style>
<g>
	<path class="st0" d="M7.8,8.9H1.1C0.5,8.9,0,8.4,0,7.8V1.1C0,0.5,0.5,0,1.1,0h6.7c0.6,0,1.1,0.5,1.1,1.1v6.7
		C8.9,8.4,8.4,8.9,7.8,8.9z"/>
	<path class="st0" d="M20.9,8.9h-6.7c-0.6,0-1.1-0.5-1.1-1.1V1.1C13,0.5,13.5,0,14.1,0h6.7C21.5,0,22,0.5,22,1.1v6.7
		C22,8.4,21.5,8.9,20.9,8.9z"/>
	<path class="st0" d="M33.9,8.9h-6.7c-0.6,0-1.1-0.5-1.1-1.1V1.1c0-0.6,0.5-1.1,1.1-1.1h6.7C34.5,0,35,0.5,35,1.1v6.7
		C35,8.4,34.5,8.9,33.9,8.9z"/>
	<path class="st0" d="M7.8,21.2H1.1c-0.6,0-1.1-0.5-1.1-1.1v-6.7c0-0.6,0.5-1.1,1.1-1.1h6.7c0.6,0,1.1,0.5,1.1,1.1v6.7
		C8.9,20.8,8.4,21.2,7.8,21.2z"/>
	<path class="st0" d="M20.9,21.2h-6.7c-0.6,0-1.1-0.5-1.1-1.1v-6.7c0-0.6,0.5-1.1,1.1-1.1h6.7c0.6,0,1.1,0.5,1.1,1.1v6.7
		C22,20.8,21.5,21.2,20.9,21.2z"/>
	<path class="st0" d="M33.9,21.2h-6.7c-0.6,0-1.1-0.5-1.1-1.1v-6.7c0-0.6,0.5-1.1,1.1-1.1h6.7c0.6,0,1.1,0.5,1.1,1.1v6.7
		C35,20.8,34.5,21.2,33.9,21.2z"/>
	<path class="st0" d="M7.8,33.6H1.1c-0.6,0-1.1-0.5-1.1-1.1v-6.7c0-0.6,0.5-1.1,1.1-1.1h6.7c0.6,0,1.1,0.5,1.1,1.1v6.7
		C8.9,33.1,8.4,33.6,7.8,33.6z"/>
	<path class="st0" d="M20.9,33.6h-6.7c-0.6,0-1.1-0.5-1.1-1.1v-6.7c0-0.6,0.5-1.1,1.1-1.1h6.7c0.6,0,1.1,0.5,1.1,1.1v6.7
		C22,33.1,21.5,33.6,20.9,33.6z"/>
	<path class="st0" d="M33.9,33.6h-6.7c-0.6,0-1.1-0.5-1.1-1.1v-6.7c0-0.6,0.5-1.1,1.1-1.1h6.7c0.6,0,1.1,0.5,1.1,1.1v6.7
		C35,33.1,34.5,33.6,33.9,33.6z"/>
</g>
</svg>
