<?xml version="1.0" encoding="utf-8"?>
<!-- Generator: Adobe Illustrator 25.2.2, SVG Export Plug-In . SVG Version: 6.00 Build 0)  -->
<svg version="1.1" id="레이어_1" xmlns="http://www.w3.org/2000/svg" xmlns:xlink="http://www.w3.org/1999/xlink" x="0px"
	 y="0px" viewBox="0 0 41.8 42.5" style="enable-background:new 0 0 41.8 42.5;" xml:space="preserve">
<style type="text/css">
	.st0{fill:none;stroke:#373737;stroke-width:2.5;stroke-linecap:round;stroke-linejoin:round;stroke-miterlimit:10;}
</style>
<g>
	<path class="st0" d="M7.6,27.5l17.3-17.3L26,9.1c1.9-1.9,4.9-1.9,6.7,0l0,0c1.9,1.9,1.9,4.9,0,6.7l-7.3,7.3l-9.3,9.3l-1.8,1.8
		c-3,3-7.8,3-10.8,0l0,0c-3-3-3-7.8,0-10.8L8.9,18l8.8-8.8l4.8-4.8c4.1-4.1,10.8-4.1,14.9,0l0,0c4.1,4.1,4.1,10.8,0,14.9l-22,22"/>
</g>
</svg>
