<?xml version="1.0" encoding="utf-8"?>
<!-- Generator: Adobe Illustrator 16.0.0, SVG Export Plug-In . SVG Version: 6.00 Build 0)  -->
<!DOCTYPE svg PUBLIC "-//W3C//DTD SVG 1.1//EN" "http://www.w3.org/Graphics/SVG/1.1/DTD/svg11.dtd">
<svg version="1.1" id="Layer_1" xmlns="http://www.w3.org/2000/svg" xmlns:xlink="http://www.w3.org/1999/xlink" x="0px" y="0px"
	 width="19.261px" height="20.193px" viewBox="-3.673 1.313 19.261 20.193" enable-background="new -3.673 1.313 19.261 20.193"
	 xml:space="preserve">
<g>
	<path fill="#221F1F" d="M-3.07,10.636c-0.333,0-0.603-0.27-0.603-0.603c0-3.483,2.838-6.317,6.327-6.317
		c0.333,0,0.603,0.27,0.603,0.603s-0.27,0.603-0.603,0.603c-2.824,0-5.122,2.293-5.122,5.112
		C-2.468,10.366-2.737,10.636-3.07,10.636z"/>
	<g>
		<polygon fill="#221F1F" points="4.7,1.661 9.315,4.32 4.7,6.978 		"/>
		<path fill="#221F1F" d="M4.7,7.326c-0.06,0-0.121-0.016-0.174-0.047C4.418,7.217,4.352,7.102,4.352,6.978V1.661
			c0-0.125,0.066-0.239,0.174-0.302c0.107-0.063,0.241-0.063,0.348,0l4.615,2.659C9.597,4.08,9.664,4.195,9.664,4.32
			S9.597,4.56,9.489,4.622L4.874,7.279C4.821,7.311,4.76,7.326,4.7,7.326z M5.049,2.264v4.111L8.617,4.32L5.049,2.264z"/>
	</g>
	<path fill="#221F1F" d="M13.758,21.506H2.26c-1.009,0-1.83-0.822-1.83-1.83v-8.234c0-1.008,0.821-1.828,1.83-1.828h11.498
		c1.01,0,1.83,0.82,1.83,1.828v8.234C15.588,20.684,14.768,21.506,13.758,21.506z M2.26,11.153c-0.163,0-0.291,0.127-0.291,0.289
		v8.234c0,0.16,0.13,0.291,0.291,0.291h11.498c0.16,0,0.291-0.131,0.291-0.291v-8.234c0-0.159-0.131-0.289-0.291-0.289H2.26z"/>
	<path fill="#221F1F" d="M5.006,4.922H3.048c-0.333,0-0.603-0.27-0.603-0.603s0.27-0.603,0.603-0.603h1.958
		c0.333,0,0.603,0.27,0.603,0.603S5.339,4.922,5.006,4.922z"/>
</g>
</svg>
