<?xml version="1.0" encoding="utf-8"?>
<!-- Generator: Adobe Illustrator 25.3.1, SVG Export Plug-In . SVG Version: 6.00 Build 0)  -->
<svg version="1.1" id="레이어_1" xmlns="http://www.w3.org/2000/svg" xmlns:xlink="http://www.w3.org/1999/xlink" x="0px"
	 y="0px" viewBox="0 0 18 25.1" style="enable-background:new 0 0 18 25.1;" xml:space="preserve">
<style type="text/css">
	.st0{fill:none;stroke:#666666;stroke-width:2;stroke-linecap:round;stroke-linejoin:round;stroke-miterlimit:10;}
	.st1{fill:#666666;stroke:#666666;stroke-miterlimit:10;}
</style>
<g>
	<path class="st0" d="M17,9.1c0,4.4-8.1,15-8.1,15S1,13.7,1,9.1C1,4.7,4.5,1,9.1,1C13.5,1.2,17,4.7,17,9.1"/>
	<path class="st0" d="M17,9.1c0,4.4-8.1,15-8.1,15S1,13.7,1,9.1C1,4.7,4.5,1,9.1,1C13.5,1.2,17,4.7,17,9.1z"/>
	<path class="st0" d="M12,9.1c0,1.7-1.5,3.1-3.1,3.1s-3.1-1.5-3.1-3.1S7.2,6,8.9,6C10.8,6.2,12,7.4,12,9.1"/>
	<path class="st0" d="M12,9.1c0,1.7-1.5,3.1-3.1,3.1s-3.1-1.5-3.1-3.1S7.2,6,8.9,6C10.8,6.2,12,7.4,12,9.1z"/>
</g>
</svg>
