<?xml version="1.0" encoding="utf-8"?>
<!-- Generator: Adobe Illustrator 16.0.0, SVG Export Plug-In . SVG Version: 6.00 Build 0)  -->
<!DOCTYPE svg PUBLIC "-//W3C//DTD SVG 1.1//EN" "http://www.w3.org/Graphics/SVG/1.1/DTD/svg11.dtd">
<svg version="1.1" id="Layer_1" xmlns="http://www.w3.org/2000/svg" xmlns:xlink="http://www.w3.org/1999/xlink" x="0px" y="0px"
	 width="36.771px" height="37.685px" viewBox="0 0 36.771 37.685" enable-background="new 0 0 36.771 37.685" xml:space="preserve">
<g>
	<rect x="0.714" y="6.165" fill="#E9EFEE" width="26.518" height="30.807"/>
	
		<rect x="0.714" y="6.165" fill="none" stroke="#343340" stroke-width="1.4272" stroke-linecap="round" stroke-linejoin="round" stroke-miterlimit="10" width="26.518" height="30.807"/>
	<g>
		<g>
			<defs>
				<rect id="SVGID_3_" x="8.928" y="8.788" width="18.304" height="19.051"/>
			</defs>
			<clipPath id="SVGID_2_">
				<use xlink:href="#SVGID_3_"  overflow="visible"/>
			</clipPath>
			<polygon clip-path="url(#SVGID_2_)" fill="#C4CCCE" points="30.602,8.788 30.602,16.19 16.79,25.972 8.928,27.837 13.301,21.04 
							"/>
		</g>
	</g>
	
		<rect x="21.053" y="-1.229" transform="matrix(0.7073 0.7069 -0.7069 0.7073 16.0225 -13.3031)" fill="#B7DFCD" width="6.044" height="27.848"/>
	
		<rect x="21.053" y="-1.229" transform="matrix(0.7073 0.7069 -0.7069 0.7073 16.0225 -13.3031)" fill="none" stroke="#343340" stroke-width="1.4272" stroke-linecap="round" stroke-linejoin="round" stroke-miterlimit="10" width="6.044" height="27.848"/>
	<polygon fill="#E9EFEE" points="16.364,24.679 12.092,20.405 10.76,23.534 13.235,26.009 	"/>
	
		<polygon fill="none" stroke="#343340" stroke-width="1.4272" stroke-linecap="round" stroke-linejoin="round" stroke-miterlimit="10" points="
		16.364,24.679 12.092,20.405 10.76,23.534 13.235,26.009 	"/>
	<polygon fill="#8F9999" points="13.235,26.009 10.761,23.534 8.928,27.843 	"/>
	
		<polygon fill="none" stroke="#343340" stroke-width="1.4272" stroke-linecap="round" stroke-linejoin="round" stroke-miterlimit="10" points="
		13.235,26.009 10.761,23.534 8.928,27.843 	"/>
</g>
</svg>
