<?xml version="1.0" encoding="utf-8"?>
<!-- Generator: Adobe Illustrator 25.2.2, SVG Export Plug-In . SVG Version: 6.00 Build 0)  -->
<svg version="1.1" id="레이어_1" xmlns="http://www.w3.org/2000/svg" xmlns:xlink="http://www.w3.org/1999/xlink" x="0px"
	 y="0px" viewBox="0 0 26.5 36" style="enable-background:new 0 0 26.5 36;" xml:space="preserve">
<style type="text/css">
	.st0{fill:#F8CB0C;}
	.st1{fill:none;stroke:#38383B;stroke-width:1.5;stroke-linecap:round;stroke-linejoin:round;stroke-miterlimit:10;}
	.st2{fill:#FFFFFF;}
</style>
<g>
	<g>
		<polygon class="st0" points="1.2,32.1 5.6,31.2 7.4,35.3 13.6,23 7.4,19.9 		"/>
		<polygon class="st1" points="1.2,32.1 5.6,31.2 7.4,35.3 13.6,23 7.4,19.9 		"/>
		<polygon class="st0" points="25.4,32.1 21,31.2 19.1,35.3 12.9,23 19.2,19.9 		"/>
		<polygon class="st1" points="25.4,32.1 21,31.2 19.1,35.3 12.9,23 19.2,19.9 		"/>
		<path class="st2" d="M15.7,1.9L15.7,1.9c0.7,0.9,1.9,1.4,3.1,1.1c2-0.4,3.8,1.1,3.7,3.1c-0.1,1.2,0.6,2.3,1.6,2.9
			c1.8,0.9,2.2,3.3,0.8,4.8c-0.8,0.9-1,2.1-0.6,3.2c0.8,1.9-0.4,3.9-2.4,4.2c-1.2,0.2-2.2,1-2.5,2.1c-0.6,1.9-2.9,2.7-4.6,1.7
			c-1-0.6-2.3-0.6-3.3,0c-1.7,1.1-4,0.3-4.6-1.7c-0.4-1.1-1.3-2-2.5-2.1c-2-0.3-3.2-2.3-2.4-4.2c0.5-1.1,0.2-2.4-0.6-3.2
			C0.2,12.3,0.6,10,2.4,9C3.5,8.5,4.1,7.4,4,6.2C4,4.2,5.8,2.6,7.8,3.1c1.2,0.3,2.4-0.2,3.1-1.1C12.1,0.4,14.5,0.4,15.7,1.9"/>
		<path class="st1" d="M15.7,1.9L15.7,1.9c0.7,0.9,1.9,1.4,3.1,1.1c2-0.4,3.8,1.1,3.7,3.1c-0.1,1.2,0.6,2.3,1.6,2.9
			c1.8,0.9,2.2,3.3,0.8,4.8c-0.8,0.9-1,2.1-0.6,3.2c0.8,1.9-0.4,3.9-2.4,4.2c-1.2,0.2-2.2,1-2.5,2.1c-0.6,1.9-2.9,2.7-4.6,1.7
			c-1-0.6-2.3-0.6-3.3,0c-1.7,1.1-4,0.3-4.6-1.7c-0.4-1.1-1.3-2-2.5-2.1c-2-0.3-3.2-2.3-2.4-4.2c0.5-1.1,0.2-2.4-0.6-3.2
			C0.2,12.3,0.6,10,2.4,9C3.5,8.5,4.1,7.4,4,6.2C4,4.2,5.8,2.6,7.8,3.1c1.2,0.3,2.4-0.2,3.1-1.1C12.1,0.4,14.5,0.4,15.7,1.9z"/>
	</g>
	<circle class="st0" cx="13" cy="13.3" r="7.2"/>
	<circle class="st1" cx="13.2" cy="13.3" r="7.2"/>
</g>
</svg>
