<?xml version="1.0" encoding="utf-8"?>
<!-- Generator: Adobe Illustrator 16.0.0, SVG Export Plug-In . SVG Version: 6.00 Build 0)  -->
<!DOCTYPE svg PUBLIC "-//W3C//DTD SVG 1.1//EN" "http://www.w3.org/Graphics/SVG/1.1/DTD/svg11.dtd">
<svg version="1.1" id="Layer_1" xmlns="http://www.w3.org/2000/svg" xmlns:xlink="http://www.w3.org/1999/xlink" x="0px" y="0px"
	 width="19.222px" height="20.192px" viewBox="6.665 -2.284 19.222 20.192" enable-background="new 6.665 -2.284 19.222 20.192"
	 xml:space="preserve">
<g>
	<path fill="#221F1F" d="M25.285,7.039c-0.332,0-0.602-0.27-0.602-0.602c0-2.819-2.293-5.113-5.111-5.113
		c-0.332,0-0.602-0.27-0.602-0.602s0.27-0.602,0.602-0.602c3.482,0,6.314,2.834,6.314,6.317C25.887,6.769,25.617,7.039,25.285,7.039
		z"/>
	<g>
		<polygon fill="#221F1F" points="17.531,-1.936 12.926,0.723 17.531,3.381 		"/>
		<path fill="#221F1F" d="M17.531,3.729c-0.061,0-0.121-0.016-0.174-0.047l-4.605-2.658c-0.107-0.062-0.174-0.177-0.174-0.301
			s0.066-0.239,0.174-0.301l4.605-2.659c0.107-0.063,0.24-0.063,0.348,0c0.107,0.062,0.174,0.177,0.174,0.301v5.316
			c0,0.125-0.066,0.239-0.174,0.301C17.651,3.713,17.591,3.729,17.531,3.729z M13.623,0.723l3.56,2.055v-4.111L13.623,0.723z"/>
	</g>
	<path fill="#221F1F" d="M19.966,17.909H8.494c-1.009,0-1.829-0.821-1.829-1.829V7.845c0-1.008,0.82-1.828,1.829-1.828h11.472
		c1.008,0,1.827,0.82,1.827,1.828v8.234C21.793,17.087,20.974,17.909,19.966,17.909z M8.494,7.556c-0.16,0-0.29,0.13-0.29,0.289
		v8.234c0,0.16,0.13,0.29,0.29,0.29h11.472c0.159,0,0.288-0.13,0.288-0.29V7.845c0-0.162-0.127-0.289-0.288-0.289H8.494z"/>
	<path fill="#221F1F" d="M19.18,1.325h-1.953c-0.333,0-0.603-0.27-0.603-0.602s0.27-0.602,0.603-0.602h1.953
		c0.332,0,0.602,0.27,0.602,0.602S19.512,1.325,19.18,1.325z"/>
</g>
</svg>
