<?xml version="1.0" encoding="utf-8"?>
<!-- Generator: Adobe Illustrator 16.0.0, SVG Export Plug-In . SVG Version: 6.00 Build 0)  -->
<!DOCTYPE svg PUBLIC "-//W3C//DTD SVG 1.1//EN" "http://www.w3.org/Graphics/SVG/1.1/DTD/svg11.dtd">
<svg version="1.1" id="Layer_1" xmlns="http://www.w3.org/2000/svg" xmlns:xlink="http://www.w3.org/1999/xlink" x="0px" y="0px"
	 width="29.215px" height="37.497px" viewBox="0 0 29.215 37.497" enable-background="new 0 0 29.215 37.497" xml:space="preserve">
<g>
	<path fill="#9AA9A9" d="M22.4,36.815H6.816c-2.027,0-3.674-1.643-3.674-3.672V9.692h22.93v23.451
		C26.072,35.172,24.43,36.815,22.4,36.815"/>
	
		<path fill="none" stroke="#343340" stroke-width="1.3618" stroke-linecap="round" stroke-linejoin="round" stroke-miterlimit="10" d="
		M22.4,36.815H6.816c-2.027,0-3.674-1.643-3.674-3.672V9.692h22.93v23.451C26.072,35.172,24.43,36.815,22.4,36.815z"/>
	<rect x="0.68" y="5.235" fill="#9AA9A9" width="27.855" height="4.457"/>
	
		<rect x="0.68" y="5.235" fill="none" stroke="#343340" stroke-width="1.3618" stroke-linecap="round" stroke-linejoin="round" stroke-miterlimit="10" width="27.855" height="4.457"/>
	<g>
		<g>
			<defs>
				<rect id="SVGID_1_" x="3.145" y="9.692" width="22.93" height="3.207"/>
			</defs>
			<clipPath id="SVGID_2_">
				<use xlink:href="#SVGID_1_"  overflow="visible"/>
			</clipPath>
			<rect x="3.143" y="9.692" clip-path="url(#SVGID_2_)" fill="#8F9999" width="22.93" height="3.207"/>
		</g>
	</g>
	
		<rect x="8.709" y="0.681" fill="none" stroke="#343340" stroke-width="1.3618" stroke-linecap="round" stroke-linejoin="round" stroke-miterlimit="10" width="11.799" height="4.554"/>
	
		<path fill="none" stroke="#343340" stroke-width="1.3618" stroke-linecap="round" stroke-linejoin="round" stroke-miterlimit="10" d="
		M14.609,14.776v16.955V14.776z"/>
	
		<path fill="none" stroke="#343340" stroke-width="1.3618" stroke-linecap="round" stroke-linejoin="round" stroke-miterlimit="10" d="
		M9.389,14.776v16.955V14.776z"/>
	
		<path fill="none" stroke="#343340" stroke-width="1.3618" stroke-linecap="round" stroke-linejoin="round" stroke-miterlimit="10" d="
		M19.828,14.776v16.955V14.776z"/>
</g>
</svg>
