<?xml version="1.0" encoding="utf-8"?>
<!-- Generator: Adobe Illustrator 25.2.2, SVG Export Plug-In . SVG Version: 6.00 Build 0)  -->
<svg version="1.1" id="레이어_1" xmlns="http://www.w3.org/2000/svg" xmlns:xlink="http://www.w3.org/1999/xlink" x="0px"
	 y="0px" viewBox="0 0 41.7 41.2" style="enable-background:new 0 0 41.7 41.2;" xml:space="preserve">
<style type="text/css">
	.st0{fill:none;stroke:#373737;stroke-width:2.5;stroke-linecap:round;stroke-linejoin:round;stroke-miterlimit:10;}
</style>
<g>
	<path class="st0" d="M16.9,5.9c0,2.6-2.1,4.6-4.6,4.6c-2.6,0-4.6-2.1-4.6-4.6c0-2.6,2.1-4.6,4.6-4.6C14.8,1.2,16.9,3.3,16.9,5.9z"
		/>
	<path class="st0" d="M34.6,20.6c0,2.6-2.1,4.6-4.6,4.6c-2.6,0-4.6-2.1-4.6-4.6S27.4,16,30,16C32.6,16,34.6,18,34.6,20.6z"/>
	<path class="st0" d="M16.9,35.3c0,2.6-2.1,4.6-4.6,4.6c-2.6,0-4.6-2.1-4.6-4.6c0-2.6,2.1-4.6,4.6-4.6
		C14.8,30.7,16.9,32.8,16.9,35.3z"/>
	<line class="st0" x1="1.2" y1="5.9" x2="7.6" y2="5.9"/>
	<line class="st0" x1="1.2" y1="20.6" x2="25.4" y2="20.6"/>
	<line class="st0" x1="18.1" y1="5.9" x2="40.5" y2="5.9"/>
	<line class="st0" x1="1.2" y1="35.3" x2="7.6" y2="35.3"/>
	<line class="st0" x1="18.1" y1="35.3" x2="40.5" y2="35.3"/>
	<line class="st0" x1="35" y1="20.6" x2="40.5" y2="20.6"/>
</g>
</svg>
