<?xml version="1.0" encoding="utf-8"?>
<!-- Generator: Adobe Illustrator 16.0.0, SVG Export Plug-In . SVG Version: 6.00 Build 0)  -->
<!DOCTYPE svg PUBLIC "-//W3C//DTD SVG 1.1//EN" "http://www.w3.org/Graphics/SVG/1.1/DTD/svg11.dtd">
<svg version="1.1" id="Layer_1" xmlns="http://www.w3.org/2000/svg" xmlns:xlink="http://www.w3.org/1999/xlink" x="0px" y="0px"
	 width="22.062px" height="22.062px" viewBox="0.54 0.404 22.062 22.062" enable-background="new 0.54 0.404 22.062 22.062"
	 xml:space="preserve">
<g>
	<path fill="#221F1F" d="M16.782,12.204H6.359c-0.425,0-0.77-0.345-0.77-0.77s0.345-0.77,0.77-0.77h10.423
		c0.425,0,0.77,0.345,0.77,0.77S17.207,12.204,16.782,12.204z"/>
	<path fill="#221F1F" d="M11.571,22.466c-6.083,0-11.031-4.948-11.031-11.031c0-6.083,4.949-11.031,11.031-11.031
		s11.031,4.948,11.031,11.031C22.602,17.518,17.653,22.466,11.571,22.466z M11.571,1.943c-5.234,0-9.492,4.258-9.492,9.492
		c0,5.233,4.258,9.492,9.492,9.492s9.492-4.259,9.492-9.492C21.063,6.201,16.805,1.943,11.571,1.943z"/>
</g>
</svg>
