<?xml version="1.0" encoding="utf-8"?>
<!-- Generator: Adobe Illustrator 16.0.0, SVG Export Plug-In . SVG Version: 6.00 Build 0)  -->
<!DOCTYPE svg PUBLIC "-//W3C//DTD SVG 1.1//EN" "http://www.w3.org/Graphics/SVG/1.1/DTD/svg11.dtd">
<svg version="1.1" id="Layer_1" xmlns="http://www.w3.org/2000/svg" xmlns:xlink="http://www.w3.org/1999/xlink" x="0px" y="0px"
	 width="30px" height="30px" viewBox="266.5 266.5 30 30" enable-background="new 266.5 266.5 30 30" xml:space="preserve">
<g id="_48">
	<rect x="281.499" y="270.786" fill="#FFFFFF" width="13.574" height="20.714"/>
	<path fill="#237447" d="M295.073,270.786V291.5h-13.574v-20.714H295.073 M295.073,269.357h-13.574
		c-0.789,0-1.427,0.639-1.427,1.428V291.5c0,0.79,0.638,1.43,1.427,1.43h13.574c0.788,0,1.427-0.639,1.427-1.43v-20.714
		C296.499,269.997,295.861,269.357,295.073,269.357z"/>
	<rect x="287.927" y="272.928" fill="#237447" width="5" height="2.144"/>
	<rect x="287.927" y="276.5" fill="#237447" width="5" height="2.143"/>
	<rect x="287.927" y="280.073" fill="#237447" width="5" height="2.144"/>
	<rect x="287.927" y="283.642" fill="#237447" width="5" height="2.145"/>
	<rect x="287.927" y="287.216" fill="#237447" width="5" height="2.141"/>
	<rect x="281.499" y="272.928" fill="#237447" width="5" height="2.144"/>
	<rect x="281.499" y="276.5" fill="#237447" width="5" height="2.143"/>
	<rect x="281.499" y="280.073" fill="#237447" width="5" height="2.144"/>
	<rect x="281.499" y="283.642" fill="#237447" width="5" height="2.145"/>
	<rect x="281.499" y="287.216" fill="#237447" width="5" height="2.141"/>
	<path fill="#237447" d="M284.357,266.5L266.5,269.63v23.743l17.857,3.128V266.5z"/>
	<path fill="#FFFFFF" d="M279.257,275.072l-2.492,0.149l-1.522,3.571l-0.1,0.323l-0.072,0.242l-0.065,0.235l-0.051,0.193l0,0
		c0-0.095-0.021-0.186-0.064-0.271l-0.065-0.25l-0.073-0.235l-0.078-0.215l-1.306-3.393l-2.406,0.15l2.564,5.558l-2.835,5.557
		l2.349,0.144l1.579-3.644l0.072-0.251l0.058-0.222l0.049-0.185v-0.15l0,0l0.05,0.264l0.051,0.223l0.043,0.172l0.043,0.122
		l1.644,3.885l2.729,0.173l-3.072-6.123L279.257,275.072"/>
</g>
</svg>
