<?xml version="1.0" encoding="utf-8"?>
<!-- Generator: Adobe Illustrator 16.0.0, SVG Export Plug-In . SVG Version: 6.00 Build 0)  -->
<!DOCTYPE svg PUBLIC "-//W3C//DTD SVG 1.1//EN" "http://www.w3.org/Graphics/SVG/1.1/DTD/svg11.dtd">
<svg version="1.1" id="Isolation_Mode" xmlns="http://www.w3.org/2000/svg" xmlns:xlink="http://www.w3.org/1999/xlink" x="0px"
	 y="0px" width="17.168px" height="17.168px" viewBox="0 0 17.168 17.168" enable-background="new 0 0 17.168 17.168"
	 xml:space="preserve">
<g>
	<path fill="#FFFFFF" d="M8.587,16.701c-4.474,0-8.114-3.641-8.114-8.114s3.64-8.114,8.114-8.114c4.474,0,8.114,3.641,8.114,8.114
		S13.061,16.701,8.587,16.701z M8.587,2.363c-3.431,0-6.224,2.793-6.224,6.224c0,3.433,2.792,6.224,6.224,6.224
		c3.433,0,6.224-2.791,6.224-6.224C14.811,5.156,12.02,2.363,8.587,2.363z"/>
	<path fill="#FFFFFF" d="M8.587,17.174C3.852,17.174,0,13.321,0,8.587C0,3.852,3.852,0,8.587,0c4.734,0,8.587,3.852,8.587,8.587
		C17.174,13.321,13.321,17.174,8.587,17.174z M8.587,0.945c-4.214,0-7.641,3.428-7.641,7.642s3.427,7.642,7.641,7.642
		s7.642-3.428,7.642-7.642S12.801,0.945,8.587,0.945z M8.587,15.283c-3.693,0-6.697-3.004-6.697-6.696
		c0-3.693,3.004-6.697,6.697-6.697c3.692,0,6.696,3.004,6.696,6.697C15.283,12.279,12.279,15.283,8.587,15.283z M8.587,2.836
		c-3.17,0-5.751,2.58-5.751,5.751s2.581,5.751,5.751,5.751c3.171,0,5.751-2.58,5.751-5.751S11.758,2.836,8.587,2.836z"/>
</g>
</svg>
