<?xml version="1.0" encoding="utf-8"?>
<!-- Generator: Adobe Illustrator 25.2.2, SVG Export Plug-In . SVG Version: 6.00 Build 0)  -->
<svg version="1.1" id="레이어_1" xmlns="http://www.w3.org/2000/svg" xmlns:xlink="http://www.w3.org/1999/xlink" x="0px"
	 y="0px" viewBox="0 0 58 48" style="enable-background:new 0 0 58 48;" xml:space="preserve">
<style type="text/css">
	.st0{fill:#FFFFFF;}
	.st1{fill:none;stroke:#38383B;stroke-width:2;stroke-linecap:round;stroke-linejoin:round;stroke-miterlimit:10;}
	.st2{fill:#FFAF10;}
</style>
<g>
	<path class="st0" d="M49.7,4.6C49.7,4.7,49.7,4.7,49.7,4.6L49.7,4.6L49.7,4.6z"/>
	<path class="st1" d="M49.7,4.6C49.7,4.7,49.7,4.7,49.7,4.6L49.7,4.6L49.7,4.6z"/>
	<path class="st0" d="M49.7,4.6C49.7,4.6,49.7,4.6,49.7,4.6C49.7,4.6,49.7,4.6,49.7,4.6L49.7,4.6L49.7,4.6z"/>
	<path class="st1" d="M49.7,4.6C49.7,4.6,49.7,4.6,49.7,4.6C49.7,4.6,49.7,4.6,49.7,4.6L49.7,4.6L49.7,4.6z"/>
	<path class="st0" d="M57,4.6c0-2-1.6-3.6-3.6-3.6c0,0,0,0,0,0c-2,0-3.6,1.6-3.6,3.6v0v0v3.6H57V4.6L57,4.6C57,4.6,57,4.6,57,4.6"/>
	<path class="st1" d="M57,4.6c0-2-1.6-3.6-3.6-3.6c0,0,0,0,0,0c-2,0-3.6,1.6-3.6,3.6v0v0v3.6H57V4.6L57,4.6C57,4.6,57,4.6,57,4.6z"
		/>
	<path class="st0" d="M49.7,43.4L49.7,43.4L49.7,43.4C49.7,43.3,49.7,43.3,49.7,43.4"/>
	<path class="st1" d="M49.7,43.4L49.7,43.4L49.7,43.4C49.7,43.3,49.7,43.3,49.7,43.4z"/>
	<path class="st0" d="M49.7,43.4C49.7,43.4,49.7,43.4,49.7,43.4L49.7,43.4L49.7,43.4C49.7,43.4,49.7,43.4,49.7,43.4"/>
	<path class="st1" d="M49.7,43.4C49.7,43.4,49.7,43.4,49.7,43.4L49.7,43.4L49.7,43.4C49.7,43.4,49.7,43.4,49.7,43.4z"/>
	<path class="st0" d="M49.7,43.5c0,0,0-0.1,0-0.1v0v0C49.7,43.4,49.7,43.5,49.7,43.5"/>
	<path class="st1" d="M49.7,43.5c0,0,0-0.1,0-0.1v0v0C49.7,43.4,49.7,43.5,49.7,43.5z"/>
	<path class="st0" d="M49.7,1H18.1c-2,0-3.6,1.6-3.6,3.6v19.1h0v15.9h28v3.6c0,0,0,0,0,0c0,2,1.6,3.6,3.6,3.6c0,0,0,0,0,0
		c1.9,0,3.5-1.5,3.6-3.5c0,0,0-0.1,0-0.1v0v0v-3.6V24.2h0V8.3V4.7c0,0,0,0,0,0c0,0,0,0,0,0c0,0,0,0,0,0c0-2,1.6-3.6,3.6-3.6
		c0,0,0,0,0,0v0H49.7z"/>
	<path class="st1" d="M49.7,1H18.1c-2,0-3.6,1.6-3.6,3.6v19.1h0v15.9h28v3.6c0,0,0,0,0,0c0,2,1.6,3.6,3.6,3.6c0,0,0,0,0,0
		c1.9,0,3.5-1.5,3.6-3.5c0,0,0-0.1,0-0.1v0v0v-3.6V24.2h0V8.3V4.7c0,0,0,0,0,0c0,0,0,0,0,0c0,0,0,0,0,0c0-2,1.6-3.6,3.6-3.6
		c0,0,0,0,0,0v0H49.7z"/>
	<path class="st0" d="M46.1,47C46.1,47,46.1,47,46.1,47c-2,0-3.6-1.6-3.6-3.6c0,0,0,0,0,0h0v-3.6h-28h0H7.2v3.6l0,0c0,0,0,0,0,0
		c0,2,1.6,3.6,3.6,3.6c0,0,0,0,0,0H46.1c2,0,3.5-1.5,3.6-3.5C49.6,45.4,48.1,47,46.1,47"/>
	<path class="st1" d="M46.1,47C46.1,47,46.1,47,46.1,47c-2,0-3.6-1.6-3.6-3.6c0,0,0,0,0,0h0v-3.6h-28h0H7.2v3.6l0,0c0,0,0,0,0,0
		c0,2,1.6,3.6,3.6,3.6c0,0,0,0,0,0H46.1c2,0,3.5-1.5,3.6-3.5C49.6,45.4,48.1,47,46.1,47z"/>
	<polygon class="st0" points="24.2,25.1 26.8,29.9 29.5,34.8 24.6,32.1 19.9,29.5 	"/>
	<polygon class="st1" points="24.2,25.1 26.8,29.9 29.5,34.8 24.6,32.1 19.9,29.5 	"/>
	<path class="st2" d="M1.2,10.9l18.6,18.6c0.6,0.6,2,0.1,3.2-1.1c1.2-1.2,1.7-2.7,1.1-3.2L5.6,6.5L1.2,10.9z"/>
	<path class="st1" d="M1.2,10.9l18.6,18.6c0.6,0.6,2,0.1,3.2-1.1c1.2-1.2,1.7-2.7,1.1-3.2L5.6,6.5L1.2,10.9z"/>
	<path class="st0" d="M5.6,6.5c0.6,0.6,0.1,2-1.1,3.2c-1.2,1.2-2.6,1.7-3.2,1.1c-0.6-0.6-0.1-2,1.1-3.2C3.6,6.4,5,5.9,5.6,6.5"/>
	<path class="st1" d="M5.6,6.5c0.6,0.6,0.1,2-1.1,3.2c-1.2,1.2-2.6,1.7-3.2,1.1c-0.6-0.6-0.1-2,1.1-3.2C3.6,6.4,5,5.9,5.6,6.5z"/>
	<polygon class="st2" points="26.8,29.9 29.5,34.8 24.6,32.1 	"/>
	<polygon class="st1" points="26.8,29.9 29.5,34.8 24.6,32.1 	"/>
	<line class="st1" x1="21.7" y1="8.7" x2="42.2" y2="8.7"/>
	<line class="st1" x1="21.7" y1="15" x2="42.2" y2="15"/>
	<line class="st1" x1="27.1" y1="21.3" x2="42.2" y2="21.3"/>
	<line class="st1" x1="30.8" y1="27.6" x2="42.2" y2="27.6"/>
	<line class="st1" x1="34.9" y1="33.9" x2="42.2" y2="33.9"/>
</g>
</svg>
