<?xml version="1.0" encoding="utf-8"?>
<!-- Generator: Adobe Illustrator 25.3.1, SVG Export Plug-In . SVG Version: 6.00 Build 0)  -->
<svg version="1.1" id="레이어_1" xmlns="http://www.w3.org/2000/svg" xmlns:xlink="http://www.w3.org/1999/xlink" x="0px"
	 y="0px" viewBox="0 0 145.4 112.4" style="enable-background:new 0 0 145.4 112.4;" xml:space="preserve">
<style type="text/css">
	.st0{fill:none;stroke:#FFFFFF;stroke-width:6;stroke-linecap:round;stroke-linejoin:round;stroke-miterlimit:10;}
</style>
<g>
	<polygon class="st0" points="125.8,81 40.2,81 26.5,19.1 139.5,19.1 	"/>
	<polygon class="st0" points="125.8,81 40.2,81 26.5,19.1 139.5,19.1 	"/>
	<polyline class="st0" points="40.2,81 23.5,5.3 5.9,5.3 	"/>
	<polyline class="st0" points="40.2,81 23.5,5.3 5.9,5.3 	"/>
	<path class="st0" d="M56,99.2c0,4.4-3.5,7.9-7.9,7.9c-4.3,0-7.9-3.5-7.9-7.9c0-4.4,3.5-7.9,7.9-7.9C52.5,91.3,56,94.9,56,99.2"/>
	<path class="st0" d="M56,99.2c0,4.4-3.5,7.9-7.9,7.9c-4.3,0-7.9-3.5-7.9-7.9c0-4.4,3.5-7.9,7.9-7.9C52.5,91.3,56,94.9,56,99.2z"/>
	<path class="st0" d="M110.4,99.2c0,4.4,3.5,7.9,7.9,7.9s7.9-3.5,7.9-7.9c0-4.4-3.5-7.9-7.9-7.9C114,91.3,110.4,94.9,110.4,99.2"/>
	<path class="st0" d="M110.4,99.2c0,4.4,3.5,7.9,7.9,7.9s7.9-3.5,7.9-7.9c0-4.4-3.5-7.9-7.9-7.9C114,91.3,110.4,94.9,110.4,99.2z"/>
	<line class="st0" x1="83" y1="35.4" x2="83" y2="65.3"/>
	<line class="st0" x1="83" y1="35.4" x2="83" y2="65.3"/>
	<line class="st0" x1="58" y1="35.4" x2="61.6" y2="65.3"/>
	<line class="st0" x1="58" y1="35.4" x2="61.6" y2="65.3"/>
	<line class="st0" x1="108" y1="35.4" x2="104.4" y2="65.3"/>
	<line class="st0" x1="108" y1="35.4" x2="104.4" y2="65.3"/>
</g>
</svg>
