<?xml version="1.0" encoding="utf-8"?>
<!-- Generator: Adobe Illustrator 16.0.0, SVG Export Plug-In . SVG Version: 6.00 Build 0)  -->
<!DOCTYPE svg PUBLIC "-//W3C//DTD SVG 1.1//EN" "http://www.w3.org/Graphics/SVG/1.1/DTD/svg11.dtd">
<svg version="1.1" id="Layer_1" xmlns="http://www.w3.org/2000/svg" xmlns:xlink="http://www.w3.org/1999/xlink" x="0px" y="0px"
	 width="21.773px" height="16.693px" viewBox="0 0 21.773 16.693" enable-background="new 0 0 21.773 16.693" xml:space="preserve">
<g>
	<path fill="#828282" d="M20.333,11.014h-1.954V8.083c0-0.18-0.146-0.326-0.326-0.326h-6.84V5.15h4.561
		c0.18,0,0.325-0.146,0.325-0.326V0.916c0-0.18-0.146-0.326-0.325-0.326H6.001c-0.18,0-0.326,0.146-0.326,0.326v3.909
		c0,0.18,0.146,0.326,0.326,0.326h4.56v2.606h-6.84c-0.18,0-0.326,0.146-0.326,0.326v2.931H1.44c-0.181,0-0.326,0.146-0.326,0.326
		v3.908c0,0.18,0.146,0.326,0.326,0.326h4.561c0.18,0,0.325-0.146,0.325-0.326V11.34c0-0.18-0.146-0.326-0.325-0.326H4.046V8.408
		h6.515v2.606H8.606c-0.18,0-0.326,0.146-0.326,0.326v3.908c0,0.18,0.146,0.326,0.326,0.326h4.561c0.18,0,0.326-0.146,0.326-0.326
		V11.34c0-0.18-0.146-0.326-0.326-0.326h-1.954V8.408h6.515v2.606h-1.954c-0.18,0-0.326,0.146-0.326,0.326v3.908
		c0,0.18,0.146,0.326,0.326,0.326h4.56c0.181,0,0.326-0.146,0.326-0.326V11.34C20.659,11.16,20.514,11.014,20.333,11.014z
		 M6.326,1.242h9.121v3.257H6.326V1.242z M5.675,14.922H1.766v-3.256h3.909V14.922z M12.842,14.922h-3.91v-3.256h3.91V14.922z
		 M20.008,14.922h-3.909v-3.256h3.909V14.922z"/>
</g>
</svg>
