<?xml version="1.0" encoding="utf-8"?>
<!-- Generator: Adobe Illustrator 25.2.2, SVG Export Plug-In . SVG Version: 6.00 Build 0)  -->
<svg version="1.1" id="레이어_1" xmlns="http://www.w3.org/2000/svg" xmlns:xlink="http://www.w3.org/1999/xlink" x="0px"
	 y="0px" viewBox="0 0 30 30.3" style="enable-background:new 0 0 30 30.3;" xml:space="preserve">
<style type="text/css">
	.st0{fill:none;stroke:#323232;stroke-width:3;stroke-linecap:round;stroke-linejoin:round;stroke-miterlimit:10;}
	.st1{fill:none;stroke:#373737;stroke-width:2.5;stroke-linecap:round;stroke-linejoin:round;stroke-miterlimit:10;}
</style>
<g>
	<line class="st0" x1="10.5" y1="17.5" x2="19.5" y2="22.1"/>
	<path class="st1" d="M10.5,15.1c0,2.6-2.1,4.6-4.6,4.6c-2.6,0-4.6-2.1-4.6-4.6s2.1-4.6,4.6-4.6C8.4,10.5,10.5,12.6,10.5,15.1z"/>
	<path class="st1" d="M28.7,5.9c0,2.6-2.1,4.6-4.6,4.6c-2.6,0-4.6-2.1-4.6-4.6s2.1-4.6,4.6-4.6C26.6,1.2,28.7,3.3,28.7,5.9z"/>
	<path class="st1" d="M28.7,24.4c0,2.6-2.1,4.6-4.6,4.6c-2.6,0-4.6-2.1-4.6-4.6s2.1-4.6,4.6-4.6C26.6,19.8,28.7,21.9,28.7,24.4z"/>
	<line class="st0" x1="10.7" y1="12.7" x2="19.5" y2="8.2"/>
</g>
</svg>
