<?xml version="1.0" encoding="utf-8"?>
<!-- Generator: Adobe Illustrator 16.0.0, SVG Export Plug-In . SVG Version: 6.00 Build 0)  -->
<!DOCTYPE svg PUBLIC "-//W3C//DTD SVG 1.1//EN" "http://www.w3.org/Graphics/SVG/1.1/DTD/svg11.dtd">
<svg version="1.1" id="Layer_1" xmlns="http://www.w3.org/2000/svg" xmlns:xlink="http://www.w3.org/1999/xlink" x="0px" y="0px"
	 width="16.913px" height="21.707px" viewBox="2.94 -1.844 16.913 21.707" enable-background="new 2.94 -1.844 16.913 21.707"
	 xml:space="preserve">
<g>
	<polygon fill="#221F1F" points="12.273,9.042 15.14,11.244 12.273,13.447 	"/>
	<path fill="#221F1F" d="M12.273,13.857c-0.062,0-0.124-0.014-0.182-0.043c-0.14-0.068-0.229-0.211-0.229-0.367V9.042
		c0-0.156,0.089-0.3,0.229-0.368c0.142-0.068,0.308-0.052,0.432,0.043l2.866,2.202c0.102,0.078,0.16,0.198,0.16,0.325
		c0,0.128-0.059,0.248-0.16,0.326l-2.866,2.202C12.45,13.828,12.362,13.857,12.273,13.857z M12.684,9.875v2.738l1.782-1.369
		L12.684,9.875z"/>
</g>
<path fill="#221F1F" d="M12.604,11.994h-4.61c-0.414,0-0.75-0.336-0.75-0.75s0.336-0.75,0.75-0.75h4.61
	c0.414,0,0.75,0.336,0.75,0.75S13.019,11.994,12.604,11.994z"/>
<path fill="#221F1F" d="M18.098,6.306h-4.136c-0.706,0-1.281-0.578-1.281-1.288V0.89c0-0.303,0.183-0.577,0.463-0.693
	c0.28-0.117,0.604-0.052,0.817,0.163l4.667,4.666c0.215,0.214,0.278,0.537,0.163,0.817C18.675,6.123,18.401,6.306,18.098,6.306z
	 M14.181,4.806h2.105L14.181,2.7V4.806z"/>
<path fill="#221F1F" d="M17.8,17.735H5.416c-0.706,0-1.28-0.578-1.28-1.289V1.428c0-0.71,0.574-1.288,1.28-1.288h8.248
	c0.199,0,0.39,0.079,0.53,0.22l4.667,4.666c0.141,0.141,0.22,0.332,0.22,0.53v10.89C19.081,17.157,18.506,17.735,17.8,17.735z
	 M5.636,16.235h11.945V5.866L13.354,1.64H5.636V16.235z"/>
</svg>
