<?xml version="1.0" encoding="utf-8"?>
<!-- Generator: Adobe Illustrator 16.0.0, SVG Export Plug-In . SVG Version: 6.00 Build 0)  -->
<!DOCTYPE svg PUBLIC "-//W3C//DTD SVG 1.1//EN" "http://www.w3.org/Graphics/SVG/1.1/DTD/svg11.dtd">
<svg version="1.1" id="Layer_1" xmlns="http://www.w3.org/2000/svg" xmlns:xlink="http://www.w3.org/1999/xlink" x="0px" y="0px"
	 width="37.18px" height="37.179px" viewBox="0 0 37.18 37.179" enable-background="new 0 0 37.18 37.179" xml:space="preserve">
<g>
	<path fill="#A1C6D1" d="M36.448,20.655v-4.131l-3.987-0.892c-0.365-1.723-1.047-3.325-1.976-4.754l2.193-3.456l-2.922-2.922
		l-3.455,2.193c-1.429-0.928-3.032-1.61-4.756-1.976l-0.891-3.987h-4.131l-0.891,3.987c-1.723,0.365-3.325,1.048-4.755,1.976
		L7.423,4.501l-2.92,2.922l2.193,3.456c-0.93,1.429-1.611,3.031-1.977,4.754l-3.988,0.892v4.131l3.988,0.891
		c0.365,1.722,1.047,3.326,1.977,4.755l-2.193,3.455l2.92,2.923l3.456-2.195c1.43,0.93,3.032,1.611,4.755,1.977l0.891,3.987h4.131
		l0.891-3.987c1.724-0.365,3.327-1.047,4.756-1.977l3.455,2.195l2.922-2.923l-2.193-3.455c0.929-1.429,1.61-3.033,1.976-4.755
		L36.448,20.655z M18.591,22.557c-2.192,0-3.968-1.775-3.968-3.968c0-2.191,1.775-3.968,3.968-3.968
		c2.191,0,3.968,1.776,3.968,3.968C22.559,20.781,20.782,22.557,18.591,22.557"/>
	
		<path fill="none" stroke="#343340" stroke-width="1.4628" stroke-linecap="round" stroke-linejoin="round" stroke-miterlimit="10" d="
		M36.448,20.655v-4.131l-3.987-0.892c-0.365-1.723-1.047-3.325-1.976-4.754l2.193-3.456l-2.922-2.922l-3.455,2.193
		c-1.429-0.928-3.032-1.61-4.756-1.976l-0.891-3.987h-4.131l-0.891,3.987c-1.723,0.365-3.325,1.048-4.755,1.976L7.423,4.501
		l-2.92,2.922l2.193,3.456c-0.93,1.429-1.611,3.031-1.977,4.754l-3.988,0.892v4.131l3.988,0.891
		c0.365,1.722,1.047,3.326,1.977,4.755l-2.193,3.455l2.92,2.923l3.456-2.195c1.43,0.93,3.032,1.611,4.755,1.977l0.891,3.987h4.131
		l0.891-3.987c1.724-0.365,3.327-1.047,4.756-1.977l3.455,2.195l2.922-2.923l-2.193-3.455c0.929-1.429,1.61-3.033,1.976-4.755
		L36.448,20.655z M18.591,22.557c-2.192,0-3.968-1.775-3.968-3.968c0-2.191,1.775-3.968,3.968-3.968
		c2.191,0,3.968,1.776,3.968,3.968C22.559,20.781,20.782,22.557,18.591,22.557z"/>
	<g>
		<g>
			<defs>
				<rect id="SVGID_5_" x="13.029" y="13.028" width="7.442" height="7.442"/>
			</defs>
			<clipPath id="SVGID_2_">
				<use xlink:href="#SVGID_5_"  overflow="visible"/>
			</clipPath>
			<path clip-path="url(#SVGID_2_)" fill="#7EAFB7" d="M18.591,14.621c0.684,0,1.318,0.189,1.881,0.494
				c-0.673-1.236-1.967-2.086-3.475-2.086c-2.191,0-3.968,1.776-3.968,3.967c0,1.508,0.851,2.803,2.087,3.474
				c-0.305-0.562-0.493-1.195-0.493-1.88C14.623,16.398,16.398,14.621,18.591,14.621"/>
		</g>
	</g>
	<g>
		<g>
			<defs>
				<rect id="SVGID_7_" x="5.831" y="28.892" width="8.487" height="3.786"/>
			</defs>
			<clipPath id="SVGID_4_">
				<use xlink:href="#SVGID_7_"  overflow="visible"/>
			</clipPath>
			<path clip-path="url(#SVGID_4_)" fill="#7EAFB7" d="M9.286,28.892l-3.455,2.193l1.592,1.594l3.456-2.195
				c1.059,0.688,2.212,1.238,3.44,1.627l-0.279-1.243C12.318,30.502,10.715,29.82,9.286,28.892"/>
		</g>
	</g>
	<g>
		<g>
			<defs>
				<rect id="SVGID_9_" x="0.731" y="19.418" width="2.744" height="1.851"/>
			</defs>
			<clipPath id="SVGID_6_">
				<use xlink:href="#SVGID_9_"  overflow="visible"/>
			</clipPath>
			<path clip-path="url(#SVGID_6_)" fill="#7EAFB7" d="M0.731,19.418v1.236l2.744,0.614c-0.137-0.431-0.254-0.868-0.349-1.316
				L0.731,19.418z"/>
		</g>
	</g>
	<g>
		<g>
			<defs>
				<rect id="SVGID_11_" x="19.419" y="0.731" width="1.851" height="2.744"/>
			</defs>
			<clipPath id="SVGID_8_">
				<use xlink:href="#SVGID_11_"  overflow="visible"/>
			</clipPath>
			<path clip-path="url(#SVGID_8_)" fill="#7EAFB7" d="M21.27,3.476l-0.614-2.744h-1.236l0.535,2.394
				C20.401,3.221,20.84,3.34,21.27,3.476"/>
		</g>
	</g>
	<g>
		<g>
			<defs>
				<rect id="SVGID_13_" x="16.169" y="16.167" width="20.279" height="20.281"/>
			</defs>
			<clipPath id="SVGID_10_">
				<use xlink:href="#SVGID_13_"  overflow="visible"/>
			</clipPath>
			<path clip-path="url(#SVGID_10_)" fill="#7EAFB7" d="M36.448,20.655v-4.131l-1.592-0.356v2.895l-3.988,0.891
				c-0.365,1.723-1.048,3.325-1.977,4.755l2.195,3.455l-2.922,2.922l-3.457-2.193c-1.429,0.929-3.032,1.611-4.754,1.976
				l-0.891,3.987h-2.895l0.355,1.593h4.131l0.893-3.987c1.722-0.365,3.325-1.046,4.754-1.976l3.455,2.192l2.922-2.92l-2.193-3.456
				c0.929-1.43,1.61-3.032,1.976-4.755L36.448,20.655z"/>
		</g>
	</g>
	<g>
		<g>
			<defs>
				<rect id="SVGID_15_" x="28.892" y="5.83" width="3.787" height="8.488"/>
			</defs>
			<clipPath id="SVGID_12_">
				<use xlink:href="#SVGID_15_"  overflow="visible"/>
			</clipPath>
			<path clip-path="url(#SVGID_12_)" fill="#7EAFB7" d="M30.868,14.04l1.244,0.278c-0.389-1.228-0.939-2.381-1.627-3.44l2.193-3.455
				L31.085,5.83l-2.193,3.455C29.82,10.715,30.503,12.316,30.868,14.04"/>
		</g>
	</g>
</g>
</svg>
