<?xml version="1.0" encoding="utf-8"?>
<!-- Generator: Adobe Illustrator 25.2.2, SVG Export Plug-In . SVG Version: 6.00 Build 0)  -->
<svg version="1.1" id="레이어_1" xmlns="http://www.w3.org/2000/svg" xmlns:xlink="http://www.w3.org/1999/xlink" x="0px"
	 y="0px" viewBox="0 0 21.5 28" style="enable-background:new 0 0 21.5 28;" xml:space="preserve">
<style type="text/css">
	.st0{fill:none;stroke:#000000;stroke-width:1.5;stroke-linecap:round;stroke-linejoin:round;stroke-miterlimit:10;}
</style>
<g>
	<path class="st0" d="M20.7,10.7c0,4.4-6.4,12.9-9,15.8c-0.5,0.6-1.5,0.6-2,0c-2.5-3-9-11.4-9-15.8c0-5.5,4.5-10,10-10
		C16.3,0.8,20.7,5.2,20.7,10.7z"/>
	<path class="st0" d="M14.5,10.7c0,2.1-1.7,3.8-3.8,3.8c-2.1,0-3.8-1.7-3.8-3.8C7,8.7,8.7,7,10.7,7C12.8,7,14.5,8.7,14.5,10.7z"/>
</g>
</svg>
