<?xml version="1.0" encoding="utf-8"?>
<!-- Generator: Adobe Illustrator 25.2.2, SVG Export Plug-In . SVG Version: 6.00 Build 0)  -->
<svg version="1.1" id="레이어_1" xmlns="http://www.w3.org/2000/svg" xmlns:xlink="http://www.w3.org/1999/xlink" x="0px"
	 y="0px" viewBox="0 0 28.7 29" style="enable-background:new 0 0 28.7 29;" xml:space="preserve">
<style type="text/css">
	.st0{fill:none;stroke:#FFFFFF;stroke-width:1.2209;stroke-linecap:round;stroke-linejoin:round;stroke-miterlimit:10;}
</style>
<g>
	<line class="st0" x1="9.9" y1="16.9" x2="18.8" y2="21.4"/>
	<path class="st0" d="M9.9,14.5c0,2.6-2.1,4.6-4.6,4.6c-2.6,0-4.6-2.1-4.6-4.6s2.1-4.6,4.6-4.6C7.8,9.9,9.9,12,9.9,14.5z"/>
	<path class="st0" d="M28.1,5.2c0,2.6-2.1,4.6-4.6,4.6c-2.6,0-4.6-2.1-4.6-4.6s2.1-4.6,4.6-4.6C26,0.6,28.1,2.7,28.1,5.2z"/>
	<path class="st0" d="M28.1,23.8c0,2.6-2.1,4.6-4.6,4.6c-2.6,0-4.6-2.1-4.6-4.6s2.1-4.6,4.6-4.6C26,19.1,28.1,21.2,28.1,23.8z"/>
	<line class="st0" x1="10.1" y1="12" x2="18.8" y2="7.6"/>
</g>
</svg>
