<?xml version="1.0" encoding="utf-8"?>
<!-- Generator: Adobe Illustrator 25.2.2, SVG Export Plug-In . SVG Version: 6.00 Build 0)  -->
<svg version="1.1" id="레이어_1" xmlns="http://www.w3.org/2000/svg" xmlns:xlink="http://www.w3.org/1999/xlink" x="0px"
	 y="0px" viewBox="0 0 27.5 25.9" style="enable-background:new 0 0 27.5 25.9;" xml:space="preserve">
<style type="text/css">
	.st0{fill:none;stroke:#000000;stroke-width:1.5;stroke-linecap:round;stroke-linejoin:round;stroke-miterlimit:10;}
	.st1{fill:none;stroke:#000000;stroke-width:1.5;stroke-miterlimit:10;}
</style>
<g>
	<path class="st0" d="M18.3,21.7c-0.9,2.1-3,3.5-5.5,3.5H3.9c-1.5,0-2.7-1.2-2.7-2.6c0-0.6,0.2-1.2,0.6-1.6
		c-0.5-0.5-0.9-1.1-0.9-1.9c0-0.7,0.3-1.2,0.7-1.7c-0.5-0.5-0.8-1.1-0.8-1.8c0-0.7,0.3-1.4,0.8-1.8c-0.4-0.5-0.7-1-0.7-1.7
		c0-1.4,1.2-2.6,2.7-2.6h4.7C8.2,8.9,8.1,8.5,8,8C8,7.7,7.9,7.4,7.8,7c-0.3-1.4-0.3-5.5,2.6-6.2c0.7-0.2,1.4-0.1,1.9,0.3
		c0.9,0.7,1,1.9,1.1,3.1c0,0.4,0.1,0.9,0.2,1.2c0.6,2.2,1.2,3.5,3.1,5.4c0.2,0.2,0.4,0.3,0.5,0.5l0,0c0.2,0.2,0.4,0.4,0.5,0.6
		c0.2,0.3,0.4,0.6,0.5,0.9"/>
	<path class="st0" d="M25.8,25.1h-6.5c-0.5,0-1-0.4-1-1V9.9c0-0.5,0.4-1,1-1h6.5c0.5,0,1,0.4,1,1v14.3
		C26.7,24.7,26.3,25.1,25.8,25.1z"/>
</g>
<line class="st0" x1="1.6" y1="13.6" x2="5.5" y2="13.6"/>
<line class="st0" x1="1.6" y1="17.3" x2="5.5" y2="17.3"/>
<line class="st0" x1="1.8" y1="21" x2="5.5" y2="21"/>
</svg>
