<?xml version="1.0" encoding="utf-8"?>
<!-- Generator: Adobe Illustrator 25.2.2, SVG Export Plug-In . SVG Version: 6.00 Build 0)  -->
<svg version="1.1" id="레이어_1" xmlns="http://www.w3.org/2000/svg" xmlns:xlink="http://www.w3.org/1999/xlink" x="0px"
	 y="0px" viewBox="0 0 110.7 110.7" style="enable-background:new 0 0 110.7 110.7;" xml:space="preserve">
<style type="text/css">
	.st0{fill:none;stroke:#343231;stroke-width:10;stroke-linecap:round;stroke-linejoin:round;stroke-miterlimit:10;}
	.st1{fill:#343231;}
</style>
<g>
	<circle class="st0" cx="55.3" cy="55.3" r="50.3"/>
	<path class="st1" d="M60,42.1c0-3.4-2.3-5.6-5.8-5.6c-2,0-3.8,0.7-5.4,1.9c-1.5,1-3.4,0.9-4.8-0.3l0,0c-1.7-1.6-1.7-4.4,0.2-5.8
		c3.1-2.3,6.8-3.8,11.1-3.8c8.2,0,14.3,4.2,14.3,13c0,8.7-9.4,12.2-10.8,19.7c-0.3,1.8-1.9,3-3.7,3h-1.3c-2.4,0-4.2-2.2-3.8-4.6
		C51.6,51.7,60,47.7,60,42.1z M61.3,77.5c0,3.8-3.1,6.9-6.9,6.9s-6.9-3.1-6.9-6.9c0-3.8,3.1-6.9,6.9-6.9S61.3,73.7,61.3,77.5z"/>
</g>
</svg>
