<?xml version="1.0" encoding="utf-8"?>
<!-- Generator: Adobe Illustrator 25.3.1, SVG Export Plug-In . SVG Version: 6.00 Build 0)  -->
<svg version="1.1" id="레이어_1" xmlns="http://www.w3.org/2000/svg" xmlns:xlink="http://www.w3.org/1999/xlink" x="0px"
	 y="0px" viewBox="0 0 65.7 44" style="enable-background:new 0 0 65.7 44;" xml:space="preserve">
<style type="text/css">
	.st0{fill:#5DA3C0;}
	.st1{fill:none;stroke:#38383B;stroke-width:2;stroke-linecap:round;stroke-linejoin:round;stroke-miterlimit:10;}
	.st2{fill:#FFFFFF;}
	.st3{clip-path:url(#SVGID_2_);fill:#DADAE0;}
	.st4{clip-path:url(#SVGID_4_);fill:#DADAE0;}
	.st5{clip-path:url(#SVGID_6_);fill:#DADAE0;}
	.st6{clip-path:url(#SVGID_8_);fill:#DADAE0;}
	.st7{fill:#E67677;}
	.st8{clip-path:url(#SVGID_10_);fill:#DADAE0;}
	.st9{clip-path:url(#SVGID_12_);fill:#DADAE0;}
</style>
<g>
	<rect x="1" y="6.7" class="st0" width="63.7" height="21.6"/>
	<rect x="1" y="6.7" class="st1" width="63.7" height="21.6"/>
	<polygon class="st0" points="64.7,6.7 1,6.7 5.3,2.3 60.4,2.3 	"/>
	<polygon class="st1" points="64.7,6.7 1,6.7 5.3,2.3 60.4,2.3 	"/>
	<rect x="6.3" y="11.9" class="st2" width="53.2" height="11.1"/>
	<rect x="6.3" y="11.9" class="st1" width="53.2" height="11.1"/>
	<g>
		<g>
			<defs>
				<rect id="SVGID_1_" x="6.3" y="11.9" width="4" height="11.1"/>
			</defs>
			<clipPath id="SVGID_2_">
				<use xlink:href="#SVGID_1_"  style="overflow:visible;"/>
			</clipPath>
			<rect x="6.3" y="11.9" class="st3" width="4" height="11.1"/>
		</g>
	</g>
	<g>
		<g>
			<defs>
				<rect id="SVGID_3_" x="10.3" y="11.9" width="49.1" height="4"/>
			</defs>
			<clipPath id="SVGID_4_">
				<use xlink:href="#SVGID_3_"  style="overflow:visible;"/>
			</clipPath>
			<rect x="10.3" y="11.9" class="st4" width="49.1" height="4"/>
		</g>
	</g>
	
		<rect x="40.8" y="21.5" transform="matrix(0.7071 -0.7071 0.7071 0.7071 -6.3561 38.5699)" class="st2" width="5.2" height="10.9"/>
	
		<rect x="40.8" y="21.5" transform="matrix(0.7071 -0.7071 0.7071 0.7071 -6.3561 38.5699)" class="st1" width="5.2" height="10.9"/>
	<rect x="48.6" y="28.8" transform="matrix(0.7071 -0.7071 0.7071 0.7071 -9.9672 47.2876)" class="st0" width="7" height="13.8"/>
	<rect x="48.6" y="28.8" transform="matrix(0.7071 -0.7071 0.7071 0.7071 -9.9672 47.2876)" class="st1" width="7" height="13.8"/>
	<path class="st2" d="M43.3,5.4c5.9,5.9,5.9,15.5,0,21.4c-5.9,5.9-15.5,5.9-21.4,0c-5.9-5.9-5.9-15.5,0-21.4
		C27.8-0.5,37.4-0.5,43.3,5.4"/>
	<path class="st1" d="M43.3,5.4c5.9,5.9,5.9,15.5,0,21.4c-5.9,5.9-15.5,5.9-21.4,0c-5.9-5.9-5.9-15.5,0-21.4
		C27.8-0.5,37.4-0.5,43.3,5.4z"/>
	<path class="st2" d="M39.5,9.2c3.8,3.8,3.8,10.1,0,13.9c-3.8,3.8-10.1,3.8-13.9,0c-3.8-3.8-3.8-10.1,0-13.9
		C29.5,5.3,35.7,5.3,39.5,9.2"/>
	<path class="st1" d="M39.5,9.2c3.8,3.8,3.8,10.1,0,13.9c-3.8,3.8-10.1,3.8-13.9,0c-3.8-3.8-3.8-10.1,0-13.9
		C29.5,5.3,35.7,5.3,39.5,9.2z"/>
	<g>
		<g>
			<defs>
				<rect id="SVGID_5_" x="22.7" y="6.3" width="12.3" height="19.7"/>
			</defs>
			<clipPath id="SVGID_6_">
				<use xlink:href="#SVGID_5_"  style="overflow:visible;"/>
			</clipPath>
			<path class="st5" d="M35,6.6c-1.7,0.4-3.2,1.3-4.5,2.6c-3.8,3.8-3.8,10.1,0,13.9c1.3,1.3,2.9,2.2,4.5,2.6
				c-3.2,0.8-6.8-0.1-9.4-2.6c-3.8-3.8-3.8-10.1,0-13.9C28.1,6.6,31.7,5.8,35,6.6"/>
		</g>
	</g>
</g>
</svg>
