<?xml version="1.0" encoding="utf-8"?>
<!-- Generator: Adobe Illustrator 16.0.0, SVG Export Plug-In . SVG Version: 6.00 Build 0)  -->
<!DOCTYPE svg PUBLIC "-//W3C//DTD SVG 1.1 Tiny//EN" "http://www.w3.org/Graphics/SVG/1.1/DTD/svg11-tiny.dtd">
<svg version="1.1" baseProfile="tiny" id="Layer_1" xmlns="http://www.w3.org/2000/svg" xmlns:xlink="http://www.w3.org/1999/xlink"
	 x="0px" y="0px" width="16.131px" height="17.402px" viewBox="0 0 16.131 17.402" xml:space="preserve">
<g>
	<polygon points="12.575,15.702 3.969,15.702 3.969,14.802 11.675,14.802 11.675,2.601 1.848,2.601 1.848,15.251 0.946,15.251 
		0.946,1.702 12.575,1.702 	"/>
	<rect x="4.428" y="4.689" width="4.976" height="0.9"/>
	<rect x="4.428" y="6.94" width="4.976" height="0.9"/>
	<rect x="4.577" y="9.191" width="4.976" height="0.902"/>
	<rect x="4.428" y="11.477" width="4.976" height="0.9"/>
	<g>
		<g>
			
				<polygon fill="none" stroke="#FFFFFF" stroke-width="1.4679" stroke-linecap="round" stroke-linejoin="round" stroke-miterlimit="10" points="
				11.015,6.631 15.892,9.876 11.015,13.12 			"/>
			
				<path fill="none" stroke="#FFFFFF" stroke-width="1.4679" stroke-linecap="round" stroke-linejoin="round" stroke-miterlimit="10" d="
				M4.272,10.564c-0.235,0-0.424-0.307-0.424-0.688c0-0.386,0.191-0.693,0.427-0.693h8.487c0.234,0,0.424,0.31,0.424,0.693
				c0,0.382-0.189,0.688-0.424,0.688H4.272z"/>
		</g>
		<g>
			<polygon fill="#3CA123" points="11.015,6.631 15.892,9.876 11.015,13.12 			"/>
			<path fill="#3CA123" d="M4.272,10.564c-0.235,0-0.424-0.307-0.424-0.688c0-0.386,0.191-0.693,0.427-0.693h8.487
				c0.234,0,0.424,0.31,0.424,0.693c0,0.382-0.189,0.688-0.424,0.688H4.272z"/>
		</g>
	</g>
</g>
</svg>
