<?xml version="1.0" encoding="utf-8"?>
<!-- Generator: Adobe Illustrator 25.3.1, SVG Export Plug-In . SVG Version: 6.00 Build 0)  -->
<svg version="1.1" id="레이어_1" xmlns="http://www.w3.org/2000/svg" xmlns:xlink="http://www.w3.org/1999/xlink" x="0px"
	 y="0px" viewBox="0 0 24.1 22.4" style="enable-background:new 0 0 24.1 22.4;" xml:space="preserve">
<style type="text/css">
	.st0{fill:#FFFFFF;}
	.st1{fill:none;stroke:#124A92;stroke-width:2;stroke-linecap:round;stroke-linejoin:round;stroke-miterlimit:10;}
	.st2{fill:#FFFFFF;stroke:#124A92;stroke-width:0;stroke-miterlimit:10;}
</style>
<g>
	<path class="st0" d="M12.1,1C6.9,1,2.6,4,1.4,8.2C1.3,8.4,1.2,8.7,1.2,8.9C1.1,9.5,1,10.1,1,10.6c0,2.8,1.4,5.4,3.7,7.2
		c-0.8,1.8-2.2,3.2-3.6,3.6c2.6,0.2,5-0.5,6.5-1.9c1.4,0.5,2.9,0.8,4.5,0.8c6.1,0,11.1-4.3,11.1-9.6C23.1,5.3,18.2,1,12.1,1z"/>
	<path class="st1" d="M12.1,1C6.9,1,2.6,4,1.4,8.2C1.3,8.4,1.2,8.7,1.2,8.9C1.1,9.5,1,10.1,1,10.6c0,2.8,1.4,5.4,3.7,7.2
		c-0.8,1.8-2.2,3.2-3.6,3.6c2.6,0.2,5-0.5,6.5-1.9c1.4,0.5,2.9,0.8,4.5,0.8c6.1,0,11.1-4.3,11.1-9.6C23.1,5.3,18.2,1,12.1,1z"/>
	<line class="st2" x1="7.2" y1="11.2" x2="8" y2="11.2"/>
	<line class="st1" x1="7.2" y1="11.2" x2="8" y2="11.2"/>
	<line class="st2" x1="11.4" y1="11.2" x2="12.3" y2="11.2"/>
	<line class="st1" x1="11.4" y1="11.2" x2="12.3" y2="11.2"/>
	<line class="st2" x1="15.6" y1="11.2" x2="16.5" y2="11.2"/>
	<line class="st1" x1="15.6" y1="11.2" x2="16.5" y2="11.2"/>
</g>
</svg>
