<?xml version="1.0" encoding="utf-8"?>
<!-- Generator: Adobe Illustrator 16.0.0, SVG Export Plug-In . SVG Version: 6.00 Build 0)  -->
<!DOCTYPE svg PUBLIC "-//W3C//DTD SVG 1.1//EN" "http://www.w3.org/Graphics/SVG/1.1/DTD/svg11.dtd">
<svg version="1.1" id="Layer_1" xmlns="http://www.w3.org/2000/svg" xmlns:xlink="http://www.w3.org/1999/xlink" x="0px" y="0px"
	 width="24.166px" height="24.165px" viewBox="33.75 0 24.166 24.165" enable-background="new 33.75 0 24.166 24.165"
	 xml:space="preserve">
<g>
	<path fill="#FFFFFF" stroke="#000000" stroke-miterlimit="10" d="M35.85,23.588c-0.84,0-1.523-0.684-1.523-1.521V2.099
		c0-0.839,0.684-1.522,1.523-1.522h19.967c0.84,0,1.523,0.683,1.523,1.522v19.968c0,0.84-0.684,1.521-1.523,1.521H35.85z"/>
	<path stroke="#000000" stroke-width="0.5" stroke-miterlimit="10" d="M55.816,0.901c0.66,0,1.197,0.537,1.197,1.196v19.968
		c0,0.66-0.537,1.195-1.197,1.195H35.85c-0.66,0-1.197-0.535-1.197-1.195V2.099c0-0.659,0.537-1.196,1.197-1.196L55.816,0.901
		 M55.816,0.25H35.85c-1.021,0-1.851,0.828-1.851,1.849v19.968c0,1.02,0.828,1.848,1.851,1.848h19.967
		c1.021,0,1.852-0.828,1.852-1.848V2.099C57.666,1.077,56.838,0.25,55.816,0.25L55.816,0.25z"/>
</g>
<path d="M43.988,17.477c-0.264,0-0.531-0.102-0.734-0.305l-4.193-4.191c-0.406-0.406-0.406-1.063,0-1.469
	c0.404-0.404,1.061-0.407,1.467,0l3.461,3.457l7.15-7.149c0.406-0.405,1.063-0.405,1.469,0c0.406,0.406,0.406,1.063,0,1.469
	l-7.885,7.884C44.52,17.375,44.256,17.477,43.988,17.477z"/>
</svg>
