<?xml version="1.0" encoding="utf-8"?>
<!-- Generator: Adobe Illustrator 25.3.1, SVG Export Plug-In . SVG Version: 6.00 Build 0)  -->
<svg version="1.1" id="레이어_1" xmlns="http://www.w3.org/2000/svg" xmlns:xlink="http://www.w3.org/1999/xlink" x="0px"
	 y="0px" viewBox="0 0 247 190" style="enable-background:new 0 0 247 190;" xml:space="preserve">
<style type="text/css">
	.st0{fill:none;stroke:#343231;stroke-width:9;stroke-linecap:round;stroke-linejoin:round;stroke-miterlimit:10;}
</style>
<g>
	<polygon class="st0" points="174.4,123.3 88.9,123.3 75.2,61.3 188.1,61.3 	"/>
	<polyline class="st0" points="88.9,123.3 72.1,47.6 54.5,47.6 	"/>
	<path class="st0" d="M104.7,141.5c0,4.4-3.5,7.9-7.9,7.9c-4.3,0-7.9-3.5-7.9-7.9c0-4.4,3.5-7.9,7.9-7.9
		C101.2,133.6,104.7,137.1,104.7,141.5"/>
	<path class="st0" d="M159.1,141.5c0,4.4,3.5,7.9,7.9,7.9s7.9-3.5,7.9-7.9c0-4.4-3.5-7.9-7.9-7.9
		C162.6,133.6,159.1,137.1,159.1,141.5"/>
</g>
<line class="st0" x1="145.2" y1="81.7" x2="122" y2="104.9"/>
<line class="st0" x1="122" y1="81.7" x2="145.2" y2="104.9"/>
</svg>
