<?xml version="1.0" encoding="utf-8"?>
<!-- Generator: Adobe Illustrator 16.0.0, SVG Export Plug-In . SVG Version: 6.00 Build 0)  -->
<!DOCTYPE svg PUBLIC "-//W3C//DTD SVG 1.1//EN" "http://www.w3.org/Graphics/SVG/1.1/DTD/svg11.dtd">
<svg version="1.1" id="Layer_1" xmlns="http://www.w3.org/2000/svg" xmlns:xlink="http://www.w3.org/1999/xlink" x="0px" y="0px"
	 width="12.13px" height="15.643px" viewBox="0 0 12.13 15.643" enable-background="new 0 0 12.13 15.643" xml:space="preserve">
<g>
	<g>
		<g>
			<rect x="2.284" y="2.933" fill="#828282" width="1.495" height="0.81"/>
			<rect x="4.922" y="2.933" fill="#828282" width="2.285" height="0.81"/>
			<rect x="8.349" y="2.933" fill="#828282" width="1.496" height="0.81"/>
		</g>
		<g>
			<rect x="2.284" y="5.454" fill="#828282" width="1.495" height="0.81"/>
			<rect x="4.922" y="5.454" fill="#828282" width="2.285" height="0.81"/>
			<rect x="8.349" y="5.454" fill="#828282" width="1.496" height="0.81"/>
		</g>
		<g>
			<rect x="2.284" y="7.974" fill="#828282" width="1.495" height="0.81"/>
			<rect x="4.922" y="7.974" fill="#828282" width="2.285" height="0.81"/>
			<rect x="8.349" y="7.974" fill="#828282" width="1.496" height="0.81"/>
		</g>
	</g>
	<path fill="#828282" d="M4.922,15.076h2.285v-3.001H4.922V15.076z"/>
	<g>
		<path fill="#828282" d="M6.533,15.643h5.233c0.2,0,0.363-0.162,0.363-0.362V0.363C12.13,0.163,11.967,0,11.767,0H0.363
			C0.163,0,0,0.163,0,0.363V15.28c0,0.2,0.163,0.362,0.363,0.362h5.443 M0.727,0.726h10.677v14.191H0.727V0.726z"/>
	</g>
</g>
</svg>
