<?xml version="1.0" encoding="utf-8"?>
<!-- Generator: Adobe Illustrator 16.0.0, SVG Export Plug-In . SVG Version: 6.00 Build 0)  -->
<!DOCTYPE svg PUBLIC "-//W3C//DTD SVG 1.1//EN" "http://www.w3.org/Graphics/SVG/1.1/DTD/svg11.dtd">
<svg version="1.1" id="Layer_1" xmlns="http://www.w3.org/2000/svg" xmlns:xlink="http://www.w3.org/1999/xlink" x="0px" y="0px"
	 width="24.166px" height="24.165px" viewBox="33.75 0 24.166 24.165" enable-background="new 33.75 0 24.166 24.165"
	 xml:space="preserve">
<g>
	<path fill="none" d="M35.85,23.588c-0.84,0-1.523-0.684-1.523-1.521V2.099c0-0.839,0.684-1.522,1.523-1.522h19.967
		c0.84,0,1.523,0.683,1.523,1.522v19.968c0,0.84-0.684,1.521-1.523,1.521H35.85z"/>
	<path fill="#828282" d="M55.815,0H35.849c-1.158,0-2.101,0.942-2.101,2.099v19.968c0,1.156,0.942,2.098,2.101,2.098h19.967
		c1.159,0,2.102-0.941,2.102-2.098V2.098C57.915,0.941,56.972,0,55.815,0z M55.815,23.01H35.849c-0.522,0-0.947-0.424-0.947-0.945
		V2.099c0-0.522,0.425-0.946,0.947-0.946h19.967V1.151c0.522,0,0.947,0.424,0.947,0.946v19.968
		C56.763,22.586,56.338,23.01,55.815,23.01z"/>
</g>
<path fill="#828282" d="M43.985,17.061c-0.264,0-0.53-0.102-0.733-0.305l-4.192-4.191c-0.406-0.404-0.406-1.062,0-1.468
	c0.403-0.404,1.061-0.406,1.467,0l3.461,3.456l7.15-7.147C51.543,7,52.2,7,52.606,7.406c0.406,0.406,0.406,1.063,0,1.469
	l-7.885,7.882C44.519,16.959,44.254,17.061,43.985,17.061z"/>
</svg>
