<?xml version="1.0" encoding="utf-8"?>
<!-- Generator: Adobe Illustrator 16.0.0, SVG Export Plug-In . SVG Version: 6.00 Build 0)  -->
<!DOCTYPE svg PUBLIC "-//W3C//DTD SVG 1.1//EN" "http://www.w3.org/Graphics/SVG/1.1/DTD/svg11.dtd">
<svg version="1.1" id="Layer_1" focusable="false" xmlns="http://www.w3.org/2000/svg" xmlns:xlink="http://www.w3.org/1999/xlink"
	 x="0px" y="0px" width="20.924px" height="22.231px" viewBox="249.647 262.968 20.924 22.231"
	 enable-background="new 249.647 262.968 20.924 22.231" xml:space="preserve">
<g>
	<path fill="#221F1F" d="M268.098,285.199H252.12c-1.363,0-2.473-1.109-2.473-2.473v-13.841c0-1.363,1.109-2.473,2.473-2.473h15.979
		c1.363,0,2.473,1.109,2.473,2.473v13.841C270.571,284.09,269.462,285.199,268.098,285.199z M252.12,268.523
		c-0.199,0-0.361,0.163-0.361,0.362v13.841c0,0.199,0.162,0.362,0.361,0.362h15.979c0.199,0,0.361-0.163,0.361-0.362v-13.841
		c0-0.2-0.162-0.362-0.361-0.362H252.12z"/>
	<g>
		<path fill="#221F1F" d="M256.969,266.559c0,0.157-0.127,0.284-0.283,0.284h-2.184c-0.156,0-0.283-0.127-0.283-0.284v-3.308
			c0-0.157,0.127-0.284,0.283-0.284h2.184c0.156,0,0.283,0.127,0.283,0.284V266.559z"/>
		<path fill="#221F1F" d="M266,266.559c0,0.157-0.127,0.284-0.283,0.284h-2.184c-0.156,0-0.283-0.127-0.283-0.284v-3.308
			c0-0.157,0.127-0.284,0.283-0.284h2.184c0.156,0,0.283,0.127,0.283,0.284V266.559z"/>
	</g>
	<g>
		<path fill="#221F1F" d="M256.89,274.411c0,0.313-0.254,0.567-0.567,0.567h-1.615c-0.313,0-0.567-0.254-0.567-0.567v-1.616
			c0-0.313,0.254-0.567,0.567-0.567h1.615c0.313,0,0.567,0.254,0.567,0.567V274.411z"/>
		<path fill="#221F1F" d="M261.484,274.411c0,0.313-0.254,0.567-0.567,0.567h-1.615c-0.313,0-0.567-0.254-0.567-0.567v-1.616
			c0-0.313,0.254-0.567,0.567-0.567h1.615c0.313,0,0.567,0.254,0.567,0.567V274.411z"/>
		<path fill="#221F1F" d="M266.078,274.411c0,0.313-0.254,0.567-0.567,0.567h-1.615c-0.313,0-0.567-0.254-0.567-0.567v-1.616
			c0-0.313,0.254-0.567,0.567-0.567h1.615c0.313,0,0.567,0.254,0.567,0.567V274.411z"/>
		<path fill="#221F1F" d="M256.89,278.816c0,0.313-0.254,0.567-0.567,0.567h-1.615c-0.313,0-0.567-0.254-0.567-0.567v-1.615
			c0-0.313,0.254-0.567,0.567-0.567h1.615c0.313,0,0.567,0.254,0.567,0.567V278.816z"/>
		<path fill="#221F1F" d="M261.484,278.816c0,0.313-0.254,0.567-0.567,0.567h-1.615c-0.313,0-0.567-0.254-0.567-0.567v-1.615
			c0-0.313,0.254-0.567,0.567-0.567h1.615c0.313,0,0.567,0.254,0.567,0.567V278.816z"/>
		<path fill="#221F1F" d="M266.078,278.816c0,0.313-0.254,0.567-0.567,0.567h-1.615c-0.313,0-0.567-0.254-0.567-0.567v-1.615
			c0-0.313,0.254-0.567,0.567-0.567h1.615c0.313,0,0.567,0.254,0.567,0.567V278.816z"/>
	</g>
</g>
</svg>
