<?xml version="1.0" encoding="utf-8"?>
<!-- Generator: Adobe Illustrator 16.0.0, SVG Export Plug-In . SVG Version: 6.00 Build 0)  -->
<!DOCTYPE svg PUBLIC "-//W3C//DTD SVG 1.1//EN" "http://www.w3.org/Graphics/SVG/1.1/DTD/svg11.dtd">
<svg version="1.1" id="Layer_1" xmlns="http://www.w3.org/2000/svg" xmlns:xlink="http://www.w3.org/1999/xlink" x="0px" y="0px"
	 width="50.12px" height="36.29px" viewBox="0 0 50.12 36.29" enable-background="new 0 0 50.12 36.29" xml:space="preserve">
<g>
	<polygon fill="#F8E38F" points="42.838,6.43 42.838,35.39 0.9,35.39 0.9,0.9 15.369,0.9 18.759,6.43 	"/>
	<g>
		<polygon fill="#F8D290" points="45.168,12.109 42.838,20.629 39.649,32.27 0.899,32.27 0.899,20.629 4.088,8.989 42.838,8.989 
			42.838,12.109 		"/>
	</g>
	
		<polygon fill="none" stroke="#343340" stroke-width="1.8" stroke-linecap="round" stroke-linejoin="round" stroke-miterlimit="10" points="
		42.838,6.43 42.838,35.39 0.9,35.39 0.9,0.9 15.369,0.9 18.759,6.43 	"/>
	<polygon fill="#F8E38F" points="49.219,12.109 42.838,35.39 0.9,35.39 1.749,32.27 7.27,12.109 	"/>
	
		<polygon fill="none" stroke="#343340" stroke-width="1.8" stroke-linecap="round" stroke-linejoin="round" stroke-miterlimit="10" points="
		49.219,12.109 42.838,35.39 0.9,35.39 1.749,32.27 7.27,12.109 	"/>
</g>
</svg>
