<?xml version="1.0" encoding="utf-8"?>
<!-- Generator: Adobe Illustrator 16.0.0, SVG Export Plug-In . SVG Version: 6.00 Build 0)  -->
<!DOCTYPE svg PUBLIC "-//W3C//DTD SVG 1.1//EN" "http://www.w3.org/Graphics/SVG/1.1/DTD/svg11.dtd">
<svg version="1.1" id="Layer_1" xmlns="http://www.w3.org/2000/svg" xmlns:xlink="http://www.w3.org/1999/xlink" x="0px" y="0px"
	 width="22.062px" height="22.062px" viewBox="-25.63 0.47 22.062 22.062" enable-background="new -25.63 0.47 22.062 22.062"
	 xml:space="preserve">
<g>
	<path fill="#221F1F" d="M-14.599,17.096c-0.425,0-0.77-0.344-0.77-0.77V6.674c0-0.425,0.345-0.77,0.77-0.77s0.77,0.345,0.77,0.77
		v9.652C-13.83,16.752-14.174,17.096-14.599,17.096z"/>
	<path fill="#221F1F" d="M-9.772,12.27h-9.653c-0.425,0-0.77-0.344-0.77-0.769s0.345-0.77,0.77-0.77h9.653
		c0.424,0,0.77,0.345,0.77,0.77S-9.348,12.27-9.772,12.27z"/>
	<path fill="#221F1F" d="M-14.599,22.531c-6.083,0-11.031-4.947-11.031-11.03c0-6.083,4.948-11.031,11.031-11.031
		c6.083,0,11.031,4.949,11.031,11.031C-3.568,17.584-8.516,22.531-14.599,22.531z M-14.599,2.009c-5.234,0-9.492,4.258-9.492,9.492
		c0,5.233,4.258,9.491,9.492,9.491c5.233,0,9.492-4.258,9.492-9.491C-5.107,6.267-9.366,2.009-14.599,2.009z"/>
</g>
</svg>
