<?xml version="1.0" encoding="utf-8"?>
<!-- Generator: Adobe Illustrator 16.0.0, SVG Export Plug-In . SVG Version: 6.00 Build 0)  -->
<!DOCTYPE svg PUBLIC "-//W3C//DTD SVG 1.1//EN" "http://www.w3.org/Graphics/SVG/1.1/DTD/svg11.dtd">
<svg version="1.1" id="Layer_1" xmlns="http://www.w3.org/2000/svg" xmlns:xlink="http://www.w3.org/1999/xlink" x="0px" y="0px"
	 width="16.131px" height="17.402px" viewBox="0 0 16.131 17.402" enable-background="new 0 0 16.131 17.402" xml:space="preserve">
<g>
	<path d="M4.484,6.318c0-0.454,0.146-0.914,0.438-1.38C5.214,4.471,5.639,4.085,6.198,3.78C6.757,3.473,7.41,3.321,8.156,3.321
		c0.692,0,1.304,0.128,1.835,0.384c0.53,0.256,0.94,0.604,1.229,1.043s0.434,0.918,0.434,1.435c0,0.406-0.082,0.763-0.247,1.068
		s-0.361,0.569-0.588,0.792s-0.635,0.597-1.223,1.122c-0.162,0.148-0.293,0.279-0.391,0.39C9.108,9.668,9.035,9.771,8.987,9.863
		c-0.048,0.094-0.085,0.188-0.111,0.279C8.85,10.236,8.81,10.4,8.758,10.635c-0.091,0.496-0.376,0.746-0.854,0.746
		c-0.248,0-0.458-0.082-0.627-0.244c-0.17-0.162-0.255-0.404-0.255-0.725c0-0.402,0.063-0.748,0.187-1.043
		c0.124-0.294,0.289-0.552,0.495-0.775c0.205-0.222,0.482-0.485,0.831-0.792c0.306-0.268,0.527-0.47,0.664-0.606
		c0.136-0.136,0.25-0.287,0.344-0.454c0.094-0.168,0.14-0.35,0.14-0.546c0-0.382-0.142-0.705-0.427-0.968
		c-0.284-0.263-0.651-0.395-1.1-0.395c-0.526,0-0.914,0.133-1.162,0.398C6.745,5.496,6.535,5.888,6.363,6.404
		C6.2,6.945,5.892,7.214,5.438,7.214c-0.269,0-0.494-0.095-0.678-0.283C4.576,6.742,4.484,6.537,4.484,6.318z M7.983,14.176
		c-0.292,0-0.546-0.094-0.764-0.281c-0.218-0.189-0.326-0.453-0.326-0.793c0-0.301,0.105-0.555,0.315-0.76
		c0.21-0.207,0.469-0.309,0.774-0.309c0.301,0,0.555,0.102,0.76,0.309c0.206,0.205,0.309,0.459,0.309,0.76
		c0,0.334-0.107,0.598-0.322,0.789C8.514,14.082,8.266,14.176,7.983,14.176z"/>
</g>
</svg>
