<?xml version="1.0" encoding="utf-8"?>
<!-- Generator: Adobe Illustrator 25.2.2, SVG Export Plug-In . SVG Version: 6.00 Build 0)  -->
<svg version="1.1" id="레이어_1" xmlns="http://www.w3.org/2000/svg" xmlns:xlink="http://www.w3.org/1999/xlink" x="0px"
	 y="0px" viewBox="0 0 32.3 32.3" style="enable-background:new 0 0 32.3 32.3;" xml:space="preserve">
<style type="text/css">
	.st0{fill:none;stroke:#333333;stroke-width:2;stroke-linejoin:bevel;stroke-miterlimit:10;}
</style>
<g>
	<path class="st0" d="M31.3,18.7v-5L27.6,13c-0.3-0.9-0.6-1.8-1.1-2.6l2.2-3.1l-3.6-3.6L22,5.8c-0.8-0.5-1.7-0.8-2.6-1.1L18.7,1h-5
		L13,4.7C12,5,11.2,5.4,10.3,5.8L7.2,3.7L3.7,7.2l2.2,3.1C5.4,11.2,5,12,4.7,13L1,13.7v5l3.7,0.7C5,20.3,5.4,21.2,5.8,22l-2.2,3.1
		l3.6,3.6l3.1-2.2c0.8,0.5,1.7,0.8,2.6,1.1l0.7,3.7h5l0.7-3.7c0.9-0.3,1.8-0.6,2.6-1.1l3.1,2.2l3.6-3.6L26.5,22
		c0.5-0.8,0.8-1.7,1.1-2.6L31.3,18.7z"/>
	<path class="st0" d="M19.5,16.2c0,1.9-1.5,3.4-3.4,3.4c-1.9,0-3.4-1.5-3.4-3.4s1.5-3.4,3.4-3.4C18,12.8,19.5,14.3,19.5,16.2z"/>
</g>
</svg>
