<?xml version="1.0" encoding="utf-8"?>
<!-- Generator: Adobe Illustrator 25.3.1, SVG Export Plug-In . SVG Version: 6.00 Build 0)  -->
<svg version="1.1" id="레이어_1" xmlns="http://www.w3.org/2000/svg" xmlns:xlink="http://www.w3.org/1999/xlink" x="0px"
	 y="0px" viewBox="0 0 5.1 4.4" style="enable-background:new 0 0 5.1 4.4;" xml:space="preserve">
<style type="text/css">
	.st0{fill:#16315F;}
</style>
<g>
	<path class="st0" d="M0,2.8C0,1.6,0.7,0.6,1.8,0l0.4,0.7c-0.8,0.4-1.3,1.1-1.3,2l0.2,1L0.4,2.8c0.2-0.2,0.5-0.4,0.8-0.4
		c0.5,0,0.9,0.4,0.9,0.9c0,0.6-0.4,1-1,1C0.5,4.4,0,3.8,0,2.8z M2.9,2.8c0-1.2,0.7-2.2,1.8-2.8l0.4,0.7c-0.8,0.4-1.3,1.1-1.3,2
		l0.2,1L3.3,2.8c0.2-0.2,0.5-0.4,0.8-0.4C4.6,2.4,5,2.8,5,3.4c0,0.6-0.4,1-1,1C3.3,4.4,2.9,3.8,2.9,2.8z"/>
</g>
</svg>
