<?xml version="1.0" encoding="utf-8"?>
<!-- Generator: Adobe Illustrator 25.3.1, SVG Export Plug-In . SVG Version: 6.00 Build 0)  -->
<svg version="1.1" id="레이어_1" xmlns="http://www.w3.org/2000/svg" xmlns:xlink="http://www.w3.org/1999/xlink" x="0px"
	 y="0px" viewBox="0 0 63.7 52.3" style="enable-background:new 0 0 63.7 52.3;" xml:space="preserve">
<style type="text/css">
	.st0{fill:#5DA3C0;}
	.st1{fill:none;stroke:#38383B;stroke-width:2;stroke-linecap:round;stroke-linejoin:round;stroke-miterlimit:10;}
	.st2{fill:#FFFFFF;}
	.st3{clip-path:url(#SVGID_2_);fill:#DADAE0;}
	.st4{clip-path:url(#SVGID_4_);fill:#DADAE0;}
	.st5{clip-path:url(#SVGID_6_);fill:#DADAE0;}
	.st6{clip-path:url(#SVGID_8_);fill:#DADAE0;}
	.st7{fill:#E67677;}
	.st8{clip-path:url(#SVGID_10_);fill:#DADAE0;}
	.st9{clip-path:url(#SVGID_12_);fill:#DADAE0;}
</style>
<g>
	<path class="st0" d="M43.8,1C52.6,1,60,6.2,62.1,13.3c0.1,0.4,0.2,0.9,0.3,1.3c0.2,0.9,0.3,1.9,0.3,2.9c0,4.9-2.4,9.2-6.2,12.2
		c1.4,3.1,3.7,5.4,6.1,6.1c-4.5,0.3-8.6-0.9-11.2-3.3c-2.3,0.9-4.9,1.4-7.6,1.4c-10.4,0-18.9-7.4-18.9-16.5C24.9,8.4,33.4,1,43.8,1"
		/>
	<path class="st1" d="M43.8,1C52.6,1,60,6.2,62.1,13.3c0.1,0.4,0.2,0.9,0.3,1.3c0.2,0.9,0.3,1.9,0.3,2.9c0,4.9-2.4,9.2-6.2,12.2
		c1.4,3.1,3.7,5.4,6.1,6.1c-4.5,0.3-8.6-0.9-11.2-3.3c-2.3,0.9-4.9,1.4-7.6,1.4c-10.4,0-18.9-7.4-18.9-16.5C24.9,8.4,33.4,1,43.8,1z
		"/>
	<path class="st2" d="M19.9,16.4c-8.8,0-16.2,5.2-18.3,12.3c-0.1,0.4-0.2,0.9-0.3,1.3C1.1,30.9,1,31.9,1,32.9
		c0,4.9,2.4,9.2,6.2,12.2c-1.4,3.1-3.7,5.4-6.1,6.1c4.5,0.3,8.6-0.9,11.2-3.3c2.3,0.9,4.9,1.4,7.6,1.4c10.4,0,18.9-7.4,18.9-16.5
		C38.9,23.8,30.4,16.4,19.9,16.4"/>
	<path class="st1" d="M19.9,16.4c-8.8,0-16.2,5.2-18.3,12.3c-0.1,0.4-0.2,0.9-0.3,1.3C1.1,30.9,1,31.9,1,32.9
		c0,4.9,2.4,9.2,6.2,12.2c-1.4,3.1-3.7,5.4-6.1,6.1c4.5,0.3,8.6-0.9,11.2-3.3c2.3,0.9,4.9,1.4,7.6,1.4c10.4,0,18.9-7.4,18.9-16.5
		C38.9,23.8,30.4,16.4,19.9,16.4z"/>
	<path class="st1" d="M25.4,21.3c1.3,4.6,4.7,8.5,9.4,10.7"/>
	<line class="st1" x1="15.1" y1="33.8" x2="15.9" y2="33.8"/>
	<line class="st1" x1="19.3" y1="33.8" x2="20.1" y2="33.8"/>
	<line class="st1" x1="23.5" y1="33.8" x2="24.3" y2="33.8"/>
	<line class="st1" x1="39.7" y1="18.4" x2="40.5" y2="18.4"/>
	<line class="st1" x1="43.9" y1="18.4" x2="44.7" y2="18.4"/>
	<line class="st1" x1="48.1" y1="18.4" x2="48.9" y2="18.4"/>
</g>
</svg>
