<?xml version="1.0" encoding="utf-8"?>
<!-- Generator: Adobe Illustrator 25.3.1, SVG Export Plug-In . SVG Version: 6.00 Build 0)  -->
<svg version="1.1" id="레이어_1" xmlns="http://www.w3.org/2000/svg" xmlns:xlink="http://www.w3.org/1999/xlink" x="0px"
	 y="0px" viewBox="0 0 29.5 22.4" style="enable-background:new 0 0 29.5 22.4;" xml:space="preserve">
<style type="text/css">
	.st0{fill:none;stroke:#666666;stroke-width:2;stroke-linecap:round;stroke-linejoin:round;stroke-miterlimit:10;}
	.st1{fill:#666666;stroke:#666666;stroke-miterlimit:10;}
</style>
<g>
	<polyline class="st0" points="10.7,7.7 7.8,6.4 1,9.4 1,21.4 7.8,18.4 14.7,21.4 21.6,18.4 28.5,21.4 28.5,9.4 21.6,6.4 	"/>
	<line class="st0" x1="7.8" y1="6.4" x2="7.8" y2="18.4"/>
	<line class="st0" x1="14.7" y1="13.2" x2="14.7" y2="21.4"/>
	<polyline class="st0" points="18.2,7.7 21.6,6.4 21.6,18.4 	"/>
	<path class="st0" d="M19,5.3c0,2.3-4.3,7.9-4.3,7.9s-4.2-5.5-4.2-7.9C10.5,3,12.3,1,14.8,1C17.1,1.1,19,3,19,5.3"/>
	<path class="st0" d="M19,5.3c0,2.3-4.3,7.9-4.3,7.9s-4.2-5.5-4.2-7.9C10.5,3,12.3,1,14.8,1C17.1,1.1,19,3,19,5.3z"/>
	<path class="st1" d="M15.9,5.3c0,0.6-0.6,1.2-1.2,1.2s-1.2-0.6-1.2-1.2s0.6-1.2,1.2-1.2C15.4,4.2,15.9,4.7,15.9,5.3z"/>
</g>
</svg>
