<?xml version="1.0" encoding="utf-8"?>
<!-- Generator: Adobe Illustrator 25.3.1, SVG Export Plug-In . SVG Version: 6.00 Build 0)  -->
<svg version="1.1" id="레이어_1" xmlns="http://www.w3.org/2000/svg" xmlns:xlink="http://www.w3.org/1999/xlink" x="0px"
	 y="0px" viewBox="0 0 22.4 22.4" style="enable-background:new 0 0 22.4 22.4;" xml:space="preserve">
<style type="text/css">
	.st0{fill:#FFFFFF;}
	.st1{fill:none;stroke:#D0301A;stroke-width:2;stroke-linejoin:round;}
</style>
<g>
	<g>
		<path class="st0" d="M17.3,11.1L17,11.3c1-0.2,2.1-0.6,2.9-1.5c2-2,2-5.3,0-7.4c-2-2-5.3-2-7.4,0c-0.8,0.8-1.3,1.8-1.5,2.9
			l0.2-0.3L17.3,11.1z"/>
		<polygon class="st0" points="11.3,5.1 11,5.4 9.5,7.3 8,9.4 2.5,16.8 5.6,19.9 13,14.3 15,12.8 17,11.3 17.3,11.1 		"/>
	</g>
	<line class="st0" x1="4.1" y1="18.3" x2="0.7" y2="21.6"/>
</g>
<g>
	<g>
		<path class="st1" d="M17.3,11.1L17,11.3c1-0.2,2.1-0.6,2.9-1.5c2-2,2-5.3,0-7.4c-2-2-5.3-2-7.4,0c-0.8,0.8-1.3,1.8-1.5,2.9
			l0.2-0.3L17.3,11.1z"/>
		<polygon class="st1" points="11.3,5.1 11,5.4 9.5,7.3 8,9.4 2.5,16.8 5.6,19.9 13,14.3 15,12.8 17,11.3 17.3,11.1 		"/>
	</g>
	<line class="st1" x1="4.1" y1="18.3" x2="0.7" y2="21.6"/>
</g>
</svg>
