<?xml version="1.0" encoding="utf-8"?>
<!-- Generator: Adobe Illustrator 25.2.2, SVG Export Plug-In . SVG Version: 6.00 Build 0)  -->
<svg version="1.1" id="레이어_1" xmlns="http://www.w3.org/2000/svg" xmlns:xlink="http://www.w3.org/1999/xlink" x="0px"
	 y="0px" viewBox="0 0 145.37 112.45" style="enable-background:new 0 0 145.37 112.45;" xml:space="preserve">
<style type="text/css">
	.st0{fill:none;stroke:#343231;stroke-width:9;stroke-linecap:round;stroke-linejoin:round;stroke-miterlimit:10;}
</style>
<g>
	<polygon class="st0" points="125.77,81.05 40.25,81.05 26.53,19.09 139.49,19.09 	"/>
	<polygon class="st0" points="125.77,81.05 40.25,81.05 26.53,19.09 139.49,19.09 	"/>
	<polyline class="st0" points="40.25,81.05 23.48,5.32 5.88,5.32 	"/>
	<polyline class="st0" points="40.25,81.05 23.48,5.32 5.88,5.32 	"/>
	<path class="st0" d="M56.03,99.25c0,4.36-3.53,7.9-7.9,7.9c-4.35,0-7.89-3.53-7.89-7.9c0-4.36,3.53-7.9,7.89-7.9
		C52.5,91.35,56.03,94.88,56.03,99.25"/>
	<path class="st0" d="M56.03,99.25c0,4.36-3.53,7.9-7.9,7.9c-4.35,0-7.89-3.53-7.89-7.9c0-4.36,3.53-7.9,7.89-7.9
		C52.5,91.35,56.03,94.88,56.03,99.25z"/>
	<path class="st0" d="M110.43,99.25c0,4.36,3.53,7.9,7.89,7.9s7.9-3.53,7.9-7.9c0-4.36-3.53-7.9-7.9-7.9
		C113.96,91.35,110.43,94.88,110.43,99.25"/>
	<path class="st0" d="M110.43,99.25c0,4.36,3.53,7.9,7.89,7.9s7.9-3.53,7.9-7.9c0-4.36-3.53-7.9-7.9-7.9
		C113.96,91.35,110.43,94.88,110.43,99.25z"/>
	<line class="st0" x1="83" y1="35.43" x2="83" y2="65.32"/>
	<line class="st0" x1="83" y1="35.43" x2="83" y2="65.32"/>
	<line class="st0" x1="58.04" y1="35.43" x2="61.62" y2="65.32"/>
	<line class="st0" x1="58.04" y1="35.43" x2="61.62" y2="65.32"/>
	<line class="st0" x1="107.97" y1="35.43" x2="104.39" y2="65.32"/>
	<line class="st0" x1="107.97" y1="35.43" x2="104.39" y2="65.32"/>
</g>
</svg>
