<?xml version="1.0" encoding="utf-8"?>
<!-- Generator: Adobe Illustrator 25.2.2, SVG Export Plug-In . SVG Version: 6.00 Build 0)  -->
<svg version="1.1" id="레이어_1" xmlns="http://www.w3.org/2000/svg" xmlns:xlink="http://www.w3.org/1999/xlink" x="0px"
	 y="0px" viewBox="0 0 24.1 28.8" style="enable-background:new 0 0 24.1 28.8;" xml:space="preserve">
<style type="text/css">
	.st0{fill:#FFFFFF;}
	.st1{fill:none;stroke:#333333;stroke-width:1.5;stroke-linecap:round;stroke-linejoin:round;stroke-miterlimit:10;}
	.st2{fill:#D5D6D5;}
</style>
<g>
	<rect x="0.8" y="10.2" class="st0" width="22.6" height="17.9"/>
	<rect x="0.8" y="10.2" class="st1" width="22.6" height="17.9"/>
	<path class="st2" d="M14.1,17.3c0,1.1-0.9,2-2,2c-1.1,0-2-0.9-2-2c0-1.1,0.9-2,2-2C13.2,15.3,14.1,16.2,14.1,17.3"/>
	<path class="st1" d="M14.1,17.3c0,1.1-0.9,2-2,2c-1.1,0-2-0.9-2-2c0-1.1,0.9-2,2-2C13.2,15.3,14.1,16.2,14.1,17.3z"/>
	<line class="st0" x1="12.1" y1="19.4" x2="12.1" y2="24"/>
	<line class="st1" x1="12.1" y1="19.4" x2="12.1" y2="24"/>
	<path class="st0" d="M18.4,10.2H5.7V4.6c0-2.1,1.7-3.8,3.8-3.8h5c2.1,0,3.8,1.7,3.8,3.8V10.2z"/>
	<path class="st1" d="M18.4,10.2H5.7V4.6c0-2.1,1.7-3.8,3.8-3.8h5c2.1,0,3.8,1.7,3.8,3.8V10.2z"/>
</g>
</svg>
