<?xml version="1.0" encoding="utf-8"?>
<!-- Generator: Adobe Illustrator 25.3.1, SVG Export Plug-In . SVG Version: 6.00 Build 0)  -->
<svg version="1.1" id="레이어_1" xmlns="http://www.w3.org/2000/svg" xmlns:xlink="http://www.w3.org/1999/xlink" x="0px"
	 y="0px" viewBox="0 0 39.9 36.9" style="enable-background:new 0 0 39.9 36.9;" xml:space="preserve">
<style type="text/css">
	.st0{fill:none;stroke:#FFFFFF;stroke-width:2;stroke-linecap:round;stroke-linejoin:round;stroke-miterlimit:10;}
</style>
<g>
	<path class="st0" d="M19.9,1c8.8,0,16.2,5.2,18.3,12.3c0.1,0.4,0.2,0.9,0.3,1.3c0.2,0.9,0.3,1.9,0.3,2.9c0,4.9-2.4,9.2-6.2,12.2
		c1.4,3.1,3.7,5.4,6.1,6.1c-4.5,0.3-8.6-0.9-11.2-3.3c-2.3,0.9-4.9,1.4-7.6,1.4C9.5,33.9,1,26.6,1,17.5S9.5,1,19.9,1z"/>
	<line class="st0" x1="21.4" y1="18.4" x2="18.5" y2="18.4"/>
	<line class="st0" x1="13" y1="18.4" x2="10" y2="18.4"/>
	<line class="st0" x1="30.2" y1="18.4" x2="27.2" y2="18.4"/>
</g>
</svg>
