<?xml version="1.0" encoding="utf-8"?>
<!-- Generator: Adobe Illustrator 16.0.0, SVG Export Plug-In . SVG Version: 6.00 Build 0)  -->
<!DOCTYPE svg PUBLIC "-//W3C//DTD SVG 1.1//EN" "http://www.w3.org/Graphics/SVG/1.1/DTD/svg11.dtd">
<svg version="1.1" id="Layer_1" xmlns="http://www.w3.org/2000/svg" xmlns:xlink="http://www.w3.org/1999/xlink" x="0px" y="0px"
	 width="17.352px" height="17.352px" viewBox="-1.679 18.564 17.352 17.352" enable-background="new -1.679 18.564 17.352 17.352"
	 xml:space="preserve">
<g>
	<path fill="#221F1F" d="M14.923,24.746c-0.414,0-0.75-0.336-0.75-0.75v-3.874h-3.9c-0.414,0-0.75-0.336-0.75-0.75
		s0.336-0.75,0.75-0.75h4.65c0.414,0,0.75,0.336,0.75,0.75v4.624C15.673,24.41,15.337,24.746,14.923,24.746z"/>
	<path fill="#221F1F" d="M10.413,24.632c-0.191,0-0.383-0.074-0.529-0.221c-0.293-0.293-0.293-0.768,0-1.061l3.977-3.977
		c0.293-0.293,0.768-0.293,1.061,0s0.293,0.768,0,1.061l-3.977,3.977C10.798,24.558,10.606,24.632,10.413,24.632z"/>
	<path fill="#221F1F" d="M-0.872,24.715c-0.414,0-0.75-0.336-0.75-0.75v-4.651c0-0.414,0.336-0.75,0.75-0.75h4.623
		c0.414,0,0.75,0.336,0.75,0.75s-0.336,0.75-0.75,0.75h-3.873v3.901C-0.122,24.379-0.458,24.715-0.872,24.715z"/>
	<path fill="#221F1F" d="M3.64,24.573c-0.191,0-0.384-0.073-0.53-0.22l-3.979-3.977c-0.293-0.293-0.293-0.768,0-1.061
		c0.292-0.293,0.768-0.295,1.061,0l3.979,3.977c0.293,0.293,0.293,0.768,0,1.061C4.024,24.5,3.833,24.573,3.64,24.573z"/>
	<path fill="#221F1F" d="M3.721,35.859h-4.65c-0.414,0-0.75-0.336-0.75-0.75v-4.625c0-0.414,0.336-0.75,0.75-0.75
		s0.75,0.336,0.75,0.75v3.875h3.9c0.414,0,0.75,0.336,0.75,0.75S4.135,35.859,3.721,35.859z"/>
	<path fill="#221F1F" d="M-0.398,35.326c-0.192,0-0.384-0.073-0.53-0.22c-0.293-0.293-0.293-0.768,0-1.061l3.978-3.978
		c0.293-0.293,0.768-0.293,1.061,0s0.293,0.768,0,1.061l-3.978,3.978C-0.014,35.252-0.206,35.326-0.398,35.326z"/>
	<path fill="#221F1F" d="M14.864,35.916h-4.623c-0.414,0-0.75-0.336-0.75-0.75s0.336-0.75,0.75-0.75h3.873v-3.9
		c0-0.414,0.336-0.75,0.75-0.75s0.75,0.336,0.75,0.75v4.65C15.614,35.58,15.278,35.916,14.864,35.916z"/>
	<path fill="#221F1F" d="M14.333,35.384c-0.191,0-0.385-0.072-0.531-0.219l-3.979-3.978c-0.293-0.292-0.293-0.768,0-1.061
		c0.293-0.292,0.768-0.294,1.061,0l3.979,3.978c0.293,0.292,0.293,0.768,0,1.061C14.716,35.312,14.524,35.384,14.333,35.384z"/>
</g>
</svg>
