<?xml version="1.0" encoding="utf-8"?>
<!-- Generator: Adobe Illustrator 25.3.1, SVG Export Plug-In . SVG Version: 6.00 Build 0)  -->
<svg version="1.1" id="레이어_1" xmlns="http://www.w3.org/2000/svg" xmlns:xlink="http://www.w3.org/1999/xlink" x="0px"
	 y="0px" viewBox="0 0 57.7 60.9" style="enable-background:new 0 0 57.7 60.9;" xml:space="preserve">
<style type="text/css">
	.st0{fill:#5DA3C0;}
	.st1{fill:none;stroke:#38383B;stroke-width:2;stroke-linecap:round;stroke-linejoin:round;stroke-miterlimit:10;}
	.st2{fill:#FFFFFF;}
	.st3{clip-path:url(#SVGID_2_);fill:#DADAE0;}
	.st4{clip-path:url(#SVGID_4_);fill:#DADAE0;}
	.st5{clip-path:url(#SVGID_6_);fill:#DADAE0;}
	.st6{clip-path:url(#SVGID_8_);fill:#DADAE0;}
	.st7{fill:#E67677;}
	.st8{clip-path:url(#SVGID_10_);fill:#DADAE0;}
	.st9{clip-path:url(#SVGID_12_);fill:#DADAE0;}
</style>
<g>
	<g>
		<g>
			<defs>
				<rect id="SVGID_9_" x="14.2" y="49" width="33.6" height="12"/>
			</defs>
			<clipPath id="SVGID_2_">
				<use xlink:href="#SVGID_9_"  style="overflow:visible;"/>
			</clipPath>
			<path class="st3" d="M47.8,54.9c0,3.3-7.5,6-16.8,6c-9.3,0-16.8-2.7-16.8-6c0-3.3,7.5-6,16.8-6C40.3,49,47.8,51.6,47.8,54.9"/>
		</g>
	</g>
	<path class="st1" d="M14.7,11.3c-1.3-1.9-3.1-3.7-5.4-4.2c-3.2-0.7-6.6,1.4-7.8,4.5c-1.2,3.1-0.3,6.7,1.7,9.2c2,2.6,5.1,4.2,8.2,5
		c1.6,0.4,3.3,0.7,4.4,2c1,1.1,1.2,2.8,0.4,4.1c-0.7,1.3-2.3,2-3.7,1.8c-1-0.2-2.1-1-2.1-2c-0.1-1.1,1.2-2,2.1-1.4"/>
	<path class="st1" d="M43,11.3c1.3-1.9,3.1-3.7,5.4-4.2c3.2-0.7,6.6,1.4,7.8,4.5c1.2,3.1,0.3,6.7-1.7,9.2c-2,2.6-5.1,4.2-8.2,5
		c-1.6,0.4-3.3,0.7-4.4,2c-1,1.1-1.2,2.8-0.4,4.1c0.7,1.3,2.3,2,3.7,1.8c1-0.2,2.1-1,2.1-2c0.1-1.1-1.2-2-2.1-1.4"/>
	<path class="st2" d="M36.1,33.6c3.7-2.1,6.3-5.8,7.1-10.2l3.2-19.1h-35l3.2,19.1c0.7,4.4,3.4,8.1,7.1,10.2c2.2,1.3,3.6,3.6,3.6,6.1
		c0,2.5-1.3,4.9-3.6,6.1c-1.5,0.8-2.7,2-3.5,3.5L16,53.2c-0.3,0.3-0.4,0.5-0.4,0.8c0,1.8,5.9,3.2,13.3,3.2c7.3,0,13.3-1.5,13.3-3.2
		c0-0.3-0.2-0.5-0.4-0.8l-2.1-3.9c-0.8-1.5-2.1-2.8-3.5-3.5c-2.2-1.2-3.6-3.6-3.6-6.1C32.5,37.1,33.9,34.9,36.1,33.6"/>
	<path class="st1" d="M36.1,33.6c3.7-2.1,6.3-5.8,7.1-10.2l3.2-19.1h-35l3.2,19.1c0.7,4.4,3.4,8.1,7.1,10.2c2.2,1.3,3.6,3.6,3.6,6.1
		c0,2.5-1.3,4.9-3.6,6.1c-1.5,0.8-2.7,2-3.5,3.5L16,53.2c-0.3,0.3-0.4,0.5-0.4,0.8c0,1.8,5.9,3.2,13.3,3.2c7.3,0,13.3-1.5,13.3-3.2
		c0-0.3-0.2-0.5-0.4-0.8l-2.1-3.9c-0.8-1.5-2.1-2.8-3.5-3.5c-2.2-1.2-3.6-3.6-3.6-6.1C32.5,37.1,33.9,34.9,36.1,33.6z"/>
	<polygon class="st0" points="28.9,13.4 31,17.8 35.8,18.5 32.3,21.9 33.2,26.7 28.9,24.4 24.5,26.7 25.4,21.9 21.9,18.5 26.7,17.8 
			"/>
	<polygon class="st1" points="28.9,13.4 31,17.8 35.8,18.5 32.3,21.9 33.2,26.7 28.9,24.4 24.5,26.7 25.4,21.9 21.9,18.5 26.7,17.8 
			"/>
	<g>
		<g>
			<defs>
				<rect id="SVGID_11_" x="28.9" y="4.2" width="17.5" height="53"/>
			</defs>
			<clipPath id="SVGID_4_">
				<use xlink:href="#SVGID_11_"  style="overflow:visible;"/>
			</clipPath>
			<path class="st4" d="M32.5,39.7c0,2.5,1.3,4.9,3.6,6.1c1.5,0.8,2.7,2,3.5,3.5l2.1,3.9c0.3,0.3,0.4,0.5,0.4,0.8
				c0,1.8-5.9,3.2-13.3,3.2c4.5,0,8.2-1.5,8.2-3.2c0-0.3-0.1-0.5-0.3-0.8l-1.3-3.9c-0.5-1.5-1.3-2.8-2.2-3.5
				c-1.4-1.2-2.2-3.6-2.2-6.1s0.9-4.8,2.2-6.1c2.3-2.1,3.9-5.8,4.4-10.2l1.9-19.1h6.7l-3.2,19.1c-0.7,4.4-3.4,8.1-7.1,10.2
				C33.9,34.9,32.5,37.1,32.5,39.7"/>
		</g>
	</g>
	<path class="st2" d="M46.3,4.2c0,1.8-7.8,3.2-17.5,3.2c-9.7,0-17.5-1.5-17.5-3.2c0-1.8,7.8-3.2,17.5-3.2C38.5,1,46.3,2.5,46.3,4.2"
		/>
	<path class="st1" d="M46.3,4.2c0,1.8-7.8,3.2-17.5,3.2c-9.7,0-17.5-1.5-17.5-3.2c0-1.8,7.8-3.2,17.5-3.2C38.5,1,46.3,2.5,46.3,4.2z
		"/>
</g>
</svg>
