<?xml version="1.0" encoding="utf-8"?>
<!-- Generator: Adobe Illustrator 25.3.1, SVG Export Plug-In . SVG Version: 6.00 Build 0)  -->
<svg version="1.1" id="레이어_1" xmlns="http://www.w3.org/2000/svg" xmlns:xlink="http://www.w3.org/1999/xlink" x="0px"
	 y="0px" viewBox="0 0 30 30.3" style="enable-background:new 0 0 30 30.3;" xml:space="preserve">
<style type="text/css">
	.st0{fill:none;stroke:#FFFFFF;stroke-width:3;stroke-linecap:round;stroke-linejoin:round;stroke-miterlimit:10;}
	.st1{fill:none;stroke:#FFFFFF;stroke-width:2.5;stroke-linecap:round;stroke-linejoin:round;stroke-miterlimit:10;}
</style>
<g>
	<line class="st0" x1="10.5" y1="17.5" x2="19.5" y2="22.1"/>
	<path class="st1" d="M10.5,14.4c0.4,2.9-1.9,5.3-4.6,5.3c-2.6,0-4.6-2.1-4.6-4.6c0-3.1,3.2-5.6,6.4-4.2
		C9.2,11.5,10.2,12.9,10.5,14.4z"/>
	<path class="st1" d="M28.7,5.9c0,2.6-2.1,4.6-4.6,4.6c-2.6,0-4.6-2.1-4.6-4.6s2.1-4.6,4.6-4.6C26.6,1.2,28.7,3.3,28.7,5.9z"/>
	<path class="st1" d="M28.7,23.7c0.4,2.9-1.9,5.3-4.6,5.3c-2.6,0-4.6-2.1-4.6-4.6c0-3.1,3.2-5.6,6.4-4.2
		C27.4,20.8,28.4,22.2,28.7,23.7z"/>
	<line class="st0" x1="10.7" y1="12.7" x2="19.5" y2="8.2"/>
</g>
</svg>
