<?xml version="1.0" encoding="utf-8"?>
<!-- Generator: Adobe Illustrator 16.0.0, SVG Export Plug-In . SVG Version: 6.00 Build 0)  -->
<!DOCTYPE svg PUBLIC "-//W3C//DTD SVG 1.1//EN" "http://www.w3.org/Graphics/SVG/1.1/DTD/svg11.dtd">
<svg version="1.1" id="Layer_1" xmlns="http://www.w3.org/2000/svg" xmlns:xlink="http://www.w3.org/1999/xlink" x="0px" y="0px"
	 width="24.166px" height="24.165px" viewBox="0 0 24.166 24.165" enable-background="new 0 0 24.166 24.165" xml:space="preserve">
<path fill="#FFFFFF" d="M2.097,23.588c-0.84,0-1.523-0.685-1.523-1.521V2.099c0-0.84,0.684-1.522,1.523-1.522h19.966
	c0.84,0,1.522,0.683,1.522,1.522v19.968c0,0.84-0.685,1.521-1.522,1.521H2.097z"/>
<path d="M22.063,0H2.096c-1.158,0-2.1,0.941-2.1,2.099v19.968c0,1.156,0.942,2.098,2.1,2.098h19.966
	c1.159,0,2.102-0.941,2.102-2.098V2.099C24.162,0.942,23.219,0,22.063,0z M22.063,23.01H2.096c-0.522,0-0.947-0.424-0.947-0.945
	V2.099c0-0.521,0.425-0.946,0.947-0.946l19.966-0.002c0.522,0,0.947,0.425,0.947,0.946v19.968
	C23.01,22.586,22.585,23.01,22.063,23.01z"/>
<path d="M19.432,12.083c0,0.742-0.602,1.344-1.344,1.344H6.072c-0.742,0-1.344-0.602-1.344-1.344l0,0
	c0-0.742,0.602-1.344,1.344-1.344h12.016C18.83,10.739,19.432,11.34,19.432,12.083L19.432,12.083z"/>
</svg>
