<?xml version="1.0" encoding="utf-8"?>
<!-- Generator: Adobe Illustrator 25.2.2, SVG Export Plug-In . SVG Version: 6.00 Build 0)  -->
<svg version="1.1" id="레이어_1" xmlns="http://www.w3.org/2000/svg" xmlns:xlink="http://www.w3.org/1999/xlink" x="0px"
	 y="0px" viewBox="0 0 249 35.7" style="enable-background:new 0 0 249 35.7;" xml:space="preserve">
<style type="text/css">
	.st0{fill:#FFFFFF;}
</style>
<g>
	<path class="st0" d="M155,17.8c0,3.6-0.1,6.7-0.4,8.2c-0.5,2.7-1.1,4.3-2.9,6c-2.8,2.7-6.5,3.6-10.6,3.6c-4.1,0-7.7-0.9-10.5-3.6
		c-1.8-1.7-2.4-3.3-2.9-6c-0.3-1.5-0.4-4.6-0.4-8.2c0-3.6,0.1-6.8,0.4-8.3c0.5-2.6,1.1-4.2,2.9-5.9C133.4,0.9,137,0,141.1,0
		c4,0,7.7,0.9,10.6,3.7c1.8,1.7,2.4,3.3,2.9,5.9C154.8,11,155,14.3,155,17.8 M141.1,7.3c-2.9,0-5.6,1.7-5.6,5.7v4.8v4.5
		c0,4.9,3.4,5.8,5.6,5.8c2.1,0,5.6-0.9,5.6-5.8v-4.5V13C146.7,9,144,7.3,141.1,7.3"/>
	<polygon class="st0" points="128.1,35.4 118.7,35.4 110.3,20.7 106.3,25.5 106.3,35.4 98.2,35.4 98.2,0.3 106.3,0.3 106.3,14.1 
		117.9,0.3 127.4,0.3 115.7,14.4 	"/>
	<path class="st0" d="M187.6,35.4h-8.8l-5.2-13h-5v13h-8.2V0.2h15.9c4.4,0,10.7,2.8,10.7,10.9c0,4.6-2.2,7.6-5.8,9.9L187.6,35.4z
		 M178.7,11.4c0-3.4-2.7-3.9-3.9-3.9h-6.3v7.8h6.3C176,15.3,178.7,14.9,178.7,11.4"/>
	<polygon class="st0" points="215.8,35.4 191.3,35.4 191.3,0.3 216,0.3 216,7.4 199.4,7.4 199.4,14.1 213.6,14.1 213.6,21.3 
		199.4,21.3 199.4,28 215.8,28 	"/>
	<path class="st0" d="M249,35.4h-8.6l-2.3-7h-11.1l-2.2,7h-8.7l12.2-35.1h8.5L249,35.4z M236.1,21.7l-3.5-12.3l-3.7,12.3L236.1,21.7
		z"/>
	<path class="st0" d="M60.7,17.8c0,3.6-0.1,6.7-0.4,8.2c-0.5,2.7-1.2,4.3-2.9,6c-2.8,2.7-6.5,3.6-10.6,3.6c-4.1,0-7.7-0.9-10.5-3.6
		c-1.8-1.7-2.4-3.3-2.9-6c-0.3-1.5-0.4-4.6-0.4-8.2c0-3.6,0.1-6.8,0.4-8.3c0.5-2.6,1.2-4.2,2.9-5.9C39.1,0.9,42.8,0,46.9,0
		c4.1,0,7.7,0.9,10.6,3.7c1.8,1.7,2.5,3.3,2.9,5.9C60.6,11,60.7,14.3,60.7,17.8 M46.9,7.3c-2.9,0-5.6,1.7-5.6,5.7v4.8v4.5
		c0,4.9,3.4,5.8,5.6,5.8c2.1,0,5.6-0.9,5.6-5.8v-4.5V13C52.4,9,49.8,7.3,46.9,7.3"/>
	<path class="st0" d="M93.4,25c0,3.3-1.2,6.1-3.3,7.9c-2.1,1.8-4.6,2.4-7.9,2.4H66.3V0.3h15.1c3.7,0,6.4,0.4,8.4,2.2
		c2,1.8,3,4.2,3,7.3c0,2.9-1.6,5.6-4.2,7C91.6,18.4,93.4,21.7,93.4,25 M84.5,10.5c0-1.8-1.4-3-3.6-3h-6.7v6.2h6.4
		C83.4,13.7,84.5,12.4,84.5,10.5 M84.8,24.4c0-2.4-1.5-3.7-3.6-3.7h-6.9V28H81C83.7,28,84.8,26.5,84.8,24.4"/>
	<path class="st0" d="M19.3,0.3v17.4h0v4.5c0,4.2-2.6,5.5-4.7,5.7C14.3,28,14,28,13.7,28c-2.1,0-5.6-0.9-5.6-5.8v-0.9H0
		c0.1,1.9,0.2,3.5,0.3,4.5c0.5,2.7,1.2,4.3,2.9,6c2.8,2.7,6.4,3.6,10.5,3.6c0.3,0,0.6,0,0.9,0c1.5-0.1,2.8-0.2,4.2-0.6
		c1.7-0.4,3.2-1.1,4.7-2.2c2.9-2.3,4.1-4.9,4.1-9.4V0.3H19.3z"/>
</g>
</svg>
