<?xml version="1.0" encoding="utf-8"?>
<!-- Generator: Adobe Illustrator 25.2.2, SVG Export Plug-In . SVG Version: 6.00 Build 0)  -->
<svg version="1.1" id="레이어_1" xmlns="http://www.w3.org/2000/svg" xmlns:xlink="http://www.w3.org/1999/xlink" x="0px"
	 y="0px" viewBox="0 0 224.8 52.9" style="enable-background:new 0 0 224.8 52.9;" xml:space="preserve">
<style type="text/css">
	.st0{fill:#05141F;}
</style>
<g>
	<g>
		<path class="st0" d="M130.5,46.8c0,0.4,0.1,0.7,0.4,0.7c0.2,0,0.3-0.1,0.5-0.2l70.1-45.5c1.2-0.8,2.4-1.2,4-1.2h15.4
			c2.4,0,4,1.6,4,4v29.4c0,3.6-0.8,5.6-3.9,7.5l-18.7,11.2c-0.2,0.2-0.4,0.2-0.6,0.2c-0.2,0-0.4-0.2-0.4-0.8l0-34.3
			c0-0.4-0.1-0.7-0.4-0.7c-0.2,0-0.3,0.1-0.5,0.2L149,50.6c-1.4,0.9-2.6,1.2-3.9,1.2h-34c-2.4,0-3.9-1.6-3.9-4l0-42.4
			c0-0.3-0.1-0.6-0.4-0.6c-0.2,0-0.3,0.1-0.6,0.2L72.4,25.3c-0.3,0.2-0.4,0.4-0.4,0.5c0,0.1,0.1,0.3,0.3,0.5l24.1,24.1
			c0.3,0.3,0.5,0.6,0.5,0.8c0,0.3-0.4,0.4-0.8,0.4H74.4c-1.7,0-3-0.3-4-1.2L55.8,35.9c-0.1-0.1-0.3-0.2-0.4-0.2
			c-0.1,0-0.3,0.1-0.5,0.2L30.4,50.6c-1.5,0.9-2.5,1.2-4,1.2H3.9c-2.4,0-3.9-1.6-3.9-4V18.9c0-3.6,0.8-5.6,4-7.5L22.7,0.2
			C22.9,0,23.1,0,23.3,0c0.3,0,0.4,0.3,0.4,0.9v38.6c0,0.4,0.1,0.6,0.4,0.6c0.2,0,0.3-0.1,0.6-0.2L88.1,1.7c1.5-0.9,2.4-1.2,4.2-1.2
			h34.2c2.4,0,4,1.6,4,4V46.8z"/>
	</g>
</g>
</svg>
