<?xml version="1.0" encoding="utf-8"?>
<!-- Generator: Adobe Illustrator 25.2.2, SVG Export Plug-In . SVG Version: 6.00 Build 0)  -->
<svg version="1.1" id="레이어_1" xmlns="http://www.w3.org/2000/svg" xmlns:xlink="http://www.w3.org/1999/xlink" x="0px"
	 y="0px" viewBox="0 0 109.5 83" style="enable-background:new 0 0 109.5 83;" xml:space="preserve">
<style type="text/css">
	.st0{fill:#ABC5E3;stroke:#38393A;stroke-width:3.5;stroke-linecap:round;stroke-linejoin:round;}
	.st1{fill:#FFFFFF;stroke:#38393A;stroke-width:3.5;stroke-linecap:round;stroke-linejoin:round;}
	.st2{fill:none;stroke:#38393A;stroke-width:3.5;stroke-linecap:round;stroke-linejoin:round;}
	.st3{fill:#FFFFFF;stroke:#38383B;stroke-width:3.5;stroke-linecap:round;stroke-linejoin:round;stroke-miterlimit:10;}
	.st4{fill:none;stroke:#38383B;stroke-width:3.5;stroke-linecap:round;stroke-linejoin:round;stroke-miterlimit:10;}
	.st5{fill:#ABC5E3;stroke:#365587;stroke-width:3.5;stroke-linecap:round;stroke-linejoin:round;}
	.st6{fill:#DADAE0;}
	.st7{fill:#FFFFFF;}
</style>
<g>
	<g>
		<path class="st0" d="M27.9,7.9c0,3.4-2.8,6.2-6.2,6.2s-6.2-2.8-6.2-6.2c0-3.4,2.8-6.2,6.2-6.2S27.9,4.5,27.9,7.9z"/>
		<path class="st3" d="M9,42.4v-19c0-3.4,2.8-6.2,6.2-6.2h12.9c3.4,0,6.2,2.8,6.2,6.2v19"/>
		<polyline class="st3" points="14.3,28.6 14.3,77.6 21.5,77.6 21.5,52.3 21.5,77.6 28.8,77.6 28.8,28.6 		"/>
		<path class="st0" d="M62.2,7.9c0,3.4-2.8,6.2-6.2,6.2c-3.4,0-6.2-2.8-6.2-6.2c0-3.4,2.8-6.2,6.2-6.2C59.4,1.8,62.2,4.5,62.2,7.9z"
			/>
		<path class="st3" d="M43.3,42.4v-19c0-3.4,2.8-6.2,6.2-6.2h12.9c3.4,0,6.2,2.8,6.2,6.2v19"/>
		<polyline class="st3" points="48.6,28.6 48.6,77.6 55.8,77.6 55.8,52.3 55.8,77.6 63.1,77.6 63.1,28.6 		"/>
		<path class="st0" d="M96.5,7.9c0,3.4-2.8,6.2-6.2,6.2c-3.4,0-6.2-2.8-6.2-6.2c0-3.4,2.8-6.2,6.2-6.2C93.7,1.8,96.5,4.5,96.5,7.9z"
			/>
		<path class="st3" d="M77.6,42.4v-19c0-3.4,2.8-6.2,6.2-6.2h12.9c3.4,0,6.2,2.8,6.2,6.2v19"/>
		<polyline class="st3" points="82.9,28.6 82.9,77.6 90.1,77.6 90.1,52.3 90.1,77.6 97.4,77.6 97.4,28.6 		"/>
	</g>
	<rect x="1.8" y="38.3" class="st3" width="106" height="43"/>
</g>
</svg>
