<?xml version="1.0" encoding="utf-8"?>
<!-- Generator: Adobe Illustrator 25.2.2, SVG Export Plug-In . SVG Version: 6.00 Build 0)  -->
<svg version="1.1" id="레이어_1" xmlns="http://www.w3.org/2000/svg" xmlns:xlink="http://www.w3.org/1999/xlink" x="0px"
	 y="0px" viewBox="0 0 125.9 110.4" style="enable-background:new 0 0 125.9 110.4;" xml:space="preserve">
<style type="text/css">
	.st0{fill:#ABC5E3;stroke:#38393A;stroke-width:3.5;stroke-linecap:round;stroke-linejoin:round;}
	.st1{fill:#FFFFFF;stroke:#38393A;stroke-width:3.5;stroke-linecap:round;stroke-linejoin:round;}
	.st2{fill:none;stroke:#38393A;stroke-width:3.5;stroke-linecap:round;stroke-linejoin:round;}
	.st3{fill:#FFFFFF;stroke:#38383B;stroke-width:3.5;stroke-linecap:round;stroke-linejoin:round;stroke-miterlimit:10;}
	.st4{fill:none;stroke:#38383B;stroke-width:3.5;stroke-linecap:round;stroke-linejoin:round;stroke-miterlimit:10;}
	.st5{fill:#ABC5E3;stroke:#365587;stroke-width:3.5;stroke-linecap:round;stroke-linejoin:round;}
	.st6{fill:#DADAE0;}
	.st7{fill:#FFFFFF;}
</style>
<g>
	<g>
		<g>
			<rect x="1.8" y="36.5" class="st0" width="102.9" height="56.2"/>
			<g>
				<g>
					<path class="st1" d="M97.6,30.9h-36c-4.7,0-8.4,3.8-8.4,8.4v58.1c0-4.7,3.8-8.4,8.4-8.4h36c0.2,0,0.4,0,0.6,0V31
						C98,30.9,97.8,30.9,97.6,30.9z"/>
				</g>
				<g>
					<path class="st1" d="M8.8,30.9h36c4.7,0,8.4,3.8,8.4,8.4v58.1c0-4.7-3.8-8.4-8.4-8.4h-36c-0.2,0-0.4,0-0.6,0V31
						C8.4,30.9,8.6,30.9,8.8,30.9z"/>
				</g>
				<g>
					<path class="st1" d="M13.4,23.2l32.2,7.7c4.9,1.9,7.6,3.8,7.6,8.4v58.1c0-4.7-3.1-6.2-7.6-8.4l-32.2-7.7
						c-0.2,0-0.3-2.8-0.5-2.8V23.2C13.1,23.2,13.3,23.2,13.4,23.2z"/>
				</g>
				<g>
					<path class="st1" d="M19.5,20.4l27.3,10.5c4.1,1.9,6.4,3.8,6.4,8.4v58.1c0-4.7-2.6-6.2-6.4-8.4L19.5,78.5c-0.1,0-0.3,0-0.4,0
						V20.4C19.3,20.4,19.4,20.4,19.5,20.4z"/>
				</g>
			</g>
			<line class="st2" x1="69.4" y1="44.4" x2="90.2" y2="44.4"/>
			<line class="st2" x1="69.4" y1="54" x2="90.2" y2="54"/>
			<line class="st2" x1="69.4" y1="63.5" x2="90.2" y2="63.5"/>
			<line class="st2" x1="69.4" y1="73.1" x2="90.2" y2="73.1"/>
		</g>
		<line class="st1" x1="27.6" y1="35.6" x2="44.7" y2="42.2"/>
		<line class="st1" x1="27.6" y1="44.6" x2="44.7" y2="51.2"/>
		<line class="st1" x1="27.6" y1="53.6" x2="44.7" y2="60.2"/>
		<line class="st1" x1="27.6" y1="62.6" x2="44.7" y2="69.2"/>
	</g>
	<g>
		
			<rect x="87.4" y="72.6" transform="matrix(0.7071 -0.7072 0.7072 0.7071 -28.5897 98.2779)" class="st1" width="33.9" height="22.2"/>
		<g>
			<polygon class="st1" points="100.2,103.5 92.3,95.6 84.5,87.8 81.2,101.2 86.8,106.8 			"/>
			<polygon class="st1" points="86.8,106.8 81.2,101.2 79.3,108.7 			"/>
		</g>
		<g>
			<line class="st1" x1="95" y1="98.3" x2="119" y2="74.4"/>
			<line class="st1" x1="89.6" y1="92.9" x2="113.6" y2="69"/>
		</g>
	</g>
	<polygon class="st0" points="57.7,13.3 57.7,1.8 45,1.8 45,13.3 38.2,13.3 51.4,26.5 64.6,13.3 	"/>
</g>
</svg>
