<?xml version="1.0" encoding="utf-8"?>
<!-- Generator: Adobe Illustrator 25.2.2, SVG Export Plug-In . SVG Version: 6.00 Build 0)  -->
<svg version="1.1" id="레이어_1" xmlns="http://www.w3.org/2000/svg" xmlns:xlink="http://www.w3.org/1999/xlink" x="0px"
	 y="0px" viewBox="0 0 107.7 69.3" style="enable-background:new 0 0 107.7 69.3;" xml:space="preserve">
<style type="text/css">
	.st0{fill:#ABC5E3;stroke:#38393A;stroke-width:3.5;stroke-linecap:round;stroke-linejoin:round;}
	.st1{fill:#FFFFFF;stroke:#38393A;stroke-width:3.5;stroke-linecap:round;stroke-linejoin:round;}
	.st2{fill:none;stroke:#38393A;stroke-width:3.5;stroke-linecap:round;stroke-linejoin:round;}
	.st3{fill:#FFFFFF;stroke:#38383B;stroke-width:3.5;stroke-linecap:round;stroke-linejoin:round;stroke-miterlimit:10;}
	.st4{fill:none;stroke:#38383B;stroke-width:3.5;stroke-linecap:round;stroke-linejoin:round;stroke-miterlimit:10;}
	.st5{fill:#ABC5E3;stroke:#365587;stroke-width:3.5;stroke-linecap:round;stroke-linejoin:round;}
	.st6{fill:#DADAE0;}
	.st7{fill:#FFFFFF;}
</style>
<g>
	<path class="st3" d="M94.1,3.8L81,9L62.1,1.8L40.5,4.1L29.4,14c0,0-2.5,2.3-1.3,6.7c1.2,4.4,7.4,2.2,9.2,1.2c1.8-1,9-4.9,9-4.9
		L85,38.8L106,27.6"/>
	<path class="st3" d="M1.8,30.1l11.7,4.7l6,9.6l22.1,9.4l0.5-0.7l20.4,13.1c2,1.3,4.8,0.7,6.1-1.3c1.3-2,0.7-4.8-1.3-6.1l-6.7-4.3
		l9,5.8c2,1.3,4.8,0.7,6.1-1.3c1.3-2,0.7-4.8-1.3-6.1l2.9,1.9c2,1.3,4.8,0.7,6.1-1.3c1.3-2,0.7-4.8-1.3-6.1l-26.3-17l0.1-0.2
		l29.6,19c2.5,1.6,5.8,0.9,7.4-1.6c1.6-2.5,0.9-5.8-1.6-7.4L54,16.3c-1.8-1.2-4-1.1-5.7,0l-8.5-6.7L27.9,8.8L12.3,2.4"/>
	<g>
		<path class="st3" d="M36.2,54.7c-1.3,2.8-4.6,3.9-7.4,2.6l0,0c-2.8-1.3-3.9-4.6-2.6-7.4l3.4-7.1c1.3-2.8,4.6-3.9,7.4-2.6l0,0
			c2.8,1.3,3.9,4.6,2.6,7.4L36.2,54.7z"/>
		<path class="st3" d="M46.2,59.8c-1.3,2.8-4.7,4-7.5,2.7l0,0c-2.8-1.3-4-4.7-2.7-7.5l3.4-7.2c1.3-2.8,4.7-4,7.5-2.7l0,0
			c2.8,1.3,4,4.7,2.7,7.5L46.2,59.8z"/>
		<path class="st3" d="M54.4,65c-1.1,2.2-3.8,3.2-6,2.1l0,0c-2.2-1.1-3.2-3.8-2.1-6l2.8-5.8c1.1-2.2,3.8-3.2,6-2.1l0,0
			c2.2,1.1,3.2,3.8,2.1,6L54.4,65z"/>
		<path class="st3" d="M25.9,49.6c-1.1,2.2-3.8,3.2-6,2.1l0,0c-2.2-1.1-3.2-3.8-2.1-6l2.8-5.8c1.1-2.2,3.8-3.2,6-2.1l0,0
			c2.2,1.1,3.2,3.8,2.1,6L25.9,49.6z"/>
	</g>
	<line class="st3" x1="74.4" y1="52.8" x2="51.9" y2="38.9"/>
	<line class="st3" x1="60.6" y1="54.4" x2="50.5" y2="48.8"/>
	<path class="st3" d="M55.2,17.1c-5.7-1.3-8.9-0.1-8.9-0.1s-7.2,3.9-9,4.9c-1.8,1-8,3.2-9.2-1.2c-1.2-4.4,1.3-6.7,1.3-6.7l11.1-9.9
		l21.6-2.3"/>
</g>
</svg>
