<?xml version="1.0" encoding="utf-8"?>
<!-- Generator: Adobe Illustrator 25.2.2, SVG Export Plug-In . SVG Version: 6.00 Build 0)  -->
<svg version="1.1" id="레이어_1" xmlns="http://www.w3.org/2000/svg" xmlns:xlink="http://www.w3.org/1999/xlink" x="0px"
	 y="0px" viewBox="0 0 88.9 102.4" style="enable-background:new 0 0 88.9 102.4;" xml:space="preserve">
<style type="text/css">
	.st0{fill:#ABC5E3;stroke:#38393A;stroke-width:3.5;stroke-linecap:round;stroke-linejoin:round;}
	.st1{fill:#FFFFFF;stroke:#38393A;stroke-width:3.5;stroke-linecap:round;stroke-linejoin:round;}
	.st2{fill:none;stroke:#38393A;stroke-width:3.5;stroke-linecap:round;stroke-linejoin:round;}
	.st3{fill:#FFFFFF;stroke:#38383B;stroke-width:3.5;stroke-linecap:round;stroke-linejoin:round;stroke-miterlimit:10;}
	.st4{fill:none;stroke:#38383B;stroke-width:3.5;stroke-linecap:round;stroke-linejoin:round;stroke-miterlimit:10;}
	.st5{fill:#ABC5E3;stroke:#365587;stroke-width:3.5;stroke-linecap:round;stroke-linejoin:round;}
	.st6{fill:#DADAE0;}
	.st7{fill:#FFFFFF;}
</style>
<g>
	<path class="st5" d="M49.2,88.5c-2.2,5.2-8.3,7.7-13.5,5.4c-5.2-2.2-7.7-8.3-5.5-13.5c2.2-5.2,8.3-7.7,13.5-5.5
		C49,77.2,51.5,83.3,49.2,88.5z"/>
	<g>
		<g>
			<path class="st6" d="M64.5,95L15,73.9c3-7.1,8.7-11.8,13.7-11.9l15.4-32.6c5.8-13.7,17.8-21.7,26.7-17.9
				c8.9,3.8,11.4,18,5.6,31.6L63.6,76.8C67,80.6,67.6,87.9,64.5,95"/>
		</g>
	</g>
	<path class="st4" d="M49.2,88.5c-2.2,5.2-8.3,7.7-13.5,5.4c-5.2-2.2-7.7-8.3-5.5-13.5c2.2-5.2,8.3-7.7,13.5-5.5
		C49,77.2,51.5,83.3,49.2,88.5"/>
	<path class="st7" d="M73.1,16.9l-7.7-3.3l4-9.3c0.9-2.1,3.4-3.1,5.5-2.2C77,3,77.9,5.4,77,7.6L73.1,16.9z"/>
	<path class="st4" d="M73.1,16.9l-7.7-3.3l4-9.3c0.9-2.1,3.4-3.1,5.5-2.2C77,3,77.9,5.4,77,7.6L73.1,16.9z"/>
	<path class="st7" d="M70.8,11.5C57.1,5.7,41.3,12,35.5,25.7L18.6,59.6l53.8,22.9L85,46.8C90.9,33.1,84.5,17.3,70.8,11.5"/>
	<path class="st4" d="M70.8,11.5C57.1,5.7,41.3,12,35.5,25.7L18.6,59.6l53.8,22.9L85,46.8C90.9,33.1,84.5,17.3,70.8,11.5z"/>
	<path class="st7" d="M77.7,100.6l-76-32.4c3.7-8.7,13.7-12.7,22.4-9l44.5,19C77.4,81.9,81.4,91.9,77.7,100.6"/>
	<path class="st4" d="M77.7,100.6l-76-32.4c3.7-8.7,13.7-12.7,22.4-9l44.5,19C77.4,81.9,81.4,91.9,77.7,100.6z"/>
</g>
</svg>
