<?xml version="1.0" encoding="utf-8"?>
<!-- Generator: Adobe Illustrator 25.3.1, SVG Export Plug-In . SVG Version: 6.00 Build 0)  -->
<svg version="1.1" id="레이어_1" xmlns="http://www.w3.org/2000/svg" xmlns:xlink="http://www.w3.org/1999/xlink" x="0px"
	 y="0px" viewBox="0 0 500 500" style="enable-background:new 0 0 500 500;" xml:space="preserve">
<style type="text/css">
	.st0{fill:none;}
	.st1{opacity:0.5;}
	.st2{fill:url(#XMLID_2_);}
	.st3{fill:url(#XMLID_3_);}
	.st4{fill:#A9A9A8;}
</style>
<g>
	<rect class="st0" width="500" height="500"/>
	<g id="XMLID_6_" class="st1">
		<g id="XMLID_7_">
			<g id="XMLID_8_">
				
					<linearGradient id="XMLID_2_" gradientUnits="userSpaceOnUse" x1="251.9379" y1="988.471" x2="312.5685" y2="1034.3879" gradientTransform="matrix(1 0 0 1 0 -794.0002)">
					<stop  offset="0" style="stop-color:#23ADE0"/>
					<stop  offset="0.1885" style="stop-color:#21A9DD"/>
					<stop  offset="0.4351" style="stop-color:#1E9FD5"/>
					<stop  offset="0.7139" style="stop-color:#178FC8"/>
					<stop  offset="1" style="stop-color:#1479B8"/>
				</linearGradient>
				<path id="XMLID_10_" class="st2" d="M295,231.7c4.6,1.9,3.3,7.4-1.9,7.4h-34.8c-0.9,0-1.9,0.9-1.9,2.3v4.6
					c0,0.9,0.9,2.3,1.9,2.3h40.4c9.3,0,16.7-4.6,16.7-13.9c0-6.5-2.8-11.6-9.8-14.4c-4.2-1.9-29.7-12.5-29.7-12.5
					c-4.6-1.9-3.7-7.4,1.9-7.4h34.8c0.9,0,1.9-0.9,1.9-1.9v-4.6c0-1.4-0.9-1.9-1.9-1.9h-40.4c-9.3,0-16.7,4.6-16.7,13.9
					c0,6.5,2.8,11.6,9.8,14.4C269,221,295,231.7,295,231.7z"/>
				
					<linearGradient id="XMLID_3_" gradientUnits="userSpaceOnUse" x1="194.7408" y1="974.0473" x2="239.5644" y2="1019.9628" gradientTransform="matrix(1 0 0 1 0 -794.0002)">
					<stop  offset="5.618000e-03" style="stop-color:#F5C41E"/>
					<stop  offset="1" style="stop-color:#EA7E26"/>
				</linearGradient>
				<path id="XMLID_9_" class="st3" d="M253.3,190.3h-67.3c-0.9,0-1.9,0.9-1.9,1.9v4.6c0,0.9,0.9,1.9,1.9,1.9h24.1v46.4
					c0,0.9,0.9,2.3,1.9,2.3l0,0h14.9l0,0c0.9,0,1.9-0.9,1.9-2.3v-46.4h24.1c0.9,0,1.9-0.9,1.9-1.9v-4.6
					C255.1,191.3,254.2,190.3,253.3,190.3z"/>
			</g>
		</g>
	</g>
	<g>
		<path class="st4" d="M145,272.5h6.5l9.3,17.6l3.3,7l0,0c-0.5-3.3-0.9-7.9-0.9-11.6v-13h6V305h-6.5l-9.3-17.6l-3.3-7l0,0
			c0.5,3.7,0.9,7.9,0.9,11.6v13h-6V272.5z"/>
		<path class="st4" d="M176.6,288.8c0-10.7,6-16.7,14.9-16.7c8.8,0,14.9,6,14.9,16.7c0,10.7-6,17.2-14.9,17.2
			C182.7,306,176.6,299.5,176.6,288.8z M198.9,288.8c0-7-3.3-11.1-7.9-11.1c-4.6,0-7.9,4.2-7.9,11.1c0,7,3.3,11.6,7.9,11.6
			C195.7,300.4,198.9,295.7,198.9,288.8z"/>
		<path class="st4" d="M222.1,272.5h6.5V305h-6.5V272.5z"/>
		<path class="st4" d="M237,272.5h7.4l5.6,15.3c0.9,1.9,1.4,4.2,1.9,6.5l0,0c0.9-1.9,1.4-4.2,1.9-6.5l5.6-15.3h7.4V305h-6v-13.5
			c0-3.3,0.5-7.9,0.9-10.7l0,0l-2.8,7.9l-5.1,13.9H250l-5.1-13.9l-2.8-7.9l0,0c0.5,3.3,0.9,7.9,0.9,10.7V305h-6V272.5L237,272.5z"/>
		<path class="st4" d="M281.1,272.5h7.9l10.7,33h-7l-2.3-8.4h-10.7l-2.8,7.9h-6.5L281.1,272.5z M280.7,291.6h7.9l-0.9-3.7
			c-0.9-3.3-1.9-7-2.8-10.7l0,0c-0.9,3.7-1.9,7.4-2.8,10.7L280.7,291.6z"/>
		<path class="st4" d="M301.1,288.8c0-10.7,7-17.2,15.8-17.2c4.6,0,7.9,1.9,10.2,4.2l-3.3,4.2c-1.4-1.4-3.7-2.8-6.5-2.8
			c-5.6,0-9.3,4.2-9.3,11.1c0,7,3.3,11.6,9.8,11.6c1.4,0,3.3-0.5,4.2-1.4V292h-5.6v-5.6H328v14.9c-2.3,2.3-6,3.7-10.7,3.7
			C307.6,306,301.1,299.9,301.1,288.8z"/>
		<path class="st4" d="M334.5,272.5h20v5.6H341v7.4h11.1v5.6h-11.6v8.8h13.9v5.1h-20.4L334.5,272.5L334.5,272.5z"/>
	</g>
</g>
</svg>
