<?xml version="1.0" encoding="utf-8"?>
<!-- Generator: Adobe Illustrator 25.2.2, SVG Export Plug-In . SVG Version: 6.00 Build 0)  -->
<svg version="1.1" id="레이어_1" xmlns="http://www.w3.org/2000/svg" xmlns:xlink="http://www.w3.org/1999/xlink" x="0px"
	 y="0px" viewBox="0 0 97.2 14.6" style="enable-background:new 0 0 97.2 14.6;" xml:space="preserve">
<style type="text/css">
	.st0{fill:#848380;}
	.st1{fill:none;stroke:#848380;stroke-width:1.025;stroke-linecap:round;stroke-miterlimit:10;}
	.st2{fill:none;stroke:#848380;stroke-width:0.293;stroke-miterlimit:10;}
</style>
<g>
	<polygon class="st0" points="27,3.9 28.3,3.9 28.3,1.3 30.9,1.3 30.9,0 27,0 	"/>
	<polygon class="st0" points="43.1,0 39.2,0 39.2,1.3 41.8,1.3 41.8,3.9 43.1,5.3 	"/>
	<polygon class="st0" points="28.3,10.7 27,10.7 27,14.6 30.9,14.6 30.9,13.3 28.3,13.3 	"/>
	<path class="st0" d="M39.2,10.3c-0.2-0.3-0.7-0.4-1-0.1c-0.3,0.2-0.4,0.7-0.1,1c0.3,0.4,1.2,1.5,2.3,2.5c0.4,0.3,0.8,0.7,1.2,1h1.5
		v-0.6c-0.1,0-0.2-0.1-0.2-0.1C41.4,12.9,39.6,10.8,39.2,10.3 M37.8,4.6c-0.4,0-0.8,0.1-1.2,0.2c-0.4,0.1-0.6,0.5-0.5,0.8
		C36.2,6,36.6,6.2,37,6.1C37.3,6,37.5,6,37.8,6c1,0,2,0.6,3.1,1.4c0.8,0.6,1.5,1.4,2.3,2.1V7.6c-0.4-0.4-0.9-0.8-1.4-1.2
		C40.6,5.4,39.3,4.6,37.8,4.6 M34.5,9.4c0-0.8,0.2-1.6,0.9-2.5c0.2-0.3,0.2-0.7-0.1-1c-0.3-0.2-0.7-0.2-1,0.1h0
		c-1,1.1-1.2,2.3-1.2,3.3c0,0.9,0.2,1.8,0.2,2.3c0,0.4-0.1,0.6-0.2,0.8c-0.1,0.2-0.4,0.5-1,0.7c-0.4,0.1-0.5,0.5-0.4,0.9
		c0.1,0.3,0.4,0.4,0.6,0.4c0.1,0,0.2,0,0.3,0c0.8-0.3,1.3-0.7,1.7-1.2c0.4-0.5,0.4-1.1,0.4-1.6C34.7,10.9,34.5,10.1,34.5,9.4
		 M40.8,8.6c-0.7-0.6-1.1-1.1-1.6-1.3C38.7,7.1,38.3,7,37.9,7c-0.8,0-1.4,0.4-1.8,0.9c-0.4,0.5-0.6,1.2-0.6,1.9c0,0.4,0,0.7,0.1,1.1
		c0.3,1,1.1,2.3,2.3,3.6h1.9c-0.1-0.1-0.1-0.1-0.2-0.2c-1.4-1.3-2.5-3-2.7-3.8c-0.1-0.3-0.1-0.5-0.1-0.8c0-0.5,0.1-0.9,0.3-1.1
		c0.2-0.2,0.4-0.3,0.7-0.4c0.2,0,0.4,0,0.7,0.2c0.1,0,0.7,0.5,1.3,1.1c0.6,0.6,1.3,1.3,2.1,2c0.4,0.4,0.8,0.7,1.2,1v-1.8
		c-0.1-0.1-0.2-0.2-0.3-0.3C42.1,9.9,41.4,9.2,40.8,8.6 M43.1,4.4c-1.5-1.3-3.4-2.1-5.4-2.1c-1.3,0-2.7,0.4-4,1.3
		c-2.3,1.6-3.1,3.9-3,6.2c0,0.7,0.1,1.4,0.2,2.1c0.1,0.4,0.4,0.6,0.8,0.6c0.4-0.1,0.6-0.4,0.6-0.8c-0.1-0.6-0.1-1.3-0.1-1.9
		c0-2,0.5-3.7,2.5-5c1-0.7,2.1-1,3.2-1c1.6,0,3.2,0.7,4.5,1.8c0.3,0.3,0.6,0.5,0.9,0.8L43.1,4.4C43.1,4.4,43.1,4.4,43.1,4.4
		 M35.7,12.9c-0.4,0-0.7,0.2-0.8,0.6c0,0.1-0.1,0.5-0.4,1c0,0-0.1,0.1-0.1,0.1H36c0.2-0.5,0.3-0.9,0.3-1
		C36.3,13.2,36,12.9,35.7,12.9"/>
	<line class="st1" x1="10.8" y1="4.2" x2="10.8" y2="5.5"/>
	<line class="st1" x1="5.3" y1="4.2" x2="5.3" y2="5.5"/>
	<path class="st1" d="M12,8c0,2-1.8,3.5-4,3.5c-2.2,0-4-1.6-4-3.5"/>
	<polygon class="st0" points="0,3.9 1.3,3.9 1.3,1.3 3.9,1.3 3.9,0 0,0 	"/>
	<polygon class="st0" points="16.1,10.7 14.8,10.7 14.8,13.3 12.2,13.3 12.2,14.6 16.1,14.6 	"/>
	<polygon class="st0" points="0,14.6 3.9,14.6 3.9,13.3 1.3,13.3 1.3,10.7 0,10.7 	"/>
	<polygon class="st0" points="12.2,0 12.2,1.3 14.8,1.3 14.8,3.9 16.1,3.9 16.1,0 	"/>
	<polygon class="st0" points="54,3.9 55.4,3.9 55.4,1.3 58,1.3 58,0 54,0 	"/>
	<polygon class="st0" points="70.1,10.7 68.8,10.7 68.8,13.3 66.2,13.3 66.2,14.6 70.1,14.6 	"/>
	<polygon class="st0" points="54,14.6 58,14.6 58,13.3 55.4,13.3 55.4,10.7 54,10.7 	"/>
	<polygon class="st0" points="66.2,0 66.2,1.3 68.8,1.3 68.8,3.9 70.1,3.9 70.1,0 	"/>
	<polygon class="st0" points="81.1,3.9 82.4,3.9 82.4,1.3 85,1.3 85,0 81.1,0 	"/>
	<polygon class="st0" points="97.2,10.7 95.8,10.7 95.8,13.3 93.2,13.3 93.2,14.6 97.2,14.6 	"/>
	<polygon class="st0" points="81.1,14.6 85,14.6 85,13.3 82.4,13.3 82.4,10.7 81.1,10.7 	"/>
	<polygon class="st0" points="93.2,0 93.2,1.3 95.8,1.3 95.8,3.9 97.2,3.9 97.2,0 	"/>
	<polygon class="st0" points="85.7,7.5 84.9,7.9 84.8,7.8 85.6,7.3 84.8,6.8 84.9,6.6 85.7,7.1 85.7,6.2 85.9,6.2 85.9,7.1 
		86.7,6.6 86.8,6.8 86.1,7.3 86.8,7.8 86.7,7.9 85.9,7.5 85.9,8.4 85.7,8.4 	"/>
	<polygon class="st2" points="85.7,7.5 84.9,7.9 84.8,7.8 85.6,7.3 84.8,6.8 84.9,6.6 85.7,7.1 85.7,6.2 85.9,6.2 85.9,7.1 
		86.7,6.6 86.8,6.8 86.1,7.3 86.8,7.8 86.7,7.9 85.9,7.5 85.9,8.4 85.7,8.4 	"/>
	<polygon class="st0" points="89.5,7.5 88.7,7.9 88.6,7.8 89.4,7.3 88.6,6.8 88.7,6.6 89.5,7.1 89.5,6.2 89.7,6.2 89.7,7.1 
		90.6,6.6 90.7,6.8 89.9,7.3 90.7,7.8 90.6,7.9 89.7,7.5 89.7,8.4 89.5,8.4 	"/>
	<polygon class="st2" points="89.5,7.5 88.7,7.9 88.6,7.8 89.4,7.3 88.6,6.8 88.7,6.6 89.5,7.1 89.5,6.2 89.7,6.2 89.7,7.1 
		90.6,6.6 90.7,6.8 89.9,7.3 90.7,7.8 90.6,7.9 89.7,7.5 89.7,8.4 89.5,8.4 	"/>
	<polygon class="st0" points="93.3,7.5 92.5,7.9 92.4,7.8 93.2,7.3 92.4,6.8 92.5,6.6 93.3,7.1 93.3,6.2 93.5,6.2 93.6,7.1 
		94.4,6.6 94.5,6.8 93.7,7.3 94.5,7.8 94.4,7.9 93.6,7.5 93.5,8.4 93.3,8.4 	"/>
	<polygon class="st2" points="93.3,7.5 92.5,7.9 92.4,7.8 93.2,7.3 92.4,6.8 92.5,6.6 93.3,7.1 93.3,6.2 93.5,6.2 93.6,7.1 
		94.4,6.6 94.5,6.8 93.7,7.3 94.5,7.8 94.4,7.9 93.6,7.5 93.5,8.4 93.3,8.4 	"/>
	<path class="st0" d="M62.4,9.7c-0.3,0-0.5,0.1-0.7,0.2l-2.1-2.1c0.1-0.2,0.2-0.5,0.2-0.7c0-0.3-0.1-0.5-0.2-0.8L61,4.7
		c0.2,0.1,0.4,0.2,0.6,0.2c0.8,0,1.4-0.6,1.4-1.4c0-0.8-0.6-1.4-1.4-1.4c-0.8,0-1.4,0.6-1.4,1.4c0,0.2,0.1,0.5,0.2,0.7l-1.5,1.7
		c-0.2-0.1-0.4-0.1-0.6-0.1c-0.8,0-1.4,0.6-1.4,1.4c0,0.8,0.6,1.4,1.4,1.4c0.2,0,0.4-0.1,0.6-0.1l2.2,2.2c-0.1,0.2-0.1,0.4-0.1,0.6
		c0,0.8,0.6,1.4,1.4,1.4c0.8,0,1.4-0.6,1.4-1.4C63.8,10.3,63.2,9.7,62.4,9.7 M61.6,2.8c0.4,0,0.7,0.3,0.7,0.7c0,0.4-0.3,0.7-0.7,0.7
		c-0.4,0-0.7-0.3-0.7-0.7C61,3.1,61.3,2.8,61.6,2.8 M58.4,7.8c-0.4,0-0.7-0.3-0.7-0.7s0.3-0.7,0.7-0.7c0.4,0,0.7,0.3,0.7,0.7
		S58.7,7.8,58.4,7.8 M62.4,11.8c-0.4,0-0.7-0.3-0.7-0.7s0.3-0.7,0.7-0.7c0.4,0,0.7,0.3,0.7,0.7S62.8,11.8,62.4,11.8"/>
	<path class="st0" d="M65.9,6.3c-0.8,0-1.4,0.6-1.4,1.3c0,0.2,0,0.5,0.1,0.7L63,9.9l0.6,0.5l1.5-1.6c0.2,0.1,0.4,0.2,0.6,0.2
		c0.8,0,1.4-0.6,1.4-1.3C67.2,7,66.7,6.4,65.9,6.3 M65.8,8.4c-0.4,0-0.7-0.3-0.6-0.7c0-0.4,0.3-0.7,0.7-0.6c0.4,0,0.7,0.3,0.6,0.7
		C66.5,8.1,66.2,8.4,65.8,8.4"/>
</g>
</svg>
