<?xml version="1.0" encoding="utf-8"?>
<!-- Generator: Adobe Illustrator 25.3.1, SVG Export Plug-In . SVG Version: 6.00 Build 0)  -->
<svg version="1.1" id="레이어_1" xmlns="http://www.w3.org/2000/svg" xmlns:xlink="http://www.w3.org/1999/xlink" x="0px"
	 y="0px" viewBox="0 0 205.34 35.73" style="enable-background:new 0 0 205.34 35.73;" xml:space="preserve">
<style type="text/css">
	.st0{fill:#F7DB37;}
</style>
<g>
	<path class="st0" d="M20.31,1.01l4.38,8.87c0.26,0.53,0.77,0.9,1.36,0.99l9.79,1.42c1.48,0.22,2.07,2.03,1,3.08l-7.08,6.9
		c-0.43,0.41-0.62,1.01-0.52,1.6l1.67,9.75c0.25,1.47-1.3,2.6-2.62,1.9l-8.75-4.6c-0.53-0.28-1.15-0.28-1.68,0l-8.75,4.6
		c-1.32,0.7-2.87-0.43-2.62-1.9l1.67-9.75c0.1-0.59-0.09-1.18-0.52-1.6l-7.08-6.9c-1.07-1.04-0.48-2.86,1-3.08l9.79-1.42
		c0.59-0.09,1.1-0.45,1.36-0.99l4.38-8.87C17.73-0.34,19.65-0.34,20.31,1.01z"/>
	<path class="st0" d="M62.3,1.01l4.38,8.87c0.26,0.53,0.77,0.9,1.36,0.99l9.79,1.42c1.48,0.22,2.07,2.03,1,3.08l-7.08,6.9
		c-0.43,0.41-0.62,1.01-0.52,1.6l1.67,9.75c0.25,1.47-1.3,2.6-2.62,1.9l-8.75-4.6c-0.53-0.28-1.15-0.28-1.68,0l-8.75,4.6
		c-1.32,0.7-2.87-0.43-2.62-1.9l1.67-9.75c0.1-0.59-0.09-1.18-0.52-1.6l-7.08-6.9c-1.07-1.04-0.48-2.86,1-3.08l9.79-1.42
		c0.59-0.09,1.1-0.45,1.36-0.99l4.38-8.87C59.72-0.34,61.64-0.34,62.3,1.01z"/>
	<path class="st0" d="M104.29,1.01l4.38,8.87c0.26,0.53,0.77,0.9,1.36,0.99l9.79,1.42c1.48,0.22,2.07,2.03,1,3.08l-7.08,6.9
		c-0.43,0.41-0.62,1.01-0.52,1.6l1.67,9.75c0.25,1.47-1.3,2.6-2.62,1.9l-8.75-4.6c-0.53-0.28-1.15-0.28-1.68,0l-8.75,4.6
		c-1.32,0.7-2.87-0.43-2.62-1.9l1.67-9.75c0.1-0.59-0.09-1.18-0.52-1.6l-7.08-6.9c-1.07-1.04-0.48-2.86,1-3.08l9.79-1.42
		c0.59-0.09,1.1-0.45,1.36-0.99l4.38-8.87C101.71-0.34,103.63-0.34,104.29,1.01z"/>
	<path class="st0" d="M146.28,1.01l4.38,8.87c0.26,0.53,0.77,0.9,1.36,0.99l9.79,1.42c1.48,0.22,2.07,2.03,1,3.08l-7.08,6.9
		c-0.43,0.41-0.62,1.01-0.52,1.6l1.67,9.75c0.25,1.47-1.3,2.6-2.62,1.9l-8.75-4.6c-0.53-0.28-1.15-0.28-1.68,0l-8.75,4.6
		c-1.32,0.7-2.87-0.43-2.62-1.9l1.67-9.75c0.1-0.59-0.09-1.18-0.52-1.6l-7.08-6.9c-1.07-1.04-0.48-2.86,1-3.08l9.79-1.42
		c0.59-0.09,1.1-0.45,1.36-0.99l4.38-8.87C143.7-0.34,145.62-0.34,146.28,1.01z"/>
	<path class="st0" d="M188.27,1.01l4.38,8.87c0.26,0.53,0.77,0.9,1.36,0.99l9.79,1.42c1.48,0.22,2.07,2.03,1,3.08l-7.08,6.9
		c-0.43,0.41-0.62,1.01-0.52,1.6l1.67,9.75c0.25,1.47-1.3,2.6-2.62,1.9l-8.75-4.6c-0.53-0.28-1.15-0.28-1.68,0l-8.75,4.6
		c-1.32,0.7-2.87-0.43-2.62-1.9l1.67-9.75c0.1-0.59-0.09-1.18-0.52-1.6l-7.08-6.9c-1.07-1.04-0.48-2.86,1-3.08l9.79-1.42
		c0.59-0.09,1.1-0.45,1.36-0.99l4.38-8.87C185.69-0.34,187.61-0.34,188.27,1.01z"/>
</g>
</svg>
