<?xml version="1.0" encoding="utf-8"?>
<!-- Generator: Adobe Illustrator 25.2.2, SVG Export Plug-In . SVG Version: 6.00 Build 0)  -->
<svg version="1.1" id="레이어_1" xmlns="http://www.w3.org/2000/svg" xmlns:xlink="http://www.w3.org/1999/xlink" x="0px"
	 y="0px" viewBox="0 0 32.6 32.6" style="enable-background:new 0 0 32.6 32.6;" xml:space="preserve">
<style type="text/css">
	.st0{fill:#F3CE64;}
	.st1{fill:#383838;}
	.st2{fill:#D96151;}
	.st3{fill:none;stroke:#383838;stroke-width:2;stroke-linecap:round;stroke-linejoin:round;stroke-miterlimit:10;}
</style>
<g>
	<circle class="st0" cx="16.3" cy="16.3" r="16.3"/>
	<path class="st1" d="M25.3,18.9c0,2.2-0.9,4.2-2.3,5.6l-0.1,0.1c-1.5,1.5-3.5,2.4-5.7,2.4h-1.7c-2.3,0-4.4-1-5.9-2.5
		C8.2,23,7.3,21,7.3,18.9H25.3z"/>
	<path class="st2" d="M23,24.5l-0.1,0.1c-1.5,1.5-3.5,2.4-5.7,2.4h-1.7c-2.3,0-4.4-1-5.9-2.5c0,0,0.1-0.1,0.1-0.1
		c1.5-1.5,3.5-2.4,5.7-2.4h1.7C19.5,22,21.5,22.9,23,24.5z"/>
	<circle class="st1" cx="9.3" cy="12.7" r="2.4"/>
	<circle class="st1" cx="23.3" cy="12.7" r="2.4"/>
</g>
</svg>
