<?xml version="1.0" encoding="utf-8"?>
<!-- Generator: Adobe Illustrator 16.0.0, SVG Export Plug-In . SVG Version: 6.00 Build 0)  -->
<!DOCTYPE svg PUBLIC "-//W3C//DTD SVG 1.1//EN" "http://www.w3.org/Graphics/SVG/1.1/DTD/svg11.dtd">
<svg version="1.1" id="Layer_1" xmlns="http://www.w3.org/2000/svg" xmlns:xlink="http://www.w3.org/1999/xlink" x="0px" y="0px"
	 width="75.39px" height="76.928px" viewBox="0 0 75.39 76.928" enable-background="new 0 0 75.39 76.928" xml:space="preserve">
<path fill-rule="evenodd" clip-rule="evenodd" fill="#FFFFFF" d="M74.691,31.471H38.465V46.35h20.701
	c-0.893,4.809-3.603,8.882-7.676,11.609l0,0l0,0c-3.445,2.308-7.852,3.672-13.025,3.672c-10.019,0-18.498-6.767-21.523-15.858l0,0
	l0,0c-0.77-2.308-1.206-4.772-1.206-7.308s0.437-5,1.206-7.308v0c3.025-9.092,11.505-15.858,21.523-15.858
	c5.646,0,10.717,1.941,14.703,5.752l11.033-11.033C57.539,3.812,48.832,0,38.465,0C23.428,0,10.42,8.62,4.092,21.191l0,0l0,0
	C1.486,26.383,0,32.258,0,38.465c0,6.206,1.486,12.081,4.092,17.274l0,0c6.328,12.57,19.336,21.189,34.373,21.189
	c10.385,0,19.092-3.443,25.456-9.318c7.273-6.695,11.47-16.557,11.47-28.271C75.391,36.611,75.145,33.989,74.691,31.471z"/>
</svg>
