<?xml version="1.0" encoding="utf-8"?>
<!-- Generator: Adobe Illustrator 22.0.1, SVG Export Plug-In . SVG Version: 6.00 Build 0)  -->
<svg version="1.1" xmlns="http://www.w3.org/2000/svg" xmlns:xlink="http://www.w3.org/1999/xlink" x="0px" y="0px"
	 viewBox="0 0 242.8 172.2" style="enable-background:new 0 0 242.8 172.2;" xml:space="preserve">
<style type="text/css">
	.st0{clip-path:url(#SVGID_2_);fill-rule:evenodd;clip-rule:evenodd;fill:#FFFFFF;}
	.st1{clip-path:url(#SVGID_2_);fill:none;stroke:#89BF44;stroke-width:2;}
	.st2{clip-path:url(#SVGID_2_);fill-rule:evenodd;clip-rule:evenodd;fill:#8DC63F;}
	.st3{clip-path:url(#SVGID_2_);fill-rule:evenodd;clip-rule:evenodd;fill:#89BF44;}
	.st4{clip-path:url(#SVGID_2_);fill-rule:evenodd;clip-rule:evenodd;fill:#388841;}
	.st5{clip-path:url(#SVGID_4_);fill:none;stroke:#000000;stroke-linecap:round;stroke-linejoin:round;}
	.st6{clip-path:url(#SVGID_6_);fill:none;stroke:#000000;stroke-linecap:round;stroke-linejoin:round;}
	.st7{clip-path:url(#SVGID_8_);fill:none;stroke:#000000;stroke-linecap:round;stroke-linejoin:round;}
	.st8{clip-path:url(#SVGID_10_);fill:none;stroke:#000000;stroke-linecap:round;stroke-linejoin:round;}
	.st9{clip-path:url(#SVGID_12_);fill:none;stroke:#000000;stroke-linecap:round;stroke-linejoin:round;}
	.st10{fill:none;stroke:#000000;stroke-linecap:round;stroke-linejoin:round;}
	.st11{fill:#398841;}
	.st12{fill-rule:evenodd;clip-rule:evenodd;fill:#FFFFFF;}
	.st13{fill:none;}
	.st14{fill:#FFFFFF;}
</style>
<g id="레이어_1">
</g>
<g id="나눔바른고딕_1_">
</g>
<g id="나눔바른고딕_outline">
</g>
<g id="Layer_4">
	<g>
		<g>
			<defs>
				<rect id="SVGID_1_" width="242.8" height="171.3"/>
			</defs>
			<clipPath id="SVGID_2_">
				<use xlink:href="#SVGID_1_"  style="overflow:visible;"/>
			</clipPath>
			<path class="st0" d="M238,78.4c0,42-52.2,76-116.5,76c-64.4,0-116.5-34-116.5-76c0-42,52.2-76,116.5-76
				C185.8,2.4,238,36.4,238,78.4"/>
			<ellipse class="st1" cx="121.4" cy="78.4" rx="116.5" ry="76"/>
			<path class="st2" d="M162.1,62.2c2.9,0,5.3-2.3,5.3-5.2c0-2.9-2.4-5.2-5.3-5.2c-2.9,0-5.3,2.3-5.3,5.2
				C156.8,59.8,159.2,62.2,162.1,62.2"/>
			<path class="st2" d="M179,72.5c1.1,1.7,2.2,3.3,3.1,4.6c4.7,2.2,7.9,7,7.9,12.5c0,7.7-6.2,13.9-13.9,13.9
				c-7.7,0-13.9-6.2-13.9-13.9c0-0.3,0-0.6,0-0.9h-0.7c-0.1,0.2-1.2,1.9-2.5,4c1.5,8.1,8.6,14.2,17,14.2c9.6,0,17.3-7.8,17.3-17.3
				C193.5,81,187.2,73.9,179,72.5"/>
			<path class="st2" d="M153,101.4l8.2-13.3H179c2.1,0,7.1-3.5,4.5-7.5c0,0-11.2-16.8-12.1-17.7c-0.9-0.9-3.9-1.8-6.4-0.1
				c-2,1.3-6.2,10.9-6.2,10.9s-4.8,0.1-6.3,0c-1.4-0.1-1.9,4.9-0.1,4.9h8.7l3.3-5.6l6.8,10.3h-13.8l-10.8,18.2
				c-0.6,1.1-0.5,2.7,1.6,2.7C150.3,104.1,151.6,103.2,153,101.4"/>
			<rect x="146.5" y="75.8" class="st2" width="15.5" height="4.3"/>
			<polygon class="st2" points="148.3,76 146.6,77.2 137.6,64.3 139.2,63.1 			"/>
			<path class="st3" d="M74.1,118.4c13.7,5.1,30.4,8.1,48.4,8.1c47.2,0,85.6-20.8,85.6-46.6c0-13.2-12.2-30.3-43.1-30.3
				c-22.4,0-42,9.9-42,22.1c0,2.1,1.3,4.5,2.9,6.1c2.5,2.9,3.3,6.4,3.3,9.6c0,14.9-22.2,26.9-49.5,26.9c-18,0-34.6-5-42.7-13.2
				c-6.5-6.5-8.6-13.9-8.6-21.3c0-28.4,42.2-51.5,94.2-51.5c52.1,0,94.3,23.1,94.3,51.5c0,28.4-42.2,51.5-94.3,51.5
				c-20.5,0-39.6-3.6-55-9.6L74.1,118.4z"/>
			<path class="st4" d="M73.4,114.2c13.7,5.1,30.4,8.1,48.4,8.1c47.2,0,85.6-20.8,85.6-46.6c0-13.2-12.2-30.3-43.1-30.3
				c-22.4,0-42,9.9-42,22.1c0,2.1,1.3,4.5,2.9,6.1c2.5,2.9,3.3,6.4,3.3,9.6c0,14.9-22.2,26.9-49.5,26.9c-18,0-34.6-5-42.7-13.2
				c-6.5-6.5-8.6-13.9-8.6-21.3c0-28.4,42.2-51.5,94.2-51.5c52.1,0,94.3,23.1,94.3,51.5c0,28.4-42.2,51.5-94.3,51.5
				c-20.5,0-39.6-3.6-55-9.6L73.4,114.2z"/>
		</g>
		<g>
			<path d="M81.3,132.1l-6.6,11.3l-1.9-0.5l0.5-15.5l1.7,0.5L74.4,141l6.7-11.4l1.7,0.5l-0.5,13.4l6.6-11.6l1.6,0.5l-7.8,13.4
				l-1.9-0.6L81.3,132.1z"/>
		</g>
		<g>
			<defs>
				<rect id="SVGID_3_" width="242.8" height="171.3"/>
			</defs>
			<clipPath id="SVGID_4_">
				<use xlink:href="#SVGID_3_"  style="overflow:visible;"/>
			</clipPath>
			<polygon class="st5" points="80.9,145.2 82.8,145.7 90.6,132.3 89,131.9 82.4,143.5 82.9,130.1 81.1,129.6 74.4,141 74.9,127.8 
				73.3,127.3 72.8,142.8 74.7,143.4 81.3,132.1 			"/>
		</g>
		<g>
			<path d="M98.9,148.9l-9.2-1.6l2.6-14.9l9.2,1.6l-0.3,1.5l-7.5-1.3l-0.8,4.5l6.9,1.2l-0.2,1.5l-6.9-1.2l-1,5.9l7.5,1.3L98.9,148.9
				z"/>
		</g>
		<g>
			<defs>
				<rect id="SVGID_5_" width="242.8" height="171.3"/>
			</defs>
			<clipPath id="SVGID_6_">
				<use xlink:href="#SVGID_5_"  style="overflow:visible;"/>
			</clipPath>
			<polygon class="st6" points="99.2,147.4 91.7,146.1 92.7,140.2 99.6,141.4 99.9,139.9 93,138.7 93.7,134.2 101.2,135.5 
				101.5,134 92.3,132.4 89.7,147.3 98.9,148.9 			"/>
		</g>
		<g>
			<path d="M107.2,149.7l-5.1-0.5l1.3-15l5,0.4c0.7,0.1,1.3,0.2,1.8,0.4c0.5,0.2,0.9,0.5,1.3,0.8c0.3,0.3,0.6,0.7,0.7,1.1
				c0.1,0.4,0.2,0.9,0.2,1.3c-0.1,0.8-0.4,1.5-0.9,2.1c-0.5,0.6-1.2,0.9-2.1,1.1l0,0c0.5,0.1,1,0.3,1.4,0.5c0.4,0.2,0.7,0.5,1,0.9
				c0.3,0.4,0.5,0.8,0.6,1.2c0.1,0.5,0.2,0.9,0.1,1.4c0,0.5-0.2,1.1-0.4,1.6c-0.2,0.5-0.6,1-1,1.3c-0.5,0.4-1,0.7-1.7,0.9
				C108.8,149.7,108.1,149.8,107.2,149.7z M107.3,142.2l-2.8-0.2l-0.5,5.9l3.1,0.3c1.1,0.1,1.9-0.1,2.5-0.6c0.6-0.5,1-1.2,1-2.1
				c0.1-1-0.1-1.7-0.7-2.3C109.4,142.7,108.6,142.3,107.3,142.2z M107.9,136.1l-2.8-0.3l-0.4,4.7l2.6,0.2c1,0.1,1.7,0,2.3-0.3
				c0.6-0.3,0.9-0.9,1-1.8c0.1-0.8-0.1-1.4-0.6-1.8C109.6,136.4,108.9,136.2,107.9,136.1z"/>
		</g>
		<g>
			<defs>
				<rect id="SVGID_7_" width="242.8" height="171.3"/>
			</defs>
			<clipPath id="SVGID_8_">
				<use xlink:href="#SVGID_7_"  style="overflow:visible;"/>
			</clipPath>
			<path class="st7" d="M109.5,149.5c0.6-0.2,1.2-0.5,1.7-0.9c0.5-0.4,0.8-0.8,1-1.3c0.2-0.5,0.4-1,0.4-1.6c0-0.5,0-1-0.1-1.4
				c-0.1-0.5-0.3-0.9-0.6-1.2c-0.3-0.3-0.6-0.6-1-0.9c-0.4-0.2-0.9-0.4-1.4-0.5l0,0c0.9-0.2,1.5-0.5,2.1-1.1
				c0.5-0.6,0.8-1.3,0.9-2.1c0-0.5,0-0.9-0.2-1.3c-0.1-0.4-0.4-0.8-0.7-1.1c-0.3-0.3-0.8-0.6-1.3-0.8c-0.5-0.2-1.1-0.4-1.8-0.4
				l-5-0.4l-1.3,15l5.1,0.5C108.1,149.8,108.8,149.7,109.5,149.5z M110,143.3c0.5,0.6,0.8,1.3,0.7,2.3c-0.1,0.9-0.4,1.6-1,2.1
				c-0.6,0.5-1.4,0.7-2.5,0.6l-3.1-0.3l0.5-5.9l2.8,0.2C108.6,142.4,109.4,142.7,110,143.3z M110.1,136.8c0.5,0.4,0.7,1,0.6,1.8
				c-0.1,0.9-0.4,1.5-1,1.8c-0.6,0.3-1.4,0.4-2.3,0.4l-2.6-0.2l0.4-4.7l2.8,0.3C108.9,136.2,109.6,136.4,110.1,136.8z"/>
		</g>
		<g>
			<path d="M125.3,140.4c0.2,0.3,0.5,0.5,0.8,0.8c0.3,0.3,0.6,0.5,1,0.7c0.3,0.2,0.7,0.4,1,0.6c0.3,0.2,0.7,0.3,1,0.5l-0.9,1.2
				c-0.7-0.3-1.4-0.7-2-1.2c-0.7-0.5-1.3-1-1.8-1.5c-0.7,0.8-1.5,1.5-2.4,2c-0.9,0.6-1.7,1-2.4,1.3l-1.1-1.1
				c0.8-0.3,1.5-0.7,2.3-1.1c0.7-0.5,1.4-1,1.9-1.5c0.6-0.6,1.1-1.1,1.5-1.7c0.4-0.6,0.7-1.2,0.8-1.8c-0.6,0-1.3,0.1-1.9,0.1
				c-0.6,0-1.3,0-1.9,0.1l-1.6,0l0-1.3l2.8-0.1c0.8,0,1.5,0,2.3-0.1c0.8,0,1.6-0.1,2.4-0.1c-0.1,0.8-0.2,1.5-0.5,2.3
				C126.1,139.1,125.8,139.8,125.3,140.4z M132.5,151.5l-10.3,0.3l-0.2-6.3l1.5,0l0,1.4l7.2-0.2l0-1.5l1.5,0L132.5,151.5z
				 M130.9,150.2l-0.1-2.2l-7.2,0.2l0.1,2.2L130.9,150.2z M127.7,140.5l0-1.4l2.9-0.1l-0.1-3.7l1.5,0l0.3,8.9l-1.5,0l-0.1-3.8
				L127.7,140.5z"/>
		</g>
		<g>
			<defs>
				<rect id="SVGID_9_" width="242.8" height="171.3"/>
			</defs>
			<clipPath id="SVGID_10_">
				<use xlink:href="#SVGID_9_"  style="overflow:visible;"/>
			</clipPath>
			<path class="st8" d="M123.7,150.4l-0.1-2.2l7.2-0.2l0.1,2.2L123.7,150.4z M132.3,145.1l-1.5,0l0,1.5l-7.2,0.2l0-1.4l-1.5,0
				l0.2,6.3l10.3-0.3L132.3,145.1z M130.6,140.4l0.1,3.8l1.5,0l-0.3-8.9l-1.5,0l0.1,3.7l-2.9,0.1l0,1.4L130.6,140.4z M126.4,138.4
				c0.3-0.7,0.5-1.5,0.5-2.3c-0.8,0-1.6,0.1-2.4,0.1c-0.8,0-1.5,0-2.3,0.1l-2.8,0.1l0,1.3l1.6,0c0.6,0,1.3,0,1.9-0.1
				c0.6,0,1.3-0.1,1.9-0.1c-0.1,0.6-0.4,1.2-0.8,1.8c-0.4,0.6-0.9,1.2-1.5,1.7c-0.6,0.6-1.2,1.1-1.9,1.5c-0.7,0.5-1.5,0.8-2.3,1.1
				l1.1,1.1c0.7-0.3,1.6-0.7,2.4-1.3c0.9-0.6,1.7-1.3,2.4-2c0.5,0.6,1.1,1.1,1.8,1.5c0.7,0.5,1.3,0.9,2,1.2l0.9-1.2
				c-0.3-0.1-0.7-0.3-1-0.5c-0.3-0.2-0.7-0.4-1-0.6c-0.3-0.2-0.7-0.5-1-0.7c-0.3-0.3-0.6-0.5-0.8-0.8
				C125.7,139.8,126.1,139.1,126.4,138.4z"/>
		</g>
		<g>
			<path d="M145.7,141.1c0-0.9,0-1.8-0.1-2.8c0-1-0.1-1.9-0.2-2.8l-9.1,1.2l-0.2-1.3l10.6-1.4c0.1,0.6,0.1,1.3,0.2,1.9
				c0.1,0.6,0.1,1.3,0.1,1.8c0,0.6,0.1,1.2,0.1,1.7c0,0.5,0,1,0,1.5l3-0.4l0.2,1.3l-15.6,2.1l-0.2-1.3L145.7,141.1z M149.2,149.5
				l-10.8,1.5l-0.7-5.4l1.5-0.2l0.6,4.1l9.3-1.3L149.2,149.5z"/>
		</g>
		<g>
			<defs>
				<rect id="SVGID_11_" width="242.8" height="171.3"/>
			</defs>
			<clipPath id="SVGID_12_">
				<use xlink:href="#SVGID_11_"  style="overflow:visible;"/>
			</clipPath>
			<path class="st9" d="M149,148.2l-9.3,1.3l-0.6-4.1l-1.5,0.2l0.7,5.4l10.8-1.5L149,148.2z M134.6,142.6l0.2,1.3l15.6-2.1l-0.2-1.3
				l-3,0.4c0-0.4,0-0.9,0-1.5c0-0.5-0.1-1.1-0.1-1.7c0-0.6-0.1-1.2-0.1-1.8c-0.1-0.6-0.1-1.3-0.2-1.9l-10.6,1.4l0.2,1.3l9.1-1.2
				c0.1,0.9,0.2,1.8,0.2,2.8c0,1,0.1,1.9,0.1,2.8L134.6,142.6z"/>
		</g>
		<g>
			<path d="M155.2,132c0.1,0.5,0.2,1,0.3,1.5c0.1,0.5,0.1,1,0.1,1.5c0.7,0.8,1.5,1.4,2.4,1.9c0.9,0.5,1.8,0.9,2.9,1.1l-0.7,1.3
				c-0.9-0.2-1.8-0.6-2.6-1c-0.8-0.5-1.5-1-2.2-1.6c-0.2,1-0.5,1.9-1,2.8c-0.5,0.9-1.1,1.6-1.9,2.3l-1.3-0.7c1.3-1.2,2.1-2.5,2.6-4
				c0.4-1.4,0.4-3-0.2-4.7L155.2,132z M165.8,142.8c0.1,0.4,0.1,0.9,0,1.3c-0.1,0.4-0.4,0.8-0.7,1.2s-0.9,0.7-1.5,1.1
				c-0.6,0.3-1.4,0.6-2.2,0.8c-0.9,0.2-1.7,0.3-2.4,0.3c-0.7,0-1.3-0.1-1.8-0.2c-0.5-0.2-0.9-0.4-1.2-0.7c-0.3-0.3-0.5-0.7-0.6-1.1
				c-0.1-0.4-0.1-0.9,0-1.3c0.1-0.4,0.4-0.8,0.7-1.2c0.4-0.4,0.9-0.7,1.5-1.1c0.6-0.3,1.4-0.6,2.2-0.8c0.9-0.2,1.7-0.3,2.4-0.3
				c0.7,0,1.3,0.1,1.8,0.2s0.9,0.4,1.2,0.7C165.5,142,165.7,142.3,165.8,142.8z M164.3,143.2c-0.1-0.2-0.2-0.5-0.4-0.6
				c-0.2-0.2-0.5-0.3-0.8-0.4c-0.4-0.1-0.8-0.1-1.3-0.1c-0.5,0-1.1,0.1-1.7,0.3c-0.6,0.2-1.2,0.3-1.6,0.6c-0.4,0.2-0.8,0.5-1.1,0.7
				c-0.3,0.3-0.4,0.5-0.5,0.8c-0.1,0.3-0.1,0.5,0,0.8c0.1,0.2,0.2,0.4,0.4,0.6c0.2,0.2,0.5,0.3,0.8,0.4c0.4,0.1,0.8,0.1,1.3,0.1
				c0.5,0,1.1-0.1,1.7-0.3c0.6-0.2,1.2-0.4,1.6-0.6c0.4-0.2,0.8-0.4,1.1-0.7c0.3-0.2,0.4-0.5,0.5-0.8
				C164.3,143.7,164.3,143.4,164.3,143.2z M158.9,135.7l-0.3-1.3l3.2-0.8l-0.9-3.4l1.5-0.4l2.4,9.6l-1.5,0.4l-1.2-4.8L158.9,135.7z"
				/>
		</g>
		<path class="st10" d="M164.2,143.9c-0.1,0.3-0.3,0.5-0.5,0.8c-0.3,0.2-0.6,0.5-1.1,0.7c-0.4,0.2-1,0.4-1.6,0.6
			c-0.6,0.2-1.2,0.2-1.7,0.3c-0.5,0-0.9,0-1.3-0.1c-0.4-0.1-0.6-0.2-0.8-0.4s-0.3-0.4-0.4-0.6c-0.1-0.2,0-0.5,0-0.8
			c0.1-0.3,0.3-0.5,0.5-0.8c0.3-0.3,0.6-0.5,1.1-0.7c0.4-0.2,1-0.4,1.6-0.6c0.6-0.2,1.2-0.2,1.7-0.3c0.5,0,0.9,0,1.3,0.1
			c0.4,0.1,0.6,0.2,0.8,0.4c0.2,0.2,0.3,0.4,0.4,0.6C164.3,143.4,164.3,143.7,164.2,143.9z M165.2,141.6c-0.3-0.3-0.7-0.6-1.2-0.7
			c-0.5-0.2-1.1-0.2-1.8-0.2c-0.7,0-1.5,0.1-2.4,0.3c-0.9,0.2-1.6,0.5-2.2,0.8c-0.6,0.3-1.1,0.7-1.5,1.1c-0.4,0.4-0.6,0.8-0.7,1.2
			c-0.1,0.4-0.1,0.9,0,1.3c0.1,0.4,0.3,0.8,0.6,1.1c0.3,0.3,0.7,0.6,1.2,0.7c0.5,0.2,1.1,0.2,1.8,0.2c0.7,0,1.5-0.1,2.4-0.3
			c0.9-0.2,1.6-0.5,2.2-0.8c0.6-0.3,1.1-0.7,1.5-1.1c0.4-0.4,0.6-0.8,0.7-1.2c0.1-0.4,0.1-0.9,0-1.3
			C165.7,142.3,165.5,141.9,165.2,141.6z M162.1,134.9l1.2,4.8l1.5-0.4l-2.4-9.6l-1.5,0.4l0.9,3.4l-3.2,0.8l0.3,1.3L162.1,134.9z
			 M153.7,132.4c0.5,1.7,0.6,3.3,0.2,4.7c-0.4,1.4-1.3,2.7-2.6,4l1.3,0.7c0.8-0.7,1.4-1.5,1.9-2.3c0.5-0.9,0.8-1.8,1-2.8
			c0.6,0.6,1.4,1.2,2.2,1.6c0.8,0.5,1.7,0.8,2.6,1l0.7-1.3c-1.1-0.2-2.1-0.6-2.9-1.1c-0.9-0.5-1.6-1.1-2.4-1.9c0-0.5,0-1-0.1-1.5
			c-0.1-0.5-0.2-1-0.3-1.5L153.7,132.4z"/>
		<path class="st11" d="M46.7,33.5c-0.9-2.2-1.7-3.7-2.4-4.9l-5.2,3.1l-0.9-1.6l7.1-4.3L46,27c0.8,1.3,1.8,3,2.8,5.5L46.7,33.5z
			 M46.7,35.9c1.3-0.8,2.6-1.7,3.8-2.6l1,1.4c-2.5,2.2-5.6,4.1-8,5.5l-1.2-1.5c0.8-0.5,1.6-1,2.5-1.5L42.3,33l1.9-1.2L46.7,35.9z
			 M53.8,28.7L52,29.8l4,6.6l-2,1.2l-8.3-13.9l2-1.2l3.3,5.6l1.9-1.1L53.8,28.7z"/>
		<path class="st11" d="M65,18.5l-8.8,3.4l-0.7-1.7l3.3-1.3l-0.5-1.4l2.2-0.8l0.5,1.4l3.3-1.3L65,18.5z M62.9,26.3
			c-2.2,0.8-4.1,0.3-4.8-1.4c-0.6-1.6,0.5-3.4,2.6-4.2c2.2-0.8,4.1-0.3,4.7,1.3C66.1,23.7,65.1,25.4,62.9,26.3 M62.3,24.6
			c1-0.4,1.5-1,1.2-1.8c-0.3-0.8-1.1-0.9-2.1-0.5c-1,0.4-1.5,1-1.2,1.8C60.5,24.9,61.3,25,62.3,24.6 M60.7,28.3l10-3.8l1.9,5
			l-2.2,0.8L69.2,27l-7.9,3L60.7,28.3z M71,19.3L69,20l1.5,3.8l-2.2,0.8l-3.6-9.4l2.2-0.8l1.5,3.9l2-0.8L71,19.3z"/>
		<path class="st11" d="M83,11.6c1.1,4.8,0.4,9.1-4.5,13.1l-1.6-1.5c3.5-2.9,4.7-5.7,4.2-9.3l-5.2,1.2l-0.4-1.8L83,11.6z M87.3,8.9
			L91,24.6l-2.3,0.5L85,9.4L87.3,8.9z"/>
		<path class="st11" d="M103.3,14.8l0.1,1l4.3-0.5l0.5,4.2l-8.8,1l0.1,0.9l9.2-1l0.2,1.7l-11.4,1.3L97,19.2l8.8-1l-0.1-0.9l-8.8,1
			l-0.2-1.7l4.4-0.5l-0.1-1l-6.1,0.7L94.7,14l14.4-1.6l0.2,1.8L103.3,14.8z M107.6,11.8c-2.8,0-4.9-0.8-6.1-2.1
			c-0.8,1.6-2.7,2.9-5.4,3.5l-0.9-1.6c3.6-0.8,5.1-2.6,4.9-4.1l0-0.3l2.4-0.3l0,0.3c0.2,1.5,2.1,3,5.7,2.9L107.6,11.8z"/>
		<path class="st11" d="M122.7,14.8c-1.8-0.6-3-1.7-3.7-3.1c-0.7,1.6-1.9,3-3.8,3.6l-1.2-1.8c2.5-0.9,3.7-3,3.7-5l-3.2,0l0-1.9
			l8.6-0.1l0,1.9l-3.1,0c0.1,1.8,1.2,3.7,3.7,4.5L122.7,14.8z M127.6,18.7c0,2-2.1,3.1-5.5,3.2c-3.4,0-5.5-1.1-5.5-3.1
			c0-2,2.1-3.1,5.5-3.2C125.5,15.6,127.6,16.7,127.6,18.7 M125.3,18.7c0-0.9-1.1-1.3-3.2-1.3c-2.1,0-3.2,0.5-3.2,1.4
			c0,0.9,1.1,1.3,3.2,1.3C124.2,20.1,125.3,19.6,125.3,18.7 M125.2,9.5l0-3.9l2.3,0l0.1,9.6l-2.3,0l0-3.8l-2.4,0l0-1.9L125.2,9.5z"
			/>
		<path class="st11" d="M147.4,19.7l-0.2,1.9l-14.5-1.5l0.2-1.9l6.1,0.6l0.3-2.9l-4.6-0.5l0.8-8.4l2.3,0.2l-0.3,2.5l6.8,0.7l0.3-2.5
			l2.3,0.2l-0.8,8.4l-4.5-0.5l-0.3,2.9L147.4,19.7z M137.2,13.8l6.9,0.7l0.2-2.2l-6.8-0.7L137.2,13.8z"/>
		<path class="st11" d="M166.6,19.5l-0.4,1.8L152,18.1l0.4-1.8l6,1.3l0.2-1l-4.2-0.9l1.5-6.7l10.8,2.4l-0.4,1.7l-8.6-1.9l-0.2,0.8
			l8.2,1.8l-0.4,1.6l-8.2-1.8l-0.2,0.9l8.7,1.9l-0.4,1.7l-4.5-1l-0.2,1L166.6,19.5z M163.8,24.2c-0.4,1.7-2.6,2.1-6,1.4
			c-3.4-0.8-5.2-2.1-4.9-3.8c0.4-1.7,2.6-2.1,6-1.4C162.4,21.1,164.2,22.5,163.8,24.2 M161.6,23.7c0.1-0.7-0.8-1.1-3-1.6
			c-2.2-0.5-3.2-0.4-3.4,0.2c-0.1,0.7,0.8,1.2,3,1.6C160.3,24.4,161.4,24.3,161.6,23.7"/>
		<path class="st11" d="M182.2,30.8l-0.6,1.7l-10.4-3.8l1.8-4.9l2.2,0.8l-1.2,3.2L182.2,30.8z M179,24.7c-1.5-1.2-2.2-2.7-2.3-4.4
			c-1.2,1.3-2.9,2.1-4.9,2.1l-0.5-2.1c2.8,0.1,4.7-1.7,5.4-3.7l0.5-1.5l2.2,0.8l-0.5,1.5c-0.7,2-0.4,4.3,1.8,6L179,24.7z
			 M182.6,28.6l-2.2-0.8l4-11l2.2,0.8L182.6,28.6z"/>
		<path class="st11" d="M200.7,37.4l-5.4-3.1l-2.5,4.4l-2-1.1l2.5-4.4l-5.3-3l0.9-1.6l12.7,7.2L200.7,37.4z M200.8,33.6l-9.7-5.5
			l3.5-6.2l2,1.1l-0.9,1.6l5.8,3.3l0.9-1.6l2,1.1L200.8,33.6z M200.6,29.4l-5.8-3.3l-0.8,1.4l5.8,3.3L200.6,29.4z"/>
		<polygon class="st12" points="77.1,93.1 69.5,93.1 68.4,67.9 52.2,93.1 44.5,93.1 44.4,51.7 54,51.7 53.4,77.8 69.8,51.7 
			76.7,51.7 77.4,77.8 92.6,51.7 102.2,51.7 		"/>
		<path class="st12" d="M108.4,93.4l0.1-7.3H97L93,93.4H81.9l25-41.5h10.9l1.8,41.5H108.4z M109.1,64.1l-8.5,15.1h8.3L109.1,64.1z"
			/>
		<rect class="st13" width="242.8" height="171.3"/>
		<g>
			<path class="st14" d="M22.4,136.9c0,0,0-0.1-0.1-0.1l-1.3-1.1c0,0-0.1,0-0.1,0c0,0-0.1,0-0.1,0.1l-0.5,0.6l-3.7-3.2l0.4-0.5
				c0.1-0.1,0-0.2,0-0.2l-1.3-1.1c0,0-0.1,0-0.1,0c0,0-0.1,0-0.1,0.1l-2.9,3.4c-0.1,0.1,0,0.2,0,0.2l6.6,5.7c0,0,0.1,0,0.1,0
				c0,0,0,0,0,0c0,0,0.1,0,0.1-0.1l3-3.5C22.4,136.9,22.4,136.9,22.4,136.9z M15,134.8l0.4-0.5l3.8,3.2l-0.4,0.5L15,134.8z"/>
			<path class="st14" d="M19.1,131.3c-0.1-0.1-0.2,0-0.2,0l-0.8,0.9c-0.1,0.1,0,0.2,0,0.2l1.3,1.1l-0.3,0.4c-0.1,0.1,0,0.2,0,0.2
				l1.2,1c0,0,0.1,0,0.1,0c0,0,0,0,0,0c0,0,0.1,0,0.1-0.1l5.6-6.6c0.1-0.1,0-0.2,0-0.2l-1.2-1c0,0-0.1,0-0.1,0c0,0-0.1,0-0.1,0.1
				l-4.3,5L19.1,131.3z"/>
			<path class="st14" d="M18.2,127.8c0.2,0.3,0.5,0.6,0.8,0.9c0.3,0.3,0.7,0.5,1,0.6c0.3,0.1,0.7,0.2,1,0.2c0,0,0,0,0.1,0
				c0.3,0,0.6-0.1,0.9-0.2c0.3-0.1,0.6-0.3,0.8-0.6c0.2-0.3,0.4-0.6,0.5-0.9c0.1-0.3,0.1-0.7,0-1c-0.1-0.3-0.2-0.7-0.4-1
				c-0.2-0.3-0.4-0.6-0.8-0.9c-0.3-0.3-0.6-0.5-1-0.6c-0.3-0.1-0.7-0.2-1-0.2c0,0,0,0,0,0c-0.3,0-0.7,0.1-1,0.2
				c-0.3,0.1-0.6,0.3-0.8,0.6c-0.2,0.3-0.4,0.6-0.5,0.9c-0.1,0.3-0.1,0.6,0,1C17.9,127.2,18,127.5,18.2,127.8z M19.6,126.9
				c0-0.2,0-0.4,0.2-0.6c0.2-0.2,0.3-0.3,0.6-0.3c0.2,0,0.5,0.1,0.7,0.3c0.2,0.2,0.4,0.4,0.4,0.7c0,0.2,0,0.4-0.2,0.6
				c-0.2,0.2-0.3,0.3-0.6,0.3c-0.2,0-0.5-0.1-0.7-0.3C19.7,127.3,19.6,127.1,19.6,126.9z"/>
			<path class="st14" d="M16.7,129.2c0.1,0.1,0.3,0.2,0.4,0.3l-1.3,1.5c0,0,0,0.1,0,0.1c0,0,0,0.1,0.1,0.1l1.2,1c0,0,0.1,0,0.1,0
				c0,0,0.1,0,0.1-0.1l1.4-1.6c0.3,0.2,0.6,0.4,0.9,0.6c0.3,0.2,0.7,0.4,1,0.7c0.1,0,0.1,0,0.2,0l0.9-1c0,0,0-0.1,0-0.1
				c0,0,0-0.1-0.1-0.1c-0.4-0.2-0.7-0.5-1.1-0.8c-0.4-0.3-0.7-0.5-1.1-0.8c-0.4-0.3-0.7-0.5-1.1-0.8c-0.3-0.3-0.7-0.5-0.9-0.8
				l-1.1-0.9c-0.1-0.1-0.2,0-0.2,0l-0.9,1c-0.1,0.1,0,0.2,0,0.2L16.7,129.2z"/>
			<path class="st14" d="M21.2,135.5c0,0,0,0.1,0.1,0.1l1.2,1.1c0,0,0.1,0,0.1,0c0,0,0.1,0,0.1-0.1l5.5-6.5c0,0,0-0.1,0-0.1
				c0,0,0-0.1-0.1-0.1l-1.2-1.1c-0.1-0.1-0.2,0-0.2,0l-5.5,6.5C21.2,135.4,21.2,135.4,21.2,135.5z"/>
			<path class="st14" d="M34,142.6c0,0,0.1,0,0.1,0c0,0,0.1,0,0.1-0.1l0.9-1.3c0-0.1,0-0.2,0-0.2l-1.5-1l2.9-4.2c0,0,0-0.1,0-0.1
				c0,0,0-0.1-0.1-0.1l-1.4-1c0,0-0.1,0-0.1,0c0,0-0.1,0-0.1,0.1L27,146.1c0,0,0,0.1,0,0.1c0,0,0,0.1,0.1,0.1l1.4,1c0,0,0.1,0,0.1,0
				c0,0,0.1,0,0.1-0.1l3.9-5.6L34,142.6z"/>
			<path class="st14" d="M28.5,143.5C28.6,143.5,28.6,143.5,28.5,143.5c0.1,0,0.2,0,0.2-0.1l0.9-1.2c0,0,0-0.1,0-0.1
				c0,0,0-0.1-0.1-0.1c-0.5-0.2-0.9-0.5-1.4-0.8c-0.4-0.2-0.9-0.5-1.3-0.8l0.9-1.4c0.3,0.1,0.7,0.2,1,0.2c0.4,0,0.8,0,1.1-0.2
				c0.4-0.1,0.7-0.3,1-0.5c0.3-0.2,0.6-0.5,0.8-0.9c0.3-0.4,0.5-0.9,0.6-1.3c0.1-0.5,0.1-0.9,0-1.4c-0.1-0.4-0.3-0.9-0.5-1.3
				c-0.3-0.4-0.6-0.7-1-1c-0.4-0.3-0.9-0.5-1.3-0.6c-0.5-0.1-0.9-0.1-1.4,0c-0.4,0.1-0.9,0.2-1.3,0.5c-0.4,0.3-0.7,0.6-1,1
				c-0.2,0.4-0.4,0.7-0.5,1.1c-0.1,0.4-0.1,0.8-0.1,1.2c0,0.4,0.1,0.8,0.3,1.1c0.1,0.3,0.3,0.6,0.6,0.9l-1,1.4
				c-0.2-0.1-0.4-0.3-0.6-0.4l-2.1-1.5c-0.1,0-0.2,0-0.2,0l-0.9,1.3c0,0.1,0,0.2,0,0.2l1.5,1c0.4,0.3,0.9,0.6,1.4,0.9
				c0.5,0.3,1,0.6,1.5,0.9c0.5,0.3,1,0.6,1.5,0.9C27.6,143,28.1,143.3,28.5,143.5z M27.5,134.8c0.3-0.5,0.7-0.7,1.1-0.8
				c0.1,0,0.2,0,0.3,0c0.3,0,0.6,0.1,0.9,0.3c0.4,0.3,0.6,0.6,0.7,1c0.1,0.4-0.1,0.9-0.4,1.3c-0.3,0.5-0.7,0.7-1.1,0.8
				c-0.4,0.1-0.8,0-1.2-0.3c-0.4-0.3-0.6-0.6-0.7-1C27.1,135.7,27.2,135.3,27.5,134.8z"/>
			<path class="st14" d="M41.1,141.1C41.2,141.1,41.2,141.1,41.1,141.1c0.1,0,0.1,0,0.1,0c0,0,0.1,0,0.1-0.1l0.8-1.4
				c0-0.1,0-0.2-0.1-0.2l-3.8-2.1c-0.1,0-0.2,0-0.2,0.1l-0.8,1.4c0,0,0,0.1,0,0.1c0,0,0,0.1,0.1,0.1L41.1,141.1z"/>
			<path class="st14" d="M46.5,141.3l-1.5-0.9c0,0-0.1,0-0.1,0c0,0-0.1,0-0.1,0.1l-6.8,12.1c0,0,0,0.1,0,0.1c0,0,0,0.1,0.1,0.1
				l1.5,0.9c0,0,0.1,0,0.1,0c0.1,0,0.1,0,0.1-0.1l6.8-12.1C46.6,141.5,46.5,141.4,46.5,141.3z"/>
			<path class="st14" d="M38,149.6l1.7-0.6c0,0,0.1,0,0.1-0.1c0,0,0-0.1,0-0.1c-0.3-0.7-0.5-1.3-0.7-1.9c-0.2-0.6-0.3-1.2-0.4-1.9
				c0.6-0.3,1.1-0.7,1.6-1.2c0.5-0.5,1-1,1.4-1.6c0,0,0-0.1,0-0.1c0,0,0-0.1-0.1-0.1c-0.7-0.4-1.3-0.7-1.9-1l-3.6-2
				c-0.1,0-0.2,0-0.2,0.1l-0.8,1.4c0,0,0,0.1,0,0.1c0,0,0,0.1,0.1,0.1l2.6,1.5c0.3,0.2,0.6,0.3,0.9,0.5c-0.3,0.3-0.6,0.6-1,0.8
				c-0.5,0.3-1.1,0.6-1.7,0.8c-0.6,0.2-1.3,0.4-2,0.5c-0.7,0.1-1.4,0.2-2.2,0.1c0,0-0.1,0-0.1,0.1c0,0,0,0.1,0,0.1l0.4,1.6
				c0,0.1,0.1,0.1,0.2,0.1c0,0,0,0,0,0c0.8,0,1.6-0.1,2.4-0.2c0.7-0.1,1.5-0.3,2.2-0.6c0.1,0.6,0.2,1.2,0.3,1.7
				c0.2,0.6,0.4,1.2,0.7,1.9C37.8,149.6,37.9,149.6,38,149.6C38,149.6,38,149.6,38,149.6z"/>
			<path class="st14" d="M62.8,149.5c0,0,0-0.1-0.1-0.1l-1.7-0.7c-0.1,0-0.1,0-0.2,0.1l-4.6,6.8l-0.1,0.2l1.5-8.4
				c0-0.1,0-0.1-0.1-0.2l-1.9-0.8c-0.1,0-0.1,0-0.2,0.1l-4.7,6.8l-0.1,0.2l1.6-8.4c0-0.1,0-0.1-0.1-0.2l-0.8-0.3
				c0.3-0.2,0.5-0.3,0.8-0.5c0.1,0,0.1-0.1,0.1-0.1c0-0.1,0-0.1-0.1-0.1l-1.3-0.6c0,0-0.1,0-0.1,0c-0.6,0.3-1.2,0.6-1.8,0.9
				c-0.6,0.3-1.1,0.7-1.6,1.2c-0.5,0.4-1,0.9-1.4,1.4c-0.4,0.5-0.8,1.1-1,1.7c-0.3,0.6-0.5,1.2-0.6,1.8c-0.1,0.7-0.2,1.3-0.3,2
				c0,0.7,0,1.3,0.1,2c0.1,0.7,0.2,1.3,0.4,1.9c0,0,0,0.1,0.1,0.1l1.3,0.6c0.1,0,0.1,0,0.2,0c0,0,0.1-0.1,0.1-0.1
				c-0.2-1.6-0.3-2.9-0.1-4.1c0.2-1.2,0.5-2.3,0.9-3.2c0.2-0.5,0.5-0.9,0.8-1.4c0.3-0.5,0.7-0.9,1.1-1.3c0.4-0.4,0.8-0.8,1.3-1.1
				l-1.6,10.6c0,0.1,0,0.1,0.1,0.2l1.8,0.7c0.1,0,0.1,0,0.2-0.1l4.8-6.9l0.1-0.2l-1.5,8.6c0,0.1,0,0.1,0.1,0.2l1.8,0.7
				c0,0,0,0,0.1,0c0,0,0.1,0,0.1-0.1l6.9-9.6C62.8,149.6,62.8,149.5,62.8,149.5z"/>
			<path class="st14" d="M72.5,155.7c-0.3-0.3-0.7-0.5-1.1-0.6c-0.4-0.1-0.9-0.2-1.3-0.1c-0.3,0-0.6,0.1-0.9,0.3l1.2-4.2
				c0,0,0-0.1,0-0.1c0,0-0.1-0.1-0.1-0.1l-1.7-0.5c-0.1,0-0.2,0-0.2,0.1l-1.6,5.3c0-0.3-0.1-0.6-0.2-0.9c-0.3-0.9-1.1-1.6-2.2-2
				c-0.6-0.2-1.1-0.3-1.7-0.2c-0.5,0.1-1,0.2-1.5,0.5c-0.5,0.3-0.9,0.6-1.2,1.1c-0.4,0.5-0.7,1-0.9,1.7c-0.2,0.7-0.3,1.3-0.3,1.9
				c0,0.6,0.1,1.1,0.3,1.6c0.2,0.5,0.5,0.9,0.9,1.3c0.4,0.4,0.9,0.6,1.4,0.8c0.6,0.2,1.3,0.3,1.9,0.3c0.6,0,1.1-0.1,1.5-0.4
				c0,0,0.1,0,0.1-0.1l0.5-1.4c0-0.1,0-0.2-0.1-0.3c-0.1-0.1-0.2-0.1-0.3-0.1c-0.4,0.2-0.9,0.3-1.4,0.4c-0.5,0.1-0.9,0-1.4-0.2
				c-0.6-0.2-1-0.5-1.3-1c-0.2-0.5-0.3-1-0.1-1.7l5,1.7l-1,3.5c0,0,0,0.1,0,0.1c0,0,0.1,0.1,0.1,0.1l1.6,0.5c0.1,0,0.2,0,0.2-0.1
				l0.2-0.5c0.1,0.3,0.3,0.5,0.5,0.7c0.3,0.3,0.7,0.5,1.1,0.6c0.3,0.1,0.7,0.1,1,0.1c0.1,0,0.3,0,0.4,0c0.5-0.1,0.9-0.2,1.4-0.5
				c0.4-0.3,0.8-0.7,1.1-1.2c0.3-0.5,0.6-1.1,0.8-1.9c0.2-0.7,0.3-1.3,0.3-1.9c0-0.6-0.1-1.1-0.3-1.5
				C73.1,156.3,72.8,155.9,72.5,155.7z M71.2,159.6c-0.3,0.9-0.6,1.6-1.1,2c-0.4,0.4-0.9,0.5-1.4,0.3c-0.5-0.1-0.8-0.4-1-0.8
				c-0.2-0.4-0.2-0.9,0-1.5l0.4-1.3c0.1-0.3,0.2-0.6,0.4-0.8c0.2-0.2,0.4-0.4,0.6-0.6c0.2-0.1,0.4-0.2,0.7-0.3c0.1,0,0.2,0,0.3,0
				c0.1,0,0.3,0,0.4,0.1c0.4,0.1,0.7,0.4,0.9,0.9C71.5,158.1,71.5,158.7,71.2,159.6z M61.5,155.5c0.3-0.4,0.6-0.8,1-1
				c0.4-0.2,0.8-0.2,1.3-0.1c0.5,0.2,0.8,0.4,0.9,0.8c0.1,0.4,0.1,0.8,0,1.3L61.5,155.5z"/>
			<path class="st14" d="M87.1,156c0,0-0.1-0.1-0.1-0.1l-1.8-0.4c-0.1,0-0.1,0-0.2,0.1l-3.4,7.5l-0.1,0.3l0.1-8.5
				c0-0.1,0-0.1-0.1-0.2l-2-0.5c-0.1,0-0.1,0-0.2,0.1l-3.5,7.5l-0.1,0.3l0.2-8.5c0-0.1,0-0.1-0.1-0.2l-1.8-0.4c0,0-0.1,0-0.1,0
				c0,0-0.1,0.1-0.1,0.1l0.1,11.9c0,0.1,0.1,0.1,0.1,0.1l1.9,0.4c0.1,0,0.1,0,0.2-0.1l3.6-7.6l0.1-0.3l-0.1,8.7c0,0.1,0,0.1,0.1,0.2
				l1.9,0.4c0,0,0,0,0,0c0.1,0,0.1,0,0.1-0.1l5.3-10.6C87.2,156.1,87.2,156.1,87.1,156z"/>
			<path class="st14" d="M107.4,170.5c0.1,0,0.1-0.1,0.2-0.1l0.5-5.2c0.1-1.2-0.1-2.1-0.5-2.7c-0.4-0.6-1.1-1-2.1-1.1
				c-0.5,0-1,0-1.4,0.3c-0.3,0.1-0.6,0.3-0.8,0.5l0.4-4.5c0,0,0-0.1,0-0.1c0,0-0.1-0.1-0.1-0.1l-1.8-0.2c-0.1,0-0.2,0.1-0.2,0.1
				l-0.4,4.1c-0.2-0.2-0.5-0.3-0.7-0.5c-0.4-0.2-0.9-0.3-1.3-0.4c-0.6-0.1-1.2,0-1.8,0.1c-0.5,0.1-1,0.4-1.4,0.7l0.1-0.8
				c0,0,0-0.1,0-0.1s-0.1-0.1-0.1-0.1l-1.8-0.3l0.3-1.8c0,0,0-0.1,0-0.1c0,0-0.1-0.1-0.1-0.1l-1.7-0.3c-0.1,0-0.2,0-0.2,0.1
				l-0.3,1.8l-1.1-0.2c0,0-0.1,0-0.1,0c0,0-0.1,0.1-0.1,0.1l0,0.1c-0.4-0.5-1-0.8-1.9-0.9c-0.6-0.1-1.2-0.1-1.8,0
				c-0.5,0.1-1.1,0.3-1.6,0.5c0,0-0.1,0.1-0.1,0.1l-0.3,1.6c0,0.1,0,0.2,0.1,0.3c0.1,0.1,0.2,0.1,0.3,0c0.5-0.3,1-0.5,1.5-0.6
				c0.4-0.1,0.9-0.1,1.3,0c0.4,0.1,0.7,0.2,0.8,0.4c0.1,0.2,0.1,0.6,0.1,1l-2.1,0c-0.9,0-1.7,0.2-2.3,0.6c-0.6,0.4-1,1.1-1.1,1.9
				c-0.1,0.8,0,1.5,0.4,2.1c0.4,0.5,1,0.9,1.9,1.1c0.5,0.1,1,0.1,1.5-0.1c0.3-0.1,0.6-0.3,0.9-0.5l-0.1,0.7c0,0.1,0,0.2,0.1,0.2
				l1.5,0.3c0.1,0,0.2,0,0.2-0.1l1-5.6c0.1-0.4,0.1-0.8,0.1-1.2l0.5,0.1l-0.7,4.8c-0.1,0.8,0,1.4,0.3,1.8c0.3,0.4,0.8,0.7,1.6,0.8
				c0.3,0,0.7,0.1,1,0c0.3,0,0.6-0.1,0.9-0.3c0,0,0.1-0.1,0.1-0.1l0.1-0.5c0,0,0.1,0.1,0.1,0.1c0.3,0.4,0.7,0.8,1.2,1
				c0.5,0.3,1.1,0.4,1.7,0.5c0.5,0.1,1,0.1,1.4,0c0.3-0.1,0.7-0.2,1-0.4l0,0.4c0,0.1,0.1,0.2,0.1,0.2l1.8,0.2c0.1,0,0.2-0.1,0.2-0.1
				l0.4-4.6c0-0.4,0.1-0.7,0.2-1c0.1-0.3,0.3-0.5,0.4-0.7c0.2-0.2,0.4-0.3,0.6-0.4c0.2-0.1,0.4-0.1,0.7-0.1c0.4,0,0.7,0.2,0.9,0.4
				c0.2,0.3,0.3,0.7,0.2,1.4l-0.5,5.3c0,0,0,0.1,0,0.1s0.1,0.1,0.1,0.1L107.4,170.5C107.4,170.5,107.4,170.5,107.4,170.5z
				 M98.4,167.9c-0.7-0.1-1.3-0.4-1.5-0.9c-0.3-0.5-0.4-1.2-0.3-2.1c0-0.4,0.1-0.8,0.3-1.1c0.1-0.3,0.3-0.6,0.5-0.8
				c0.2-0.2,0.4-0.4,0.7-0.5c0.2-0.1,0.4-0.1,0.6-0.1c0.1,0,0.2,0,0.3,0c0.4,0.1,0.8,0.2,1.1,0.4c0.3,0.2,0.6,0.5,0.8,0.8
				c0,0,0,0,0,0.1l-0.3,3.3c0,0-0.1,0-0.1,0.1c-0.3,0.3-0.7,0.6-1,0.7C99.2,168,98.8,168,98.4,167.9z M94.5,166.7
				c0,0.2,0.1,0.3,0.1,0.4c-0.1,0.1-0.2,0.1-0.3,0.1c-0.2,0-0.4,0-0.6,0c-0.2,0-0.3-0.1-0.4-0.2c-0.1-0.1-0.1-0.3,0-0.5l0.7-4.6
				l1.4,0.2c-0.2,0.2-0.4,0.5-0.5,0.8c-0.3,0.5-0.4,1.2-0.5,1.9C94.3,165.5,94.4,166.1,94.5,166.7z M86,165c0.1-0.4,0.2-0.7,0.5-0.9
				c0.3-0.2,0.6-0.3,1-0.3c0,0,0.1,0,0.1,0l1.6,0l-0.1,0.7c0,0.2-0.1,0.4-0.3,0.6c-0.1,0.2-0.3,0.4-0.5,0.5
				c-0.2,0.1-0.4,0.3-0.7,0.3c-0.2,0.1-0.5,0.1-0.7,0c-0.3-0.1-0.6-0.2-0.7-0.4C85.9,165.6,85.9,165.3,86,165z"/>
			<path class="st14" d="M111.4,161.3C111.4,161.3,111.4,161.3,111.4,161.3c-0.2-0.6-0.5-1.2-0.8-1.8c-0.3-0.6-0.7-1.1-1.1-1.7
				c0,0-0.1-0.1-0.1-0.1l-1.4-0.1c-0.1,0-0.1,0-0.1,0.1s0,0.1,0,0.2c0.4,0.7,0.8,1.3,1.1,2c0.3,0.6,0.5,1.2,0.7,1.8
				c0.2,0.6,0.3,1.2,0.3,1.7c0,0.6,0.1,1.1,0,1.6c-0.1,1-0.3,2.1-0.7,3.3c-0.4,1.1-1.1,2.3-2.1,3.6c0,0,0,0.1,0,0.2
				c0,0.1,0.1,0.1,0.1,0.1l1.4,0.1c0,0,0,0,0,0c0,0,0.1,0,0.1,0c0.4-0.4,0.8-0.9,1.2-1.5c0.4-0.5,0.7-1.1,1-1.7
				c0.3-0.6,0.5-1.2,0.7-1.9c0.2-0.6,0.3-1.3,0.3-1.9c0-0.7,0-1.3-0.1-2C111.8,162.5,111.7,161.9,111.4,161.3z"/>
			<path class="st14" d="M129.6,164.9c0-2.1-0.4-3.7-1.1-4.6c-0.7-1-1.6-1.5-2.9-1.4c-1.2,0-2.2,0.5-2.8,1.6
				c-0.2,0.4-0.4,0.8-0.6,1.3c-0.1-0.8-0.4-1.5-0.9-2c-0.6-0.5-1.5-0.8-2.6-0.8c-0.6,0-1.2,0.1-1.8,0.3c-0.6,0.2-1.1,0.6-1.5,0.9
				c0,0,0,0.1-0.1,0.1l0,1.5c0,0.2,0.1,0.2,0.1,0.3c0,0,0.2,0.1,0.3-0.1c0.5-0.4,0.9-0.8,1.4-1c0.5-0.2,0.9-0.3,1.4-0.3
				c0.5,0,0.9,0.2,1.1,0.4c0.2,0.3,0.4,0.6,0.3,1.1c0,0.2,0,0.4-0.1,0.7c0,0.2-0.1,0.5-0.3,0.7c-0.1,0.3-0.3,0.5-0.5,0.9
				c-0.2,0.3-0.5,0.7-0.8,1l-3.4,3.8c0,0,0,0.1,0,0.1l0,1.4c0,0.1,0.1,0.2,0.2,0.2l7,0.1c0,0,0,0,0,0c0,0,0.1,0,0.1,0
				c0,0,0-0.1,0-0.1l0-1.5c0-0.1-0.1-0.2-0.2-0.2l-4.6-0.1l2.5-2.7c0.3-0.3,0.6-0.6,0.8-1c0.3-0.3,0.5-0.7,0.7-1
				c0.1-0.2,0.2-0.4,0.3-0.7c0,0.4,0,0.9,0,1.4c0,2.1,0.4,3.7,1.1,4.6c0.7,1,1.6,1.4,2.8,1.4c0,0,0.1,0,0.1,0c1.2,0,2.2-0.5,2.8-1.6
				C129.3,168.6,129.6,167,129.6,164.9z M124.5,168.4c-0.3-0.7-0.5-1.8-0.6-3.4c0-1.6,0.1-2.7,0.4-3.4c0.3-0.7,0.7-1,1.2-1
				c0,0,0,0,0,0c0.5,0,0.9,0.3,1.3,1c0.3,0.7,0.5,1.8,0.6,3.4c0,1.6-0.1,2.7-0.4,3.4c-0.3,0.7-0.7,1-1.2,1
				C125.3,169.3,124.8,169,124.5,168.4z"/>
			<path class="st14" d="M136.7,168.6c0,0-0.1,0-0.1,0l-4.6,0.3l2.3-2.9c0.3-0.3,0.5-0.7,0.8-1c0.2-0.3,0.5-0.7,0.6-1.1
				c0.2-0.4,0.3-0.7,0.4-1.1c0.1-0.4,0.1-0.7,0.1-1.1c-0.1-1.1-0.4-1.9-1.1-2.4c-0.6-0.5-1.5-0.7-2.6-0.7c-0.6,0-1.2,0.2-1.8,0.5
				c-0.5,0.3-1,0.6-1.4,1.1c0,0,0,0.1,0,0.1l0.1,1.5c0,0.2,0.1,0.2,0.2,0.2c0,0,0.2,0.1,0.3-0.1c0.4-0.5,0.9-0.8,1.3-1.1
				c0.4-0.2,0.9-0.4,1.4-0.4c0.5,0,0.9,0.1,1.1,0.3c0.3,0.3,0.4,0.6,0.4,1.1c0,0.2,0,0.4,0,0.7c0,0.2-0.1,0.5-0.2,0.7
				c-0.1,0.3-0.3,0.6-0.5,0.9c-0.2,0.3-0.5,0.7-0.8,1.1l-3.1,4c0,0,0,0.1,0,0.1l0.1,1.4c0,0.1,0.1,0.1,0.2,0.1c0,0,0,0,0,0l7-0.4
				c0.1,0,0.2-0.1,0.1-0.2l-0.1-1.5C136.7,168.7,136.7,168.7,136.7,168.6z"/>
			<path class="st14" d="M140.6,158.1l-1.8,0.2c0,0-0.1,0-0.1,0.1c-0.2,0.4-0.5,0.7-0.8,1c-0.3,0.3-0.6,0.6-1,0.8
				c-0.1,0-0.1,0.1-0.1,0.1l0.1,1.1c0,0.1,0.1,0.2,0.1,0.2c0.1,0,0.1,0,0.3,0c0.3-0.1,0.6-0.3,0.9-0.5c0.2-0.2,0.4-0.3,0.6-0.5
				l0.9,9.4c0,0.1,0.1,0.1,0.2,0.1c0,0,0,0,0,0l1.8-0.2c0,0,0.1,0,0.1-0.1c0,0,0-0.1,0-0.1l-1.1-11.5
				C140.8,158.2,140.7,158.1,140.6,158.1z"/>
			<path class="st14" d="M146.3,167.3C146.3,167.3,146.3,167.3,146.3,167.3c-0.3-0.2-0.6-0.3-1-0.3c-0.4,0-0.7,0.2-0.9,0.5
				c-0.2,0.3-0.3,0.6-0.3,1c0,0.4,0.2,0.7,0.5,0.9c0.2,0.2,0.5,0.3,0.8,0.3c0.1,0,0.1,0,0.2,0c0.4,0,0.7-0.2,0.9-0.5
				c0.2-0.3,0.3-0.6,0.3-1C146.7,167.8,146.5,167.5,146.3,167.3z"/>
			<path class="st14" d="M150.3,156.9l-1.8,0.3c0,0-0.1,0-0.1,0.1c-0.2,0.4-0.5,0.7-0.8,1c-0.3,0.3-0.6,0.6-1,0.8
				c-0.1,0-0.1,0.1-0.1,0.2l0.2,1.1c0,0.1,0.1,0.2,0.2,0.2c0.1,0,0.1,0,0.3,0c0.3-0.2,0.6-0.4,0.9-0.6c0.2-0.2,0.4-0.3,0.6-0.5
				l1.4,9.3c0,0,0,0.1,0.1,0.1c0,0,0.1,0,0.1,0c0,0,0,0,0,0l1.8-0.3c0.1,0,0.1-0.1,0.1-0.2l-1.7-11.4
				C150.5,156.9,150.4,156.8,150.3,156.9z"/>
			<path class="st14" d="M161.2,165.1l-4.6,0.9l1.9-3.2c0.2-0.4,0.4-0.7,0.6-1.1c0.2-0.4,0.4-0.8,0.5-1.1c0.1-0.4,0.2-0.8,0.3-1.1
				c0-0.4,0-0.8,0-1.1c-0.2-1.1-0.7-1.8-1.4-2.2c-0.7-0.4-1.6-0.5-2.7-0.3c-0.6,0.1-1.2,0.4-1.7,0.7c-0.5,0.3-0.9,0.8-1.3,1.2
				c0,0,0,0.1,0,0.1l0.3,1.4c0,0.2,0.1,0.2,0.2,0.2c0,0,0.2,0,0.3-0.1c0.4-0.5,0.8-1,1.2-1.2c0.4-0.3,0.8-0.5,1.3-0.6
				c0.5-0.1,0.9,0,1.2,0.2c0.3,0.2,0.5,0.6,0.6,1c0,0.2,0.1,0.4,0.1,0.7c0,0.2,0,0.5-0.1,0.8c-0.1,0.3-0.2,0.6-0.3,0.9
				c-0.2,0.3-0.4,0.7-0.6,1.2l-2.6,4.4c0,0,0,0.1,0,0.1l0.3,1.4c0,0,0,0.1,0.1,0.1c0,0,0.1,0,0.1,0c0,0,0,0,0,0l6.9-1.3
				c0,0,0.1,0,0.1-0.1s0-0.1,0-0.1l-0.3-1.5C161.4,165.1,161.3,165.1,161.2,165.1z"/>
			<path class="st14" d="M163.6,164.2C163.6,164.2,163.6,164.2,163.6,164.2c-0.3-0.2-0.7-0.3-1.1-0.2c-0.4,0.1-0.7,0.3-0.9,0.6
				c-0.2,0.3-0.3,0.7-0.2,1c0.1,0.4,0.3,0.6,0.6,0.9c0.2,0.1,0.5,0.2,0.7,0.2c0.1,0,0.2,0,0.3,0c0.4-0.1,0.7-0.3,0.9-0.6
				c0.2-0.3,0.3-0.7,0.2-1C164.1,164.7,163.9,164.5,163.6,164.2z"/>
			<path class="st14" d="M170.5,158.9L170.5,158.9c-0.3-0.4-0.6-0.8-1-1.1c-0.4-0.3-0.8-0.5-1.2-0.5c-0.5-0.1-0.9-0.1-1.4,0.1
				c-0.5,0.1-0.9,0.3-1.3,0.7c-0.3,0.2-0.5,0.5-0.6,0.8c0-0.4,0-0.7,0-1c0.1-0.5,0.2-0.9,0.3-1.3c0.2-0.4,0.4-0.7,0.6-0.9
				c0.3-0.2,0.5-0.4,0.9-0.5c0.4-0.1,0.8-0.1,1.1-0.1c0.3,0,0.6,0.1,0.9,0.2c0.1,0.1,0.2,0,0.3,0c0.1-0.1,0.1-0.2,0.1-0.3l-0.3-1.4
				c0-0.1-0.1-0.1-0.1-0.1c-0.3-0.1-0.7-0.2-1.1-0.2c-0.4,0-0.9,0-1.3,0.2c-0.7,0.2-1.3,0.5-1.7,0.9c-0.5,0.5-0.8,1-1.1,1.7
				c-0.2,0.7-0.4,1.4-0.4,2.3c0,0.9,0.1,1.8,0.4,2.8c0.2,0.8,0.4,1.5,0.7,2c0.3,0.6,0.7,1.1,1.1,1.5c0.4,0.4,0.9,0.7,1.4,0.8
				c0.2,0.1,0.5,0.1,0.8,0.1c0.3,0,0.7,0,1-0.1c0.5-0.1,1-0.4,1.4-0.7c0.4-0.3,0.7-0.7,0.9-1.1c0.2-0.4,0.4-0.9,0.4-1.5
				c0.1-0.5,0-1.1-0.1-1.7C170.9,159.8,170.7,159.3,170.5,158.9z M169.2,161.9c0,0.3-0.1,0.6-0.2,0.8c-0.1,0.2-0.2,0.4-0.4,0.6
				c-0.2,0.2-0.4,0.3-0.7,0.3c-0.2,0.1-0.5,0.1-0.7,0c-0.2-0.1-0.5-0.2-0.7-0.3c-0.2-0.2-0.4-0.4-0.6-0.6c-0.2-0.2-0.3-0.5-0.4-0.8
				c-0.1-0.7-0.1-1.3,0.1-1.8c0.2-0.5,0.5-0.8,1.1-0.9c0.2,0,0.3-0.1,0.5-0.1c0.3,0,0.6,0.1,0.8,0.3c0.4,0.3,0.7,0.8,0.8,1.6
				C169.2,161.3,169.2,161.6,169.2,161.9z"/>
			<path class="st14" d="M177.1,155c0-0.2-0.2-0.2-0.3-0.2c-0.1,0-0.2,0-0.3,0.3c-0.1,0.3-0.2,0.6-0.3,0.9c-0.2,0.2-0.4,0.4-0.7,0.5
				c-0.2,0.1-0.4,0.1-0.5,0c-0.2,0-0.4-0.1-0.7-0.2c-0.6-0.3-1.2-0.3-1.9-0.1c-0.4,0.1-0.7,0.3-1,0.6c-0.3,0.3-0.5,0.7-0.6,1.1
				c0,0,0,0.1,0,0.1l0.4,1.5c0,0.1,0.1,0.2,0.3,0.2c0,0,0,0,0,0c0.1,0,0.2,0,0.3-0.3c0-0.3,0.2-0.6,0.3-0.9c0.2-0.3,0.4-0.4,0.7-0.5
				c0.2-0.1,0.4-0.1,0.5,0c0.2,0,0.4,0.1,0.7,0.3c0.3,0.1,0.6,0.2,0.9,0.2c0.3,0,0.6,0,1-0.1c0.4-0.1,0.7-0.3,1-0.6
				c0.3-0.3,0.5-0.7,0.6-1.1c0,0,0-0.1,0-0.1L177.1,155z"/>
			<path class="st14" d="M189.3,147.2C189.3,147.2,189.3,147.2,189.3,147.2c-1-0.7-2.1-0.8-3.2-0.3c-1.1,0.5-1.8,1.3-2.1,2.5
				c-0.1,0.5-0.1,1,0,1.6c-0.4-0.8-0.9-1.4-1.6-1.7c-0.8-0.3-1.7-0.3-2.7,0.1c-0.6,0.2-1.1,0.5-1.6,0.9c-0.4,0.4-0.8,0.9-1.1,1.4
				c0,0,0,0.1,0,0.1l0.5,1.4c0.1,0.2,0.2,0.2,0.2,0.2c0,0,0.2,0,0.3-0.2c0.3-0.6,0.6-1.1,1-1.4c0.4-0.4,0.8-0.6,1.2-0.8
				c0.5-0.2,0.9-0.2,1.2,0c0.3,0.2,0.6,0.5,0.7,0.9c0.1,0.2,0.1,0.4,0.2,0.7c0,0.2,0,0.5,0,0.8c0,0.3-0.1,0.6-0.2,1
				c-0.1,0.4-0.2,0.8-0.4,1.3l-1.9,4.7c0,0,0,0.1,0,0.1l0.5,1.3c0,0.1,0.1,0.1,0.1,0.1c0,0,0,0,0.1,0l6.6-2.3c0,0,0.1,0,0.1-0.1
				c0,0,0-0.1,0-0.1l-0.5-1.4c0-0.1-0.1-0.1-0.2-0.1l-4.4,1.5l1.4-3.4c0.2-0.4,0.3-0.8,0.4-1.2c0.1-0.4,0.2-0.8,0.3-1.2
				c0.1-0.3,0.1-0.7,0.1-1c0.1,0.5,0.3,1,0.5,1.5c0.8,2,1.7,3.3,2.7,3.9c0.6,0.4,1.2,0.6,1.8,0.6c0.4,0,0.9-0.1,1.4-0.3
				c1.1-0.5,1.8-1.3,2.1-2.5c0.2-1.1,0-2.7-0.8-4.7C191.1,149.2,190.2,147.9,189.3,147.2z M190.8,155.2c0,0.7-0.3,1.2-0.8,1.4
				c-0.5,0.2-1,0.1-1.5-0.4c-0.6-0.5-1.1-1.5-1.7-2.9c-0.6-1.4-0.9-2.6-0.8-3.3c0-0.7,0.3-1.2,0.8-1.4c0.1-0.1,0.3-0.1,0.4-0.1
				c0.4,0,0.7,0.2,1.1,0.5c0.6,0.5,1.1,1.5,1.7,2.9C190.6,153.4,190.9,154.5,190.8,155.2z"/>
			<path class="st14" d="M200,152.1C200,152,200,152,200,152.1c-0.1-0.1-0.2-0.1-0.2-0.1l-4.2,1.9l1.1-3.6c0.1-0.4,0.2-0.8,0.3-1.2
				c0.1-0.4,0.2-0.8,0.2-1.2c0-0.4,0-0.8,0-1.2c-0.1-0.4-0.2-0.7-0.3-1.1c-0.5-1-1.1-1.6-1.9-1.9c-0.8-0.2-1.7-0.1-2.7,0.3
				c-0.6,0.3-1.1,0.6-1.5,1.1c-0.4,0.5-0.7,1-0.9,1.5c0,0,0,0.1,0,0.1l0.6,1.3c0.1,0.1,0.2,0.2,0.2,0.2c0.1,0,0.2,0,0.3-0.2
				c0.2-0.6,0.5-1.1,0.8-1.5c0.3-0.4,0.7-0.7,1.1-0.9c0.5-0.2,0.9-0.2,1.2-0.1c0.3,0.2,0.6,0.4,0.8,0.8c0.1,0.2,0.2,0.4,0.2,0.6
				c0.1,0.2,0.1,0.5,0.1,0.8c0,0.3,0,0.6-0.1,1c-0.1,0.4-0.2,0.8-0.3,1.3l-1.4,4.9c0,0,0,0.1,0,0.1l0.6,1.3c0,0,0,0.1,0.1,0.1
				c0,0,0,0,0.1,0c0,0,0,0,0.1,0l6.3-2.9c0.1,0,0.1-0.1,0.1-0.2L200,152.1z"/>
			<path class="st14" d="M206.6,148.6c0-0.1-0.1-0.1-0.2-0.1l-4.1,2.2l0.9-3.6c0.1-0.4,0.2-0.8,0.3-1.3c0.1-0.4,0.1-0.8,0.1-1.2
				c0-0.4,0-0.8-0.1-1.2c-0.1-0.4-0.2-0.7-0.4-1.1c-0.5-1-1.2-1.6-2-1.8c-0.8-0.2-1.7,0-2.7,0.5c-0.6,0.3-1,0.7-1.4,1.2
				c-0.4,0.5-0.7,1-0.9,1.5c0,0,0,0.1,0,0.1l0.7,1.3c0.1,0.1,0.2,0.2,0.2,0.2c0.1,0,0.2,0,0.2-0.2c0.2-0.6,0.5-1.1,0.8-1.5
				c0.3-0.4,0.7-0.7,1.1-0.9c0.5-0.2,0.9-0.3,1.2-0.2c0.3,0.1,0.6,0.4,0.8,0.8c0.1,0.2,0.2,0.4,0.3,0.6c0.1,0.2,0.1,0.5,0.1,0.8
				c0,0.3,0,0.6-0.1,1c0,0.4-0.1,0.8-0.3,1.3l-1.2,4.9c0,0,0,0.1,0,0.1l0.7,1.2c0,0,0.1,0.1,0.1,0.1c0,0,0,0,0,0c0,0,0,0,0.1,0
				l6.2-3.3c0,0,0.1-0.1,0.1-0.1c0,0,0-0.1,0-0.1L206.6,148.6z"/>
			<path class="st14" d="M208.4,147c-0.4-0.1-0.7-0.1-1.1,0.1c-0.3,0.2-0.5,0.5-0.6,0.8c-0.1,0.4,0,0.7,0.1,1
				c0.2,0.3,0.5,0.5,0.8,0.6c0.1,0,0.2,0.1,0.4,0.1c0.2,0,0.5-0.1,0.7-0.2c0.3-0.2,0.6-0.5,0.7-0.8c0.1-0.4,0-0.7-0.1-1
				C209,147.3,208.7,147.1,208.4,147z"/>
			<path class="st14" d="M208.2,135.9c0-0.1-0.1-0.1-0.2,0l-1.5,0.9c0,0-0.1,0.1-0.1,0.1c0,0.4-0.1,0.9-0.3,1.3
				c-0.1,0.4-0.3,0.8-0.6,1.1c0,0.1,0,0.1,0,0.2l0.6,0.9c0.1,0.1,0.1,0.2,0.2,0.2c0,0,0,0,0,0c0.1,0,0.1,0,0.2-0.1
				c0.2-0.3,0.4-0.6,0.6-0.9c0.1-0.2,0.3-0.5,0.4-0.7l5,8c0,0,0.1,0.1,0.1,0.1c0,0,0,0,0,0c0,0,0.1,0,0.1,0l1.5-0.9
				c0.1,0,0.1-0.1,0-0.2L208.2,135.9z"/>
			<path class="st14" d="M221.5,138.8c0,0-0.1-0.1-0.1-0.1c0,0-0.1,0-0.1,0l-3.8,2.7l0.4-3.7c0-0.4,0.1-0.9,0.1-1.3
				c0-0.4,0-0.8,0-1.2c0-0.4-0.1-0.8-0.2-1.1c-0.1-0.4-0.3-0.7-0.5-1c-0.6-0.9-1.4-1.4-2.2-1.5c-0.8-0.1-1.7,0.2-2.6,0.8
				c-0.5,0.4-0.9,0.8-1.2,1.3c-0.3,0.5-0.5,1.1-0.6,1.6c0,0,0,0.1,0,0.1l0.9,1.2c0.1,0.1,0.2,0.1,0.3,0.1c0.1,0,0.2,0,0.2-0.2
				c0.1-0.6,0.3-1.2,0.5-1.6c0.2-0.4,0.6-0.8,0.9-1.1c0.4-0.3,0.8-0.4,1.2-0.3c0.4,0.1,0.7,0.3,0.9,0.7c0.1,0.2,0.2,0.4,0.3,0.6
				c0.1,0.2,0.2,0.5,0.2,0.7c0,0.3,0.1,0.6,0.1,1c0,0.4,0,0.8-0.1,1.3l-0.5,5c0,0,0,0.1,0,0.1l0.8,1.1c0,0,0.1,0.1,0.1,0.1
				c0,0,0.1,0,0.1,0l5.7-4.1c0.1,0,0.1-0.1,0-0.2L221.5,138.8z"/>
			<path class="st14" d="M223.1,137C223.1,137,223.1,137,223.1,137c-0.4-0.1-0.7,0-1,0.3c-0.3,0.2-0.5,0.6-0.5,0.9
				c0,0.4,0.1,0.7,0.3,1c0.2,0.3,0.5,0.5,0.9,0.5c0.1,0,0.1,0,0.2,0c0.3,0,0.6-0.1,0.8-0.3c0.3-0.2,0.5-0.6,0.5-0.9
				c0-0.4-0.1-0.7-0.3-1C223.8,137.2,223.5,137,223.1,137z"/>
			<path class="st14" d="M229,131.6c-0.2-0.5-0.5-1-0.8-1.4c-0.3-0.4-0.7-0.7-1.2-0.9c-0.4-0.2-0.9-0.3-1.3-0.3
				c-0.5,0-0.9,0.1-1.4,0.3c-0.5,0.2-0.9,0.5-1.4,0.9c-0.2,0.2-0.4,0.3-0.5,0.5c-0.1,0.1-0.2,0.2-0.3,0.4l-1.6-2l3.2-2.8
				c0,0,0.1-0.1,0.1-0.1c0,0,0-0.1,0-0.1l-1-1.1c-0.1-0.1-0.2-0.1-0.2,0l-4.5,3.9c-0.1,0.1-0.1,0.1,0,0.2l3.7,4.8
				c0,0,0.1,0.1,0.1,0.1c0,0,0,0,0,0c0.1,0,0.1,0,0.1-0.1c0.5-0.7,1-1.3,1.6-1.8c0.6-0.5,1.2-0.8,1.7-0.8c0.6,0,1,0.2,1.4,0.7
				c0.2,0.2,0.4,0.5,0.5,0.8c0.1,0.3,0.1,0.5,0.1,0.8c0,0.3-0.1,0.5-0.2,0.8c-0.1,0.2-0.3,0.5-0.5,0.7c-0.4,0.4-0.9,0.7-1.3,0.9
				c-0.4,0.2-1,0.3-1.5,0.3c-0.1,0-0.2,0.1-0.3,0.2c0,0.1,0,0.2,0.1,0.3l0.9,1c0,0,0.1,0.1,0.1,0.1c0,0,0,0,0,0
				c0.6,0,1.2-0.2,1.7-0.4c0.5-0.2,1-0.6,1.5-1c0.5-0.4,0.8-0.9,1.1-1.4c0.2-0.5,0.4-1,0.4-1.5C229.3,132.6,229.2,132.1,229,131.6z"
				/>
		</g>
	</g>
</g>
</svg>
